<svg width="610" height="200" viewBox="0 0 610 200" fill="none" xmlns="http://www.w3.org/2000/svg">
<path d="M3.552 38H15.36C26.448 38 34.32 31.136 34.32 21.488C34.32 11.84 26.448 5.024 15.36 5.024H3.552V38ZM10.608 31.568V11.456H16.272C22.56 11.456 27.024 15.632 27.024 21.488C27.024 27.392 22.56 31.568 16.272 31.568H10.608ZM43.0916 9.776C45.1556 9.776 46.8356 8.048 46.8356 5.936C46.8356 3.968 45.1556 2.192 43.0916 2.192C40.9316 2.192 39.2516 3.968 39.2516 5.936C39.2516 8.048 40.9316 9.776 43.0916 9.776ZM39.5396 38H46.5476V13.184H39.5396V38ZM70.6178 13.184V16.544C68.9378 14.192 65.7698 12.608 62.4098 12.608C56.1698 12.608 51.4178 17.456 51.4178 24.368C51.4178 31.28 56.1698 36.176 62.4098 36.176C65.6738 36.176 68.6498 34.736 70.6178 32.336V35.072C70.6178 38.288 67.7378 40.352 63.2258 40.352C60.3458 40.352 57.4658 39.44 55.8338 38L53.3858 42.944C55.8338 44.864 59.9618 46.256 64.3298 46.256C72.1538 46.256 77.6738 41.744 77.6738 35.36V13.184H70.6178ZM64.6178 30.272C61.1138 30.272 58.6178 27.824 58.6178 24.368C58.6178 20.912 61.1138 18.512 64.6178 18.512C68.1218 18.512 70.6178 20.912 70.6178 24.368C70.6178 27.824 68.1218 30.272 64.6178 30.272ZM87.3416 9.776C89.4056 9.776 91.0856 8.048 91.0856 5.936C91.0856 3.968 89.4056 2.192 87.3416 2.192C85.1816 2.192 83.5016 3.968 83.5016 5.936C83.5016 8.048 85.1816 9.776 87.3416 9.776ZM83.7896 38H90.7976V13.184H83.7896V38ZM109.972 31.856C109.492 32.336 108.532 32.672 107.572 32.672C106.276 32.672 105.22 31.52 105.22 29.888V18.848H110.596V13.184H105.22V6.368H98.4998V13.184H95.0918V18.848H98.4998V30.992C98.4998 35.456 101.572 38.576 105.94 38.576C107.956 38.576 110.212 37.712 111.652 36.416L109.972 31.856ZM127.129 12.608C123.673 12.608 120.265 13.568 116.761 15.344L119.113 20C121.081 18.992 123.241 18.224 125.545 18.224C129.625 18.224 131.257 20.528 131.257 23.168V23.648C129.145 22.832 126.937 22.4 124.921 22.4C119.161 22.4 114.601 25.76 114.601 30.656C114.601 35.408 118.681 38.576 123.961 38.576C126.649 38.576 129.481 37.52 131.257 35.504V38H138.025V23.168C138.025 16.688 133.609 12.608 127.129 12.608ZM125.545 33.728C123.145 33.728 121.369 32.48 121.369 30.464C121.369 28.448 123.385 26.96 125.929 26.96C127.849 26.96 129.673 27.296 131.257 27.872V30.176C130.777 32.48 128.233 33.728 125.545 33.728ZM143.931 38H150.939V4.448H143.931V38ZM170.943 38H188.271C194.559 38 199.071 34.352 199.071 29.072C199.071 25.424 196.863 22.352 193.023 20.624C195.951 19.088 197.631 16.64 197.631 13.28C197.631 8.48 193.551 5.024 187.647 5.024H170.943V38ZM177.999 18.32V11.072H185.871C188.511 11.072 190.383 12.608 190.383 14.672C190.383 16.784 188.511 18.32 185.871 18.32H177.999ZM177.999 31.952V23.888H186.975C189.807 23.888 191.823 25.568 191.823 27.92C191.823 30.272 189.807 31.952 186.975 31.952H177.999ZM215.113 12.608C211.657 12.608 208.249 13.568 204.745 15.344L207.097 20C209.065 18.992 211.225 18.224 213.529 18.224C217.609 18.224 219.241 20.528 219.241 23.168V23.648C217.129 22.832 214.921 22.4 212.905 22.4C207.145 22.4 202.585 25.76 202.585 30.656C202.585 35.408 206.665 38.576 211.945 38.576C214.633 38.576 217.465 37.52 219.241 35.504V38H226.009V23.168C226.009 16.688 221.593 12.608 215.113 12.608ZM213.529 33.728C211.129 33.728 209.353 32.48 209.353 30.464C209.353 28.448 211.369 26.96 213.913 26.96C215.833 26.96 217.657 27.296 219.241 27.872V30.176C218.761 32.48 216.217 33.728 213.529 33.728ZM246.268 12.608C243.052 12.608 240.268 14.048 238.78 16.304V13.184H231.772V38H238.78V23.168L238.828 23.312C238.828 20.624 241.084 18.512 244.012 18.512C246.796 18.512 248.716 20.624 248.716 23.696V38H255.484V22.208C255.484 16.592 251.644 12.608 246.268 12.608ZM285.544 13.184H277.48L268.264 23.888V4.448H261.256V38H268.264V31.904L271.24 28.688L277.384 38H285.448L275.896 24.176L285.544 13.184ZM292.326 9.776C294.39 9.776 296.07 8.048 296.07 5.936C296.07 3.968 294.39 2.192 292.326 2.192C290.166 2.192 288.486 3.968 288.486 5.936C288.486 8.048 290.166 9.776 292.326 9.776ZM288.774 38H295.782V13.184H288.774V38ZM316.252 12.608C313.036 12.608 310.252 14.048 308.764 16.304V13.184H301.756V38H308.764V23.168L308.812 23.312C308.812 20.624 311.068 18.512 313.996 18.512C316.78 18.512 318.7 20.624 318.7 23.696V38H325.468V22.208C325.468 16.592 321.628 12.608 316.252 12.608ZM349.337 13.184V16.544C347.657 14.192 344.489 12.608 341.129 12.608C334.889 12.608 330.137 17.456 330.137 24.368C330.137 31.28 334.889 36.176 341.129 36.176C344.393 36.176 347.369 34.736 349.337 32.336V35.072C349.337 38.288 346.457 40.352 341.945 40.352C339.065 40.352 336.185 39.44 334.553 38L332.105 42.944C334.553 44.864 338.681 46.256 343.049 46.256C350.873 46.256 356.393 41.744 356.393 35.36V13.184H349.337ZM343.337 30.272C339.833 30.272 337.337 27.824 337.337 24.368C337.337 20.912 339.833 18.512 343.337 18.512C346.841 18.512 349.337 20.912 349.337 24.368C349.337 27.824 346.841 30.272 343.337 30.272Z" fill="white"/>
<line y1="88.5" x2="32" y2="88.5" stroke="#E4E4E4"/>
<path d="M55.272 94.216C56.982 94.216 58.566 93.478 59.718 92.326L58.764 91.354C57.864 92.308 56.622 92.92 55.272 92.92C52.608 92.92 50.358 90.58 50.358 87.808C50.358 85.054 52.608 82.714 55.272 82.714C56.622 82.714 57.864 83.326 58.764 84.28L59.718 83.308C58.566 82.138 56.982 81.418 55.272 81.418C51.852 81.418 48.936 84.334 48.936 87.808C48.936 91.282 51.852 94.216 55.272 94.216ZM66.0304 84.478C64.7164 84.478 63.5104 85.198 62.9704 86.188V81.418H61.6204V94H62.9704V88.078C62.9704 86.782 64.2844 85.684 65.8504 85.684C67.2184 85.684 68.1724 86.746 68.1724 88.258V94H69.5224V88.078C69.5224 85.972 68.0824 84.478 66.0304 84.478ZM76.4487 93.01C74.6127 93.01 73.3347 91.678 73.1367 89.86H80.7507C80.7507 86.602 79.1487 84.478 76.3407 84.478C73.8387 84.478 71.7507 86.548 71.7507 89.32C71.7507 92.182 73.9827 94.216 76.4667 94.216C77.7627 94.216 79.4007 93.658 80.2107 92.776L79.3827 91.894C78.8067 92.524 77.5467 93.01 76.4487 93.01ZM76.3947 85.684C78.2487 85.684 79.2387 86.98 79.4187 88.654H73.1547C73.4067 86.854 74.7387 85.684 76.3947 85.684ZM87.2798 94.216C88.5758 94.216 89.7638 93.676 90.6458 92.794L89.7098 91.876C89.0798 92.578 88.2158 93.01 87.2798 93.01C85.4258 93.01 83.8778 91.336 83.8778 89.338C83.8778 87.358 85.4258 85.684 87.2798 85.684C88.1978 85.684 89.0438 86.098 89.6558 86.764L90.5918 85.846C89.7098 85 88.5398 84.478 87.2798 84.478C84.6698 84.478 82.4558 86.692 82.4558 89.338C82.4558 91.984 84.6698 94.216 87.2798 94.216ZM100.87 84.694H99.1417L94.0477 89.842V81.418H92.6977V94H94.0477V91.534L95.7217 89.878L98.9437 94H100.636L96.6757 88.96L100.87 84.694ZM103.155 83.002C103.641 83.002 104.037 82.588 104.037 82.102C104.037 81.634 103.641 81.22 103.155 81.22C102.651 81.22 102.255 81.634 102.255 82.102C102.255 82.588 102.651 83.002 103.155 83.002ZM102.471 94H103.821V84.694H102.471V94ZM110.96 84.478C109.646 84.478 108.44 85.198 107.9 86.188V84.694H106.55V94H107.9V88.078C107.9 86.782 109.214 85.684 110.78 85.684C112.148 85.684 113.102 86.746 113.102 88.258V94H114.452V88.078C114.452 85.972 113.012 84.478 110.96 84.478ZM124.42 84.694V86.296C123.7 85.162 122.512 84.478 121.036 84.478C118.534 84.478 116.752 86.296 116.752 88.888C116.752 91.48 118.534 93.316 121.036 93.316C122.512 93.316 123.7 92.632 124.42 91.498V93.01C124.42 94.828 123.16 95.89 121.018 95.89C119.866 95.89 118.75 95.476 118.03 94.792L117.436 95.854C118.282 96.574 119.686 97.096 121.198 97.096C123.88 97.096 125.77 95.404 125.77 93.01V84.694H124.42ZM121.288 92.11C119.47 92.11 118.174 90.778 118.174 88.888C118.174 87.016 119.47 85.684 121.288 85.684C123.124 85.684 124.42 87.016 124.42 88.888C124.42 90.778 123.124 92.11 121.288 92.11ZM143.784 93.532L141.732 91.444C142.362 90.544 142.92 89.464 143.442 88.312L142.272 87.79C141.894 88.816 141.408 89.752 140.868 90.562C139.752 89.392 138.888 88.456 138.042 87.466C139.806 86.764 141.066 85.99 141.066 84.352C141.066 82.804 139.806 81.49 138.15 81.49C136.296 81.49 135 82.768 135 84.388C135 85.306 135.342 86.134 136.044 87.106C134.136 87.952 133.218 89.122 133.218 90.724C133.218 92.884 134.91 94.216 137.106 94.216C138.636 94.216 139.86 93.55 140.886 92.488L142.506 94.126L143.784 93.532ZM138.15 82.696C139.068 82.696 139.716 83.434 139.716 84.388C139.716 85.414 138.978 85.954 137.322 86.602C136.656 85.756 136.35 85.036 136.35 84.388C136.35 83.326 137.124 82.696 138.15 82.696ZM137.16 93.01C135.756 93.01 134.568 92.146 134.568 90.688C134.568 89.536 135.396 88.636 136.746 88.006C137.61 89.05 138.546 90.076 140.022 91.606C139.194 92.488 138.24 93.01 137.16 93.01ZM155.466 94.198C158.346 94.198 159.822 92.596 159.822 90.634C159.822 88.456 158.13 87.61 155.772 87.052C153.666 86.548 152.442 86.098 152.442 84.82C152.442 83.686 153.558 82.678 155.088 82.678C156.384 82.678 157.608 83.272 158.634 84.262L159.498 83.164C158.364 82.12 156.996 81.4 155.16 81.4C152.784 81.4 151.02 82.948 151.02 84.928C151.02 87.07 152.586 87.844 155.07 88.42C157.23 88.924 158.4 89.446 158.4 90.76C158.4 91.876 157.428 92.92 155.52 92.92C153.792 92.92 152.514 92.182 151.47 91.138L150.588 92.236C151.83 93.46 153.432 94.198 155.466 94.198ZM165.947 84.478C165.047 84.478 163.931 84.712 162.599 85.378L163.139 86.476C163.985 86.044 164.921 85.63 165.857 85.63C167.873 85.63 168.377 87.07 168.377 88.33V88.672C167.423 88.366 166.361 88.15 165.353 88.15C163.355 88.15 161.699 89.392 161.699 91.246C161.699 93.082 163.139 94.216 165.101 94.216C166.325 94.216 167.711 93.64 168.377 92.542V94H169.727V88.33C169.727 86.08 168.485 84.478 165.947 84.478ZM165.335 93.028C164.021 93.028 163.013 92.344 163.013 91.192C163.013 90.076 164.183 89.284 165.569 89.284C166.577 89.284 167.531 89.428 168.377 89.662V91.084C168.017 92.398 166.559 93.028 165.335 93.028ZM175.563 94H176.859L180.765 84.694H179.253L176.211 92.416L173.115 84.694H171.603L175.563 94ZM183.294 83.002C183.78 83.002 184.176 82.588 184.176 82.102C184.176 81.634 183.78 81.22 183.294 81.22C182.79 81.22 182.394 81.634 182.394 82.102C182.394 82.588 182.79 83.002 183.294 83.002ZM182.61 94H183.96V84.694H182.61V94ZM191.099 84.478C189.785 84.478 188.579 85.198 188.039 86.188V84.694H186.689V94H188.039V88.078C188.039 86.782 189.353 85.684 190.919 85.684C192.287 85.684 193.241 86.746 193.241 88.258V94H194.591V88.078C194.591 85.972 193.151 84.478 191.099 84.478ZM204.559 84.694V86.296C203.839 85.162 202.651 84.478 201.175 84.478C198.673 84.478 196.891 86.296 196.891 88.888C196.891 91.48 198.673 93.316 201.175 93.316C202.651 93.316 203.839 92.632 204.559 91.498V93.01C204.559 94.828 203.299 95.89 201.157 95.89C200.005 95.89 198.889 95.476 198.169 94.792L197.575 95.854C198.421 96.574 199.825 97.096 201.337 97.096C204.019 97.096 205.909 95.404 205.909 93.01V84.694H204.559ZM201.427 92.11C199.609 92.11 198.313 90.778 198.313 88.888C198.313 87.016 199.609 85.684 201.427 85.684C203.263 85.684 204.559 87.016 204.559 88.888C204.559 90.778 203.263 92.11 201.427 92.11ZM212.06 94.216C213.986 94.216 215.462 93.118 215.462 91.408C215.462 89.644 213.914 89.14 212.42 88.672C210.692 88.114 210.008 87.862 210.008 87.052C210.008 86.152 210.872 85.684 211.916 85.684C212.744 85.684 213.662 85.972 214.598 86.566L215.246 85.522C214.256 84.874 213.068 84.478 211.916 84.478C210.062 84.478 208.658 85.522 208.658 87.214C208.658 88.546 209.522 89.212 211.772 89.86C213.032 90.22 214.112 90.544 214.112 91.552C214.112 92.434 213.284 93.01 212.06 93.01C211.034 93.01 209.972 92.614 208.91 91.84L208.208 92.83C209.324 93.73 210.764 94.216 212.06 94.216Z" fill="#E4E4E4"/>
<line y1="122.5" x2="32" y2="122.5" stroke="#E4E4E4"/>
<path d="M52.896 128H54.282L57.738 117.47L61.176 128H62.562L66.792 115.634H65.208L61.788 125.642L58.512 115.634H56.946L53.67 125.642L50.25 115.634H48.666L52.896 128ZM69.493 117.002C69.979 117.002 70.375 116.588 70.375 116.102C70.375 115.634 69.979 115.22 69.493 115.22C68.989 115.22 68.593 115.634 68.593 116.102C68.593 116.588 68.989 117.002 69.493 117.002ZM68.809 128H70.159V118.694H68.809V128ZM74.346 120.512V118.694H72.996V128H74.346V122.798C74.346 120.98 75.84 119.684 77.946 119.684V118.478C76.236 118.478 74.904 119.27 74.346 120.512ZM84.0073 127.01C82.1713 127.01 80.8933 125.678 80.6953 123.86H88.3093C88.3093 120.602 86.7073 118.478 83.8993 118.478C81.3973 118.478 79.3093 120.548 79.3093 123.32C79.3093 126.182 81.5413 128.216 84.0253 128.216C85.3213 128.216 86.9593 127.658 87.7693 126.776L86.9413 125.894C86.3653 126.524 85.1053 127.01 84.0073 127.01ZM83.9533 119.684C85.8073 119.684 86.7973 120.98 86.9773 122.654H80.7133C80.9653 120.854 82.2973 119.684 83.9533 119.684ZM99.3391 128H100.743V116.966H104.901V115.634H95.1811V116.966H99.3391V128ZM108.553 120.512V118.694H107.203V128H108.553V122.798C108.553 120.98 110.047 119.684 112.153 119.684V118.478C110.443 118.478 109.111 119.27 108.553 120.512ZM117.8 118.478C116.9 118.478 115.784 118.712 114.452 119.378L114.992 120.476C115.838 120.044 116.774 119.63 117.71 119.63C119.726 119.63 120.23 121.07 120.23 122.33V122.672C119.276 122.366 118.214 122.15 117.206 122.15C115.208 122.15 113.552 123.392 113.552 125.246C113.552 127.082 114.992 128.216 116.954 128.216C118.178 128.216 119.564 127.64 120.23 126.542V128H121.58V122.33C121.58 120.08 120.338 118.478 117.8 118.478ZM117.188 127.028C115.874 127.028 114.866 126.344 114.866 125.192C114.866 124.076 116.036 123.284 117.422 123.284C118.43 123.284 119.384 123.428 120.23 123.662V125.084C119.87 126.398 118.412 127.028 117.188 127.028ZM128.767 118.478C127.453 118.478 126.247 119.198 125.707 120.188V118.694H124.357V128H125.707V122.078C125.707 120.782 127.021 119.684 128.587 119.684C129.955 119.684 130.909 120.746 130.909 122.258V128H132.259V122.078C132.259 119.972 130.819 118.478 128.767 118.478ZM138.285 128.216C140.211 128.216 141.687 127.118 141.687 125.408C141.687 123.644 140.139 123.14 138.645 122.672C136.917 122.114 136.233 121.862 136.233 121.052C136.233 120.152 137.097 119.684 138.141 119.684C138.969 119.684 139.887 119.972 140.823 120.566L141.471 119.522C140.481 118.874 139.293 118.478 138.141 118.478C136.287 118.478 134.883 119.522 134.883 121.214C134.883 122.546 135.747 123.212 137.997 123.86C139.257 124.22 140.337 124.544 140.337 125.552C140.337 126.434 139.509 127.01 138.285 127.01C137.259 127.01 136.197 126.614 135.135 125.84L134.433 126.83C135.549 127.73 136.989 128.216 138.285 128.216ZM146.027 117.416C146.027 116.732 146.495 116.246 147.035 116.246C147.449 116.246 147.809 116.408 148.007 116.624L148.673 115.634C148.187 115.256 147.575 115.04 146.945 115.04C145.613 115.04 144.677 116.03 144.677 117.416V118.694H143.219V119.9H144.677V128H146.027V119.9H148.313V118.694H146.027V117.416ZM154.425 127.01C152.589 127.01 151.311 125.678 151.113 123.86H158.727C158.727 120.602 157.125 118.478 154.317 118.478C151.815 118.478 149.727 120.548 149.727 123.32C149.727 126.182 151.959 128.216 154.443 128.216C155.739 128.216 157.377 127.658 158.187 126.776L157.359 125.894C156.783 126.524 155.523 127.01 154.425 127.01ZM154.371 119.684C156.225 119.684 157.215 120.98 157.395 122.654H151.131C151.383 120.854 152.715 119.684 154.371 119.684ZM162.412 120.512V118.694H161.062V128H162.412V122.798C162.412 120.98 163.906 119.684 166.012 119.684V118.478C164.302 118.478 162.97 119.27 162.412 120.512ZM171.174 128.216C173.1 128.216 174.576 127.118 174.576 125.408C174.576 123.644 173.028 123.14 171.534 122.672C169.806 122.114 169.122 121.862 169.122 121.052C169.122 120.152 169.986 119.684 171.03 119.684C171.858 119.684 172.776 119.972 173.712 120.566L174.36 119.522C173.37 118.874 172.182 118.478 171.03 118.478C169.176 118.478 167.772 119.522 167.772 121.214C167.772 122.546 168.636 123.212 170.886 123.86C172.146 124.22 173.226 124.544 173.226 125.552C173.226 126.434 172.398 127.01 171.174 127.01C170.148 127.01 169.086 126.614 168.024 125.84L167.322 126.83C168.438 127.73 169.878 128.216 171.174 128.216ZM191.966 127.532L189.914 125.444C190.544 124.544 191.102 123.464 191.624 122.312L190.454 121.79C190.076 122.816 189.59 123.752 189.05 124.562C187.934 123.392 187.07 122.456 186.224 121.466C187.988 120.764 189.248 119.99 189.248 118.352C189.248 116.804 187.988 115.49 186.332 115.49C184.478 115.49 183.182 116.768 183.182 118.388C183.182 119.306 183.524 120.134 184.226 121.106C182.318 121.952 181.4 123.122 181.4 124.724C181.4 126.884 183.092 128.216 185.288 128.216C186.818 128.216 188.042 127.55 189.068 126.488L190.688 128.126L191.966 127.532ZM186.332 116.696C187.25 116.696 187.898 117.434 187.898 118.388C187.898 119.414 187.16 119.954 185.504 120.602C184.838 119.756 184.532 119.036 184.532 118.388C184.532 117.326 185.306 116.696 186.332 116.696ZM185.342 127.01C183.938 127.01 182.75 126.146 182.75 124.688C182.75 123.536 183.578 122.636 184.928 122.006C185.792 123.05 186.728 124.076 188.204 125.606C187.376 126.488 186.422 127.01 185.342 127.01ZM209.425 128H210.955L205.501 115.634H203.971L198.517 128H200.047L201.289 125.192H208.183L209.425 128ZM201.865 123.86L204.745 117.362L207.607 123.86H201.865ZM218.801 128.216C220.511 128.216 222.095 127.478 223.247 126.326L222.293 125.354C221.393 126.308 220.151 126.92 218.801 126.92C216.137 126.92 213.887 124.58 213.887 121.808C213.887 119.054 216.137 116.714 218.801 116.714C220.151 116.714 221.393 117.326 222.293 118.28L223.247 117.308C222.095 116.138 220.511 115.418 218.801 115.418C215.381 115.418 212.465 118.334 212.465 121.808C212.465 125.282 215.381 128.216 218.801 128.216ZM233.88 115.634V121.034H226.59V115.634H225.186V128H226.59V122.366H233.88V128H235.284V115.634H233.88Z" fill="#E4E4E4"/>
<line y1="156.5" x2="32" y2="156.5" stroke="#E4E4E4"/>
<path d="M53.706 162.198C56.586 162.198 58.062 160.596 58.062 158.634C58.062 156.456 56.37 155.61 54.012 155.052C51.906 154.548 50.682 154.098 50.682 152.82C50.682 151.686 51.798 150.678 53.328 150.678C54.624 150.678 55.848 151.272 56.874 152.262L57.738 151.164C56.604 150.12 55.236 149.4 53.4 149.4C51.024 149.4 49.26 150.948 49.26 152.928C49.26 155.07 50.826 155.844 53.31 156.42C55.47 156.924 56.64 157.446 56.64 158.76C56.64 159.876 55.668 160.92 53.76 160.92C52.032 160.92 50.754 160.182 49.71 159.138L48.828 160.236C50.07 161.46 51.672 162.198 53.706 162.198ZM64.4931 160.632C64.2951 160.848 63.9351 161.01 63.5211 161.01C62.9811 161.01 62.5131 160.524 62.5131 159.84V153.9H64.7991V152.694H62.5131V150.138H61.1631V152.694H59.7051V153.9H61.1631V159.84C61.1631 161.226 62.0991 162.216 63.4311 162.216C64.0611 162.216 64.6731 162 65.1591 161.622L64.4931 160.632ZM70.8492 152.478C69.9492 152.478 68.8332 152.712 67.5012 153.378L68.0412 154.476C68.8872 154.044 69.8232 153.63 70.7592 153.63C72.7752 153.63 73.2792 155.07 73.2792 156.33V156.672C72.3252 156.366 71.2632 156.15 70.2552 156.15C68.2572 156.15 66.6012 157.392 66.6012 159.246C66.6012 161.082 68.0412 162.216 70.0032 162.216C71.2272 162.216 72.6132 161.64 73.2792 160.542V162H74.6292V156.33C74.6292 154.08 73.3872 152.478 70.8492 152.478ZM70.2372 161.028C68.9232 161.028 67.9152 160.344 67.9152 159.192C67.9152 158.076 69.0852 157.284 70.4712 157.284C71.4792 157.284 72.4332 157.428 73.2792 157.662V159.084C72.9192 160.398 71.4612 161.028 70.2372 161.028ZM81.1675 152.478C80.2675 152.478 79.1515 152.712 77.8195 153.378L78.3595 154.476C79.2055 154.044 80.1415 153.63 81.0775 153.63C83.0935 153.63 83.5975 155.07 83.5975 156.33V156.672C82.6435 156.366 81.5815 156.15 80.5735 156.15C78.5755 156.15 76.9195 157.392 76.9195 159.246C76.9195 161.082 78.3595 162.216 80.3215 162.216C81.5455 162.216 82.9315 161.64 83.5975 160.542V162H84.9475V156.33C84.9475 154.08 83.7055 152.478 81.1675 152.478ZM80.5555 161.028C79.2415 161.028 78.2335 160.344 78.2335 159.192C78.2335 158.076 79.4035 157.284 80.7895 157.284C81.7975 157.284 82.7515 157.428 83.5975 157.662V159.084C83.2375 160.398 81.7795 161.028 80.5555 161.028ZM92.0259 162.216C93.3219 162.216 94.5099 161.676 95.3919 160.794L94.4559 159.876C93.8259 160.578 92.9619 161.01 92.0259 161.01C90.1719 161.01 88.6239 159.336 88.6239 157.338C88.6239 155.358 90.1719 153.684 92.0259 153.684C92.9439 153.684 93.7899 154.098 94.4019 154.764L95.3379 153.846C94.4559 153 93.2859 152.478 92.0259 152.478C89.4159 152.478 87.2019 154.692 87.2019 157.338C87.2019 159.984 89.4159 162.216 92.0259 162.216ZM105.616 152.694H103.888L98.7938 157.842V149.418H97.4438V162H98.7938V159.534L100.468 157.878L103.69 162H105.382L101.422 156.96L105.616 152.694ZM112.78 162H116.956C120.88 162 123.652 159.426 123.652 155.808C123.652 152.19 120.88 149.634 116.956 149.634H112.78V162ZM114.184 160.722V150.912H116.956C120.052 150.912 122.23 152.946 122.23 155.808C122.23 158.688 120.052 160.722 116.956 160.722H114.184ZM130.361 161.01C128.525 161.01 127.247 159.678 127.049 157.86H134.663C134.663 154.602 133.061 152.478 130.253 152.478C127.751 152.478 125.663 154.548 125.663 157.32C125.663 160.182 127.895 162.216 130.379 162.216C131.675 162.216 133.313 161.658 134.123 160.776L133.295 159.894C132.719 160.524 131.459 161.01 130.361 161.01ZM130.307 153.684C132.161 153.684 133.151 154.98 133.331 156.654H127.067C127.319 154.854 128.651 153.684 130.307 153.684ZM141.732 152.478C140.238 152.478 139.05 153.216 138.348 154.44V149.418H136.998V162H138.348V160.254C139.05 161.478 140.238 162.216 141.732 162.216C144.18 162.216 146.016 160.2 146.016 157.338C146.016 154.494 144.18 152.478 141.732 152.478ZM141.48 161.01C139.644 161.01 138.348 159.48 138.348 157.338C138.348 155.196 139.644 153.684 141.48 153.684C143.298 153.684 144.594 155.196 144.594 157.338C144.594 159.48 143.298 161.01 141.48 161.01ZM149.016 151.002C149.502 151.002 149.898 150.588 149.898 150.102C149.898 149.634 149.502 149.22 149.016 149.22C148.512 149.22 148.116 149.634 148.116 150.102C148.116 150.588 148.512 151.002 149.016 151.002ZM148.332 162H149.682V152.694H148.332V162ZM156.479 160.632C156.281 160.848 155.921 161.01 155.507 161.01C154.967 161.01 154.499 160.524 154.499 159.84V153.9H156.785V152.694H154.499V150.138H153.149V152.694H151.691V153.9H153.149V159.84C153.149 161.226 154.085 162.216 155.417 162.216C156.047 162.216 156.659 162 157.145 161.622L156.479 160.632ZM170.18 162.216C171.89 162.216 173.474 161.478 174.626 160.326L173.672 159.354C172.772 160.308 171.53 160.92 170.18 160.92C167.516 160.92 165.266 158.58 165.266 155.808C165.266 153.054 167.516 150.714 170.18 150.714C171.53 150.714 172.772 151.326 173.672 152.28L174.626 151.308C173.474 150.138 171.89 149.418 170.18 149.418C166.76 149.418 163.844 152.334 163.844 155.808C163.844 159.282 166.76 162.216 170.18 162.216ZM180.291 152.478C179.391 152.478 178.275 152.712 176.943 153.378L177.483 154.476C178.329 154.044 179.265 153.63 180.201 153.63C182.217 153.63 182.721 155.07 182.721 156.33V156.672C181.767 156.366 180.705 156.15 179.697 156.15C177.699 156.15 176.043 157.392 176.043 159.246C176.043 161.082 177.483 162.216 179.445 162.216C180.669 162.216 182.055 161.64 182.721 160.542V162H184.071V156.33C184.071 154.08 182.829 152.478 180.291 152.478ZM179.679 161.028C178.365 161.028 177.357 160.344 177.357 159.192C177.357 158.076 178.527 157.284 179.913 157.284C180.921 157.284 181.875 157.428 182.721 157.662V159.084C182.361 160.398 180.903 161.028 179.679 161.028ZM188.305 154.512V152.694H186.955V162H188.305V156.798C188.305 154.98 189.799 153.684 191.905 153.684V152.478C190.195 152.478 188.863 153.27 188.305 154.512ZM201.044 149.418V154.44C200.342 153.216 199.154 152.478 197.66 152.478C195.212 152.478 193.376 154.494 193.376 157.338C193.376 160.2 195.212 162.216 197.66 162.216C199.154 162.216 200.342 161.478 201.044 160.254V162H202.394V149.418H201.044ZM197.912 161.01C196.094 161.01 194.798 159.48 194.798 157.338C194.798 155.196 196.094 153.684 197.912 153.684C199.748 153.684 201.044 155.196 201.044 157.338C201.044 159.48 199.748 161.01 197.912 161.01ZM213.982 165.06L214.702 164.286C212.74 162.288 211.66 160.164 211.66 157.23C211.66 154.278 212.74 152.172 214.702 150.156L213.982 149.4C211.57 151.416 210.22 154.116 210.22 157.23C210.22 160.326 211.57 163.044 213.982 165.06ZM225.833 150.966V149.634H216.959V162H218.381V156.366H225.095V155.034H218.381V150.966H225.833ZM227.928 162H229.332V149.634H227.928V162ZM242.244 162H243.774L238.32 149.634H236.79L231.336 162H232.866L234.108 159.192H241.002L242.244 162ZM234.684 157.86L237.564 151.362L240.426 157.86H234.684ZM248.208 162H249.612V150.966H253.77V149.634H244.05V150.966H248.208V162ZM264.947 152.478C264.047 152.478 262.931 152.712 261.599 153.378L262.139 154.476C262.985 154.044 263.921 153.63 264.857 153.63C266.873 153.63 267.377 155.07 267.377 156.33V156.672C266.423 156.366 265.361 156.15 264.353 156.15C262.355 156.15 260.699 157.392 260.699 159.246C260.699 161.082 262.139 162.216 264.101 162.216C265.325 162.216 266.711 161.64 267.377 160.542V162H268.727V156.33C268.727 154.08 267.485 152.478 264.947 152.478ZM264.335 161.028C263.021 161.028 262.013 160.344 262.013 159.192C262.013 158.076 263.183 157.284 264.569 157.284C265.577 157.284 266.531 157.428 267.377 157.662V159.084C267.017 160.398 265.559 161.028 264.335 161.028ZM275.913 152.478C274.599 152.478 273.393 153.198 272.853 154.188V152.694H271.503V162H272.853V156.078C272.853 154.782 274.167 153.684 275.733 153.684C277.101 153.684 278.055 154.746 278.055 156.258V162H279.405V156.078C279.405 153.972 277.965 152.478 275.913 152.478ZM289.41 149.418V154.44C288.708 153.216 287.52 152.478 286.026 152.478C283.578 152.478 281.742 154.494 281.742 157.338C281.742 160.2 283.578 162.216 286.026 162.216C287.52 162.216 288.708 161.478 289.41 160.254V162H290.76V149.418H289.41ZM286.278 161.01C284.46 161.01 283.164 159.48 283.164 157.338C283.164 155.196 284.46 153.684 286.278 153.684C288.114 153.684 289.41 155.196 289.41 157.338C289.41 159.48 288.114 161.01 286.278 161.01ZM304.741 162.216C306.451 162.216 308.035 161.478 309.187 160.326L308.233 159.354C307.333 160.308 306.091 160.92 304.741 160.92C302.077 160.92 299.827 158.58 299.827 155.808C299.827 153.054 302.077 150.714 304.741 150.714C306.091 150.714 307.333 151.326 308.233 152.28L309.187 151.308C308.035 150.138 306.451 149.418 304.741 149.418C301.321 149.418 298.405 152.334 298.405 155.808C298.405 159.282 301.321 162.216 304.741 162.216ZM312.547 154.512V152.694H311.197V162H312.547V156.798C312.547 154.98 314.041 153.684 316.147 153.684V152.478C314.437 152.478 313.105 153.27 312.547 154.512ZM319.4 165.24C320.678 165.222 321.578 164.628 322.226 163.044L326.474 152.694H325.016L321.938 160.434L318.68 152.694H317.186L321.236 162.036L320.696 163.188C320.336 163.818 319.94 164.016 319.346 164.016C318.95 164.016 318.572 163.944 318.248 163.782L317.924 164.934C318.356 165.132 318.86 165.24 319.4 165.24ZM333.544 152.478C332.05 152.478 330.862 153.216 330.16 154.44V152.694H328.81V165.096H330.16V160.254C330.862 161.478 332.05 162.216 333.544 162.216C335.992 162.216 337.828 160.2 337.828 157.338C337.828 154.494 335.992 152.478 333.544 152.478ZM333.292 161.01C331.456 161.01 330.16 159.48 330.16 157.338C330.16 155.196 331.456 153.684 333.292 153.684C335.11 153.684 336.406 155.196 336.406 157.338C336.406 159.48 335.11 161.01 333.292 161.01ZM344.249 160.632C344.051 160.848 343.691 161.01 343.277 161.01C342.737 161.01 342.269 160.524 342.269 159.84V153.9H344.555V152.694H342.269V150.138H340.919V152.694H339.461V153.9H340.919V159.84C340.919 161.226 341.855 162.216 343.187 162.216C343.817 162.216 344.429 162 344.915 161.622L344.249 160.632ZM351.145 162.216C353.755 162.216 355.951 159.984 355.951 157.338C355.951 154.692 353.755 152.478 351.145 152.478C348.535 152.478 346.321 154.692 346.321 157.338C346.321 159.984 348.535 162.216 351.145 162.216ZM351.145 161.01C349.291 161.01 347.743 159.336 347.743 157.338C347.743 155.358 349.291 153.684 351.145 153.684C352.981 153.684 354.529 155.358 354.529 157.338C354.529 159.336 352.981 161.01 351.145 161.01ZM358.361 165.06C360.773 163.044 362.123 160.326 362.123 157.23C362.123 154.116 360.773 151.416 358.361 149.4L357.641 150.156C359.603 152.172 360.683 154.278 360.683 157.23C360.683 160.164 359.603 162.288 357.641 164.286L358.361 165.06Z" fill="#E4E4E4"/>
<line y1="190.5" x2="32" y2="190.5" stroke="#E4E4E4"/>
<path d="M49.656 196H51.06V192.292L53.004 190.24L57.702 196H59.52L53.976 189.286L59.178 183.634H57.324L51.06 190.474V183.634H49.656V196ZM65.1928 196H66.6688V190.96L71.6368 183.634H69.9448L65.9308 189.628L61.9528 183.634H60.2068L65.1928 190.96V196ZM79.231 196.216C80.941 196.216 82.525 195.478 83.677 194.326L82.723 193.354C81.823 194.308 80.581 194.92 79.231 194.92C76.567 194.92 74.317 192.58 74.317 189.808C74.317 187.054 76.567 184.714 79.231 184.714C80.581 184.714 81.823 185.326 82.723 186.28L83.677 185.308C82.525 184.138 80.941 183.418 79.231 183.418C75.811 183.418 72.895 186.334 72.895 189.808C72.895 193.282 75.811 196.216 79.231 196.216ZM86.2814 198.394C87.3614 197.044 87.6674 196.432 87.6674 195.712C87.6674 194.884 87.2534 194.272 86.5694 194.272C85.9934 194.272 85.5794 194.722 85.5794 195.226C85.5794 195.766 86.0114 196.216 86.5514 196.216C86.4074 196.774 86.1014 197.332 85.6154 197.89L86.2814 198.394ZM105.644 196H107.174L101.72 183.634H100.19L94.7362 196H96.2662L97.5082 193.192H104.402L105.644 196ZM98.0842 191.86L100.964 185.362L103.826 191.86H98.0842ZM113.544 186.478C112.23 186.478 111.024 187.198 110.484 188.188V186.694H109.134V196H110.484V190.078C110.484 188.782 111.798 187.684 113.364 187.684C114.732 187.684 115.686 188.746 115.686 190.258V196H117.036V190.078C117.036 187.972 115.596 186.478 113.544 186.478ZM123.854 194.632C123.656 194.848 123.296 195.01 122.882 195.01C122.342 195.01 121.874 194.524 121.874 193.84V187.9H124.16V186.694H121.874V184.138H120.524V186.694H119.066V187.9H120.524V193.84C120.524 195.226 121.46 196.216 122.792 196.216C123.422 196.216 124.034 196 124.52 195.622L123.854 194.632ZM127.097 185.002C127.583 185.002 127.979 184.588 127.979 184.102C127.979 183.634 127.583 183.22 127.097 183.22C126.593 183.22 126.197 183.634 126.197 184.102C126.197 184.588 126.593 185.002 127.097 185.002ZM126.413 196H127.763V186.694H126.413V196ZM130.113 191.77H134.775V190.456H130.113V191.77ZM137.477 196H138.881V186.658L143.471 195.28L148.061 186.658V196H149.465V183.634H148.061L143.471 192.256L138.881 183.634H137.477V196ZM156.836 196.216C159.446 196.216 161.642 193.984 161.642 191.338C161.642 188.692 159.446 186.478 156.836 186.478C154.226 186.478 152.012 188.692 152.012 191.338C152.012 193.984 154.226 196.216 156.836 196.216ZM156.836 195.01C154.982 195.01 153.434 193.336 153.434 191.338C153.434 189.358 154.982 187.684 156.836 187.684C158.672 187.684 160.22 189.358 160.22 191.338C160.22 193.336 158.672 195.01 156.836 195.01ZM168.3 186.478C166.986 186.478 165.78 187.198 165.24 188.188V186.694H163.89V196H165.24V190.078C165.24 188.782 166.554 187.684 168.12 187.684C169.488 187.684 170.442 188.746 170.442 190.258V196H171.792V190.078C171.792 187.972 170.352 186.478 168.3 186.478ZM178.718 195.01C176.882 195.01 175.604 193.678 175.406 191.86H183.02C183.02 188.602 181.418 186.478 178.61 186.478C176.108 186.478 174.02 188.548 174.02 191.32C174.02 194.182 176.252 196.216 178.736 196.216C180.032 196.216 181.67 195.658 182.48 194.776L181.652 193.894C181.076 194.524 179.816 195.01 178.718 195.01ZM178.664 187.684C180.518 187.684 181.508 188.98 181.688 190.654H175.424C175.676 188.854 177.008 187.684 178.664 187.684ZM186.615 199.24C187.893 199.222 188.793 198.628 189.441 197.044L193.689 186.694H192.231L189.153 194.434L185.895 186.694H184.401L188.451 196.036L187.911 197.188C187.551 197.818 187.155 198.016 186.561 198.016C186.165 198.016 185.787 197.944 185.463 197.782L185.139 198.934C185.571 199.132 186.075 199.24 186.615 199.24ZM195.539 191.77H200.201V190.456H195.539V191.77ZM203.839 194.668V183.634H202.435V196H210.589V194.668H203.839ZM216.343 186.478C215.443 186.478 214.327 186.712 212.995 187.378L213.535 188.476C214.381 188.044 215.317 187.63 216.253 187.63C218.269 187.63 218.773 189.07 218.773 190.33V190.672C217.819 190.366 216.757 190.15 215.749 190.15C213.751 190.15 212.095 191.392 212.095 193.246C212.095 195.082 213.535 196.216 215.497 196.216C216.721 196.216 218.107 195.64 218.773 194.542V196H220.123V190.33C220.123 188.08 218.881 186.478 216.343 186.478ZM215.731 195.028C214.417 195.028 213.409 194.344 213.409 193.192C213.409 192.076 214.579 191.284 215.965 191.284C216.973 191.284 217.927 191.428 218.773 191.662V193.084C218.413 194.398 216.955 195.028 215.731 195.028ZM229.434 186.694V192.616C229.434 193.912 228.12 195.01 226.554 195.01C225.186 195.01 224.232 193.948 224.232 192.436V186.694H222.882V192.616C222.882 194.722 224.322 196.216 226.374 196.216C227.688 196.216 228.894 195.496 229.434 194.506V196H230.784V186.694H229.434ZM237.962 186.478C236.648 186.478 235.442 187.198 234.902 188.188V186.694H233.552V196H234.902V190.078C234.902 188.782 236.216 187.684 237.782 187.684C239.15 187.684 240.104 188.746 240.104 190.258V196H241.454V190.078C241.454 187.972 240.014 186.478 237.962 186.478ZM251.458 183.418V188.44C250.756 187.216 249.568 186.478 248.074 186.478C245.626 186.478 243.79 188.494 243.79 191.338C243.79 194.2 245.626 196.216 248.074 196.216C249.568 196.216 250.756 195.478 251.458 194.254V196H252.808V183.418H251.458ZM248.326 195.01C246.508 195.01 245.212 193.48 245.212 191.338C245.212 189.196 246.508 187.684 248.326 187.684C250.162 187.684 251.458 189.196 251.458 191.338C251.458 193.48 250.162 195.01 248.326 195.01ZM259.859 195.01C258.023 195.01 256.745 193.678 256.547 191.86H264.161C264.161 188.602 262.559 186.478 259.751 186.478C257.249 186.478 255.161 188.548 255.161 191.32C255.161 194.182 257.393 196.216 259.877 196.216C261.173 196.216 262.811 195.658 263.621 194.776L262.793 193.894C262.217 194.524 260.957 195.01 259.859 195.01ZM259.805 187.684C261.659 187.684 262.649 188.98 262.829 190.654H256.565C256.817 188.854 258.149 187.684 259.805 187.684ZM267.846 188.512V186.694H266.496V196H267.846V190.798C267.846 188.98 269.34 187.684 271.446 187.684V186.478C269.736 186.478 268.404 187.27 267.846 188.512ZM273.979 185.002C274.465 185.002 274.861 184.588 274.861 184.102C274.861 183.634 274.465 183.22 273.979 183.22C273.475 183.22 273.079 183.634 273.079 184.102C273.079 184.588 273.475 185.002 273.979 185.002ZM273.295 196H274.645V186.694H273.295V196ZM281.784 186.478C280.47 186.478 279.264 187.198 278.724 188.188V186.694H277.374V196H278.724V190.078C278.724 188.782 280.038 187.684 281.604 187.684C282.972 187.684 283.926 188.746 283.926 190.258V196H285.276V190.078C285.276 187.972 283.836 186.478 281.784 186.478ZM295.245 186.694V188.296C294.525 187.162 293.337 186.478 291.861 186.478C289.359 186.478 287.577 188.296 287.577 190.888C287.577 193.48 289.359 195.316 291.861 195.316C293.337 195.316 294.525 194.632 295.245 193.498V195.01C295.245 196.828 293.985 197.89 291.843 197.89C290.691 197.89 289.575 197.476 288.855 196.792L288.261 197.854C289.107 198.574 290.511 199.096 292.023 199.096C294.705 199.096 296.595 197.404 296.595 195.01V186.694H295.245ZM292.113 194.11C290.295 194.11 288.999 192.778 288.999 190.888C288.999 189.016 290.295 187.684 292.113 187.684C293.949 187.684 295.245 189.016 295.245 190.888C295.245 192.778 293.949 194.11 292.113 194.11ZM300.172 198.394C301.252 197.044 301.558 196.432 301.558 195.712C301.558 194.884 301.144 194.272 300.46 194.272C299.884 194.272 299.47 194.722 299.47 195.226C299.47 195.766 299.902 196.216 300.442 196.216C300.298 196.774 299.992 197.332 299.506 197.89L300.172 198.394ZM313.199 186.478C312.299 186.478 311.183 186.712 309.851 187.378L310.391 188.476C311.237 188.044 312.173 187.63 313.109 187.63C315.125 187.63 315.629 189.07 315.629 190.33V190.672C314.675 190.366 313.613 190.15 312.605 190.15C310.607 190.15 308.951 191.392 308.951 193.246C308.951 195.082 310.391 196.216 312.353 196.216C313.577 196.216 314.963 195.64 315.629 194.542V196H316.979V190.33C316.979 188.08 315.737 186.478 313.199 186.478ZM312.587 195.028C311.273 195.028 310.265 194.344 310.265 193.192C310.265 192.076 311.435 191.284 312.821 191.284C313.829 191.284 314.783 191.428 315.629 191.662V193.084C315.269 194.398 313.811 195.028 312.587 195.028ZM324.165 186.478C322.851 186.478 321.645 187.198 321.105 188.188V186.694H319.755V196H321.105V190.078C321.105 188.782 322.419 187.684 323.985 187.684C325.353 187.684 326.307 188.746 326.307 190.258V196H327.657V190.078C327.657 187.972 326.217 186.478 324.165 186.478ZM337.661 183.418V188.44C336.959 187.216 335.771 186.478 334.277 186.478C331.829 186.478 329.993 188.494 329.993 191.338C329.993 194.2 331.829 196.216 334.277 196.216C335.771 196.216 336.959 195.478 337.661 194.254V196H339.011V183.418H337.661ZM334.529 195.01C332.711 195.01 331.415 193.48 331.415 191.338C331.415 189.196 332.711 187.684 334.529 187.684C336.365 187.684 337.661 189.196 337.661 191.338C337.661 193.48 336.365 195.01 334.529 195.01ZM357.205 196H358.735L353.281 183.634H351.751L346.297 196H347.827L349.069 193.192H355.963L357.205 196ZM349.645 191.86L352.525 185.362L355.387 191.86H349.645ZM367.949 183.418V188.44C367.247 187.216 366.059 186.478 364.565 186.478C362.117 186.478 360.281 188.494 360.281 191.338C360.281 194.2 362.117 196.216 364.565 196.216C366.059 196.216 367.247 195.478 367.949 194.254V196H369.299V183.418H367.949ZM364.817 195.01C362.999 195.01 361.703 193.48 361.703 191.338C361.703 189.196 362.999 187.684 364.817 187.684C366.653 187.684 367.949 189.196 367.949 191.338C367.949 193.48 366.653 195.01 364.817 195.01ZM375.233 196H376.529L380.435 186.694H378.923L375.881 194.416L372.785 186.694H371.273L375.233 196ZM385.357 186.478C384.457 186.478 383.341 186.712 382.009 187.378L382.549 188.476C383.395 188.044 384.331 187.63 385.267 187.63C387.283 187.63 387.787 189.07 387.787 190.33V190.672C386.833 190.366 385.771 190.15 384.763 190.15C382.765 190.15 381.109 191.392 381.109 193.246C381.109 195.082 382.549 196.216 384.511 196.216C385.735 196.216 387.121 195.64 387.787 194.542V196H389.137V190.33C389.137 188.08 387.895 186.478 385.357 186.478ZM384.745 195.028C383.431 195.028 382.423 194.344 382.423 193.192C382.423 192.076 383.593 191.284 384.979 191.284C385.987 191.284 386.941 191.428 387.787 191.662V193.084C387.427 194.398 385.969 195.028 384.745 195.028ZM396.323 186.478C395.009 186.478 393.803 187.198 393.263 188.188V186.694H391.913V196H393.263V190.078C393.263 188.782 394.577 187.684 396.143 187.684C397.511 187.684 398.465 188.746 398.465 190.258V196H399.815V190.078C399.815 187.972 398.375 186.478 396.323 186.478ZM406.868 196.216C408.164 196.216 409.352 195.676 410.234 194.794L409.298 193.876C408.668 194.578 407.804 195.01 406.868 195.01C405.014 195.01 403.466 193.336 403.466 191.338C403.466 189.358 405.014 187.684 406.868 187.684C407.786 187.684 408.632 188.098 409.244 188.764L410.18 187.846C409.298 187 408.128 186.478 406.868 186.478C404.258 186.478 402.044 188.692 402.044 191.338C402.044 193.984 404.258 196.216 406.868 196.216ZM416.498 195.01C414.662 195.01 413.384 193.678 413.186 191.86H420.8C420.8 188.602 419.198 186.478 416.39 186.478C413.888 186.478 411.8 188.548 411.8 191.32C411.8 194.182 414.032 196.216 416.516 196.216C417.812 196.216 419.45 195.658 420.26 194.776L419.432 193.894C418.856 194.524 417.596 195.01 416.498 195.01ZM416.444 187.684C418.298 187.684 419.288 188.98 419.468 190.654H413.204C413.456 188.854 414.788 187.684 416.444 187.684ZM430.281 183.418V188.44C429.579 187.216 428.391 186.478 426.897 186.478C424.449 186.478 422.613 188.494 422.613 191.338C422.613 194.2 424.449 196.216 426.897 196.216C428.391 196.216 429.579 195.478 430.281 194.254V196H431.631V183.418H430.281ZM427.149 195.01C425.331 195.01 424.035 193.48 424.035 191.338C424.035 189.196 425.331 187.684 427.149 187.684C428.985 187.684 430.281 189.196 430.281 191.338C430.281 193.48 428.985 195.01 427.149 195.01ZM448.636 184.966V183.634H439.762V196H441.184V190.366H447.898V189.034H441.184V184.966H448.636ZM452.153 188.512V186.694H450.803V196H452.153V190.798C452.153 188.98 453.647 187.684 455.753 187.684V186.478C454.043 186.478 452.711 187.27 452.153 188.512ZM461.4 186.478C460.5 186.478 459.384 186.712 458.052 187.378L458.592 188.476C459.438 188.044 460.374 187.63 461.31 187.63C463.326 187.63 463.83 189.07 463.83 190.33V190.672C462.876 190.366 461.814 190.15 460.806 190.15C458.808 190.15 457.152 191.392 457.152 193.246C457.152 195.082 458.592 196.216 460.554 196.216C461.778 196.216 463.164 195.64 463.83 194.542V196H465.18V190.33C465.18 188.08 463.938 186.478 461.4 186.478ZM460.788 195.028C459.474 195.028 458.466 194.344 458.466 193.192C458.466 192.076 459.636 191.284 461.022 191.284C462.03 191.284 462.984 191.428 463.83 191.662V193.084C463.47 194.398 462.012 195.028 460.788 195.028ZM474.49 186.694V192.616C474.49 193.912 473.176 195.01 471.61 195.01C470.242 195.01 469.288 193.948 469.288 192.436V186.694H467.938V192.616C467.938 194.722 469.378 196.216 471.43 196.216C472.744 196.216 473.95 195.496 474.49 194.506V196H475.84V186.694H474.49ZM485.863 183.418V188.44C485.161 187.216 483.973 186.478 482.479 186.478C480.031 186.478 478.195 188.494 478.195 191.338C478.195 194.2 480.031 196.216 482.479 196.216C483.973 196.216 485.161 195.478 485.863 194.254V196H487.213V183.418H485.863ZM482.731 195.01C480.913 195.01 479.617 193.48 479.617 191.338C479.617 189.196 480.913 187.684 482.731 187.684C484.567 187.684 485.863 189.196 485.863 191.338C485.863 193.48 484.567 195.01 482.731 195.01ZM495.344 196H496.748V191.554H500.366C502.922 191.554 504.92 189.916 504.92 187.594C504.92 185.272 502.922 183.634 500.366 183.634H495.344V196ZM496.748 190.222V184.966H500.114C502.13 184.966 503.498 185.938 503.498 187.594C503.498 189.25 502.13 190.222 500.114 190.222H496.748ZM508.35 188.512V186.694H507V196H508.35V190.798C508.35 188.98 509.844 187.684 511.95 187.684V186.478C510.24 186.478 508.908 187.27 508.35 188.512ZM517.838 196.216C520.448 196.216 522.644 193.984 522.644 191.338C522.644 188.692 520.448 186.478 517.838 186.478C515.228 186.478 513.014 188.692 513.014 191.338C513.014 193.984 515.228 196.216 517.838 196.216ZM517.838 195.01C515.984 195.01 514.436 193.336 514.436 191.338C514.436 189.358 515.984 187.684 517.838 187.684C519.674 187.684 521.222 189.358 521.222 191.338C521.222 193.336 519.674 195.01 517.838 195.01ZM528.96 194.632C528.762 194.848 528.402 195.01 527.988 195.01C527.448 195.01 526.98 194.524 526.98 193.84V187.9H529.266V186.694H526.98V184.138H525.63V186.694H524.172V187.9H525.63V193.84C525.63 195.226 526.566 196.216 527.898 196.216C528.528 196.216 529.14 196 529.626 195.622L528.96 194.632ZM535.73 195.01C533.894 195.01 532.616 193.678 532.418 191.86H540.032C540.032 188.602 538.43 186.478 535.622 186.478C533.12 186.478 531.032 188.548 531.032 191.32C531.032 194.182 533.264 196.216 535.748 196.216C537.044 196.216 538.682 195.658 539.492 194.776L538.664 193.894C538.088 194.524 536.828 195.01 535.73 195.01ZM535.676 187.684C537.53 187.684 538.52 188.98 538.7 190.654H532.436C532.688 188.854 534.02 187.684 535.676 187.684ZM546.561 196.216C547.857 196.216 549.045 195.676 549.927 194.794L548.991 193.876C548.361 194.578 547.497 195.01 546.561 195.01C544.707 195.01 543.159 193.336 543.159 191.338C543.159 189.358 544.707 187.684 546.561 187.684C547.479 187.684 548.325 188.098 548.937 188.764L549.873 187.846C548.991 187 547.821 186.478 546.561 186.478C543.951 186.478 541.737 188.692 541.737 191.338C541.737 193.984 543.951 196.216 546.561 196.216ZM556.083 194.632C555.885 194.848 555.525 195.01 555.111 195.01C554.571 195.01 554.103 194.524 554.103 193.84V187.9H556.389V186.694H554.103V184.138H552.753V186.694H551.295V187.9H552.753V193.84C552.753 195.226 553.689 196.216 555.021 196.216C555.651 196.216 556.263 196 556.749 195.622L556.083 194.632ZM559.325 185.002C559.811 185.002 560.207 184.588 560.207 184.102C560.207 183.634 559.811 183.22 559.325 183.22C558.821 183.22 558.425 183.634 558.425 184.102C558.425 184.588 558.821 185.002 559.325 185.002ZM558.641 196H559.991V186.694H558.641V196ZM567.022 196.216C569.632 196.216 571.828 193.984 571.828 191.338C571.828 188.692 569.632 186.478 567.022 186.478C564.412 186.478 562.198 188.692 562.198 191.338C562.198 193.984 564.412 196.216 567.022 196.216ZM567.022 195.01C565.168 195.01 563.62 193.336 563.62 191.338C563.62 189.358 565.168 187.684 567.022 187.684C568.858 187.684 570.406 189.358 570.406 191.338C570.406 193.336 568.858 195.01 567.022 195.01ZM578.485 186.478C577.171 186.478 575.965 187.198 575.425 188.188V186.694H574.075V196H575.425V190.078C575.425 188.782 576.739 187.684 578.305 187.684C579.673 187.684 580.627 188.746 580.627 190.258V196H581.977V190.078C581.977 187.972 580.537 186.478 578.485 186.478Z" fill="#E4E4E4"/>
</svg>
