<svg width="447" height="384" viewBox="0 0 447 384" fill="none" xmlns="http://www.w3.org/2000/svg">
<path d="M19.488 86.576C24.48 86.576 29.088 84.416 32.304 81.056L27.168 76.448C25.248 78.656 22.512 80.144 19.488 80.144C13.968 80.144 9.264 75.248 9.264 69.488C9.264 63.776 13.968 58.88 19.488 58.88C22.512 58.88 25.248 60.368 27.168 62.576L32.304 57.968C29.088 54.56 24.48 52.448 19.488 52.448C10.032 52.448 1.968 60.224 1.968 69.488C1.968 78.752 10.032 86.576 19.488 86.576ZM47.5819 60.608C44.1259 60.608 40.7179 61.568 37.2139 63.344L39.5659 68C41.5339 66.992 43.6939 66.224 45.9979 66.224C50.0779 66.224 51.7099 68.528 51.7099 71.168V71.648C49.5979 70.832 47.3899 70.4 45.3739 70.4C39.6139 70.4 35.0539 73.76 35.0539 78.656C35.0539 83.408 39.1339 86.576 44.4139 86.576C47.1019 86.576 49.9339 85.52 51.7099 83.504V86H58.4779V71.168C58.4779 64.688 54.0619 60.608 47.5819 60.608ZM45.9979 81.728C43.5979 81.728 41.8219 80.48 41.8219 78.464C41.8219 76.448 43.8379 74.96 46.3819 74.96C48.3019 74.96 50.1259 75.296 51.7099 75.872V78.176C51.2299 80.48 48.6859 81.728 45.9979 81.728ZM73.6965 86.576C79.7925 86.576 83.7765 83.456 83.7765 78.56C83.7765 73.136 79.0245 71.696 74.7525 70.592C71.3925 69.68 70.3845 69.296 70.3845 67.952C70.3845 67.088 71.5845 66.464 73.3125 66.464C75.4245 66.464 78.0165 67.28 80.2725 68.672L83.1045 63.68C80.3685 61.856 76.8645 60.608 73.3125 60.608C67.4565 60.608 63.5685 63.968 63.6165 68.672C63.6645 73.568 67.6005 74.96 72.6885 76.208C75.2325 76.88 77.0565 77.36 77.0565 78.896C77.0565 80 75.7125 80.768 73.8405 80.768C70.5285 80.768 67.7445 79.568 65.5365 77.984L62.5125 82.832C65.4885 85.232 69.7125 86.576 73.6965 86.576ZM102.83 60.608C99.6623 60.608 96.9263 62.048 95.3903 64.208V52.448H88.3823V86H95.3903V71.312C95.3903 68.624 97.6463 66.512 100.574 66.512C103.358 66.512 105.278 68.624 105.278 71.696V86H112.046V70.208C112.046 64.592 108.206 60.608 102.83 60.608ZM131.561 86H138.617V75.296H146.393C153.545 75.296 158.825 70.688 158.825 64.16C158.825 57.632 153.545 53.024 146.393 53.024H131.561V86ZM138.617 68.816V59.504H145.625C149.129 59.504 151.529 61.328 151.529 64.16C151.529 66.992 149.129 68.816 145.625 68.816H138.617ZM166.56 57.776C168.624 57.776 170.304 56.048 170.304 53.936C170.304 51.968 168.624 50.192 166.56 50.192C164.4 50.192 162.72 51.968 162.72 53.936C162.72 56.048 164.4 57.776 166.56 57.776ZM163.008 86H170.016V61.184H163.008V86ZM188.279 86.576C192.407 86.576 195.767 84.896 198.215 82.208L193.559 78.272C192.263 79.712 190.247 80.672 188.327 80.672C184.631 80.672 181.559 77.408 181.559 73.52C181.559 69.728 184.631 66.512 188.279 66.512C190.199 66.512 192.167 67.424 193.415 68.816L198.071 64.832C195.671 62.24 192.359 60.608 188.327 60.608C180.983 60.608 174.743 66.512 174.743 73.568C174.743 80.624 180.935 86.576 188.279 86.576ZM226.575 61.184H218.511L209.295 71.888V52.448H202.287V86H209.295V79.904L212.271 76.688L218.415 86H226.479L216.927 72.176L226.575 61.184ZM228.941 75.776H242.093V69.824H228.941V75.776ZM263.802 61.184V76.016L263.754 75.872C263.754 78.56 261.498 80.672 258.57 80.672C255.786 80.672 253.866 78.56 253.866 75.488V61.184H247.098V76.976C247.098 82.592 250.938 86.576 256.314 86.576C259.53 86.576 262.314 85.136 263.802 82.88V86H270.81V61.184H263.802ZM292.134 60.608C288.678 60.608 285.798 62.096 283.83 64.64V61.184H276.822V94.256H283.83V82.496C285.798 85.088 288.678 86.576 292.134 86.576C298.758 86.576 303.558 81.2 303.558 73.568C303.558 65.984 298.758 60.608 292.134 60.608ZM290.118 80.672C286.71 80.672 284.214 78.176 283.83 74.528V72.608C284.214 69.008 286.71 66.512 290.118 66.512C294.006 66.512 296.742 69.44 296.742 73.568C296.742 77.744 294.006 80.672 290.118 80.672Z" fill="white"/>
<path d="M25.52 32H28.92L16.8 4.52H13.4L1.28 32H4.68L7.44 25.76H22.76L25.52 32ZM8.72 22.8L15.12 8.36L21.48 22.8H8.72ZM36.5153 15.36V11.32H33.5153V32H36.5153V20.44C36.5153 16.4 39.8353 13.52 44.5153 13.52V10.84C40.7153 10.84 37.7553 12.6 36.5153 15.36ZM71.025 10.84C67.905 10.84 65.185 12.56 64.345 15.24C63.225 12.56 60.785 10.84 57.665 10.84C54.945 10.84 52.705 12.2 51.665 14.36V11.32H48.665V32H51.665V18.84C51.665 15.72 53.985 13.52 57.265 13.52C60.065 13.52 62.025 15.88 62.025 19.24V32H65.025V18.84C65.025 15.72 67.345 13.52 70.625 13.52C73.425 13.52 75.385 15.88 75.385 19.24V32H78.385V18.84C78.385 14.16 75.345 10.84 71.025 10.84ZM94.0463 32.48C99.8463 32.48 104.726 27.52 104.726 21.64C104.726 15.76 99.8463 10.84 94.0463 10.84C88.2463 10.84 83.3263 15.76 83.3263 21.64C83.3263 27.52 88.2463 32.48 94.0463 32.48ZM94.0463 29.8C89.9263 29.8 86.4863 26.08 86.4863 21.64C86.4863 17.24 89.9263 13.52 94.0463 13.52C98.1263 13.52 101.566 17.24 101.566 21.64C101.566 26.08 98.1263 29.8 94.0463 29.8ZM112.961 15.36V11.32H109.961V32H112.961V20.44C112.961 16.4 116.281 13.52 120.961 13.52V10.84C117.161 10.84 114.201 12.6 112.961 15.36ZM134.43 29.8C130.35 29.8 127.51 26.84 127.07 22.8H143.99C143.99 15.56 140.43 10.84 134.19 10.84C128.63 10.84 123.99 15.44 123.99 21.6C123.99 27.96 128.95 32.48 134.47 32.48C137.35 32.48 140.99 31.24 142.79 29.28L140.95 27.32C139.67 28.72 136.87 29.8 134.43 29.8ZM134.31 13.52C138.43 13.52 140.63 16.4 141.03 20.12H127.11C127.67 16.12 130.63 13.52 134.31 13.52ZM165.059 4.04V15.2C163.499 12.48 160.859 10.84 157.539 10.84C152.099 10.84 148.019 15.32 148.019 21.64C148.019 28 152.099 32.48 157.539 32.48C160.859 32.48 163.499 30.84 165.059 28.12V32H168.059V4.04H165.059ZM158.099 29.8C154.059 29.8 151.179 26.4 151.179 21.64C151.179 16.88 154.059 13.52 158.099 13.52C162.179 13.52 165.059 16.88 165.059 21.64C165.059 26.4 162.179 29.8 158.099 29.8ZM199.129 32.48C202.929 32.48 206.449 30.84 209.009 28.28L206.889 26.12C204.889 28.24 202.129 29.6 199.129 29.6C193.209 29.6 188.209 24.4 188.209 18.24C188.209 12.12 193.209 6.92 199.129 6.92C202.129 6.92 204.889 8.28 206.889 10.4L209.009 8.24C206.449 5.64 202.929 4.04 199.129 4.04C191.529 4.04 185.049 10.52 185.049 18.24C185.049 25.96 191.529 32.48 199.129 32.48ZM221.596 10.84C219.596 10.84 217.116 11.36 214.156 12.84L215.356 15.28C217.236 14.32 219.316 13.4 221.396 13.4C225.876 13.4 226.996 16.6 226.996 19.4V20.16C224.876 19.48 222.516 19 220.276 19C215.836 19 212.156 21.76 212.156 25.88C212.156 29.96 215.356 32.48 219.716 32.48C222.436 32.48 225.516 31.2 226.996 28.76V32H229.996V19.4C229.996 14.4 227.236 10.84 221.596 10.84ZM220.236 29.84C217.316 29.84 215.076 28.32 215.076 25.76C215.076 23.28 217.676 21.52 220.756 21.52C222.996 21.52 225.116 21.84 226.996 22.36V25.52C226.196 28.44 222.956 29.84 220.236 29.84ZM239.406 15.36V11.32H236.406V32H239.406V20.44C239.406 16.4 242.726 13.52 247.406 13.52V10.84C243.606 10.84 240.646 12.6 239.406 15.36Z" fill="white"/>
<line y1="131.897" x2="32" y2="131.897" stroke="#E4E4E4"/>
<path d="M53.706 139.198C56.586 139.198 58.062 137.596 58.062 135.634C58.062 133.456 56.37 132.61 54.012 132.052C51.906 131.548 50.682 131.098 50.682 129.82C50.682 128.686 51.798 127.678 53.328 127.678C54.624 127.678 55.848 128.272 56.874 129.262L57.738 128.164C56.604 127.12 55.236 126.4 53.4 126.4C51.024 126.4 49.26 127.948 49.26 129.928C49.26 132.07 50.826 132.844 53.31 133.42C55.47 133.924 56.64 134.446 56.64 135.76C56.64 136.876 55.668 137.92 53.76 137.92C52.032 137.92 50.754 137.182 49.71 136.138L48.828 137.236C50.07 138.46 51.672 139.198 53.706 139.198ZM64.7271 139.216C66.0231 139.216 67.2111 138.676 68.0931 137.794L67.1571 136.876C66.5271 137.578 65.6631 138.01 64.7271 138.01C62.8731 138.01 61.3251 136.336 61.3251 134.338C61.3251 132.358 62.8731 130.684 64.7271 130.684C65.6451 130.684 66.4911 131.098 67.1031 131.764L68.0391 130.846C67.1571 130 65.9871 129.478 64.7271 129.478C62.1171 129.478 59.9031 131.692 59.9031 134.338C59.9031 136.984 62.1171 139.216 64.7271 139.216ZM74.5909 129.478C73.2769 129.478 72.0709 130.198 71.5309 131.188V126.418H70.1809V139H71.5309V133.078C71.5309 131.782 72.8449 130.684 74.4109 130.684C75.7789 130.684 76.7329 131.746 76.7329 133.258V139H78.0829V133.078C78.0829 130.972 76.6429 129.478 74.5909 129.478ZM85.0093 138.01C83.1733 138.01 81.8953 136.678 81.6973 134.86H89.3113C89.3113 131.602 87.7093 129.478 84.9013 129.478C82.3993 129.478 80.3113 131.548 80.3113 134.32C80.3113 137.182 82.5433 139.216 85.0273 139.216C86.3233 139.216 87.9613 138.658 88.7713 137.776L87.9433 136.894C87.3673 137.524 86.1073 138.01 85.0093 138.01ZM84.9553 130.684C86.8093 130.684 87.7993 131.98 87.9793 133.654H81.7153C81.9673 131.854 83.2993 130.684 84.9553 130.684ZM98.7923 126.418V131.44C98.0903 130.216 96.9023 129.478 95.4083 129.478C92.9603 129.478 91.1243 131.494 91.1243 134.338C91.1243 137.2 92.9603 139.216 95.4083 139.216C96.9023 139.216 98.0903 138.478 98.7923 137.254V139H100.142V126.418H98.7923ZM95.6603 138.01C93.8423 138.01 92.5463 136.48 92.5463 134.338C92.5463 132.196 93.8423 130.684 95.6603 130.684C97.4963 130.684 98.7923 132.196 98.7923 134.338C98.7923 136.48 97.4963 138.01 95.6603 138.01ZM109.551 129.694V135.616C109.551 136.912 108.237 138.01 106.671 138.01C105.303 138.01 104.349 136.948 104.349 135.436V129.694H102.999V135.616C102.999 137.722 104.439 139.216 106.491 139.216C107.805 139.216 109.011 138.496 109.551 137.506V139H110.901V129.694H109.551ZM113.651 139H115.001V126.418H113.651V139ZM121.923 138.01C120.087 138.01 118.809 136.678 118.611 134.86H126.225C126.225 131.602 124.623 129.478 121.815 129.478C119.313 129.478 117.225 131.548 117.225 134.32C117.225 137.182 119.457 139.216 121.941 139.216C123.237 139.216 124.875 138.658 125.685 137.776L124.857 136.894C124.281 137.524 123.021 138.01 121.923 138.01ZM121.869 130.684C123.723 130.684 124.713 131.98 124.893 133.654H118.629C118.881 131.854 120.213 130.684 121.869 130.684ZM136.949 139.216C138.875 139.216 140.351 138.118 140.351 136.408C140.351 134.644 138.803 134.14 137.309 133.672C135.581 133.114 134.897 132.862 134.897 132.052C134.897 131.152 135.761 130.684 136.805 130.684C137.633 130.684 138.551 130.972 139.487 131.566L140.135 130.522C139.145 129.874 137.957 129.478 136.805 129.478C134.951 129.478 133.547 130.522 133.547 132.214C133.547 133.546 134.411 134.212 136.661 134.86C137.921 135.22 139.001 135.544 139.001 136.552C139.001 137.434 138.173 138.01 136.949 138.01C135.923 138.01 134.861 137.614 133.799 136.84L133.097 137.83C134.213 138.73 135.653 139.216 136.949 139.216ZM146.365 129.478C145.465 129.478 144.349 129.712 143.017 130.378L143.557 131.476C144.403 131.044 145.339 130.63 146.275 130.63C148.291 130.63 148.795 132.07 148.795 133.33V133.672C147.841 133.366 146.779 133.15 145.771 133.15C143.773 133.15 142.117 134.392 142.117 136.246C142.117 138.082 143.557 139.216 145.519 139.216C146.743 139.216 148.129 138.64 148.795 137.542V139H150.145V133.33C150.145 131.08 148.903 129.478 146.365 129.478ZM145.753 138.028C144.439 138.028 143.431 137.344 143.431 136.192C143.431 135.076 144.601 134.284 145.987 134.284C146.995 134.284 147.949 134.428 148.795 134.662V136.084C148.435 137.398 146.977 138.028 145.753 138.028ZM155.009 128.416C155.009 127.732 155.477 127.246 156.017 127.246C156.431 127.246 156.791 127.408 156.989 127.624L157.655 126.634C157.169 126.256 156.557 126.04 155.927 126.04C154.595 126.04 153.659 127.03 153.659 128.416V129.694H152.201V130.9H153.659V139H155.009V130.9H157.295V129.694H155.009V128.416ZM163.408 138.01C161.572 138.01 160.294 136.678 160.096 134.86H167.71C167.71 131.602 166.108 129.478 163.3 129.478C160.798 129.478 158.71 131.548 158.71 134.32C158.71 137.182 160.942 139.216 163.426 139.216C164.722 139.216 166.36 138.658 167.17 137.776L166.342 136.894C165.766 137.524 164.506 138.01 163.408 138.01ZM163.354 130.684C165.208 130.684 166.198 131.98 166.378 133.654H160.114C160.366 131.854 161.698 130.684 163.354 130.684ZM170.639 141.394C171.719 140.044 172.025 139.432 172.025 138.712C172.025 137.884 171.611 137.272 170.927 137.272C170.351 137.272 169.937 137.722 169.937 138.226C169.937 138.766 170.369 139.216 170.909 139.216C170.765 139.774 170.459 140.332 169.973 140.89L170.639 141.394ZM184.206 139.216C186.816 139.216 189.012 136.984 189.012 134.338C189.012 131.692 186.816 129.478 184.206 129.478C181.596 129.478 179.382 131.692 179.382 134.338C179.382 136.984 181.596 139.216 184.206 139.216ZM184.206 138.01C182.352 138.01 180.804 136.336 180.804 134.338C180.804 132.358 182.352 130.684 184.206 130.684C186.042 130.684 187.59 132.358 187.59 134.338C187.59 136.336 186.042 138.01 184.206 138.01ZM195.669 129.478C194.355 129.478 193.149 130.198 192.609 131.188V129.694H191.259V139H192.609V133.078C192.609 131.782 193.923 130.684 195.489 130.684C196.857 130.684 197.811 131.746 197.811 133.258V139H199.161V133.078C199.161 130.972 197.721 129.478 195.669 129.478ZM201.533 134.77H206.195V133.456H201.533V134.77ZM211.867 139.216C213.793 139.216 215.269 138.118 215.269 136.408C215.269 134.644 213.721 134.14 212.227 133.672C210.499 133.114 209.815 132.862 209.815 132.052C209.815 131.152 210.679 130.684 211.723 130.684C212.551 130.684 213.469 130.972 214.405 131.566L215.053 130.522C214.063 129.874 212.875 129.478 211.723 129.478C209.869 129.478 208.465 130.522 208.465 132.214C208.465 133.546 209.329 134.212 211.579 134.86C212.839 135.22 213.919 135.544 213.919 136.552C213.919 137.434 213.091 138.01 211.867 138.01C210.841 138.01 209.779 137.614 208.717 136.84L208.015 137.83C209.131 138.73 210.571 139.216 211.867 139.216ZM218.169 128.002C218.655 128.002 219.051 127.588 219.051 127.102C219.051 126.634 218.655 126.22 218.169 126.22C217.665 126.22 217.269 126.634 217.269 127.102C217.269 127.588 217.665 128.002 218.169 128.002ZM217.485 139H218.835V129.694H217.485V139ZM225.632 137.632C225.434 137.848 225.074 138.01 224.66 138.01C224.12 138.01 223.652 137.524 223.652 136.84V130.9H225.938V129.694H223.652V127.138H222.302V129.694H220.844V130.9H222.302V136.84C222.302 138.226 223.238 139.216 224.57 139.216C225.2 139.216 225.812 139 226.298 138.622L225.632 137.632ZM232.402 138.01C230.566 138.01 229.288 136.678 229.09 134.86H236.704C236.704 131.602 235.102 129.478 232.294 129.478C229.792 129.478 227.704 131.548 227.704 134.32C227.704 137.182 229.936 139.216 232.42 139.216C233.716 139.216 235.354 138.658 236.164 137.776L235.336 136.894C234.76 137.524 233.5 138.01 232.402 138.01ZM232.348 130.684C234.202 130.684 235.192 131.98 235.372 133.654H229.108C229.36 131.854 230.692 130.684 232.348 130.684ZM248.994 129.478C247.5 129.478 246.312 130.216 245.61 131.44V129.694H244.26V142.096H245.61V137.254C246.312 138.478 247.5 139.216 248.994 139.216C251.442 139.216 253.278 137.2 253.278 134.338C253.278 131.494 251.442 129.478 248.994 129.478ZM248.742 138.01C246.906 138.01 245.61 136.48 245.61 134.338C245.61 132.196 246.906 130.684 248.742 130.684C250.56 130.684 251.856 132.196 251.856 134.338C251.856 136.48 250.56 138.01 248.742 138.01ZM256.278 128.002C256.764 128.002 257.16 127.588 257.16 127.102C257.16 126.634 256.764 126.22 256.278 126.22C255.774 126.22 255.378 126.634 255.378 127.102C255.378 127.588 255.774 128.002 256.278 128.002ZM255.594 139H256.944V129.694H255.594V139ZM263.975 139.216C265.271 139.216 266.459 138.676 267.341 137.794L266.405 136.876C265.775 137.578 264.911 138.01 263.975 138.01C262.121 138.01 260.573 136.336 260.573 134.338C260.573 132.358 262.121 130.684 263.975 130.684C264.893 130.684 265.739 131.098 266.351 131.764L267.287 130.846C266.405 130 265.235 129.478 263.975 129.478C261.365 129.478 259.151 131.692 259.151 134.338C259.151 136.984 261.365 139.216 263.975 139.216ZM277.565 129.694H275.837L270.743 134.842V126.418H269.393V139H270.743V136.534L272.417 134.878L275.639 139H277.331L273.371 133.96L277.565 129.694ZM278.824 134.77H283.486V133.456H278.824V134.77ZM292.416 129.694V135.616C292.416 136.912 291.102 138.01 289.536 138.01C288.168 138.01 287.214 136.948 287.214 135.436V129.694H285.864V135.616C285.864 137.722 287.304 139.216 289.356 139.216C290.67 139.216 291.876 138.496 292.416 137.506V139H293.766V129.694H292.416ZM301.376 129.478C299.882 129.478 298.694 130.216 297.992 131.44V129.694H296.642V142.096H297.992V137.254C298.694 138.478 299.882 139.216 301.376 139.216C303.824 139.216 305.66 137.2 305.66 134.338C305.66 131.494 303.824 129.478 301.376 129.478ZM301.124 138.01C299.288 138.01 297.992 136.48 297.992 134.338C297.992 132.196 299.288 130.684 301.124 130.684C302.942 130.684 304.238 132.196 304.238 134.338C304.238 136.48 302.942 138.01 301.124 138.01ZM311.289 139.216C313.215 139.216 314.691 138.118 314.691 136.408C314.691 134.644 313.143 134.14 311.649 133.672C309.921 133.114 309.237 132.862 309.237 132.052C309.237 131.152 310.101 130.684 311.145 130.684C311.973 130.684 312.891 130.972 313.827 131.566L314.475 130.522C313.485 129.874 312.297 129.478 311.145 129.478C309.291 129.478 307.887 130.522 307.887 132.214C307.887 133.546 308.751 134.212 311.001 134.86C312.261 135.22 313.341 135.544 313.341 136.552C313.341 137.434 312.513 138.01 311.289 138.01C310.263 138.01 309.201 137.614 308.139 136.84L307.437 137.83C308.553 138.73 309.993 139.216 311.289 139.216ZM325.925 129.478C325.025 129.478 323.909 129.712 322.577 130.378L323.117 131.476C323.963 131.044 324.899 130.63 325.835 130.63C327.851 130.63 328.355 132.07 328.355 133.33V133.672C327.401 133.366 326.339 133.15 325.331 133.15C323.333 133.15 321.677 134.392 321.677 136.246C321.677 138.082 323.117 139.216 325.079 139.216C326.303 139.216 327.689 138.64 328.355 137.542V139H329.705V133.33C329.705 131.08 328.463 129.478 325.925 129.478ZM325.313 138.028C323.999 138.028 322.991 137.344 322.991 136.192C322.991 135.076 324.161 134.284 325.547 134.284C326.555 134.284 327.509 134.428 328.355 134.662V136.084C327.995 137.398 326.537 138.028 325.313 138.028ZM336.784 139.216C338.08 139.216 339.268 138.676 340.15 137.794L339.214 136.876C338.584 137.578 337.72 138.01 336.784 138.01C334.93 138.01 333.382 136.336 333.382 134.338C333.382 132.358 334.93 130.684 336.784 130.684C337.702 130.684 338.548 131.098 339.16 131.764L340.096 130.846C339.214 130 338.044 129.478 336.784 129.478C334.174 129.478 331.96 131.692 331.96 134.338C331.96 136.984 334.174 139.216 336.784 139.216ZM346.54 139.216C347.836 139.216 349.024 138.676 349.906 137.794L348.97 136.876C348.34 137.578 347.476 138.01 346.54 138.01C344.686 138.01 343.138 136.336 343.138 134.338C343.138 132.358 344.686 130.684 346.54 130.684C347.458 130.684 348.304 131.098 348.916 131.764L349.852 130.846C348.97 130 347.8 129.478 346.54 129.478C343.93 129.478 341.716 131.692 341.716 134.338C341.716 136.984 343.93 139.216 346.54 139.216ZM356.102 139.216C358.712 139.216 360.908 136.984 360.908 134.338C360.908 131.692 358.712 129.478 356.102 129.478C353.492 129.478 351.278 131.692 351.278 134.338C351.278 136.984 353.492 139.216 356.102 139.216ZM356.102 138.01C354.248 138.01 352.7 136.336 352.7 134.338C352.7 132.358 354.248 130.684 356.102 130.684C357.938 130.684 359.486 132.358 359.486 134.338C359.486 136.336 357.938 138.01 356.102 138.01ZM364.614 131.512V129.694H363.264V139H364.614V133.798C364.614 131.98 366.108 130.684 368.214 130.684V129.478C366.504 129.478 365.172 130.27 364.614 131.512ZM377.353 126.418V131.44C376.651 130.216 375.463 129.478 373.969 129.478C371.521 129.478 369.685 131.494 369.685 134.338C369.685 137.2 371.521 139.216 373.969 139.216C375.463 139.216 376.651 138.478 377.353 137.254V139H378.703V126.418H377.353ZM374.221 138.01C372.403 138.01 371.107 136.48 371.107 134.338C371.107 132.196 372.403 130.684 374.221 130.684C376.057 130.684 377.353 132.196 377.353 134.338C377.353 136.48 376.057 138.01 374.221 138.01ZM382.225 128.002C382.711 128.002 383.107 127.588 383.107 127.102C383.107 126.634 382.711 126.22 382.225 126.22C381.721 126.22 381.325 126.634 381.325 127.102C381.325 127.588 381.721 128.002 382.225 128.002ZM381.541 139H382.891V129.694H381.541V139ZM390.03 129.478C388.716 129.478 387.51 130.198 386.97 131.188V129.694H385.62V139H386.97V133.078C386.97 131.782 388.284 130.684 389.85 130.684C391.218 130.684 392.172 131.746 392.172 133.258V139H393.522V133.078C393.522 130.972 392.082 129.478 390.03 129.478ZM403.491 129.694V131.296C402.771 130.162 401.583 129.478 400.107 129.478C397.605 129.478 395.823 131.296 395.823 133.888C395.823 136.48 397.605 138.316 400.107 138.316C401.583 138.316 402.771 137.632 403.491 136.498V138.01C403.491 139.828 402.231 140.89 400.089 140.89C398.937 140.89 397.821 140.476 397.101 139.792L396.507 140.854C397.353 141.574 398.757 142.096 400.269 142.096C402.951 142.096 404.841 140.404 404.841 138.01V129.694H403.491ZM400.359 137.11C398.541 137.11 397.245 135.778 397.245 133.888C397.245 132.016 398.541 130.684 400.359 130.684C402.195 130.684 403.491 132.016 403.491 133.888C403.491 135.778 402.195 137.11 400.359 137.11ZM417.005 137.632C416.807 137.848 416.447 138.01 416.033 138.01C415.493 138.01 415.025 137.524 415.025 136.84V130.9H417.311V129.694H415.025V127.138H413.675V129.694H412.217V130.9H413.675V136.84C413.675 138.226 414.611 139.216 415.943 139.216C416.573 139.216 417.185 139 417.671 138.622L417.005 137.632ZM423.901 139.216C426.511 139.216 428.707 136.984 428.707 134.338C428.707 131.692 426.511 129.478 423.901 129.478C421.291 129.478 419.077 131.692 419.077 134.338C419.077 136.984 421.291 139.216 423.901 139.216ZM423.901 138.01C422.047 138.01 420.499 136.336 420.499 134.338C420.499 132.358 422.047 130.684 423.901 130.684C425.737 130.684 427.285 132.358 427.285 134.338C427.285 136.336 425.737 138.01 423.901 138.01ZM50.754 169.24C52.032 169.222 52.932 168.628 53.58 167.044L57.828 156.694H56.37L53.292 164.434L50.034 156.694H48.54L52.59 166.036L52.05 167.188C51.69 167.818 51.294 168.016 50.7 168.016C50.304 168.016 49.926 167.944 49.602 167.782L49.278 168.934C49.71 169.132 50.214 169.24 50.754 169.24ZM64.0064 166.216C66.6164 166.216 68.8124 163.984 68.8124 161.338C68.8124 158.692 66.6164 156.478 64.0064 156.478C61.3964 156.478 59.1824 158.692 59.1824 161.338C59.1824 163.984 61.3964 166.216 64.0064 166.216ZM64.0064 165.01C62.1524 165.01 60.6044 163.336 60.6044 161.338C60.6044 159.358 62.1524 157.684 64.0064 157.684C65.8424 157.684 67.3904 159.358 67.3904 161.338C67.3904 163.336 65.8424 165.01 64.0064 165.01ZM77.5938 156.694V162.616C77.5938 163.912 76.2798 165.01 74.7138 165.01C73.3458 165.01 72.3918 163.948 72.3918 162.436V156.694H71.0418V162.616C71.0418 164.722 72.4818 166.216 74.5338 166.216C75.8478 166.216 77.0538 165.496 77.5938 164.506V166H78.9438V156.694H77.5938ZM83.1702 158.512V156.694H81.8202V166H83.1702V160.798C83.1702 158.98 84.6642 157.684 86.7702 157.684V156.478C85.0602 156.478 83.7282 157.27 83.1702 158.512ZM98.1782 166.216C99.4742 166.216 100.662 165.676 101.544 164.794L100.608 163.876C99.9782 164.578 99.1142 165.01 98.1782 165.01C96.3242 165.01 94.7762 163.336 94.7762 161.338C94.7762 159.358 96.3242 157.684 98.1782 157.684C99.0962 157.684 99.9422 158.098 100.554 158.764L101.49 157.846C100.608 157 99.4382 156.478 98.1782 156.478C95.5682 156.478 93.3542 158.692 93.3542 161.338C93.3542 163.984 95.5682 166.216 98.1782 166.216ZM107.394 156.478C106.494 156.478 105.378 156.712 104.046 157.378L104.586 158.476C105.432 158.044 106.368 157.63 107.304 157.63C109.32 157.63 109.824 159.07 109.824 160.33V160.672C108.87 160.366 107.808 160.15 106.8 160.15C104.802 160.15 103.146 161.392 103.146 163.246C103.146 165.082 104.586 166.216 106.548 166.216C107.772 166.216 109.158 165.64 109.824 164.542V166H111.174V160.33C111.174 158.08 109.932 156.478 107.394 156.478ZM106.782 165.028C105.468 165.028 104.46 164.344 104.46 163.192C104.46 162.076 105.63 161.284 107.016 161.284C108.024 161.284 108.978 161.428 109.824 161.662V163.084C109.464 164.398 108.006 165.028 106.782 165.028ZM117.226 166.216C119.152 166.216 120.628 165.118 120.628 163.408C120.628 161.644 119.08 161.14 117.586 160.672C115.858 160.114 115.174 159.862 115.174 159.052C115.174 158.152 116.038 157.684 117.082 157.684C117.91 157.684 118.828 157.972 119.764 158.566L120.412 157.522C119.422 156.874 118.234 156.478 117.082 156.478C115.228 156.478 113.824 157.522 113.824 159.214C113.824 160.546 114.688 161.212 116.938 161.86C118.198 162.22 119.278 162.544 119.278 163.552C119.278 164.434 118.45 165.01 117.226 165.01C116.2 165.01 115.138 164.614 114.076 163.84L113.374 164.83C114.49 165.73 115.93 166.216 117.226 166.216ZM127.29 156.478C125.976 156.478 124.77 157.198 124.23 158.188V153.418H122.88V166H124.23V160.078C124.23 158.782 125.544 157.684 127.11 157.684C128.478 157.684 129.432 158.746 129.432 160.258V166H130.782V160.078C130.782 157.972 129.342 156.478 127.29 156.478ZM140.211 158.512V156.694H138.861V166H140.211V160.798C140.211 158.98 141.705 157.684 143.811 157.684V156.478C142.101 156.478 140.769 157.27 140.211 158.512ZM149.873 165.01C148.037 165.01 146.759 163.678 146.561 161.86H154.175C154.175 158.602 152.573 156.478 149.765 156.478C147.263 156.478 145.175 158.548 145.175 161.32C145.175 164.182 147.407 166.216 149.891 166.216C151.187 166.216 152.825 165.658 153.635 164.776L152.807 163.894C152.231 164.524 150.971 165.01 149.873 165.01ZM149.819 157.684C151.673 157.684 152.663 158.98 152.843 160.654H146.579C146.831 158.854 148.163 157.684 149.819 157.684ZM163.656 156.694V158.44C162.954 157.216 161.766 156.478 160.272 156.478C157.824 156.478 155.988 158.494 155.988 161.338C155.988 164.2 157.824 166.216 160.272 166.216C161.766 166.216 162.954 165.478 163.656 164.254V169.096H165.006V156.694H163.656ZM160.524 165.01C158.706 165.01 157.41 163.48 157.41 161.338C157.41 159.196 158.706 157.684 160.524 157.684C162.36 157.684 163.656 159.196 163.656 161.338C163.656 163.48 162.36 165.01 160.524 165.01ZM174.414 156.694V162.616C174.414 163.912 173.1 165.01 171.534 165.01C170.166 165.01 169.212 163.948 169.212 162.436V156.694H167.862V162.616C167.862 164.722 169.302 166.216 171.354 166.216C172.668 166.216 173.874 165.496 174.414 164.506V166H175.764V156.694H174.414ZM179.18 155.002C179.666 155.002 180.062 154.588 180.062 154.102C180.062 153.634 179.666 153.22 179.18 153.22C178.676 153.22 178.28 153.634 178.28 154.102C178.28 154.588 178.676 155.002 179.18 155.002ZM178.496 166H179.846V156.694H178.496V166ZM184.033 158.512V156.694H182.683V166H184.033V160.798C184.033 158.98 185.527 157.684 187.633 157.684V156.478C185.923 156.478 184.591 157.27 184.033 158.512ZM193.695 165.01C191.859 165.01 190.581 163.678 190.383 161.86H197.997C197.997 158.602 196.395 156.478 193.587 156.478C191.085 156.478 188.997 158.548 188.997 161.32C188.997 164.182 191.229 166.216 193.713 166.216C195.009 166.216 196.647 165.658 197.457 164.776L196.629 163.894C196.053 164.524 194.793 165.01 193.695 165.01ZM193.641 157.684C195.495 157.684 196.485 158.98 196.665 160.654H190.401C190.653 158.854 191.985 157.684 193.641 157.684ZM210.268 156.478C208.864 156.478 207.64 157.252 207.262 158.458C206.758 157.252 205.66 156.478 204.256 156.478C203.032 156.478 202.024 157.09 201.556 158.062V156.694H200.206V166H201.556V160.078C201.556 158.674 202.6 157.684 204.076 157.684C205.336 157.684 206.218 158.746 206.218 160.258V166H207.568V160.078C207.568 158.674 208.612 157.684 210.088 157.684C211.348 157.684 212.23 158.746 212.23 160.258V166H213.58V160.078C213.58 157.972 212.212 156.478 210.268 156.478ZM220.501 165.01C218.665 165.01 217.387 163.678 217.189 161.86H224.803C224.803 158.602 223.201 156.478 220.393 156.478C217.891 156.478 215.803 158.548 215.803 161.32C215.803 164.182 218.035 166.216 220.519 166.216C221.815 166.216 223.453 165.658 224.263 164.776L223.435 163.894C222.859 164.524 221.599 165.01 220.501 165.01ZM220.447 157.684C222.301 157.684 223.291 158.98 223.471 160.654H217.207C217.459 158.854 218.791 157.684 220.447 157.684ZM231.441 156.478C230.127 156.478 228.921 157.198 228.381 158.188V156.694H227.031V166H228.381V160.078C228.381 158.782 229.695 157.684 231.261 157.684C232.629 157.684 233.583 158.746 233.583 160.258V166H234.933V160.078C234.933 157.972 233.493 156.478 231.441 156.478ZM241.751 164.632C241.553 164.848 241.193 165.01 240.779 165.01C240.239 165.01 239.771 164.524 239.771 163.84V157.9H242.057V156.694H239.771V154.138H238.421V156.694H236.963V157.9H238.421V163.84C238.421 165.226 239.357 166.216 240.689 166.216C241.319 166.216 241.931 166 242.417 165.622L241.751 164.632ZM253.976 156.478C252.662 156.478 251.456 157.198 250.916 158.188V156.694H249.566V166H250.916V160.078C250.916 158.782 252.23 157.684 253.796 157.684C255.164 157.684 256.118 158.746 256.118 160.258V166H257.468V160.078C257.468 157.972 256.028 156.478 253.976 156.478ZM264.394 165.01C262.558 165.01 261.28 163.678 261.082 161.86H268.696C268.696 158.602 267.094 156.478 264.286 156.478C261.784 156.478 259.696 158.548 259.696 161.32C259.696 164.182 261.928 166.216 264.412 166.216C265.708 166.216 267.346 165.658 268.156 164.776L267.328 163.894C266.752 164.524 265.492 165.01 264.394 165.01ZM264.34 157.684C266.194 157.684 267.184 158.98 267.364 160.654H261.1C261.352 158.854 262.684 157.684 264.34 157.684ZM275.099 165.01C273.263 165.01 271.985 163.678 271.787 161.86H279.401C279.401 158.602 277.799 156.478 274.991 156.478C272.489 156.478 270.401 158.548 270.401 161.32C270.401 164.182 272.633 166.216 275.117 166.216C276.413 166.216 278.051 165.658 278.861 164.776L278.033 163.894C277.457 164.524 276.197 165.01 275.099 165.01ZM275.045 157.684C276.899 157.684 277.889 158.98 278.069 160.654H271.805C272.057 158.854 273.389 157.684 275.045 157.684ZM288.882 153.418V158.44C288.18 157.216 286.992 156.478 285.498 156.478C283.05 156.478 281.214 158.494 281.214 161.338C281.214 164.2 283.05 166.216 285.498 166.216C286.992 166.216 288.18 165.478 288.882 164.254V166H290.232V153.418H288.882ZM285.75 165.01C283.932 165.01 282.636 163.48 282.636 161.338C282.636 159.196 283.932 157.684 285.75 157.684C287.586 157.684 288.882 159.196 288.882 161.338C288.882 163.48 287.586 165.01 285.75 165.01ZM296.383 166.216C298.309 166.216 299.785 165.118 299.785 163.408C299.785 161.644 298.237 161.14 296.743 160.672C295.015 160.114 294.331 159.862 294.331 159.052C294.331 158.152 295.195 157.684 296.239 157.684C297.067 157.684 297.985 157.972 298.921 158.566L299.569 157.522C298.579 156.874 297.391 156.478 296.239 156.478C294.385 156.478 292.981 157.522 292.981 159.214C292.981 160.546 293.845 161.212 296.095 161.86C297.355 162.22 298.435 162.544 298.435 163.552C298.435 164.434 297.607 165.01 296.383 165.01C295.357 165.01 294.295 164.614 293.233 163.84L292.531 164.83C293.647 165.73 295.087 166.216 296.383 166.216Z" fill="#E4E4E4"/>
<line y1="201.897" x2="32" y2="201.897" stroke="#E4E4E4"/>
<path d="M49.692 209H55.578C57.72 209 59.25 207.596 59.25 205.616C59.25 204.266 58.422 203.15 57 202.43C58.116 201.782 58.764 201.026 58.764 199.712C58.764 197.912 57.36 196.634 55.362 196.634H49.692V209ZM51.096 201.872V197.912H55.002C56.37 197.912 57.342 198.74 57.342 199.892C57.342 201.044 56.37 201.872 55.002 201.872H51.096ZM51.096 207.722V203.15H55.218C56.748 203.15 57.828 204.104 57.828 205.436C57.828 206.768 56.748 207.722 55.218 207.722H51.096ZM65.9575 209.216C68.5675 209.216 70.7635 206.984 70.7635 204.338C70.7635 201.692 68.5675 199.478 65.9575 199.478C63.3475 199.478 61.1335 201.692 61.1335 204.338C61.1335 206.984 63.3475 209.216 65.9575 209.216ZM65.9575 208.01C64.1035 208.01 62.5555 206.336 62.5555 204.338C62.5555 202.358 64.1035 200.684 65.9575 200.684C67.7935 200.684 69.3415 202.358 69.3415 204.338C69.3415 206.336 67.7935 208.01 65.9575 208.01ZM77.313 209.216C79.923 209.216 82.119 206.984 82.119 204.338C82.119 201.692 79.923 199.478 77.313 199.478C74.703 199.478 72.489 201.692 72.489 204.338C72.489 206.984 74.703 209.216 77.313 209.216ZM77.313 208.01C75.459 208.01 73.911 206.336 73.911 204.338C73.911 202.358 75.459 200.684 77.313 200.684C79.149 200.684 80.697 202.358 80.697 204.338C80.697 206.336 79.149 208.01 77.313 208.01ZM92.5025 199.694H90.7745L85.6805 204.842V196.418H84.3305V209H85.6805V206.534L87.3545 204.878L90.5765 209H92.2685L88.3085 203.96L92.5025 199.694ZM103.663 209.216C106.273 209.216 108.469 206.984 108.469 204.338C108.469 201.692 106.273 199.478 103.663 199.478C101.053 199.478 98.8386 201.692 98.8386 204.338C98.8386 206.984 101.053 209.216 103.663 209.216ZM103.663 208.01C101.809 208.01 100.261 206.336 100.261 204.338C100.261 202.358 101.809 200.684 103.663 200.684C105.499 200.684 107.047 202.358 107.047 204.338C107.047 206.336 105.499 208.01 103.663 208.01ZM112.804 198.416C112.804 197.732 113.272 197.246 113.812 197.246C114.226 197.246 114.586 197.408 114.784 197.624L115.45 196.634C114.964 196.256 114.352 196.04 113.722 196.04C112.39 196.04 111.454 197.03 111.454 198.416V199.694H109.996V200.9H111.454V209H112.804V200.9H115.09V199.694H112.804V198.416ZM119.115 198.416C119.115 197.732 119.583 197.246 120.123 197.246C120.537 197.246 120.897 197.408 121.095 197.624L121.761 196.634C121.275 196.256 120.663 196.04 120.033 196.04C118.701 196.04 117.765 197.03 117.765 198.416V199.694H116.307V200.9H117.765V209H119.115V200.9H121.401V199.694H119.115V198.416ZM122.959 204.77H127.621V203.456H122.959V204.77ZM133.293 209.216C135.219 209.216 136.695 208.118 136.695 206.408C136.695 204.644 135.147 204.14 133.653 203.672C131.925 203.114 131.241 202.862 131.241 202.052C131.241 201.152 132.105 200.684 133.149 200.684C133.977 200.684 134.895 200.972 135.831 201.566L136.479 200.522C135.489 199.874 134.301 199.478 133.149 199.478C131.295 199.478 129.891 200.522 129.891 202.214C129.891 203.546 130.755 204.212 133.005 204.86C134.265 205.22 135.345 205.544 135.345 206.552C135.345 207.434 134.517 208.01 133.293 208.01C132.267 208.01 131.205 207.614 130.143 206.84L129.441 207.83C130.557 208.73 131.997 209.216 133.293 209.216ZM139.595 198.002C140.081 198.002 140.477 197.588 140.477 197.102C140.477 196.634 140.081 196.22 139.595 196.22C139.091 196.22 138.695 196.634 138.695 197.102C138.695 197.588 139.091 198.002 139.595 198.002ZM138.911 209H140.261V199.694H138.911V209ZM147.058 207.632C146.86 207.848 146.5 208.01 146.086 208.01C145.546 208.01 145.078 207.524 145.078 206.84V200.9H147.364V199.694H145.078V197.138H143.728V199.694H142.27V200.9H143.728V206.84C143.728 208.226 144.664 209.216 145.996 209.216C146.626 209.216 147.238 209 147.724 208.622L147.058 207.632ZM153.828 208.01C151.992 208.01 150.714 206.678 150.516 204.86H158.13C158.13 201.602 156.528 199.478 153.72 199.478C151.218 199.478 149.13 201.548 149.13 204.32C149.13 207.182 151.362 209.216 153.846 209.216C155.142 209.216 156.78 208.658 157.59 207.776L156.762 206.894C156.186 207.524 154.926 208.01 153.828 208.01ZM153.774 200.684C155.628 200.684 156.618 201.98 156.798 203.654H150.534C150.786 201.854 152.118 200.684 153.774 200.684ZM170.419 199.478C168.925 199.478 167.737 200.216 167.035 201.44V199.694H165.685V212.096H167.035V207.254C167.737 208.478 168.925 209.216 170.419 209.216C172.867 209.216 174.703 207.2 174.703 204.338C174.703 201.494 172.867 199.478 170.419 199.478ZM170.167 208.01C168.331 208.01 167.035 206.48 167.035 204.338C167.035 202.196 168.331 200.684 170.167 200.684C171.985 200.684 173.281 202.196 173.281 204.338C173.281 206.48 171.985 208.01 170.167 208.01ZM177.704 198.002C178.19 198.002 178.586 197.588 178.586 197.102C178.586 196.634 178.19 196.22 177.704 196.22C177.2 196.22 176.804 196.634 176.804 197.102C176.804 197.588 177.2 198.002 177.704 198.002ZM177.02 209H178.37V199.694H177.02V209ZM185.401 209.216C186.697 209.216 187.885 208.676 188.767 207.794L187.831 206.876C187.201 207.578 186.337 208.01 185.401 208.01C183.547 208.01 181.999 206.336 181.999 204.338C181.999 202.358 183.547 200.684 185.401 200.684C186.319 200.684 187.165 201.098 187.777 201.764L188.713 200.846C187.831 200 186.661 199.478 185.401 199.478C182.791 199.478 180.577 201.692 180.577 204.338C180.577 206.984 182.791 209.216 185.401 209.216ZM198.991 199.694H197.263L192.169 204.842V196.418H190.819V209H192.169V206.534L193.843 204.878L197.065 209H198.757L194.797 203.96L198.991 199.694ZM200.25 204.77H204.912V203.456H200.25V204.77ZM213.842 199.694V205.616C213.842 206.912 212.528 208.01 210.962 208.01C209.594 208.01 208.64 206.948 208.64 205.436V199.694H207.29V205.616C207.29 207.722 208.73 209.216 210.782 209.216C212.096 209.216 213.302 208.496 213.842 207.506V209H215.192V199.694H213.842ZM222.802 199.478C221.308 199.478 220.12 200.216 219.418 201.44V199.694H218.068V212.096H219.418V207.254C220.12 208.478 221.308 209.216 222.802 209.216C225.25 209.216 227.086 207.2 227.086 204.338C227.086 201.494 225.25 199.478 222.802 199.478ZM222.55 208.01C220.714 208.01 219.418 206.48 219.418 204.338C219.418 202.196 220.714 200.684 222.55 200.684C224.368 200.684 225.664 202.196 225.664 204.338C225.664 206.48 224.368 208.01 222.55 208.01ZM232.715 209.216C234.641 209.216 236.117 208.118 236.117 206.408C236.117 204.644 234.569 204.14 233.075 203.672C231.347 203.114 230.663 202.862 230.663 202.052C230.663 201.152 231.527 200.684 232.571 200.684C233.399 200.684 234.317 200.972 235.253 201.566L235.901 200.522C234.911 199.874 233.723 199.478 232.571 199.478C230.717 199.478 229.313 200.522 229.313 202.214C229.313 203.546 230.177 204.212 232.427 204.86C233.687 205.22 234.767 205.544 234.767 206.552C234.767 207.434 233.939 208.01 232.715 208.01C231.689 208.01 230.627 207.614 229.565 206.84L228.863 207.83C229.979 208.73 231.419 209.216 232.715 209.216ZM247.657 207.632C247.459 207.848 247.099 208.01 246.685 208.01C246.145 208.01 245.677 207.524 245.677 206.84V200.9H247.963V199.694H245.677V197.138H244.327V199.694H242.869V200.9H244.327V206.84C244.327 208.226 245.263 209.216 246.595 209.216C247.225 209.216 247.837 209 248.323 208.622L247.657 207.632ZM254.553 209.216C257.163 209.216 259.359 206.984 259.359 204.338C259.359 201.692 257.163 199.478 254.553 199.478C251.943 199.478 249.729 201.692 249.729 204.338C249.729 206.984 251.943 209.216 254.553 209.216ZM254.553 208.01C252.699 208.01 251.151 206.336 251.151 204.338C251.151 202.358 252.699 200.684 254.553 200.684C256.389 200.684 257.937 202.358 257.937 204.338C257.937 206.336 256.389 208.01 254.553 208.01ZM268.195 212.24C269.473 212.222 270.373 211.628 271.021 210.044L275.269 199.694H273.811L270.733 207.434L267.475 199.694H265.981L270.031 209.036L269.491 210.188C269.131 210.818 268.735 211.016 268.141 211.016C267.745 211.016 267.367 210.944 267.043 210.782L266.719 211.934C267.151 212.132 267.655 212.24 268.195 212.24ZM281.448 209.216C284.058 209.216 286.254 206.984 286.254 204.338C286.254 201.692 284.058 199.478 281.448 199.478C278.838 199.478 276.624 201.692 276.624 204.338C276.624 206.984 278.838 209.216 281.448 209.216ZM281.448 208.01C279.594 208.01 278.046 206.336 278.046 204.338C278.046 202.358 279.594 200.684 281.448 200.684C283.284 200.684 284.832 202.358 284.832 204.338C284.832 206.336 283.284 208.01 281.448 208.01ZM295.035 199.694V205.616C295.035 206.912 293.721 208.01 292.155 208.01C290.787 208.01 289.833 206.948 289.833 205.436V199.694H288.483V205.616C288.483 207.722 289.923 209.216 291.975 209.216C293.289 209.216 294.495 208.496 295.035 207.506V209H296.385V199.694H295.035ZM300.612 201.512V199.694H299.262V209H300.612V203.798C300.612 201.98 302.106 200.684 304.212 200.684V199.478C302.502 199.478 301.17 200.27 300.612 201.512ZM316.16 199.478C314.666 199.478 313.478 200.216 312.776 201.44V199.694H311.426V212.096H312.776V207.254C313.478 208.478 314.666 209.216 316.16 209.216C318.608 209.216 320.444 207.2 320.444 204.338C320.444 201.494 318.608 199.478 316.16 199.478ZM315.908 208.01C314.072 208.01 312.776 206.48 312.776 204.338C312.776 202.196 314.072 200.684 315.908 200.684C317.726 200.684 319.022 202.196 319.022 204.338C319.022 206.48 317.726 208.01 315.908 208.01ZM326.558 199.478C325.658 199.478 324.542 199.712 323.21 200.378L323.75 201.476C324.596 201.044 325.532 200.63 326.468 200.63C328.484 200.63 328.988 202.07 328.988 203.33V203.672C328.034 203.366 326.972 203.15 325.964 203.15C323.966 203.15 322.31 204.392 322.31 206.246C322.31 208.082 323.75 209.216 325.712 209.216C326.936 209.216 328.322 208.64 328.988 207.542V209H330.338V203.33C330.338 201.08 329.096 199.478 326.558 199.478ZM325.946 208.028C324.632 208.028 323.624 207.344 323.624 206.192C323.624 205.076 324.794 204.284 326.18 204.284C327.188 204.284 328.142 204.428 328.988 204.662V206.084C328.628 207.398 327.17 208.028 325.946 208.028ZM334.573 201.512V199.694H333.223V209H334.573V203.798C334.573 201.98 336.067 200.684 338.173 200.684V199.478C336.463 199.478 335.131 200.27 334.573 201.512ZM344.126 207.632C343.928 207.848 343.568 208.01 343.154 208.01C342.614 208.01 342.146 207.524 342.146 206.84V200.9H344.432V199.694H342.146V197.138H340.796V199.694H339.338V200.9H340.796V206.84C340.796 208.226 341.732 209.216 343.064 209.216C343.694 209.216 344.306 209 344.792 208.622L344.126 207.632ZM351.13 199.478C349.816 199.478 348.61 200.198 348.07 201.188V199.694H346.72V209H348.07V203.078C348.07 201.782 349.384 200.684 350.95 200.684C352.318 200.684 353.272 201.746 353.272 203.258V209H354.622V203.078C354.622 200.972 353.182 199.478 351.13 199.478ZM361.548 208.01C359.712 208.01 358.434 206.678 358.236 204.86H365.85C365.85 201.602 364.248 199.478 361.44 199.478C358.938 199.478 356.85 201.548 356.85 204.32C356.85 207.182 359.082 209.216 361.566 209.216C362.862 209.216 364.5 208.658 365.31 207.776L364.482 206.894C363.906 207.524 362.646 208.01 361.548 208.01ZM361.494 200.684C363.348 200.684 364.338 201.98 364.518 203.654H358.254C358.506 201.854 359.838 200.684 361.494 200.684ZM369.535 201.512V199.694H368.185V209H369.535V203.798C369.535 201.98 371.029 200.684 373.135 200.684V199.478C371.425 199.478 370.093 200.27 369.535 201.512ZM51.474 225.416C51.474 224.732 51.942 224.246 52.482 224.246C52.896 224.246 53.256 224.408 53.454 224.624L54.12 223.634C53.634 223.256 53.022 223.04 52.392 223.04C51.06 223.04 50.124 224.03 50.124 225.416V226.694H48.666V227.9H50.124V236H51.474V227.9H53.76V226.694H51.474V225.416ZM59.4585 226.478C58.5585 226.478 57.4425 226.712 56.1105 227.378L56.6505 228.476C57.4965 228.044 58.4325 227.63 59.3685 227.63C61.3845 227.63 61.8885 229.07 61.8885 230.33V230.672C60.9345 230.366 59.8725 230.15 58.8645 230.15C56.8665 230.15 55.2105 231.392 55.2105 233.246C55.2105 235.082 56.6505 236.216 58.6125 236.216C59.8365 236.216 61.2225 235.64 61.8885 234.542V236H63.2385V230.33C63.2385 228.08 61.9965 226.478 59.4585 226.478ZM58.8465 235.028C57.5325 235.028 56.5245 234.344 56.5245 233.192C56.5245 232.076 57.6945 231.284 59.0805 231.284C60.0885 231.284 61.0425 231.428 61.8885 231.662V233.084C61.5285 234.398 60.0705 235.028 58.8465 235.028ZM70.3169 236.216C71.6129 236.216 72.8009 235.676 73.6829 234.794L72.7469 233.876C72.1169 234.578 71.2529 235.01 70.3169 235.01C68.4629 235.01 66.9149 233.336 66.9149 231.338C66.9149 229.358 68.4629 227.684 70.3169 227.684C71.2349 227.684 72.0809 228.098 72.6929 228.764L73.6289 227.846C72.7469 227 71.5769 226.478 70.3169 226.478C67.7069 226.478 65.4929 228.692 65.4929 231.338C65.4929 233.984 67.7069 236.216 70.3169 236.216ZM76.4188 225.002C76.9048 225.002 77.3008 224.588 77.3008 224.102C77.3008 223.634 76.9048 223.22 76.4188 223.22C75.9148 223.22 75.5188 223.634 75.5188 224.102C75.5188 224.588 75.9148 225.002 76.4188 225.002ZM75.7348 236H77.0848V226.694H75.7348V236ZM79.7957 236H81.1457V223.418H79.7957V236ZM84.5399 225.002C85.0259 225.002 85.4219 224.588 85.4219 224.102C85.4219 223.634 85.0259 223.22 84.5399 223.22C84.0359 223.22 83.6399 223.634 83.6399 224.102C83.6399 224.588 84.0359 225.002 84.5399 225.002ZM83.8559 236H85.2059V226.694H83.8559V236ZM92.0028 234.632C91.8048 234.848 91.4448 235.01 91.0308 235.01C90.4908 235.01 90.0228 234.524 90.0228 233.84V227.9H92.3088V226.694H90.0228V224.138H88.6728V226.694H87.2148V227.9H88.6728V233.84C88.6728 235.226 89.6088 236.216 90.9408 236.216C91.5708 236.216 92.1828 236 92.6688 235.622L92.0028 234.632ZM95.2449 225.002C95.7309 225.002 96.1269 224.588 96.1269 224.102C96.1269 223.634 95.7309 223.22 95.2449 223.22C94.7409 223.22 94.3449 223.634 94.3449 224.102C94.3449 224.588 94.7409 225.002 95.2449 225.002ZM94.5609 236H95.9109V226.694H94.5609V236ZM102.816 235.01C100.98 235.01 99.7019 233.678 99.5039 231.86H107.118C107.118 228.602 105.516 226.478 102.708 226.478C100.206 226.478 98.1179 228.548 98.1179 231.32C98.1179 234.182 100.35 236.216 102.834 236.216C104.13 236.216 105.768 235.658 106.578 234.776L105.75 233.894C105.174 234.524 103.914 235.01 102.816 235.01ZM102.762 227.684C104.616 227.684 105.606 228.98 105.786 230.654H99.5219C99.7739 228.854 101.106 227.684 102.762 227.684ZM112.621 236.216C114.547 236.216 116.023 235.118 116.023 233.408C116.023 231.644 114.475 231.14 112.981 230.672C111.253 230.114 110.569 229.862 110.569 229.052C110.569 228.152 111.433 227.684 112.477 227.684C113.305 227.684 114.223 227.972 115.159 228.566L115.807 227.522C114.817 226.874 113.629 226.478 112.477 226.478C110.623 226.478 109.219 227.522 109.219 229.214C109.219 230.546 110.083 231.212 112.333 231.86C113.593 232.22 114.673 232.544 114.673 233.552C114.673 234.434 113.845 235.01 112.621 235.01C111.595 235.01 110.533 234.614 109.471 233.84L108.769 234.83C109.885 235.73 111.325 236.216 112.621 236.216ZM127.257 226.478C126.357 226.478 125.241 226.712 123.909 227.378L124.449 228.476C125.295 228.044 126.231 227.63 127.167 227.63C129.183 227.63 129.687 229.07 129.687 230.33V230.672C128.733 230.366 127.671 230.15 126.663 230.15C124.665 230.15 123.009 231.392 123.009 233.246C123.009 235.082 124.449 236.216 126.411 236.216C127.635 236.216 129.021 235.64 129.687 234.542V236H131.037V230.33C131.037 228.08 129.795 226.478 127.257 226.478ZM126.645 235.028C125.331 235.028 124.323 234.344 124.323 233.192C124.323 232.076 125.493 231.284 126.879 231.284C127.887 231.284 128.841 231.428 129.687 231.662V233.084C129.327 234.398 127.869 235.028 126.645 235.028ZM138.224 226.478C136.91 226.478 135.704 227.198 135.164 228.188V226.694H133.814V236H135.164V230.078C135.164 228.782 136.478 227.684 138.044 227.684C139.412 227.684 140.366 228.746 140.366 230.258V236H141.716V230.078C141.716 227.972 140.276 226.478 138.224 226.478ZM151.72 223.418V228.44C151.018 227.216 149.83 226.478 148.336 226.478C145.888 226.478 144.052 228.494 144.052 231.338C144.052 234.2 145.888 236.216 148.336 236.216C149.83 236.216 151.018 235.478 151.72 234.254V236H153.07V223.418H151.72ZM148.588 235.01C146.77 235.01 145.474 233.48 145.474 231.338C145.474 229.196 146.77 227.684 148.588 227.684C150.424 227.684 151.72 229.196 151.72 231.338C151.72 233.48 150.424 235.01 148.588 235.01ZM165.467 236.216C168.077 236.216 170.273 233.984 170.273 231.338C170.273 228.692 168.077 226.478 165.467 226.478C162.857 226.478 160.643 228.692 160.643 231.338C160.643 233.984 162.857 236.216 165.467 236.216ZM165.467 235.01C163.613 235.01 162.065 233.336 162.065 231.338C162.065 229.358 163.613 227.684 165.467 227.684C167.303 227.684 168.851 229.358 168.851 231.338C168.851 233.336 167.303 235.01 165.467 235.01ZM176.589 234.632C176.391 234.848 176.031 235.01 175.617 235.01C175.077 235.01 174.609 234.524 174.609 233.84V227.9H176.895V226.694H174.609V224.138H173.259V226.694H171.801V227.9H173.259V233.84C173.259 235.226 174.195 236.216 175.527 236.216C176.157 236.216 176.769 236 177.255 235.622L176.589 234.632ZM183.593 226.478C182.279 226.478 181.073 227.198 180.533 228.188V223.418H179.183V236H180.533V230.078C180.533 228.782 181.847 227.684 183.413 227.684C184.781 227.684 185.735 228.746 185.735 230.258V236H187.085V230.078C187.085 227.972 185.645 226.478 183.593 226.478ZM194.011 235.01C192.175 235.01 190.897 233.678 190.699 231.86H198.313C198.313 228.602 196.711 226.478 193.903 226.478C191.401 226.478 189.313 228.548 189.313 231.32C189.313 234.182 191.545 236.216 194.029 236.216C195.325 236.216 196.963 235.658 197.773 234.776L196.945 233.894C196.369 234.524 195.109 235.01 194.011 235.01ZM193.957 227.684C195.811 227.684 196.801 228.98 196.981 230.654H190.717C190.969 228.854 192.301 227.684 193.957 227.684ZM201.998 228.512V226.694H200.648V236H201.998V230.798C201.998 228.98 203.492 227.684 205.598 227.684V226.478C203.888 226.478 202.556 227.27 201.998 228.512ZM215.764 236H217.06L220.966 226.694H219.454L216.412 234.416L213.316 226.694H211.804L215.764 236ZM226.39 235.01C224.554 235.01 223.276 233.678 223.078 231.86H230.692C230.692 228.602 229.09 226.478 226.282 226.478C223.78 226.478 221.692 228.548 221.692 231.32C221.692 234.182 223.924 236.216 226.408 236.216C227.704 236.216 229.342 235.658 230.152 234.776L229.324 233.894C228.748 234.524 227.488 235.01 226.39 235.01ZM226.336 227.684C228.19 227.684 229.18 228.98 229.36 230.654H223.096C223.348 228.854 224.68 227.684 226.336 227.684ZM237.329 226.478C236.015 226.478 234.809 227.198 234.269 228.188V226.694H232.919V236H234.269V230.078C234.269 228.782 235.583 227.684 237.149 227.684C238.517 227.684 239.471 228.746 239.471 230.258V236H240.821V230.078C240.821 227.972 239.381 226.478 237.329 226.478ZM250.826 223.418V228.44C250.124 227.216 248.936 226.478 247.442 226.478C244.994 226.478 243.158 228.494 243.158 231.338C243.158 234.2 244.994 236.216 247.442 236.216C248.936 236.216 250.124 235.478 250.826 234.254V236H252.176V223.418H250.826ZM247.694 235.01C245.876 235.01 244.58 233.48 244.58 231.338C244.58 229.196 245.876 227.684 247.694 227.684C249.53 227.684 250.826 229.196 250.826 231.338C250.826 233.48 249.53 235.01 247.694 235.01ZM259.352 236.216C261.962 236.216 264.158 233.984 264.158 231.338C264.158 228.692 261.962 226.478 259.352 226.478C256.742 226.478 254.528 228.692 254.528 231.338C254.528 233.984 256.742 236.216 259.352 236.216ZM259.352 235.01C257.498 235.01 255.95 233.336 255.95 231.338C255.95 229.358 257.498 227.684 259.352 227.684C261.188 227.684 262.736 229.358 262.736 231.338C262.736 233.336 261.188 235.01 259.352 235.01ZM267.864 228.512V226.694H266.514V236H267.864V230.798C267.864 228.98 269.358 227.684 271.464 227.684V226.478C269.754 226.478 268.422 227.27 267.864 228.512ZM276.625 236.216C278.551 236.216 280.027 235.118 280.027 233.408C280.027 231.644 278.479 231.14 276.985 230.672C275.257 230.114 274.573 229.862 274.573 229.052C274.573 228.152 275.437 227.684 276.481 227.684C277.309 227.684 278.227 227.972 279.163 228.566L279.811 227.522C278.821 226.874 277.633 226.478 276.481 226.478C274.627 226.478 273.223 227.522 273.223 229.214C273.223 230.546 274.087 231.212 276.337 231.86C277.597 232.22 278.677 232.544 278.677 233.552C278.677 234.434 277.849 235.01 276.625 235.01C275.599 235.01 274.537 234.614 273.475 233.84L272.773 234.83C273.889 235.73 275.329 236.216 276.625 236.216Z" fill="#E4E4E4"/>
<line y1="271.897" x2="32" y2="271.897" stroke="#E4E4E4"/>
<path d="M55.272 279.216C56.982 279.216 58.566 278.478 59.718 277.326L58.764 276.354C57.864 277.308 56.622 277.92 55.272 277.92C52.608 277.92 50.358 275.58 50.358 272.808C50.358 270.054 52.608 267.714 55.272 267.714C56.622 267.714 57.864 268.326 58.764 269.28L59.718 268.308C58.566 267.138 56.982 266.418 55.272 266.418C51.852 266.418 48.936 269.334 48.936 272.808C48.936 276.282 51.852 279.216 55.272 279.216ZM65.9224 279.216C68.5324 279.216 70.7284 276.984 70.7284 274.338C70.7284 271.692 68.5324 269.478 65.9224 269.478C63.3124 269.478 61.0984 271.692 61.0984 274.338C61.0984 276.984 63.3124 279.216 65.9224 279.216ZM65.9224 278.01C64.0684 278.01 62.5204 276.336 62.5204 274.338C62.5204 272.358 64.0684 270.684 65.9224 270.684C67.7584 270.684 69.3064 272.358 69.3064 274.338C69.3064 276.336 67.7584 278.01 65.9224 278.01ZM83.0198 269.478C81.6158 269.478 80.3918 270.252 80.0138 271.458C79.5098 270.252 78.4118 269.478 77.0078 269.478C75.7838 269.478 74.7758 270.09 74.3078 271.062V269.694H72.9578V279H74.3078V273.078C74.3078 271.674 75.3518 270.684 76.8278 270.684C78.0878 270.684 78.9698 271.746 78.9698 273.258V279H80.3198V273.078C80.3198 271.674 81.3638 270.684 82.8398 270.684C84.0998 270.684 84.9818 271.746 84.9818 273.258V279H86.3318V273.078C86.3318 270.972 84.9638 269.478 83.0198 269.478ZM99.1214 269.478C97.7174 269.478 96.4934 270.252 96.1154 271.458C95.6114 270.252 94.5134 269.478 93.1094 269.478C91.8854 269.478 90.8774 270.09 90.4094 271.062V269.694H89.0594V279H90.4094V273.078C90.4094 271.674 91.4534 270.684 92.9294 270.684C94.1894 270.684 95.0714 271.746 95.0714 273.258V279H96.4214V273.078C96.4214 271.674 97.4654 270.684 98.9414 270.684C100.201 270.684 101.083 271.746 101.083 273.258V279H102.433V273.078C102.433 270.972 101.065 269.478 99.1214 269.478ZM111.713 269.694V275.616C111.713 276.912 110.399 278.01 108.833 278.01C107.465 278.01 106.511 276.948 106.511 275.436V269.694H105.161V275.616C105.161 277.722 106.601 279.216 108.653 279.216C109.967 279.216 111.173 278.496 111.713 277.506V279H113.063V269.694H111.713ZM120.241 269.478C118.927 269.478 117.721 270.198 117.181 271.188V269.694H115.831V279H117.181V273.078C117.181 271.782 118.495 270.684 120.061 270.684C121.429 270.684 122.383 271.746 122.383 273.258V279H123.733V273.078C123.733 270.972 122.293 269.478 120.241 269.478ZM127.132 268.002C127.618 268.002 128.014 267.588 128.014 267.102C128.014 266.634 127.618 266.22 127.132 266.22C126.628 266.22 126.232 266.634 126.232 267.102C126.232 267.588 126.628 268.002 127.132 268.002ZM126.448 279H127.798V269.694H126.448V279ZM134.829 279.216C136.125 279.216 137.313 278.676 138.195 277.794L137.259 276.876C136.629 277.578 135.765 278.01 134.829 278.01C132.975 278.01 131.427 276.336 131.427 274.338C131.427 272.358 132.975 270.684 134.829 270.684C135.747 270.684 136.593 271.098 137.205 271.764L138.141 270.846C137.259 270 136.089 269.478 134.829 269.478C132.219 269.478 130.005 271.692 130.005 274.338C130.005 276.984 132.219 279.216 134.829 279.216ZM144.044 269.478C143.144 269.478 142.028 269.712 140.696 270.378L141.236 271.476C142.082 271.044 143.018 270.63 143.954 270.63C145.97 270.63 146.474 272.07 146.474 273.33V273.672C145.52 273.366 144.458 273.15 143.45 273.15C141.452 273.15 139.796 274.392 139.796 276.246C139.796 278.082 141.236 279.216 143.198 279.216C144.422 279.216 145.808 278.64 146.474 277.542V279H147.824V273.33C147.824 271.08 146.582 269.478 144.044 269.478ZM143.432 278.028C142.118 278.028 141.11 277.344 141.11 276.192C141.11 275.076 142.28 274.284 143.666 274.284C144.674 274.284 145.628 274.428 146.474 274.662V276.084C146.114 277.398 144.656 278.028 143.432 278.028ZM154.669 277.632C154.471 277.848 154.111 278.01 153.697 278.01C153.157 278.01 152.689 277.524 152.689 276.84V270.9H154.975V269.694H152.689V267.138H151.339V269.694H149.881V270.9H151.339V276.84C151.339 278.226 152.275 279.216 153.607 279.216C154.237 279.216 154.849 279 155.335 278.622L154.669 277.632ZM161.439 278.01C159.603 278.01 158.325 276.678 158.127 274.86H165.741C165.741 271.602 164.139 269.478 161.331 269.478C158.829 269.478 156.741 271.548 156.741 274.32C156.741 277.182 158.973 279.216 161.457 279.216C162.753 279.216 164.391 278.658 165.201 277.776L164.373 276.894C163.797 277.524 162.537 278.01 161.439 278.01ZM161.385 270.684C163.239 270.684 164.229 271.98 164.409 273.654H158.145C158.397 271.854 159.729 270.684 161.385 270.684ZM175.547 279H176.825L179.327 271.566L181.793 279H183.071L186.203 269.694H184.763L182.441 277.2L179.903 269.694H178.733L176.195 277.2L173.873 269.694H172.433L175.547 279ZM188.831 268.002C189.317 268.002 189.713 267.588 189.713 267.102C189.713 266.634 189.317 266.22 188.831 266.22C188.327 266.22 187.931 266.634 187.931 267.102C187.931 267.588 188.327 268.002 188.831 268.002ZM188.147 279H189.497V269.694H188.147V279ZM196.294 277.632C196.096 277.848 195.736 278.01 195.322 278.01C194.782 278.01 194.314 277.524 194.314 276.84V270.9H196.6V269.694H194.314V267.138H192.964V269.694H191.506V270.9H192.964V276.84C192.964 278.226 193.9 279.216 195.232 279.216C195.862 279.216 196.474 279 196.96 278.622L196.294 277.632ZM203.298 269.478C201.984 269.478 200.778 270.198 200.238 271.188V266.418H198.888V279H200.238V273.078C200.238 271.782 201.552 270.684 203.118 270.684C204.486 270.684 205.44 271.746 205.44 273.258V279H206.79V273.078C206.79 270.972 205.35 269.478 203.298 269.478ZM216.129 282.24C217.407 282.222 218.307 281.628 218.955 280.044L223.203 269.694H221.745L218.667 277.434L215.409 269.694H213.915L217.965 279.036L217.425 280.188C217.065 280.818 216.669 281.016 216.075 281.016C215.679 281.016 215.301 280.944 214.977 280.782L214.653 281.934C215.085 282.132 215.589 282.24 216.129 282.24ZM229.381 279.216C231.991 279.216 234.187 276.984 234.187 274.338C234.187 271.692 231.991 269.478 229.381 269.478C226.771 269.478 224.557 271.692 224.557 274.338C224.557 276.984 226.771 279.216 229.381 279.216ZM229.381 278.01C227.527 278.01 225.979 276.336 225.979 274.338C225.979 272.358 227.527 270.684 229.381 270.684C231.217 270.684 232.765 272.358 232.765 274.338C232.765 276.336 231.217 278.01 229.381 278.01ZM242.969 269.694V275.616C242.969 276.912 241.655 278.01 240.089 278.01C238.721 278.01 237.767 276.948 237.767 275.436V269.694H236.417V275.616C236.417 277.722 237.857 279.216 239.909 279.216C241.223 279.216 242.429 278.496 242.969 277.506V279H244.319V269.694H242.969ZM248.545 271.512V269.694H247.195V279H248.545V273.798C248.545 271.98 250.039 270.684 252.145 270.684V269.478C250.435 269.478 249.103 270.27 248.545 271.512ZM266.505 266.418V271.44C265.803 270.216 264.615 269.478 263.121 269.478C260.673 269.478 258.837 271.494 258.837 274.338C258.837 277.2 260.673 279.216 263.121 279.216C264.615 279.216 265.803 278.478 266.505 277.254V279H267.855V266.418H266.505ZM263.373 278.01C261.555 278.01 260.259 276.48 260.259 274.338C260.259 272.196 261.555 270.684 263.373 270.684C265.209 270.684 266.505 272.196 266.505 274.338C266.505 276.48 265.209 278.01 263.373 278.01ZM272.188 271.512V269.694H270.838V279H272.188V273.798C272.188 271.98 273.682 270.684 275.788 270.684V269.478C274.078 269.478 272.746 270.27 272.188 271.512ZM278.321 268.002C278.807 268.002 279.203 267.588 279.203 267.102C279.203 266.634 278.807 266.22 278.321 266.22C277.817 266.22 277.421 266.634 277.421 267.102C277.421 267.588 277.817 268.002 278.321 268.002ZM277.637 279H278.987V269.694H277.637V279ZM284.776 279H286.072L289.978 269.694H288.466L285.424 277.416L282.328 269.694H280.816L284.776 279ZM295.402 278.01C293.566 278.01 292.288 276.678 292.09 274.86H299.704C299.704 271.602 298.102 269.478 295.294 269.478C292.792 269.478 290.704 271.548 290.704 274.32C290.704 277.182 292.936 279.216 295.42 279.216C296.716 279.216 298.354 278.658 299.164 277.776L298.336 276.894C297.76 277.524 296.5 278.01 295.402 278.01ZM295.348 270.684C297.202 270.684 298.192 271.98 298.372 273.654H292.108C292.36 271.854 293.692 270.684 295.348 270.684ZM303.389 271.512V269.694H302.039V279H303.389V273.798C303.389 271.98 304.883 270.684 306.989 270.684V269.478C305.279 269.478 303.947 270.27 303.389 271.512ZM317.587 282.06L318.307 281.286C316.345 279.288 315.265 277.164 315.265 274.23C315.265 271.278 316.345 269.172 318.307 267.156L317.587 266.4C315.175 268.416 313.825 271.116 313.825 274.23C313.825 277.326 315.175 280.044 317.587 282.06ZM324.291 269.478C323.391 269.478 322.275 269.712 320.943 270.378L321.483 271.476C322.329 271.044 323.265 270.63 324.201 270.63C326.217 270.63 326.721 272.07 326.721 273.33V273.672C325.767 273.366 324.705 273.15 323.697 273.15C321.699 273.15 320.043 274.392 320.043 276.246C320.043 278.082 321.483 279.216 323.445 279.216C324.669 279.216 326.055 278.64 326.721 277.542V279H328.071V273.33C328.071 271.08 326.829 269.478 324.291 269.478ZM323.679 278.028C322.365 278.028 321.357 277.344 321.357 276.192C321.357 275.076 322.527 274.284 323.913 274.284C324.921 274.284 325.875 274.428 326.721 274.662V276.084C326.361 277.398 324.903 278.028 323.679 278.028ZM335.257 269.478C333.943 269.478 332.737 270.198 332.197 271.188V269.694H330.847V279H332.197V273.078C332.197 271.782 333.511 270.684 335.077 270.684C336.445 270.684 337.399 271.746 337.399 273.258V279H338.749V273.078C338.749 270.972 337.309 269.478 335.257 269.478ZM348.753 266.418V271.44C348.051 270.216 346.863 269.478 345.369 269.478C342.921 269.478 341.085 271.494 341.085 274.338C341.085 277.2 342.921 279.216 345.369 279.216C346.863 279.216 348.051 278.478 348.753 277.254V279H350.103V266.418H348.753ZM345.621 278.01C343.803 278.01 342.507 276.48 342.507 274.338C342.507 272.196 343.803 270.684 345.621 270.684C347.457 270.684 348.753 272.196 348.753 274.338C348.753 276.48 347.457 278.01 345.621 278.01ZM362.501 279.216C365.111 279.216 367.307 276.984 367.307 274.338C367.307 271.692 365.111 269.478 362.501 269.478C359.891 269.478 357.677 271.692 357.677 274.338C357.677 276.984 359.891 279.216 362.501 279.216ZM362.501 278.01C360.647 278.01 359.099 276.336 359.099 274.338C359.099 272.358 360.647 270.684 362.501 270.684C364.337 270.684 365.885 272.358 365.885 274.338C365.885 276.336 364.337 278.01 362.501 278.01ZM373.622 277.632C373.424 277.848 373.064 278.01 372.65 278.01C372.11 278.01 371.642 277.524 371.642 276.84V270.9H373.928V269.694H371.642V267.138H370.292V269.694H368.834V270.9H370.292V276.84C370.292 278.226 371.228 279.216 372.56 279.216C373.19 279.216 373.802 279 374.288 278.622L373.622 277.632ZM380.626 269.478C379.312 269.478 378.106 270.198 377.566 271.188V266.418H376.216V279H377.566V273.078C377.566 271.782 378.88 270.684 380.446 270.684C381.814 270.684 382.768 271.746 382.768 273.258V279H384.118V273.078C384.118 270.972 382.678 269.478 380.626 269.478ZM391.044 278.01C389.208 278.01 387.93 276.678 387.732 274.86H395.346C395.346 271.602 393.744 269.478 390.936 269.478C388.434 269.478 386.346 271.548 386.346 274.32C386.346 277.182 388.578 279.216 391.062 279.216C392.358 279.216 393.996 278.658 394.806 277.776L393.978 276.894C393.402 277.524 392.142 278.01 391.044 278.01ZM390.99 270.684C392.844 270.684 393.834 271.98 394.014 273.654H387.75C388.002 271.854 389.334 270.684 390.99 270.684ZM399.032 271.512V269.694H397.682V279H399.032V273.798C399.032 271.98 400.526 270.684 402.632 270.684V269.478C400.922 269.478 399.59 270.27 399.032 271.512ZM56.64 293.418V298.44C55.938 297.216 54.75 296.478 53.256 296.478C50.808 296.478 48.972 298.494 48.972 301.338C48.972 304.2 50.808 306.216 53.256 306.216C54.75 306.216 55.938 305.478 56.64 304.254V306H57.99V293.418H56.64ZM53.508 305.01C51.69 305.01 50.394 303.48 50.394 301.338C50.394 299.196 51.69 297.684 53.508 297.684C55.344 297.684 56.64 299.196 56.64 301.338C56.64 303.48 55.344 305.01 53.508 305.01ZM65.0405 305.01C63.2045 305.01 61.9265 303.678 61.7285 301.86H69.3425C69.3425 298.602 67.7405 296.478 64.9325 296.478C62.4305 296.478 60.3425 298.548 60.3425 301.32C60.3425 304.182 62.5745 306.216 65.0585 306.216C66.3545 306.216 67.9925 305.658 68.8025 304.776L67.9745 303.894C67.3985 304.524 66.1385 305.01 65.0405 305.01ZM64.9865 297.684C66.8405 297.684 67.8305 298.98 68.0105 300.654H61.7465C61.9985 298.854 63.3305 297.684 64.9865 297.684ZM76.4116 296.478C74.9176 296.478 73.7296 297.216 73.0276 298.44V296.694H71.6776V309.096H73.0276V304.254C73.7296 305.478 74.9176 306.216 76.4116 306.216C78.8596 306.216 80.6956 304.2 80.6956 301.338C80.6956 298.494 78.8596 296.478 76.4116 296.478ZM76.1596 305.01C74.3236 305.01 73.0276 303.48 73.0276 301.338C73.0276 299.196 74.3236 297.684 76.1596 297.684C77.9776 297.684 79.2736 299.196 79.2736 301.338C79.2736 303.48 77.9776 305.01 76.1596 305.01ZM87.3501 306.216C89.9601 306.216 92.1561 303.984 92.1561 301.338C92.1561 298.692 89.9601 296.478 87.3501 296.478C84.7401 296.478 82.5261 298.692 82.5261 301.338C82.5261 303.984 84.7401 306.216 87.3501 306.216ZM87.3501 305.01C85.4961 305.01 83.9481 303.336 83.9481 301.338C83.9481 299.358 85.4961 297.684 87.3501 297.684C89.1861 297.684 90.7341 299.358 90.7341 301.338C90.7341 303.336 89.1861 305.01 87.3501 305.01ZM97.6796 306.216C99.6056 306.216 101.082 305.118 101.082 303.408C101.082 301.644 99.5336 301.14 98.0396 300.672C96.3116 300.114 95.6276 299.862 95.6276 299.052C95.6276 298.152 96.4916 297.684 97.5356 297.684C98.3636 297.684 99.2816 297.972 100.218 298.566L100.866 297.522C99.8756 296.874 98.6876 296.478 97.5356 296.478C95.6816 296.478 94.2776 297.522 94.2776 299.214C94.2776 300.546 95.1416 301.212 97.3916 301.86C98.6516 302.22 99.7316 302.544 99.7316 303.552C99.7316 304.434 98.9036 305.01 97.6796 305.01C96.6536 305.01 95.5916 304.614 94.5296 303.84L93.8276 304.83C94.9436 305.73 96.3836 306.216 97.6796 306.216ZM103.981 295.002C104.467 295.002 104.863 294.588 104.863 294.102C104.863 293.634 104.467 293.22 103.981 293.22C103.477 293.22 103.081 293.634 103.081 294.102C103.081 294.588 103.477 295.002 103.981 295.002ZM103.297 306H104.647V296.694H103.297V306ZM111.444 304.632C111.246 304.848 110.886 305.01 110.472 305.01C109.932 305.01 109.464 304.524 109.464 303.84V297.9H111.75V296.694H109.464V294.138H108.114V296.694H106.656V297.9H108.114V303.84C108.114 305.226 109.05 306.216 110.382 306.216C111.012 306.216 111.624 306 112.11 305.622L111.444 304.632ZM118.34 306.216C120.95 306.216 123.146 303.984 123.146 301.338C123.146 298.692 120.95 296.478 118.34 296.478C115.73 296.478 113.516 298.692 113.516 301.338C113.516 303.984 115.73 306.216 118.34 306.216ZM118.34 305.01C116.486 305.01 114.938 303.336 114.938 301.338C114.938 299.358 116.486 297.684 118.34 297.684C120.176 297.684 121.724 299.358 121.724 301.338C121.724 303.336 120.176 305.01 118.34 305.01ZM126.852 298.512V296.694H125.502V306H126.852V300.798C126.852 298.98 128.346 297.684 130.452 297.684V296.478C128.742 296.478 127.41 297.27 126.852 298.512ZM135.613 306.216C137.539 306.216 139.015 305.118 139.015 303.408C139.015 301.644 137.467 301.14 135.973 300.672C134.245 300.114 133.561 299.862 133.561 299.052C133.561 298.152 134.425 297.684 135.469 297.684C136.297 297.684 137.215 297.972 138.151 298.566L138.799 297.522C137.809 296.874 136.621 296.478 135.469 296.478C133.615 296.478 132.211 297.522 132.211 299.214C132.211 300.546 133.075 301.212 135.325 301.86C136.585 302.22 137.665 302.544 137.665 303.552C137.665 304.434 136.837 305.01 135.613 305.01C134.587 305.01 133.525 304.614 132.463 303.84L131.761 304.83C132.877 305.73 134.317 306.216 135.613 306.216ZM141.429 309.06C143.841 307.044 145.191 304.326 145.191 301.23C145.191 298.116 143.841 295.416 141.429 293.4L140.709 294.156C142.671 296.172 143.751 298.278 143.751 301.23C143.751 304.164 142.671 306.288 140.709 308.286L141.429 309.06ZM155.279 306H156.557L159.059 298.566L161.525 306H162.803L165.935 296.694H164.495L162.173 304.2L159.635 296.694H158.465L155.927 304.2L153.605 296.694H152.165L155.279 306ZM168.563 295.002C169.049 295.002 169.445 294.588 169.445 294.102C169.445 293.634 169.049 293.22 168.563 293.22C168.059 293.22 167.663 293.634 167.663 294.102C167.663 294.588 168.059 295.002 168.563 295.002ZM167.879 306H169.229V296.694H167.879V306ZM176.026 304.632C175.828 304.848 175.468 305.01 175.054 305.01C174.514 305.01 174.046 304.524 174.046 303.84V297.9H176.332V296.694H174.046V294.138H172.696V296.694H171.238V297.9H172.696V303.84C172.696 305.226 173.632 306.216 174.964 306.216C175.594 306.216 176.206 306 176.692 305.622L176.026 304.632ZM183.03 296.478C181.716 296.478 180.51 297.198 179.97 298.188V293.418H178.62V306H179.97V300.078C179.97 298.782 181.284 297.684 182.85 297.684C184.218 297.684 185.172 298.746 185.172 300.258V306H186.522V300.078C186.522 297.972 185.082 296.478 183.03 296.478ZM195.141 295.002C195.627 295.002 196.023 294.588 196.023 294.102C196.023 293.634 195.627 293.22 195.141 293.22C194.637 293.22 194.241 293.634 194.241 294.102C194.241 294.588 194.637 295.002 195.141 295.002ZM194.457 306H195.807V296.694H194.457V306ZM202.946 296.478C201.632 296.478 200.426 297.198 199.886 298.188V296.694H198.536V306H199.886V300.078C199.886 298.782 201.2 297.684 202.766 297.684C204.134 297.684 205.088 298.746 205.088 300.258V306H206.438V300.078C206.438 297.972 204.998 296.478 202.946 296.478ZM208.811 301.77H213.473V300.456H208.811V301.77ZM219.63 296.478C218.73 296.478 217.614 296.712 216.282 297.378L216.822 298.476C217.668 298.044 218.604 297.63 219.54 297.63C221.556 297.63 222.06 299.07 222.06 300.33V300.672C221.106 300.366 220.044 300.15 219.036 300.15C217.038 300.15 215.382 301.392 215.382 303.246C215.382 305.082 216.822 306.216 218.784 306.216C220.008 306.216 221.394 305.64 222.06 304.542V306H223.41V300.33C223.41 298.08 222.168 296.478 219.63 296.478ZM219.018 305.028C217.704 305.028 216.696 304.344 216.696 303.192C216.696 302.076 217.866 301.284 219.252 301.284C220.26 301.284 221.214 301.428 222.06 301.662V303.084C221.7 304.398 220.242 305.028 219.018 305.028ZM231.029 296.478C229.535 296.478 228.347 297.216 227.645 298.44V296.694H226.295V309.096H227.645V304.254C228.347 305.478 229.535 306.216 231.029 306.216C233.477 306.216 235.313 304.2 235.313 301.338C235.313 298.494 233.477 296.478 231.029 296.478ZM230.777 305.01C228.941 305.01 227.645 303.48 227.645 301.338C227.645 299.196 228.941 297.684 230.777 297.684C232.595 297.684 233.891 299.196 233.891 301.338C233.891 303.48 232.595 305.01 230.777 305.01ZM242.507 296.478C241.013 296.478 239.825 297.216 239.123 298.44V296.694H237.773V309.096H239.123V304.254C239.825 305.478 241.013 306.216 242.507 306.216C244.955 306.216 246.791 304.2 246.791 301.338C246.791 298.494 244.955 296.478 242.507 296.478ZM242.255 305.01C240.419 305.01 239.123 303.48 239.123 301.338C239.123 299.196 240.419 297.684 242.255 297.684C244.073 297.684 245.369 299.196 245.369 301.338C245.369 303.48 244.073 305.01 242.255 305.01ZM264.409 296.478C263.005 296.478 261.781 297.252 261.403 298.458C260.899 297.252 259.801 296.478 258.397 296.478C257.173 296.478 256.165 297.09 255.697 298.062V296.694H254.347V306H255.697V300.078C255.697 298.674 256.741 297.684 258.217 297.684C259.477 297.684 260.359 298.746 260.359 300.258V306H261.709V300.078C261.709 298.674 262.753 297.684 264.229 297.684C265.489 297.684 266.371 298.746 266.371 300.258V306H267.721V300.078C267.721 297.972 266.353 296.478 264.409 296.478ZM274.642 305.01C272.806 305.01 271.528 303.678 271.33 301.86H278.944C278.944 298.602 277.342 296.478 274.534 296.478C272.032 296.478 269.944 298.548 269.944 301.32C269.944 304.182 272.176 306.216 274.66 306.216C275.956 306.216 277.594 305.658 278.404 304.776L277.576 303.894C277 304.524 275.74 305.01 274.642 305.01ZM274.588 297.684C276.442 297.684 277.432 298.98 277.612 300.654H271.348C271.6 298.854 272.932 297.684 274.588 297.684ZM284.447 306.216C286.373 306.216 287.849 305.118 287.849 303.408C287.849 301.644 286.301 301.14 284.807 300.672C283.079 300.114 282.395 299.862 282.395 299.052C282.395 298.152 283.259 297.684 284.303 297.684C285.131 297.684 286.049 297.972 286.985 298.566L287.633 297.522C286.643 296.874 285.455 296.478 284.303 296.478C282.449 296.478 281.045 297.522 281.045 299.214C281.045 300.546 281.909 301.212 284.159 301.86C285.419 302.22 286.499 302.544 286.499 303.552C286.499 304.434 285.671 305.01 284.447 305.01C283.421 305.01 282.359 304.614 281.297 303.84L280.595 304.83C281.711 305.73 283.151 306.216 284.447 306.216ZM293.377 306.216C295.303 306.216 296.779 305.118 296.779 303.408C296.779 301.644 295.231 301.14 293.737 300.672C292.009 300.114 291.325 299.862 291.325 299.052C291.325 298.152 292.189 297.684 293.233 297.684C294.061 297.684 294.979 297.972 295.915 298.566L296.563 297.522C295.573 296.874 294.385 296.478 293.233 296.478C291.379 296.478 289.975 297.522 289.975 299.214C289.975 300.546 290.839 301.212 293.089 301.86C294.349 302.22 295.429 302.544 295.429 303.552C295.429 304.434 294.601 305.01 293.377 305.01C292.351 305.01 291.289 304.614 290.227 303.84L289.525 304.83C290.641 305.73 292.081 306.216 293.377 306.216ZM302.793 296.478C301.893 296.478 300.777 296.712 299.445 297.378L299.985 298.476C300.831 298.044 301.767 297.63 302.703 297.63C304.719 297.63 305.223 299.07 305.223 300.33V300.672C304.269 300.366 303.207 300.15 302.199 300.15C300.201 300.15 298.545 301.392 298.545 303.246C298.545 305.082 299.985 306.216 301.947 306.216C303.171 306.216 304.557 305.64 305.223 304.542V306H306.573V300.33C306.573 298.08 305.331 296.478 302.793 296.478ZM302.181 305.028C300.867 305.028 299.859 304.344 299.859 303.192C299.859 302.076 301.029 301.284 302.415 301.284C303.423 301.284 304.377 301.428 305.223 301.662V303.084C304.863 304.398 303.405 305.028 302.181 305.028ZM316.567 296.694V298.296C315.847 297.162 314.659 296.478 313.183 296.478C310.681 296.478 308.899 298.296 308.899 300.888C308.899 303.48 310.681 305.316 313.183 305.316C314.659 305.316 315.847 304.632 316.567 303.498V305.01C316.567 306.828 315.307 307.89 313.165 307.89C312.013 307.89 310.897 307.476 310.177 306.792L309.583 307.854C310.429 308.574 311.833 309.096 313.345 309.096C316.027 309.096 317.917 307.404 317.917 305.01V296.694H316.567ZM313.435 304.11C311.617 304.11 310.321 302.778 310.321 300.888C310.321 299.016 311.617 297.684 313.435 297.684C315.271 297.684 316.567 299.016 316.567 300.888C316.567 302.778 315.271 304.11 313.435 304.11ZM321.44 295.002C321.926 295.002 322.322 294.588 322.322 294.102C322.322 293.634 321.926 293.22 321.44 293.22C320.936 293.22 320.54 293.634 320.54 294.102C320.54 294.588 320.936 295.002 321.44 295.002ZM320.756 306H322.106V296.694H320.756V306ZM329.245 296.478C327.931 296.478 326.725 297.198 326.185 298.188V296.694H324.835V306H326.185V300.078C326.185 298.782 327.499 297.684 329.065 297.684C330.433 297.684 331.387 298.746 331.387 300.258V306H332.737V300.078C332.737 297.972 331.297 296.478 329.245 296.478ZM342.706 296.694V298.296C341.986 297.162 340.798 296.478 339.322 296.478C336.82 296.478 335.038 298.296 335.038 300.888C335.038 303.48 336.82 305.316 339.322 305.316C340.798 305.316 341.986 304.632 342.706 303.498V305.01C342.706 306.828 341.446 307.89 339.304 307.89C338.152 307.89 337.036 307.476 336.316 306.792L335.722 307.854C336.568 308.574 337.972 309.096 339.484 309.096C342.166 309.096 344.056 307.404 344.056 305.01V296.694H342.706ZM339.574 304.11C337.756 304.11 336.46 302.778 336.46 300.888C336.46 299.016 337.756 297.684 339.574 297.684C341.41 297.684 342.706 299.016 342.706 300.888C342.706 302.778 341.41 304.11 339.574 304.11Z" fill="#E4E4E4"/>
<line y1="341.897" x2="32" y2="341.897" stroke="#E4E4E4"/>
<path d="M49.692 349H51.096V339.658L55.686 348.28L60.276 339.658V349H61.68V336.634H60.276L55.686 345.256L51.096 336.634H49.692V349ZM69.0513 349.216C71.6613 349.216 73.8573 346.984 73.8573 344.338C73.8573 341.692 71.6613 339.478 69.0513 339.478C66.4413 339.478 64.2273 341.692 64.2273 344.338C64.2273 346.984 66.4413 349.216 69.0513 349.216ZM69.0513 348.01C67.1973 348.01 65.6493 346.336 65.6493 344.338C65.6493 342.358 67.1973 340.684 69.0513 340.684C70.8873 340.684 72.4353 342.358 72.4353 344.338C72.4353 346.336 70.8873 348.01 69.0513 348.01ZM80.5148 339.478C79.2008 339.478 77.9948 340.198 77.4548 341.188V339.694H76.1048V349H77.4548V343.078C77.4548 341.782 78.7688 340.684 80.3348 340.684C81.7028 340.684 82.6568 341.746 82.6568 343.258V349H84.0068V343.078C84.0068 340.972 82.5668 339.478 80.5148 339.478ZM87.4051 338.002C87.8911 338.002 88.2871 337.588 88.2871 337.102C88.2871 336.634 87.8911 336.22 87.4051 336.22C86.9011 336.22 86.5051 336.634 86.5051 337.102C86.5051 337.588 86.9011 338.002 87.4051 338.002ZM86.7211 349H88.0711V339.694H86.7211V349ZM94.8681 347.632C94.6701 347.848 94.3101 348.01 93.8961 348.01C93.3561 348.01 92.8881 347.524 92.8881 346.84V340.9H95.1741V339.694H92.8881V337.138H91.5381V339.694H90.0801V340.9H91.5381V346.84C91.5381 348.226 92.4741 349.216 93.8061 349.216C94.4361 349.216 95.0481 349 95.5341 348.622L94.8681 347.632ZM101.764 349.216C104.374 349.216 106.57 346.984 106.57 344.338C106.57 341.692 104.374 339.478 101.764 339.478C99.1542 339.478 96.9402 341.692 96.9402 344.338C96.9402 346.984 99.1542 349.216 101.764 349.216ZM101.764 348.01C99.9102 348.01 98.3622 346.336 98.3622 344.338C98.3622 342.358 99.9102 340.684 101.764 340.684C103.6 340.684 105.148 342.358 105.148 344.338C105.148 346.336 103.6 348.01 101.764 348.01ZM110.276 341.512V339.694H108.926V349H110.276V343.798C110.276 341.98 111.77 340.684 113.876 340.684V339.478C112.166 339.478 110.834 340.27 110.276 341.512ZM122.35 352.24C123.628 352.222 124.528 351.628 125.176 350.044L129.424 339.694H127.966L124.888 347.434L121.63 339.694H120.136L124.186 349.036L123.646 350.188C123.286 350.818 122.89 351.016 122.296 351.016C121.9 351.016 121.522 350.944 121.198 350.782L120.874 351.934C121.306 352.132 121.81 352.24 122.35 352.24ZM135.602 349.216C138.212 349.216 140.408 346.984 140.408 344.338C140.408 341.692 138.212 339.478 135.602 339.478C132.992 339.478 130.778 341.692 130.778 344.338C130.778 346.984 132.992 349.216 135.602 349.216ZM135.602 348.01C133.748 348.01 132.2 346.336 132.2 344.338C132.2 342.358 133.748 340.684 135.602 340.684C137.438 340.684 138.986 342.358 138.986 344.338C138.986 346.336 137.438 348.01 135.602 348.01ZM149.19 339.694V345.616C149.19 346.912 147.876 348.01 146.31 348.01C144.942 348.01 143.988 346.948 143.988 345.436V339.694H142.638V345.616C142.638 347.722 144.078 349.216 146.13 349.216C147.444 349.216 148.65 348.496 149.19 347.506V349H150.54V339.694H149.19ZM154.766 341.512V339.694H153.416V349H154.766V343.798C154.766 341.98 156.26 340.684 158.366 340.684V339.478C156.656 339.478 155.324 340.27 154.766 341.512ZM169.774 349.216C171.07 349.216 172.258 348.676 173.14 347.794L172.204 346.876C171.574 347.578 170.71 348.01 169.774 348.01C167.92 348.01 166.372 346.336 166.372 344.338C166.372 342.358 167.92 340.684 169.774 340.684C170.692 340.684 171.538 341.098 172.15 341.764L173.086 340.846C172.204 340 171.034 339.478 169.774 339.478C167.164 339.478 164.95 341.692 164.95 344.338C164.95 346.984 167.164 349.216 169.774 349.216ZM178.99 339.478C178.09 339.478 176.974 339.712 175.642 340.378L176.182 341.476C177.028 341.044 177.964 340.63 178.9 340.63C180.916 340.63 181.42 342.07 181.42 343.33V343.672C180.466 343.366 179.404 343.15 178.396 343.15C176.398 343.15 174.742 344.392 174.742 346.246C174.742 348.082 176.182 349.216 178.144 349.216C179.368 349.216 180.754 348.64 181.42 347.542V349H182.77V343.33C182.77 341.08 181.528 339.478 178.99 339.478ZM178.378 348.028C177.064 348.028 176.056 347.344 176.056 346.192C176.056 345.076 177.226 344.284 178.612 344.284C179.62 344.284 180.574 344.428 181.42 344.662V346.084C181.06 347.398 179.602 348.028 178.378 348.028ZM188.822 349.216C190.748 349.216 192.224 348.118 192.224 346.408C192.224 344.644 190.676 344.14 189.182 343.672C187.454 343.114 186.77 342.862 186.77 342.052C186.77 341.152 187.634 340.684 188.678 340.684C189.506 340.684 190.424 340.972 191.36 341.566L192.008 340.522C191.018 339.874 189.83 339.478 188.678 339.478C186.824 339.478 185.42 340.522 185.42 342.214C185.42 343.546 186.284 344.212 188.534 344.86C189.794 345.22 190.874 345.544 190.874 346.552C190.874 347.434 190.046 348.01 188.822 348.01C187.796 348.01 186.734 347.614 185.672 346.84L184.97 347.83C186.086 348.73 187.526 349.216 188.822 349.216ZM198.886 339.478C197.572 339.478 196.366 340.198 195.826 341.188V336.418H194.476V349H195.826V343.078C195.826 341.782 197.14 340.684 198.706 340.684C200.074 340.684 201.028 341.746 201.028 343.258V349H202.378V343.078C202.378 340.972 200.938 339.478 198.886 339.478ZM214.525 348.01C212.689 348.01 211.411 346.678 211.213 344.86H218.827C218.827 341.602 217.225 339.478 214.417 339.478C211.915 339.478 209.827 341.548 209.827 344.32C209.827 347.182 212.059 349.216 214.543 349.216C215.839 349.216 217.477 348.658 218.287 347.776L217.459 346.894C216.883 347.524 215.623 348.01 214.525 348.01ZM214.471 340.684C216.325 340.684 217.315 341.98 217.495 343.654H211.231C211.483 341.854 212.815 340.684 214.471 340.684ZM225.464 339.478C224.15 339.478 222.944 340.198 222.404 341.188V339.694H221.054V349H222.404V343.078C222.404 341.782 223.718 340.684 225.284 340.684C226.652 340.684 227.606 341.746 227.606 343.258V349H228.956V343.078C228.956 340.972 227.516 339.478 225.464 339.478ZM238.385 341.512V339.694H237.035V349H238.385V343.798C238.385 341.98 239.879 340.684 241.985 340.684V339.478C240.275 339.478 238.943 340.27 238.385 341.512ZM247.874 349.216C250.484 349.216 252.68 346.984 252.68 344.338C252.68 341.692 250.484 339.478 247.874 339.478C245.264 339.478 243.05 341.692 243.05 344.338C243.05 346.984 245.264 349.216 247.874 349.216ZM247.874 348.01C246.02 348.01 244.472 346.336 244.472 344.338C244.472 342.358 246.02 340.684 247.874 340.684C249.71 340.684 251.258 342.358 251.258 344.338C251.258 346.336 249.71 348.01 247.874 348.01ZM261.461 339.694V345.616C261.461 346.912 260.147 348.01 258.581 348.01C257.213 348.01 256.259 346.948 256.259 345.436V339.694H254.909V345.616C254.909 347.722 256.349 349.216 258.401 349.216C259.715 349.216 260.921 348.496 261.461 347.506V349H262.811V339.694H261.461ZM269.647 347.632C269.449 347.848 269.089 348.01 268.675 348.01C268.135 348.01 267.667 347.524 267.667 346.84V340.9H269.953V339.694H267.667V337.138H266.317V339.694H264.859V340.9H266.317V346.84C266.317 348.226 267.253 349.216 268.585 349.216C269.215 349.216 269.827 349 270.313 348.622L269.647 347.632ZM276.417 348.01C274.581 348.01 273.303 346.678 273.105 344.86H280.719C280.719 341.602 279.117 339.478 276.309 339.478C273.807 339.478 271.719 341.548 271.719 344.32C271.719 347.182 273.951 349.216 276.435 349.216C277.731 349.216 279.369 348.658 280.179 347.776L279.351 346.894C278.775 347.524 277.515 348.01 276.417 348.01ZM276.363 340.684C278.217 340.684 279.207 341.98 279.387 343.654H273.123C273.375 341.854 274.707 340.684 276.363 340.684ZM291.929 339.478C291.029 339.478 289.913 339.712 288.581 340.378L289.121 341.476C289.967 341.044 290.903 340.63 291.839 340.63C293.855 340.63 294.359 342.07 294.359 343.33V343.672C293.405 343.366 292.343 343.15 291.335 343.15C289.337 343.15 287.681 344.392 287.681 346.246C287.681 348.082 289.121 349.216 291.083 349.216C292.307 349.216 293.693 348.64 294.359 347.542V349H295.709V343.33C295.709 341.08 294.467 339.478 291.929 339.478ZM291.317 348.028C290.003 348.028 288.995 347.344 288.995 346.192C288.995 345.076 290.165 344.284 291.551 344.284C292.559 344.284 293.513 344.428 294.359 344.662V346.084C293.999 347.398 292.541 348.028 291.317 348.028ZM302.896 339.478C301.582 339.478 300.376 340.198 299.836 341.188V339.694H298.486V349H299.836V343.078C299.836 341.782 301.15 340.684 302.716 340.684C304.084 340.684 305.038 341.746 305.038 343.258V349H306.388V343.078C306.388 340.972 304.948 339.478 302.896 339.478ZM316.392 336.418V341.44C315.69 340.216 314.502 339.478 313.008 339.478C310.56 339.478 308.724 341.494 308.724 344.338C308.724 347.2 310.56 349.216 313.008 349.216C314.502 349.216 315.69 348.478 316.392 347.254V349H317.742V336.418H316.392ZM313.26 348.01C311.442 348.01 310.146 346.48 310.146 344.338C310.146 342.196 311.442 340.684 313.26 340.684C315.096 340.684 316.392 342.196 316.392 344.338C316.392 346.48 315.096 348.01 313.26 348.01ZM327.295 341.512V339.694H325.945V349H327.295V343.798C327.295 341.98 328.789 340.684 330.895 340.684V339.478C329.185 339.478 327.853 340.27 327.295 341.512ZM336.957 348.01C335.121 348.01 333.843 346.678 333.645 344.86H341.259C341.259 341.602 339.657 339.478 336.849 339.478C334.347 339.478 332.259 341.548 332.259 344.32C332.259 347.182 334.491 349.216 336.975 349.216C338.271 349.216 339.909 348.658 340.719 347.776L339.891 346.894C339.315 347.524 338.055 348.01 336.957 348.01ZM336.903 340.684C338.757 340.684 339.747 341.98 339.927 343.654H333.663C333.915 341.854 335.247 340.684 336.903 340.684ZM347.788 349.216C349.084 349.216 350.272 348.676 351.154 347.794L350.218 346.876C349.588 347.578 348.724 348.01 347.788 348.01C345.934 348.01 344.386 346.336 344.386 344.338C344.386 342.358 345.934 340.684 347.788 340.684C348.706 340.684 349.552 341.098 350.164 341.764L351.1 340.846C350.218 340 349.048 339.478 347.788 339.478C345.178 339.478 342.964 341.692 342.964 344.338C342.964 346.984 345.178 349.216 347.788 349.216ZM357.417 348.01C355.581 348.01 354.303 346.678 354.105 344.86H361.719C361.719 341.602 360.117 339.478 357.309 339.478C354.807 339.478 352.719 341.548 352.719 344.32C352.719 347.182 354.951 349.216 357.435 349.216C358.731 349.216 360.369 348.658 361.179 347.776L360.351 346.894C359.775 347.524 358.515 348.01 357.417 348.01ZM357.363 340.684C359.217 340.684 360.207 341.98 360.387 343.654H354.123C354.375 341.854 355.707 340.684 357.363 340.684ZM364.595 338.002C365.081 338.002 365.477 337.588 365.477 337.102C365.477 336.634 365.081 336.22 364.595 336.22C364.091 336.22 363.695 336.634 363.695 337.102C363.695 337.588 364.091 338.002 364.595 338.002ZM363.911 349H365.261V339.694H363.911V349ZM371.05 349H372.346L376.252 339.694H374.74L371.698 347.416L368.602 339.694H367.09L371.05 349ZM381.675 348.01C379.839 348.01 378.561 346.678 378.363 344.86H385.977C385.977 341.602 384.375 339.478 381.567 339.478C379.065 339.478 376.977 341.548 376.977 344.32C376.977 347.182 379.209 349.216 381.693 349.216C382.989 349.216 384.627 348.658 385.437 347.776L384.609 346.894C384.033 347.524 382.773 348.01 381.675 348.01ZM381.621 340.684C383.475 340.684 384.465 341.98 384.645 343.654H378.381C378.633 341.854 379.965 340.684 381.621 340.684ZM56.64 363.418V368.44C55.938 367.216 54.75 366.478 53.256 366.478C50.808 366.478 48.972 368.494 48.972 371.338C48.972 374.2 50.808 376.216 53.256 376.216C54.75 376.216 55.938 375.478 56.64 374.254V376H57.99V363.418H56.64ZM53.508 375.01C51.69 375.01 50.394 373.48 50.394 371.338C50.394 369.196 51.69 367.684 53.508 367.684C55.344 367.684 56.64 369.196 56.64 371.338C56.64 373.48 55.344 375.01 53.508 375.01ZM65.0405 375.01C63.2045 375.01 61.9265 373.678 61.7285 371.86H69.3425C69.3425 368.602 67.7405 366.478 64.9325 366.478C62.4305 366.478 60.3425 368.548 60.3425 371.32C60.3425 374.182 62.5745 376.216 65.0585 376.216C66.3545 376.216 67.9925 375.658 68.8025 374.776L67.9745 373.894C67.3985 374.524 66.1385 375.01 65.0405 375.01ZM64.9865 367.684C66.8405 367.684 67.8305 368.98 68.0105 370.654H61.7465C61.9985 368.854 63.3305 367.684 64.9865 367.684ZM76.4116 366.478C74.9176 366.478 73.7296 367.216 73.0276 368.44V366.694H71.6776V379.096H73.0276V374.254C73.7296 375.478 74.9176 376.216 76.4116 376.216C78.8596 376.216 80.6956 374.2 80.6956 371.338C80.6956 368.494 78.8596 366.478 76.4116 366.478ZM76.1596 375.01C74.3236 375.01 73.0276 373.48 73.0276 371.338C73.0276 369.196 74.3236 367.684 76.1596 367.684C77.9776 367.684 79.2736 369.196 79.2736 371.338C79.2736 373.48 77.9776 375.01 76.1596 375.01ZM87.3501 376.216C89.9601 376.216 92.1561 373.984 92.1561 371.338C92.1561 368.692 89.9601 366.478 87.3501 366.478C84.7401 366.478 82.5261 368.692 82.5261 371.338C82.5261 373.984 84.7401 376.216 87.3501 376.216ZM87.3501 375.01C85.4961 375.01 83.9481 373.336 83.9481 371.338C83.9481 369.358 85.4961 367.684 87.3501 367.684C89.1861 367.684 90.7341 369.358 90.7341 371.338C90.7341 373.336 89.1861 375.01 87.3501 375.01ZM97.6796 376.216C99.6056 376.216 101.082 375.118 101.082 373.408C101.082 371.644 99.5336 371.14 98.0396 370.672C96.3116 370.114 95.6276 369.862 95.6276 369.052C95.6276 368.152 96.4916 367.684 97.5356 367.684C98.3636 367.684 99.2816 367.972 100.218 368.566L100.866 367.522C99.8756 366.874 98.6876 366.478 97.5356 366.478C95.6816 366.478 94.2776 367.522 94.2776 369.214C94.2776 370.546 95.1416 371.212 97.3916 371.86C98.6516 372.22 99.7316 372.544 99.7316 373.552C99.7316 374.434 98.9036 375.01 97.6796 375.01C96.6536 375.01 95.5916 374.614 94.5296 373.84L93.8276 374.83C94.9436 375.73 96.3836 376.216 97.6796 376.216ZM103.981 365.002C104.467 365.002 104.863 364.588 104.863 364.102C104.863 363.634 104.467 363.22 103.981 363.22C103.477 363.22 103.081 363.634 103.081 364.102C103.081 364.588 103.477 365.002 103.981 365.002ZM103.297 376H104.647V366.694H103.297V376ZM111.444 374.632C111.246 374.848 110.886 375.01 110.472 375.01C109.932 375.01 109.464 374.524 109.464 373.84V367.9H111.75V366.694H109.464V364.138H108.114V366.694H106.656V367.9H108.114V373.84C108.114 375.226 109.05 376.216 110.382 376.216C111.012 376.216 111.624 376 112.11 375.622L111.444 374.632ZM117.314 376.216C119.24 376.216 120.716 375.118 120.716 373.408C120.716 371.644 119.168 371.14 117.674 370.672C115.946 370.114 115.262 369.862 115.262 369.052C115.262 368.152 116.126 367.684 117.17 367.684C117.998 367.684 118.916 367.972 119.852 368.566L120.5 367.522C119.51 366.874 118.322 366.478 117.17 366.478C115.316 366.478 113.912 367.522 113.912 369.214C113.912 370.546 114.776 371.212 117.026 371.86C118.286 372.22 119.366 372.544 119.366 373.552C119.366 374.434 118.538 375.01 117.314 375.01C116.288 375.01 115.226 374.614 114.164 373.84L113.462 374.83C114.578 375.73 116.018 376.216 117.314 376.216ZM130.547 376H131.825L134.327 368.566L136.793 376H138.071L141.203 366.694H139.763L137.441 374.2L134.903 366.694H133.733L131.195 374.2L128.873 366.694H127.433L130.547 376ZM143.831 365.002C144.317 365.002 144.713 364.588 144.713 364.102C144.713 363.634 144.317 363.22 143.831 363.22C143.327 363.22 142.931 363.634 142.931 364.102C142.931 364.588 143.327 365.002 143.831 365.002ZM143.147 376H144.497V366.694H143.147V376ZM151.294 374.632C151.096 374.848 150.736 375.01 150.322 375.01C149.782 375.01 149.314 374.524 149.314 373.84V367.9H151.6V366.694H149.314V364.138H147.964V366.694H146.506V367.9H147.964V373.84C147.964 375.226 148.9 376.216 150.232 376.216C150.862 376.216 151.474 376 151.96 375.622L151.294 374.632ZM158.298 366.478C156.984 366.478 155.778 367.198 155.238 368.188V363.418H153.888V376H155.238V370.078C155.238 368.782 156.552 367.684 158.118 367.684C159.486 367.684 160.44 368.746 160.44 370.258V376H161.79V370.078C161.79 367.972 160.35 366.478 158.298 366.478ZM165.188 365.002C165.674 365.002 166.07 364.588 166.07 364.102C166.07 363.634 165.674 363.22 165.188 363.22C164.684 363.22 164.288 363.634 164.288 364.102C164.288 364.588 164.684 365.002 165.188 365.002ZM164.504 376H165.854V366.694H164.504V376ZM172.993 366.478C171.679 366.478 170.473 367.198 169.933 368.188V366.694H168.583V376H169.933V370.078C169.933 368.782 171.247 367.684 172.813 367.684C174.181 367.684 175.135 368.746 175.135 370.258V376H176.485V370.078C176.485 367.972 175.045 366.478 172.993 366.478ZM188.758 376.216C191.368 376.216 193.564 373.984 193.564 371.338C193.564 368.692 191.368 366.478 188.758 366.478C186.148 366.478 183.934 368.692 183.934 371.338C183.934 373.984 186.148 376.216 188.758 376.216ZM188.758 375.01C186.904 375.01 185.356 373.336 185.356 371.338C185.356 369.358 186.904 367.684 188.758 367.684C190.594 367.684 192.142 369.358 192.142 371.338C192.142 373.336 190.594 375.01 188.758 375.01ZM200.222 366.478C198.908 366.478 197.702 367.198 197.162 368.188V366.694H195.812V376H197.162V370.078C197.162 368.782 198.476 367.684 200.042 367.684C201.41 367.684 202.364 368.746 202.364 370.258V376H203.714V370.078C203.714 367.972 202.274 366.478 200.222 366.478ZM210.64 375.01C208.804 375.01 207.526 373.678 207.328 371.86H214.942C214.942 368.602 213.34 366.478 210.532 366.478C208.03 366.478 205.942 368.548 205.942 371.32C205.942 374.182 208.174 376.216 210.658 376.216C211.954 376.216 213.592 375.658 214.402 374.776L213.574 373.894C212.998 374.524 211.738 375.01 210.64 375.01ZM210.586 367.684C212.44 367.684 213.43 368.98 213.61 370.654H207.346C207.598 368.854 208.93 367.684 210.586 367.684ZM227.232 366.478C225.738 366.478 224.55 367.216 223.848 368.44V363.418H222.498V376H223.848V374.254C224.55 375.478 225.738 376.216 227.232 376.216C229.68 376.216 231.516 374.2 231.516 371.338C231.516 368.494 229.68 366.478 227.232 366.478ZM226.98 375.01C225.144 375.01 223.848 373.48 223.848 371.338C223.848 369.196 225.144 367.684 226.98 367.684C228.798 367.684 230.094 369.196 230.094 371.338C230.094 373.48 228.798 375.01 226.98 375.01ZM240.402 366.694V372.616C240.402 373.912 239.088 375.01 237.522 375.01C236.154 375.01 235.2 373.948 235.2 372.436V366.694H233.85V372.616C233.85 374.722 235.29 376.216 237.342 376.216C238.656 376.216 239.862 375.496 240.402 374.506V376H241.752V366.694H240.402ZM247.797 376.216C249.723 376.216 251.199 375.118 251.199 373.408C251.199 371.644 249.651 371.14 248.157 370.672C246.429 370.114 245.745 369.862 245.745 369.052C245.745 368.152 246.609 367.684 247.653 367.684C248.481 367.684 249.399 367.972 250.335 368.566L250.983 367.522C249.993 366.874 248.805 366.478 247.653 366.478C245.799 366.478 244.395 367.522 244.395 369.214C244.395 370.546 245.259 371.212 247.509 371.86C248.769 372.22 249.849 372.544 249.849 373.552C249.849 374.434 249.021 375.01 247.797 375.01C246.771 375.01 245.709 374.614 244.647 373.84L243.945 374.83C245.061 375.73 246.501 376.216 247.797 376.216ZM254.098 365.002C254.584 365.002 254.98 364.588 254.98 364.102C254.98 363.634 254.584 363.22 254.098 363.22C253.594 363.22 253.198 363.634 253.198 364.102C253.198 364.588 253.594 365.002 254.098 365.002ZM253.414 376H254.764V366.694H253.414V376ZM261.903 366.478C260.589 366.478 259.383 367.198 258.843 368.188V366.694H257.493V376H258.843V370.078C258.843 368.782 260.157 367.684 261.723 367.684C263.091 367.684 264.045 368.746 264.045 370.258V376H265.395V370.078C265.395 367.972 263.955 366.478 261.903 366.478ZM272.322 375.01C270.486 375.01 269.208 373.678 269.01 371.86H276.624C276.624 368.602 275.022 366.478 272.214 366.478C269.712 366.478 267.624 368.548 267.624 371.32C267.624 374.182 269.856 376.216 272.34 376.216C273.636 376.216 275.274 375.658 276.084 374.776L275.256 373.894C274.68 374.524 273.42 375.01 272.322 375.01ZM272.268 367.684C274.122 367.684 275.112 368.98 275.292 370.654H269.028C269.28 368.854 270.612 367.684 272.268 367.684ZM282.127 376.216C284.053 376.216 285.529 375.118 285.529 373.408C285.529 371.644 283.981 371.14 282.487 370.672C280.759 370.114 280.075 369.862 280.075 369.052C280.075 368.152 280.939 367.684 281.983 367.684C282.811 367.684 283.729 367.972 284.665 368.566L285.313 367.522C284.323 366.874 283.135 366.478 281.983 366.478C280.129 366.478 278.725 367.522 278.725 369.214C278.725 370.546 279.589 371.212 281.839 371.86C283.099 372.22 284.179 372.544 284.179 373.552C284.179 374.434 283.351 375.01 282.127 375.01C281.101 375.01 280.039 374.614 278.977 373.84L278.275 374.83C279.391 375.73 280.831 376.216 282.127 376.216ZM291.057 376.216C292.983 376.216 294.459 375.118 294.459 373.408C294.459 371.644 292.911 371.14 291.417 370.672C289.689 370.114 289.005 369.862 289.005 369.052C289.005 368.152 289.869 367.684 290.913 367.684C291.741 367.684 292.659 367.972 293.595 368.566L294.243 367.522C293.253 366.874 292.065 366.478 290.913 366.478C289.059 366.478 287.655 367.522 287.655 369.214C287.655 370.546 288.519 371.212 290.769 371.86C292.029 372.22 293.109 372.544 293.109 373.552C293.109 374.434 292.281 375.01 291.057 375.01C290.031 375.01 288.969 374.614 287.907 373.84L287.205 374.83C288.321 375.73 289.761 376.216 291.057 376.216ZM309.185 363.418V368.44C308.483 367.216 307.295 366.478 305.801 366.478C303.353 366.478 301.517 368.494 301.517 371.338C301.517 374.2 303.353 376.216 305.801 376.216C307.295 376.216 308.483 375.478 309.185 374.254V376H310.535V363.418H309.185ZM306.053 375.01C304.235 375.01 302.939 373.48 302.939 371.338C302.939 369.196 304.235 367.684 306.053 367.684C307.889 367.684 309.185 369.196 309.185 371.338C309.185 373.48 307.889 375.01 306.053 375.01ZM317.171 366.478C316.271 366.478 315.155 366.712 313.823 367.378L314.363 368.476C315.209 368.044 316.145 367.63 317.081 367.63C319.097 367.63 319.601 369.07 319.601 370.33V370.672C318.647 370.366 317.585 370.15 316.577 370.15C314.579 370.15 312.923 371.392 312.923 373.246C312.923 375.082 314.363 376.216 316.325 376.216C317.549 376.216 318.935 375.64 319.601 374.542V376H320.951V370.33C320.951 368.08 319.709 366.478 317.171 366.478ZM316.559 375.028C315.245 375.028 314.237 374.344 314.237 373.192C314.237 372.076 315.407 371.284 316.793 371.284C317.801 371.284 318.755 371.428 319.601 371.662V373.084C319.241 374.398 317.783 375.028 316.559 375.028ZM325.096 379.24C326.374 379.222 327.274 378.628 327.922 377.044L332.17 366.694H330.712L327.634 374.434L324.376 366.694H322.882L326.932 376.036L326.392 377.188C326.032 377.818 325.636 378.016 325.042 378.016C324.646 378.016 324.268 377.944 323.944 377.782L323.62 378.934C324.052 379.132 324.556 379.24 325.096 379.24Z" fill="#E4E4E4"/>
</svg>
