<svg width="517" height="314" viewBox="0 0 517 314" fill="none" xmlns="http://www.w3.org/2000/svg">
<path d="M18.384 60.2108C14.928 60.2108 12.048 61.6988 10.08 64.2428V52.0508H3.072V85.6028H10.08V82.0988C12.048 84.6908 14.928 86.1788 18.384 86.1788C25.008 86.1788 29.808 80.8028 29.808 73.1708C29.808 65.5868 25.008 60.2108 18.384 60.2108ZM16.368 80.2748C12.96 80.2748 10.464 77.7788 10.08 74.1308V72.2108C10.464 68.6108 12.96 66.1148 16.368 66.1148C20.256 66.1148 22.992 69.0428 22.992 73.1708C22.992 77.3468 20.256 80.2748 16.368 80.2748ZM40.4235 94.2428C44.3115 94.2428 47.4795 91.6988 49.3515 86.8508L59.5275 60.7868H52.3755L46.1835 78.2108L39.6555 60.7868H32.4075L42.7275 85.8428L41.8635 87.6668C41.3355 88.5788 40.2795 89.0108 38.9355 89.0108C38.1195 89.0108 36.8715 88.5788 35.6715 87.9068L34.1835 92.7068C35.8635 93.6188 38.3595 94.2428 40.4235 94.2428ZM89.6659 86.1788C97.7299 86.1788 102.482 82.0028 102.482 75.7148C102.482 69.6188 97.7779 67.5068 90.6739 65.9228C85.5859 64.7708 83.6179 64.0028 83.6179 61.6028C83.6179 59.6348 85.4419 58.0508 88.4659 58.0508C91.6339 58.0508 94.9459 59.3468 97.8739 61.6988L101.57 56.6108C98.2099 53.7308 94.0339 52.0508 88.6579 52.0508C81.4579 52.0508 76.4659 56.2268 76.4659 62.3228C76.4659 68.7068 81.4099 70.6748 88.3699 72.2588C93.4099 73.4108 95.3299 74.1308 95.3299 76.4828C95.3299 78.5468 93.5059 80.1788 89.9539 80.1788C85.7779 80.1788 82.2259 78.5468 79.1059 75.8588L75.0259 80.7068C78.8659 84.2588 83.9539 86.1788 89.6659 86.1788ZM120.425 79.4588C119.945 79.9388 118.985 80.2748 118.025 80.2748C116.729 80.2748 115.673 79.1228 115.673 77.4908V66.4508H121.049V60.7868H115.673V53.9708H108.953V60.7868H105.545V66.4508H108.953V78.5948C108.953 83.0588 112.025 86.1788 116.393 86.1788C118.409 86.1788 120.665 85.3148 122.105 84.0188L120.425 79.4588ZM137.582 60.2108C134.126 60.2108 130.718 61.1708 127.214 62.9468L129.566 67.6028C131.534 66.5948 133.694 65.8268 135.998 65.8268C140.078 65.8268 141.71 68.1308 141.71 70.7708V71.2508C139.598 70.4348 137.39 70.0028 135.374 70.0028C129.614 70.0028 125.054 73.3628 125.054 78.2588C125.054 83.0108 129.134 86.1788 134.414 86.1788C137.102 86.1788 139.934 85.1228 141.71 83.1068V85.6028H148.478V70.7708C148.478 64.2908 144.062 60.2108 137.582 60.2108ZM135.998 81.3308C133.598 81.3308 131.822 80.0828 131.822 78.0668C131.822 76.0508 133.838 74.5628 136.382 74.5628C138.302 74.5628 140.126 74.8988 141.71 75.4748V77.7788C141.23 80.0828 138.686 81.3308 135.998 81.3308ZM165.473 60.2108C162.017 60.2108 158.609 61.1708 155.105 62.9468L157.457 67.6028C159.425 66.5948 161.585 65.8268 163.889 65.8268C167.969 65.8268 169.601 68.1308 169.601 70.7708V71.2508C167.489 70.4348 165.281 70.0028 163.265 70.0028C157.505 70.0028 152.945 73.3628 152.945 78.2588C152.945 83.0108 157.025 86.1788 162.305 86.1788C164.993 86.1788 167.825 85.1228 169.601 83.1068V85.6028H176.369V70.7708C176.369 64.2908 171.953 60.2108 165.473 60.2108ZM163.889 81.3308C161.489 81.3308 159.713 80.0828 159.713 78.0668C159.713 76.0508 161.729 74.5628 164.273 74.5628C166.193 74.5628 168.017 74.8988 169.601 75.4748V77.7788C169.121 80.0828 166.577 81.3308 163.889 81.3308ZM194.419 86.1788C198.547 86.1788 201.907 84.4988 204.355 81.8108L199.699 77.8748C198.403 79.3148 196.387 80.2748 194.467 80.2748C190.771 80.2748 187.699 77.0108 187.699 73.1228C187.699 69.3308 190.771 66.1148 194.419 66.1148C196.339 66.1148 198.307 67.0268 199.555 68.4188L204.211 64.4348C201.811 61.8428 198.499 60.2108 194.467 60.2108C187.123 60.2108 180.883 66.1148 180.883 73.1708C180.883 80.2268 187.075 86.1788 194.419 86.1788ZM232.716 60.7868H224.652L215.436 71.4908V52.0508H208.428V85.6028H215.436V79.5068L218.412 76.2908L224.556 85.6028H232.62L223.068 71.7788L232.716 60.7868ZM239.498 57.3788C241.562 57.3788 243.242 55.6508 243.242 53.5388C243.242 51.5708 241.562 49.7948 239.498 49.7948C237.338 49.7948 235.658 51.5708 235.658 53.5388C235.658 55.6508 237.338 57.3788 239.498 57.3788ZM235.946 85.6028H242.954V60.7868H235.946V85.6028ZM263.424 60.2108C260.208 60.2108 257.424 61.6508 255.936 63.9068V60.7868H248.928V85.6028H255.936V70.7708L255.984 70.9148C255.984 68.2268 258.24 66.1148 261.168 66.1148C263.952 66.1148 265.872 68.2268 265.872 71.2988V85.6028H272.64V69.8108C272.64 64.1948 268.8 60.2108 263.424 60.2108ZM296.508 60.7868V64.1468C294.828 61.7948 291.66 60.2108 288.3 60.2108C282.06 60.2108 277.308 65.0588 277.308 71.9708C277.308 78.8828 282.06 83.7788 288.3 83.7788C291.564 83.7788 294.54 82.3388 296.508 79.9388V82.6748C296.508 85.8908 293.628 87.9548 289.116 87.9548C286.236 87.9548 283.356 87.0428 281.724 85.6028L279.276 90.5468C281.724 92.4668 285.852 93.8588 290.22 93.8588C298.044 93.8588 303.564 89.3468 303.564 82.9628V60.7868H296.508ZM290.508 77.8748C287.004 77.8748 284.508 75.4268 284.508 71.9708C284.508 68.5148 287.004 66.1148 290.508 66.1148C294.012 66.1148 296.508 68.5148 296.508 71.9708C296.508 75.4268 294.012 77.8748 290.508 77.8748Z" fill="white"/>
<path d="M24.44 12.9228C24.44 7.76278 20 4.12278 14.32 4.12278H3.16V31.6028H6.28V21.7228H13.56L20.52 31.6028H24.08L16.96 21.4428C21.32 20.5228 24.44 17.2428 24.44 12.9228ZM6.28 7.08278H13.76C18.24 7.08278 21.28 9.24278 21.28 12.9228C21.28 16.6028 18.24 18.7628 13.76 18.7628H6.28V7.08278ZM38.3756 29.4028C34.2956 29.4028 31.4556 26.4428 31.0156 22.4028H47.9356C47.9356 15.1628 44.3756 10.4428 38.1356 10.4428C32.5756 10.4428 27.9356 15.0428 27.9356 21.2028C27.9356 27.5628 32.8956 32.0828 38.4156 32.0828C41.2956 32.0828 44.9356 30.8428 46.7356 28.8828L44.8956 26.9228C43.6156 28.3228 40.8156 29.4028 38.3756 29.4028ZM38.2556 13.1228C42.3756 13.1228 44.5756 16.0028 44.9756 19.7228H31.0556C31.6156 15.7228 34.5756 13.1228 38.2556 13.1228ZM61.2447 10.4428C59.2447 10.4428 56.7647 10.9628 53.8047 12.4428L55.0047 14.8828C56.8847 13.9228 58.9647 13.0028 61.0447 13.0028C65.5247 13.0028 66.6447 16.2028 66.6447 19.0028V19.7628C64.5247 19.0828 62.1647 18.6028 59.9247 18.6028C55.4847 18.6028 51.8047 21.3628 51.8047 25.4828C51.8047 29.5628 55.0047 32.0828 59.3647 32.0828C62.0847 32.0828 65.1647 30.8028 66.6447 28.3628V31.6028H69.6447V19.0028C69.6447 14.0028 66.8847 10.4428 61.2447 10.4428ZM59.8847 29.4428C56.9647 29.4428 54.7247 27.9228 54.7247 25.3628C54.7247 22.8828 57.3247 21.1228 60.4047 21.1228C62.6447 21.1228 64.7647 21.4428 66.6447 21.9628V25.1228C65.8447 28.0428 62.6047 29.4428 59.8847 29.4428ZM85.3744 32.0828C88.2544 32.0828 90.8944 30.8828 92.8544 28.9228L90.7744 26.8828C89.3744 28.4428 87.4544 29.4028 85.3744 29.4028C81.2544 29.4028 77.8144 25.6828 77.8144 21.2428C77.8144 16.8428 81.2544 13.1228 85.3744 13.1228C87.4144 13.1228 89.2944 14.0428 90.6544 15.5228L92.7344 13.4828C90.7744 11.6028 88.1744 10.4428 85.3744 10.4428C79.5744 10.4428 74.6544 15.3628 74.6544 21.2428C74.6544 27.1228 79.5744 32.0828 85.3744 32.0828ZM107.294 10.4428C104.374 10.4428 101.694 12.0428 100.494 14.2428V3.64278H97.4941V31.6028H100.494V18.4428C100.494 15.5628 103.414 13.1228 106.894 13.1228C109.934 13.1228 112.054 15.4828 112.054 18.8428V31.6028H115.054V18.4428C115.054 13.7628 111.854 10.4428 107.294 10.4428ZM152.568 7.08278V4.12278H132.848V31.6028H136.008V19.0828H150.928V16.1228H136.008V7.08278H152.568ZM158.583 7.16278C159.663 7.16278 160.543 6.24278 160.543 5.16278C160.543 4.12278 159.663 3.20278 158.583 3.20278C157.463 3.20278 156.583 4.12278 156.583 5.16278C156.583 6.24278 157.463 7.16278 158.583 7.16278ZM157.063 31.6028H160.063V10.9228H157.063V31.6028ZM175.927 10.4428C173.007 10.4428 170.327 12.0428 169.127 14.2428V10.9228H166.127V31.6028H169.127V18.4428C169.127 15.5628 172.047 13.1228 175.527 13.1228C178.567 13.1228 180.687 15.4828 180.687 18.8428V31.6028H183.687V18.4428C183.687 13.7628 180.487 10.4428 175.927 10.4428ZM198.159 10.4428C196.159 10.4428 193.679 10.9628 190.719 12.4428L191.919 14.8828C193.799 13.9228 195.879 13.0028 197.959 13.0028C202.439 13.0028 203.559 16.2028 203.559 19.0028V19.7628C201.439 19.0828 199.079 18.6028 196.839 18.6028C192.399 18.6028 188.719 21.3628 188.719 25.4828C188.719 29.5628 191.919 32.0828 196.279 32.0828C198.999 32.0828 202.079 30.8028 203.559 28.3628V31.6028H206.559V19.0028C206.559 14.0028 203.799 10.4428 198.159 10.4428ZM196.799 29.4428C193.879 29.4428 191.639 27.9228 191.639 25.3628C191.639 22.8828 194.239 21.1228 197.319 21.1228C199.559 21.1228 201.679 21.4428 203.559 21.9628V25.1228C202.759 28.0428 199.519 29.4428 196.799 29.4428ZM222.528 10.4428C219.608 10.4428 216.928 12.0428 215.728 14.2428V10.9228H212.728V31.6028H215.728V18.4428C215.728 15.5628 218.648 13.1228 222.128 13.1228C225.168 13.1228 227.288 15.4828 227.288 18.8428V31.6028H230.288V18.4428C230.288 13.7628 227.088 10.4428 222.528 10.4428ZM245.96 32.0828C248.84 32.0828 251.48 30.8828 253.44 28.9228L251.36 26.8828C249.96 28.4428 248.04 29.4028 245.96 29.4028C241.84 29.4028 238.4 25.6828 238.4 21.2428C238.4 16.8428 241.84 13.1228 245.96 13.1228C248 13.1228 249.88 14.0428 251.24 15.5228L253.32 13.4828C251.36 11.6028 248.76 10.4428 245.96 10.4428C240.16 10.4428 235.24 15.3628 235.24 21.2428C235.24 27.1228 240.16 32.0828 245.96 32.0828ZM259.52 7.16278C260.6 7.16278 261.48 6.24278 261.48 5.16278C261.48 4.12278 260.6 3.20278 259.52 3.20278C258.4 3.20278 257.52 4.12278 257.52 5.16278C257.52 6.24278 258.4 7.16278 259.52 7.16278ZM258 31.6028H261V10.9228H258V31.6028ZM275.424 10.4428C273.424 10.4428 270.944 10.9628 267.984 12.4428L269.184 14.8828C271.064 13.9228 273.144 13.0028 275.224 13.0028C279.704 13.0028 280.824 16.2028 280.824 19.0028V19.7628C278.704 19.0828 276.344 18.6028 274.104 18.6028C269.664 18.6028 265.984 21.3628 265.984 25.4828C265.984 29.5628 269.184 32.0828 273.544 32.0828C276.264 32.0828 279.344 30.8028 280.824 28.3628V31.6028H283.824V19.0028C283.824 14.0028 281.064 10.4428 275.424 10.4428ZM274.064 29.4428C271.144 29.4428 268.904 27.9228 268.904 25.3628C268.904 22.8828 271.504 21.1228 274.584 21.1228C276.824 21.1228 278.944 21.4428 280.824 21.9628V25.1228C280.024 28.0428 276.784 29.4428 274.064 29.4428ZM289.954 31.6028H292.954V3.64278H289.954V31.6028ZM323.418 20.0828H331.298V26.6428C329.258 28.2028 326.298 29.2028 323.738 29.2028C317.818 29.2028 312.818 24.0028 312.818 17.8428C312.818 11.7228 317.818 6.52278 323.738 6.52278C326.738 6.52278 330.298 7.88278 332.298 10.0028L334.418 7.84278C331.858 5.24278 327.538 3.64278 323.738 3.64278C316.138 3.64278 309.658 10.1228 309.658 17.8428C309.658 25.5628 316.138 32.0828 323.738 32.0828C327.538 32.0828 331.858 30.4428 334.418 27.8828V17.1228H323.418V20.0828ZM350.023 32.0828C355.823 32.0828 360.703 27.1228 360.703 21.2428C360.703 15.3628 355.823 10.4428 350.023 10.4428C344.223 10.4428 339.303 15.3628 339.303 21.2428C339.303 27.1228 344.223 32.0828 350.023 32.0828ZM350.023 29.4028C345.903 29.4028 342.463 25.6828 342.463 21.2428C342.463 16.8428 345.903 13.1228 350.023 13.1228C354.103 13.1228 357.543 16.8428 357.543 21.2428C357.543 25.6828 354.103 29.4028 350.023 29.4028ZM374.057 10.4428C372.057 10.4428 369.577 10.9628 366.617 12.4428L367.817 14.8828C369.697 13.9228 371.777 13.0028 373.857 13.0028C378.337 13.0028 379.457 16.2028 379.457 19.0028V19.7628C377.337 19.0828 374.977 18.6028 372.737 18.6028C368.297 18.6028 364.617 21.3628 364.617 25.4828C364.617 29.5628 367.817 32.0828 372.177 32.0828C374.897 32.0828 377.977 30.8028 379.457 28.3628V31.6028H382.457V19.0028C382.457 14.0028 379.697 10.4428 374.057 10.4428ZM372.697 29.4428C369.777 29.4428 367.537 27.9228 367.537 25.3628C367.537 22.8828 370.137 21.1228 373.217 21.1228C375.457 21.1228 377.577 21.4428 379.457 21.9628V25.1228C378.657 28.0428 375.417 29.4428 372.697 29.4428ZM388.587 31.6028H391.587V3.64278H388.587V31.6028ZM404.969 32.0828C409.249 32.0828 412.529 29.6428 412.529 25.8428C412.529 21.9228 409.089 20.8028 405.769 19.7628C401.929 18.5228 400.409 17.9628 400.409 16.1628C400.409 14.1628 402.329 13.1228 404.649 13.1228C406.489 13.1228 408.529 13.7628 410.609 15.0828L412.049 12.7628C409.849 11.3228 407.209 10.4428 404.649 10.4428C400.529 10.4428 397.409 12.7628 397.409 16.5228C397.409 19.4828 399.329 20.9628 404.329 22.4028C407.129 23.2028 409.529 23.9228 409.529 26.1628C409.529 28.1228 407.689 29.4028 404.969 29.4028C402.689 29.4028 400.329 28.5228 397.969 26.8028L396.409 29.0028C398.889 31.0028 402.089 32.0828 404.969 32.0828Z" fill="white"/>
<line y1="131.5" x2="32" y2="131.5" stroke="#E4E4E4"/>
<path d="M53.706 138.801C56.586 138.801 58.062 137.199 58.062 135.237C58.062 133.059 56.37 132.213 54.012 131.655C51.906 131.151 50.682 130.701 50.682 129.423C50.682 128.289 51.798 127.281 53.328 127.281C54.624 127.281 55.848 127.875 56.874 128.865L57.738 127.767C56.604 126.723 55.236 126.003 53.4 126.003C51.024 126.003 49.26 127.551 49.26 129.531C49.26 131.673 50.826 132.447 53.31 133.023C55.47 133.527 56.64 134.049 56.64 135.363C56.64 136.479 55.668 137.523 53.76 137.523C52.032 137.523 50.754 136.785 49.71 135.741L48.828 136.839C50.07 138.063 51.672 138.801 53.706 138.801ZM64.4931 137.235C64.2951 137.451 63.9351 137.613 63.5211 137.613C62.9811 137.613 62.5131 137.127 62.5131 136.443V130.503H64.7991V129.297H62.5131V126.741H61.1631V129.297H59.7051V130.503H61.1631V136.443C61.1631 137.829 62.0991 138.819 63.4311 138.819C64.0611 138.819 64.6731 138.603 65.1591 138.225L64.4931 137.235ZM70.8492 129.081C69.9492 129.081 68.8332 129.315 67.5012 129.981L68.0412 131.079C68.8872 130.647 69.8232 130.233 70.7592 130.233C72.7752 130.233 73.2792 131.673 73.2792 132.933V133.275C72.3252 132.969 71.2632 132.753 70.2552 132.753C68.2572 132.753 66.6012 133.995 66.6012 135.849C66.6012 137.685 68.0412 138.819 70.0032 138.819C71.2272 138.819 72.6132 138.243 73.2792 137.145V138.603H74.6292V132.933C74.6292 130.683 73.3872 129.081 70.8492 129.081ZM70.2372 137.631C68.9232 137.631 67.9152 136.947 67.9152 135.795C67.9152 134.679 69.0852 133.887 70.4712 133.887C71.4792 133.887 72.4332 134.031 73.2792 134.265V135.687C72.9192 137.001 71.4612 137.631 70.2372 137.631ZM81.1675 129.081C80.2675 129.081 79.1515 129.315 77.8195 129.981L78.3595 131.079C79.2055 130.647 80.1415 130.233 81.0775 130.233C83.0935 130.233 83.5975 131.673 83.5975 132.933V133.275C82.6435 132.969 81.5815 132.753 80.5735 132.753C78.5755 132.753 76.9195 133.995 76.9195 135.849C76.9195 137.685 78.3595 138.819 80.3215 138.819C81.5455 138.819 82.9315 138.243 83.5975 137.145V138.603H84.9475V132.933C84.9475 130.683 83.7055 129.081 81.1675 129.081ZM80.5555 137.631C79.2415 137.631 78.2335 136.947 78.2335 135.795C78.2335 134.679 79.4035 133.887 80.7895 133.887C81.7975 133.887 82.7515 134.031 83.5975 134.265V135.687C83.2375 137.001 81.7795 137.631 80.5555 137.631ZM92.0259 138.819C93.3219 138.819 94.5099 138.279 95.3919 137.397L94.4559 136.479C93.8259 137.181 92.9619 137.613 92.0259 137.613C90.1719 137.613 88.6239 135.939 88.6239 133.941C88.6239 131.961 90.1719 130.287 92.0259 130.287C92.9439 130.287 93.7899 130.701 94.4019 131.367L95.3379 130.449C94.4559 129.603 93.2859 129.081 92.0259 129.081C89.4159 129.081 87.2019 131.295 87.2019 133.941C87.2019 136.587 89.4159 138.819 92.0259 138.819ZM105.616 129.297H103.888L98.7938 134.445V126.021H97.4438V138.603H98.7938V136.137L100.468 134.481L103.69 138.603H105.382L101.422 133.563L105.616 129.297ZM116.884 129.081C115.57 129.081 114.364 129.801 113.824 130.791V126.021H112.474V138.603H113.824V132.681C113.824 131.385 115.138 130.287 116.704 130.287C118.072 130.287 119.026 131.349 119.026 132.861V138.603H120.376V132.681C120.376 130.575 118.936 129.081 116.884 129.081ZM127.302 137.613C125.466 137.613 124.188 136.281 123.99 134.463H131.604C131.604 131.205 130.002 129.081 127.194 129.081C124.692 129.081 122.604 131.151 122.604 133.923C122.604 136.785 124.836 138.819 127.32 138.819C128.616 138.819 130.254 138.261 131.064 137.379L130.236 136.497C129.66 137.127 128.4 137.613 127.302 137.613ZM127.248 130.287C129.102 130.287 130.092 131.583 130.272 133.257H124.008C124.26 131.457 125.592 130.287 127.248 130.287ZM133.813 138.603H135.163V126.021H133.813V138.603ZM142.751 129.081C141.257 129.081 140.069 129.819 139.367 131.043V129.297H138.017V141.699H139.367V136.857C140.069 138.081 141.257 138.819 142.751 138.819C145.199 138.819 147.035 136.803 147.035 133.941C147.035 131.097 145.199 129.081 142.751 129.081ZM142.499 137.613C140.663 137.613 139.367 136.083 139.367 133.941C139.367 131.799 140.663 130.287 142.499 130.287C144.317 130.287 145.613 131.799 145.613 133.941C145.613 136.083 144.317 137.613 142.499 137.613ZM152.664 138.819C154.59 138.819 156.066 137.721 156.066 136.011C156.066 134.247 154.518 133.743 153.024 133.275C151.296 132.717 150.612 132.465 150.612 131.655C150.612 130.755 151.476 130.287 152.52 130.287C153.348 130.287 154.266 130.575 155.202 131.169L155.85 130.125C154.86 129.477 153.672 129.081 152.52 129.081C150.666 129.081 149.262 130.125 149.262 131.817C149.262 133.149 150.126 133.815 152.376 134.463C153.636 134.823 154.716 135.147 154.716 136.155C154.716 137.037 153.888 137.613 152.664 137.613C151.638 137.613 150.576 137.217 149.514 136.443L148.812 137.433C149.928 138.333 151.368 138.819 152.664 138.819ZM165.896 138.603H167.174L169.676 131.169L172.142 138.603H173.42L176.552 129.297H175.112L172.79 136.803L170.252 129.297H169.082L166.544 136.803L164.222 129.297H162.782L165.896 138.603ZM179.18 127.605C179.666 127.605 180.062 127.191 180.062 126.705C180.062 126.237 179.666 125.823 179.18 125.823C178.676 125.823 178.28 126.237 178.28 126.705C178.28 127.191 178.676 127.605 179.18 127.605ZM178.496 138.603H179.846V129.297H178.496V138.603ZM186.643 137.235C186.445 137.451 186.085 137.613 185.671 137.613C185.131 137.613 184.663 137.127 184.663 136.443V130.503H186.949V129.297H184.663V126.741H183.313V129.297H181.855V130.503H183.313V136.443C183.313 137.829 184.249 138.819 185.581 138.819C186.211 138.819 186.823 138.603 187.309 138.225L186.643 137.235ZM193.648 129.081C192.334 129.081 191.128 129.801 190.588 130.791V126.021H189.238V138.603H190.588V132.681C190.588 131.385 191.902 130.287 193.468 130.287C194.836 130.287 195.79 131.349 195.79 132.861V138.603H197.14V132.681C197.14 130.575 195.7 129.081 193.648 129.081ZM205.417 138.603H211.303C213.445 138.603 214.975 137.199 214.975 135.219C214.975 133.869 214.147 132.753 212.725 132.033C213.841 131.385 214.489 130.629 214.489 129.315C214.489 127.515 213.085 126.237 211.087 126.237H205.417V138.603ZM206.821 131.475V127.515H210.727C212.095 127.515 213.067 128.343 213.067 129.495C213.067 130.647 212.095 131.475 210.727 131.475H206.821ZM206.821 137.325V132.753H210.943C212.473 132.753 213.553 133.707 213.553 135.039C213.553 136.371 212.473 137.325 210.943 137.325H206.821ZM223.914 129.297V135.219C223.914 136.515 222.6 137.613 221.034 137.613C219.666 137.613 218.712 136.551 218.712 135.039V129.297H217.362V135.219C217.362 137.325 218.802 138.819 220.854 138.819C222.168 138.819 223.374 138.099 223.914 137.109V138.603H225.264V129.297H223.914ZM231.308 138.819C233.234 138.819 234.71 137.721 234.71 136.011C234.71 134.247 233.162 133.743 231.668 133.275C229.94 132.717 229.256 132.465 229.256 131.655C229.256 130.755 230.12 130.287 231.164 130.287C231.992 130.287 232.91 130.575 233.846 131.169L234.494 130.125C233.504 129.477 232.316 129.081 231.164 129.081C229.31 129.081 227.906 130.125 227.906 131.817C227.906 133.149 228.77 133.815 231.02 134.463C232.28 134.823 233.36 135.147 233.36 136.155C233.36 137.037 232.532 137.613 231.308 137.613C230.282 137.613 229.22 137.217 228.158 136.443L227.456 137.433C228.572 138.333 230.012 138.819 231.308 138.819ZM237.61 127.605C238.096 127.605 238.492 127.191 238.492 126.705C238.492 126.237 238.096 125.823 237.61 125.823C237.106 125.823 236.71 126.237 236.71 126.705C236.71 127.191 237.106 127.605 237.61 127.605ZM236.926 138.603H238.276V129.297H236.926V138.603ZM245.415 129.081C244.101 129.081 242.895 129.801 242.355 130.791V129.297H241.005V138.603H242.355V132.681C242.355 131.385 243.669 130.287 245.235 130.287C246.603 130.287 247.557 131.349 247.557 132.861V138.603H248.907V132.681C248.907 130.575 247.467 129.081 245.415 129.081ZM255.833 137.613C253.997 137.613 252.719 136.281 252.521 134.463H260.135C260.135 131.205 258.533 129.081 255.725 129.081C253.223 129.081 251.135 131.151 251.135 133.923C251.135 136.785 253.367 138.819 255.851 138.819C257.147 138.819 258.785 138.261 259.595 137.379L258.767 136.497C258.191 137.127 256.931 137.613 255.833 137.613ZM255.779 130.287C257.633 130.287 258.623 131.583 258.803 133.257H252.539C252.791 131.457 254.123 130.287 255.779 130.287ZM265.639 138.819C267.565 138.819 269.041 137.721 269.041 136.011C269.041 134.247 267.493 133.743 265.999 133.275C264.271 132.717 263.587 132.465 263.587 131.655C263.587 130.755 264.451 130.287 265.495 130.287C266.323 130.287 267.241 130.575 268.177 131.169L268.825 130.125C267.835 129.477 266.647 129.081 265.495 129.081C263.641 129.081 262.237 130.125 262.237 131.817C262.237 133.149 263.101 133.815 265.351 134.463C266.611 134.823 267.691 135.147 267.691 136.155C267.691 137.037 266.863 137.613 265.639 137.613C264.613 137.613 263.551 137.217 262.489 136.443L261.787 137.433C262.903 138.333 264.343 138.819 265.639 138.819ZM274.568 138.819C276.494 138.819 277.97 137.721 277.97 136.011C277.97 134.247 276.422 133.743 274.928 133.275C273.2 132.717 272.516 132.465 272.516 131.655C272.516 130.755 273.38 130.287 274.424 130.287C275.252 130.287 276.17 130.575 277.106 131.169L277.754 130.125C276.764 129.477 275.576 129.081 274.424 129.081C272.57 129.081 271.166 130.125 271.166 131.817C271.166 133.149 272.03 133.815 274.28 134.463C275.54 134.823 276.62 135.147 276.62 136.155C276.62 137.037 275.792 137.613 274.568 137.613C273.542 137.613 272.48 137.217 271.418 136.443L270.716 137.433C271.832 138.333 273.272 138.819 274.568 138.819ZM285.749 138.603H291.635C293.777 138.603 295.307 137.199 295.307 135.219C295.307 133.869 294.479 132.753 293.057 132.033C294.173 131.385 294.821 130.629 294.821 129.315C294.821 127.515 293.417 126.237 291.419 126.237H285.749V138.603ZM287.153 131.475V127.515H291.059C292.427 127.515 293.399 128.343 293.399 129.495C293.399 130.647 292.427 131.475 291.059 131.475H287.153ZM287.153 137.325V132.753H291.275C292.805 132.753 293.885 133.707 293.885 135.039C293.885 136.371 292.805 137.325 291.275 137.325H287.153ZM304.246 129.297V135.219C304.246 136.515 302.932 137.613 301.366 137.613C299.998 137.613 299.044 136.551 299.044 135.039V129.297H297.694V135.219C297.694 137.325 299.134 138.819 301.186 138.819C302.5 138.819 303.706 138.099 304.246 137.109V138.603H305.596V129.297H304.246ZM315.619 126.021V131.043C314.917 129.819 313.729 129.081 312.235 129.081C309.787 129.081 307.951 131.097 307.951 133.941C307.951 136.803 309.787 138.819 312.235 138.819C313.729 138.819 314.917 138.081 315.619 136.857V138.603H316.969V126.021H315.619ZM312.487 137.613C310.669 137.613 309.373 136.083 309.373 133.941C309.373 131.799 310.669 130.287 312.487 130.287C314.323 130.287 315.619 131.799 315.619 133.941C315.619 136.083 314.323 137.613 312.487 137.613ZM327.061 129.297V130.899C326.341 129.765 325.153 129.081 323.677 129.081C321.175 129.081 319.393 130.899 319.393 133.491C319.393 136.083 321.175 137.919 323.677 137.919C325.153 137.919 326.341 137.235 327.061 136.101V137.613C327.061 139.431 325.801 140.493 323.659 140.493C322.507 140.493 321.391 140.079 320.671 139.395L320.077 140.457C320.923 141.177 322.327 141.699 323.839 141.699C326.521 141.699 328.411 140.007 328.411 137.613V129.297H327.061ZM323.929 136.713C322.111 136.713 320.815 135.381 320.815 133.491C320.815 131.619 322.111 130.287 323.929 130.287C325.765 130.287 327.061 131.619 327.061 133.491C327.061 135.381 325.765 136.713 323.929 136.713ZM335.462 137.613C333.626 137.613 332.348 136.281 332.15 134.463H339.764C339.764 131.205 338.162 129.081 335.354 129.081C332.852 129.081 330.764 131.151 330.764 133.923C330.764 136.785 332.996 138.819 335.48 138.819C336.776 138.819 338.414 138.261 339.224 137.379L338.396 136.497C337.82 137.127 336.56 137.613 335.462 137.613ZM335.408 130.287C337.262 130.287 338.252 131.583 338.432 133.257H332.168C332.42 131.457 333.752 130.287 335.408 130.287ZM346.059 137.235C345.861 137.451 345.501 137.613 345.087 137.613C344.547 137.613 344.079 137.127 344.079 136.443V130.503H346.365V129.297H344.079V126.741H342.729V129.297H341.271V130.503H342.729V136.443C342.729 137.829 343.665 138.819 344.997 138.819C345.627 138.819 346.239 138.603 346.725 138.225L346.059 137.235ZM349.302 127.605C349.788 127.605 350.184 127.191 350.184 126.705C350.184 126.237 349.788 125.823 349.302 125.823C348.798 125.823 348.402 126.237 348.402 126.705C348.402 127.191 348.798 127.605 349.302 127.605ZM348.618 138.603H349.968V129.297H348.618V138.603ZM357.107 129.081C355.793 129.081 354.587 129.801 354.047 130.791V129.297H352.697V138.603H354.047V132.681C354.047 131.385 355.361 130.287 356.927 130.287C358.295 130.287 359.249 131.349 359.249 132.861V138.603H360.599V132.681C360.599 130.575 359.159 129.081 357.107 129.081ZM370.567 129.297V130.899C369.847 129.765 368.659 129.081 367.183 129.081C364.681 129.081 362.899 130.899 362.899 133.491C362.899 136.083 364.681 137.919 367.183 137.919C368.659 137.919 369.847 137.235 370.567 136.101V137.613C370.567 139.431 369.307 140.493 367.165 140.493C366.013 140.493 364.897 140.079 364.177 139.395L363.583 140.457C364.429 141.177 365.833 141.699 367.345 141.699C370.027 141.699 371.917 140.007 371.917 137.613V129.297H370.567ZM367.435 136.713C365.617 136.713 364.321 135.381 364.321 133.491C364.321 131.619 365.617 130.287 367.435 130.287C369.271 130.287 370.567 131.619 370.567 133.491C370.567 135.381 369.271 136.713 367.435 136.713ZM375.71 131.349C376.232 131.349 376.664 130.899 376.664 130.359C376.664 129.855 376.232 129.405 375.71 129.405C375.152 129.405 374.72 129.855 374.72 130.359C374.72 130.899 375.152 131.349 375.71 131.349ZM375.71 138.819C376.232 138.819 376.664 138.369 376.664 137.829C376.664 137.325 376.232 136.875 375.71 136.875C375.152 136.875 374.72 137.325 374.72 137.829C374.72 138.369 375.152 138.819 375.71 138.819ZM388.886 138.801C391.766 138.801 393.242 137.199 393.242 135.237C393.242 133.059 391.55 132.213 389.192 131.655C387.086 131.151 385.862 130.701 385.862 129.423C385.862 128.289 386.978 127.281 388.508 127.281C389.804 127.281 391.028 127.875 392.054 128.865L392.918 127.767C391.784 126.723 390.416 126.003 388.58 126.003C386.204 126.003 384.44 127.551 384.44 129.531C384.44 131.673 386.006 132.447 388.49 133.023C390.65 133.527 391.82 134.049 391.82 135.363C391.82 136.479 390.848 137.523 388.94 137.523C387.212 137.523 385.934 136.785 384.89 135.741L384.008 136.839C385.25 138.063 386.852 138.801 388.886 138.801ZM399.367 129.081C398.467 129.081 397.351 129.315 396.019 129.981L396.559 131.079C397.405 130.647 398.341 130.233 399.277 130.233C401.293 130.233 401.797 131.673 401.797 132.933V133.275C400.843 132.969 399.781 132.753 398.773 132.753C396.775 132.753 395.119 133.995 395.119 135.849C395.119 137.685 396.559 138.819 398.521 138.819C399.745 138.819 401.131 138.243 401.797 137.145V138.603H403.147V132.933C403.147 130.683 401.905 129.081 399.367 129.081ZM398.755 137.631C397.441 137.631 396.433 136.947 396.433 135.795C396.433 134.679 397.603 133.887 398.989 133.887C399.997 133.887 400.951 134.031 401.797 134.265V135.687C401.437 137.001 399.979 137.631 398.755 137.631ZM408.983 138.603H410.279L414.185 129.297H412.673L409.631 137.019L406.535 129.297H405.023L408.983 138.603ZM416.714 127.605C417.2 127.605 417.596 127.191 417.596 126.705C417.596 126.237 417.2 125.823 416.714 125.823C416.21 125.823 415.814 126.237 415.814 126.705C415.814 127.191 416.21 127.605 416.714 127.605ZM416.03 138.603H417.38V129.297H416.03V138.603ZM424.519 129.081C423.205 129.081 421.999 129.801 421.459 130.791V129.297H420.109V138.603H421.459V132.681C421.459 131.385 422.773 130.287 424.339 130.287C425.707 130.287 426.661 131.349 426.661 132.861V138.603H428.011V132.681C428.011 130.575 426.571 129.081 424.519 129.081ZM437.979 129.297V130.899C437.259 129.765 436.071 129.081 434.595 129.081C432.093 129.081 430.311 130.899 430.311 133.491C430.311 136.083 432.093 137.919 434.595 137.919C436.071 137.919 437.259 137.235 437.979 136.101V137.613C437.979 139.431 436.719 140.493 434.577 140.493C433.425 140.493 432.309 140.079 431.589 139.395L430.995 140.457C431.841 141.177 433.245 141.699 434.757 141.699C437.439 141.699 439.329 140.007 439.329 137.613V129.297H437.979ZM434.847 136.713C433.029 136.713 431.733 135.381 431.733 133.491C431.733 131.619 433.029 130.287 434.847 130.287C436.683 130.287 437.979 131.619 437.979 133.491C437.979 135.381 436.683 136.713 434.847 136.713ZM445.48 138.819C447.406 138.819 448.882 137.721 448.882 136.011C448.882 134.247 447.334 133.743 445.84 133.275C444.112 132.717 443.428 132.465 443.428 131.655C443.428 130.755 444.292 130.287 445.336 130.287C446.164 130.287 447.082 130.575 448.018 131.169L448.666 130.125C447.676 129.477 446.488 129.081 445.336 129.081C443.482 129.081 442.078 130.125 442.078 131.817C442.078 133.149 442.942 133.815 445.192 134.463C446.452 134.823 447.532 135.147 447.532 136.155C447.532 137.037 446.704 137.613 445.48 137.613C444.454 137.613 443.392 137.217 442.33 136.443L441.628 137.433C442.744 138.333 444.184 138.819 445.48 138.819ZM451.836 140.997C452.916 139.647 453.222 139.035 453.222 138.315C453.222 137.487 452.808 136.875 452.124 136.875C451.548 136.875 451.134 137.325 451.134 137.829C451.134 138.369 451.566 138.819 452.106 138.819C451.962 139.377 451.656 139.935 451.17 140.493L451.836 140.997ZM50.034 154.605C50.52 154.605 50.916 154.191 50.916 153.705C50.916 153.237 50.52 152.823 50.034 152.823C49.53 152.823 49.134 153.237 49.134 153.705C49.134 154.191 49.53 154.605 50.034 154.605ZM49.35 165.603H50.7V156.297H49.35V165.603ZM57.839 156.081C56.525 156.081 55.319 156.801 54.779 157.791V156.297H53.429V165.603H54.779V159.681C54.779 158.385 56.093 157.287 57.659 157.287C59.027 157.287 59.981 158.349 59.981 159.861V165.603H61.331V159.681C61.331 157.575 59.891 156.081 57.839 156.081ZM67.1413 165.603H68.4373L72.3433 156.297H70.8313L67.7893 164.019L64.6933 156.297H63.1813L67.1413 165.603ZM77.7671 164.613C75.9311 164.613 74.6531 163.281 74.4551 161.463H82.0691C82.0691 158.205 80.4671 156.081 77.6591 156.081C75.1571 156.081 73.0691 158.151 73.0691 160.923C73.0691 163.785 75.3011 165.819 77.7851 165.819C79.0811 165.819 80.7191 165.261 81.5291 164.379L80.7011 163.497C80.1251 164.127 78.8651 164.613 77.7671 164.613ZM77.7131 157.287C79.5671 157.287 80.5571 158.583 80.7371 160.257H74.4731C74.7251 158.457 76.0571 157.287 77.7131 157.287ZM88.7062 156.081C87.3922 156.081 86.1862 156.801 85.6462 157.791V156.297H84.2962V165.603H85.6462V159.681C85.6462 158.385 86.9602 157.287 88.5262 157.287C89.8942 157.287 90.8482 158.349 90.8482 159.861V165.603H92.1982V159.681C92.1982 157.575 90.7582 156.081 88.7062 156.081ZM99.0165 164.235C98.8185 164.451 98.4585 164.613 98.0445 164.613C97.5045 164.613 97.0365 164.127 97.0365 163.443V157.503H99.3225V156.297H97.0365V153.741H95.6865V156.297H94.2285V157.503H95.6865V163.443C95.6865 164.829 96.6225 165.819 97.9545 165.819C98.5845 165.819 99.1965 165.603 99.6825 165.225L99.0165 164.235ZM105.913 165.819C108.523 165.819 110.719 163.587 110.719 160.941C110.719 158.295 108.523 156.081 105.913 156.081C103.303 156.081 101.089 158.295 101.089 160.941C101.089 163.587 103.303 165.819 105.913 165.819ZM105.913 164.613C104.059 164.613 102.511 162.939 102.511 160.941C102.511 158.961 104.059 157.287 105.913 157.287C107.749 157.287 109.297 158.961 109.297 160.941C109.297 162.939 107.749 164.613 105.913 164.613ZM114.424 158.115V156.297H113.074V165.603H114.424V160.401C114.424 158.583 115.918 157.287 118.024 157.287V156.081C116.314 156.081 114.982 156.873 114.424 158.115ZM121.277 168.843C122.555 168.825 123.455 168.231 124.103 166.647L128.351 156.297H126.893L123.815 164.037L120.557 156.297H119.063L123.113 165.639L122.573 166.791C122.213 167.421 121.817 167.619 121.223 167.619C120.827 167.619 120.449 167.547 120.125 167.385L119.801 168.537C120.233 168.735 120.737 168.843 121.277 168.843ZM129.031 167.997C130.111 166.647 130.417 166.035 130.417 165.315C130.417 164.487 130.003 163.875 129.319 163.875C128.743 163.875 128.329 164.325 128.329 164.829C128.329 165.369 128.761 165.819 129.301 165.819C129.157 166.377 128.851 166.935 128.365 167.493L129.031 167.997ZM142.364 164.235C142.166 164.451 141.806 164.613 141.392 164.613C140.852 164.613 140.384 164.127 140.384 163.443V157.503H142.67V156.297H140.384V153.741H139.034V156.297H137.576V157.503H139.034V163.443C139.034 164.829 139.97 165.819 141.302 165.819C141.932 165.819 142.544 165.603 143.03 165.225L142.364 164.235ZM148.72 156.081C147.82 156.081 146.704 156.315 145.372 156.981L145.912 158.079C146.758 157.647 147.694 157.233 148.63 157.233C150.646 157.233 151.15 158.673 151.15 159.933V160.275C150.196 159.969 149.134 159.753 148.126 159.753C146.128 159.753 144.472 160.995 144.472 162.849C144.472 164.685 145.912 165.819 147.874 165.819C149.098 165.819 150.484 165.243 151.15 164.145V165.603H152.5V159.933C152.5 157.683 151.258 156.081 148.72 156.081ZM148.108 164.631C146.794 164.631 145.786 163.947 145.786 162.795C145.786 161.679 146.956 160.887 148.342 160.887C149.35 160.887 150.304 161.031 151.15 161.265V162.687C150.79 164.001 149.332 164.631 148.108 164.631ZM163.233 165.603L159.651 160.851L163.089 156.297H161.505L158.859 159.807L156.195 156.297H154.611L158.067 160.851L154.467 165.603H156.051L158.859 161.895L161.649 165.603H163.233ZM165.893 167.997C166.973 166.647 167.279 166.035 167.279 165.315C167.279 164.487 166.865 163.875 166.181 163.875C165.605 163.875 165.191 164.325 165.191 164.829C165.191 165.369 165.623 165.819 166.163 165.819C166.019 166.377 165.713 166.935 165.227 167.493L165.893 167.997ZM175.805 154.605C176.291 154.605 176.687 154.191 176.687 153.705C176.687 153.237 176.291 152.823 175.805 152.823C175.301 152.823 174.905 153.237 174.905 153.705C174.905 154.191 175.301 154.605 175.805 154.605ZM175.121 165.603H176.471V156.297H175.121V165.603ZM183.61 156.081C182.296 156.081 181.09 156.801 180.55 157.791V156.297H179.2V165.603H180.55V159.681C180.55 158.385 181.864 157.287 183.43 157.287C184.798 157.287 185.752 158.349 185.752 159.861V165.603H187.102V159.681C187.102 157.575 185.662 156.081 183.61 156.081ZM192.913 165.603H194.209L198.115 156.297H196.603L193.561 164.019L190.465 156.297H188.953L192.913 165.603ZM203.539 164.613C201.703 164.613 200.425 163.281 200.227 161.463H207.841C207.841 158.205 206.239 156.081 203.431 156.081C200.929 156.081 198.841 158.151 198.841 160.923C198.841 163.785 201.073 165.819 203.557 165.819C204.853 165.819 206.491 165.261 207.301 164.379L206.473 163.497C205.897 164.127 204.637 164.613 203.539 164.613ZM203.485 157.287C205.339 157.287 206.329 158.583 206.509 160.257H200.245C200.497 158.457 201.829 157.287 203.485 157.287ZM213.344 165.819C215.27 165.819 216.746 164.721 216.746 163.011C216.746 161.247 215.198 160.743 213.704 160.275C211.976 159.717 211.292 159.465 211.292 158.655C211.292 157.755 212.156 157.287 213.2 157.287C214.028 157.287 214.946 157.575 215.882 158.169L216.53 157.125C215.54 156.477 214.352 156.081 213.2 156.081C211.346 156.081 209.942 157.125 209.942 158.817C209.942 160.149 210.806 160.815 213.056 161.463C214.316 161.823 215.396 162.147 215.396 163.155C215.396 164.037 214.568 164.613 213.344 164.613C212.318 164.613 211.256 164.217 210.194 163.443L209.492 164.433C210.608 165.333 212.048 165.819 213.344 165.819ZM223.065 164.235C222.867 164.451 222.507 164.613 222.093 164.613C221.553 164.613 221.085 164.127 221.085 163.443V157.503H223.371V156.297H221.085V153.741H219.735V156.297H218.277V157.503H219.735V163.443C219.735 164.829 220.671 165.819 222.003 165.819C222.633 165.819 223.245 165.603 223.731 165.225L223.065 164.235ZM235.703 156.081C234.299 156.081 233.075 156.855 232.697 158.061C232.193 156.855 231.095 156.081 229.691 156.081C228.467 156.081 227.459 156.693 226.991 157.665V156.297H225.641V165.603H226.991V159.681C226.991 158.277 228.035 157.287 229.511 157.287C230.771 157.287 231.653 158.349 231.653 159.861V165.603H233.003V159.681C233.003 158.277 234.047 157.287 235.523 157.287C236.783 157.287 237.665 158.349 237.665 159.861V165.603H239.015V159.681C239.015 157.575 237.647 156.081 235.703 156.081ZM245.937 164.613C244.101 164.613 242.823 163.281 242.625 161.463H250.239C250.239 158.205 248.637 156.081 245.829 156.081C243.327 156.081 241.239 158.151 241.239 160.923C241.239 163.785 243.471 165.819 245.955 165.819C247.251 165.819 248.889 165.261 249.699 164.379L248.871 163.497C248.295 164.127 247.035 164.613 245.937 164.613ZM245.883 157.287C247.737 157.287 248.727 158.583 248.907 160.257H242.643C242.895 158.457 244.227 157.287 245.883 157.287ZM256.876 156.081C255.562 156.081 254.356 156.801 253.816 157.791V156.297H252.466V165.603H253.816V159.681C253.816 158.385 255.13 157.287 256.696 157.287C258.064 157.287 259.018 158.349 259.018 159.861V165.603H260.368V159.681C260.368 157.575 258.928 156.081 256.876 156.081ZM267.186 164.235C266.988 164.451 266.628 164.613 266.214 164.613C265.674 164.613 265.206 164.127 265.206 163.443V157.503H267.492V156.297H265.206V153.741H263.856V156.297H262.398V157.503H263.856V163.443C263.856 164.829 264.792 165.819 266.124 165.819C266.754 165.819 267.366 165.603 267.852 165.225L267.186 164.235ZM270.483 167.997C271.563 166.647 271.869 166.035 271.869 165.315C271.869 164.487 271.455 163.875 270.771 163.875C270.195 163.875 269.781 164.325 269.781 164.829C269.781 165.369 270.213 165.819 270.753 165.819C270.609 166.377 270.303 166.935 269.817 167.493L270.483 167.997ZM283.509 156.081C282.609 156.081 281.493 156.315 280.161 156.981L280.701 158.079C281.547 157.647 282.483 157.233 283.419 157.233C285.435 157.233 285.939 158.673 285.939 159.933V160.275C284.985 159.969 283.923 159.753 282.915 159.753C280.917 159.753 279.261 160.995 279.261 162.849C279.261 164.685 280.701 165.819 282.663 165.819C283.887 165.819 285.273 165.243 285.939 164.145V165.603H287.289V159.933C287.289 157.683 286.047 156.081 283.509 156.081ZM282.897 164.631C281.583 164.631 280.575 163.947 280.575 162.795C280.575 161.679 281.745 160.887 283.131 160.887C284.139 160.887 285.093 161.031 285.939 161.265V162.687C285.579 164.001 284.121 164.631 282.897 164.631ZM294.476 156.081C293.162 156.081 291.956 156.801 291.416 157.791V156.297H290.066V165.603H291.416V159.681C291.416 158.385 292.73 157.287 294.296 157.287C295.664 157.287 296.618 158.349 296.618 159.861V165.603H297.968V159.681C297.968 157.575 296.528 156.081 294.476 156.081ZM307.972 153.021V158.043C307.27 156.819 306.082 156.081 304.588 156.081C302.14 156.081 300.304 158.097 300.304 160.941C300.304 163.803 302.14 165.819 304.588 165.819C306.082 165.819 307.27 165.081 307.972 163.857V165.603H309.322V153.021H307.972ZM304.84 164.613C303.022 164.613 301.726 163.083 301.726 160.941C301.726 158.799 303.022 157.287 304.84 157.287C306.676 157.287 307.972 158.799 307.972 160.941C307.972 163.083 306.676 164.613 304.84 164.613ZM322.259 156.081C320.765 156.081 319.577 156.819 318.875 158.043V156.297H317.525V168.699H318.875V163.857C319.577 165.081 320.765 165.819 322.259 165.819C324.707 165.819 326.543 163.803 326.543 160.941C326.543 158.097 324.707 156.081 322.259 156.081ZM322.007 164.613C320.171 164.613 318.875 163.083 318.875 160.941C318.875 158.799 320.171 157.287 322.007 157.287C323.825 157.287 325.121 158.799 325.121 160.941C325.121 163.083 323.825 164.613 322.007 164.613ZM332.658 156.081C331.758 156.081 330.642 156.315 329.31 156.981L329.85 158.079C330.696 157.647 331.632 157.233 332.568 157.233C334.584 157.233 335.088 158.673 335.088 159.933V160.275C334.134 159.969 333.072 159.753 332.064 159.753C330.066 159.753 328.41 160.995 328.41 162.849C328.41 164.685 329.85 165.819 331.812 165.819C333.036 165.819 334.422 165.243 335.088 164.145V165.603H336.438V159.933C336.438 157.683 335.196 156.081 332.658 156.081ZM332.046 164.631C330.732 164.631 329.724 163.947 329.724 162.795C329.724 161.679 330.894 160.887 332.28 160.887C333.288 160.887 334.242 161.031 335.088 161.265V162.687C334.728 164.001 333.27 164.631 332.046 164.631ZM340.582 168.843C341.86 168.825 342.76 168.231 343.408 166.647L347.656 156.297H346.198L343.12 164.037L339.862 156.297H338.368L342.418 165.639L341.878 166.791C341.518 167.421 341.122 167.619 340.528 167.619C340.132 167.619 339.754 167.547 339.43 167.385L339.106 168.537C339.538 168.735 340.042 168.843 340.582 168.843ZM351.342 158.115V156.297H349.992V165.603H351.342V160.401C351.342 158.583 352.836 157.287 354.942 157.287V156.081C353.232 156.081 351.9 156.873 351.342 158.115ZM360.831 165.819C363.441 165.819 365.637 163.587 365.637 160.941C365.637 158.295 363.441 156.081 360.831 156.081C358.221 156.081 356.007 158.295 356.007 160.941C356.007 163.587 358.221 165.819 360.831 165.819ZM360.831 164.613C358.977 164.613 357.429 162.939 357.429 160.941C357.429 158.961 358.977 157.287 360.831 157.287C362.667 157.287 364.215 158.961 364.215 160.941C364.215 162.939 362.667 164.613 360.831 164.613ZM367.866 165.603H369.216V153.021H367.866V165.603ZM371.944 165.603H373.294V153.021H371.944V165.603Z" fill="#E4E4E4"/>
<line y1="201.5" x2="32" y2="201.5" stroke="#E4E4E4"/>
<path d="M54.714 208.819C57.738 208.819 59.88 206.605 59.88 203.473V196.237H58.476V203.473C58.476 205.849 56.91 207.541 54.714 207.541C52.518 207.541 50.952 205.849 50.952 203.473V196.237H49.548V203.473C49.548 206.605 51.69 208.819 54.714 208.819ZM66.0917 208.819C68.0177 208.819 69.4937 207.721 69.4937 206.011C69.4937 204.247 67.9457 203.743 66.4517 203.275C64.7237 202.717 64.0397 202.465 64.0397 201.655C64.0397 200.755 64.9037 200.287 65.9477 200.287C66.7757 200.287 67.6937 200.575 68.6297 201.169L69.2777 200.125C68.2877 199.477 67.0997 199.081 65.9477 199.081C64.0937 199.081 62.6897 200.125 62.6897 201.817C62.6897 203.149 63.5537 203.815 65.8037 204.463C67.0637 204.823 68.1437 205.147 68.1437 206.155C68.1437 207.037 67.3157 207.613 66.0917 207.613C65.0657 207.613 64.0037 207.217 62.9417 206.443L62.2397 207.433C63.3557 208.333 64.7957 208.819 66.0917 208.819ZM75.9214 207.613C74.0854 207.613 72.8074 206.281 72.6094 204.463H80.2234C80.2234 201.205 78.6214 199.081 75.8134 199.081C73.3114 199.081 71.2234 201.151 71.2234 203.923C71.2234 206.785 73.4554 208.819 75.9394 208.819C77.2354 208.819 78.8734 208.261 79.6834 207.379L78.8554 206.497C78.2794 207.127 77.0194 207.613 75.9214 207.613ZM75.8674 200.287C77.7214 200.287 78.7114 201.583 78.8914 203.257H72.6274C72.8794 201.457 74.2114 200.287 75.8674 200.287ZM90.9472 208.819C92.8732 208.819 94.3492 207.721 94.3492 206.011C94.3492 204.247 92.8012 203.743 91.3072 203.275C89.5792 202.717 88.8952 202.465 88.8952 201.655C88.8952 200.755 89.7592 200.287 90.8032 200.287C91.6312 200.287 92.5492 200.575 93.4852 201.169L94.1332 200.125C93.1432 199.477 91.9552 199.081 90.8032 199.081C88.9492 199.081 87.5452 200.125 87.5452 201.817C87.5452 203.149 88.4092 203.815 90.6592 204.463C91.9192 204.823 92.9992 205.147 92.9992 206.155C92.9992 207.037 92.1712 207.613 90.9472 207.613C89.9212 207.613 88.8592 207.217 87.7972 206.443L87.0952 207.433C88.2112 208.333 89.6512 208.819 90.9472 208.819ZM106.645 199.081C105.241 199.081 104.017 199.855 103.639 201.061C103.135 199.855 102.037 199.081 100.633 199.081C99.4088 199.081 98.4008 199.693 97.9328 200.665V199.297H96.5828V208.603H97.9328V202.681C97.9328 201.277 98.9768 200.287 100.453 200.287C101.713 200.287 102.595 201.349 102.595 202.861V208.603H103.945V202.681C103.945 201.277 104.989 200.287 106.465 200.287C107.725 200.287 108.607 201.349 108.607 202.861V208.603H109.957V202.681C109.957 200.575 108.589 199.081 106.645 199.081ZM116.464 199.081C115.564 199.081 114.448 199.315 113.116 199.981L113.656 201.079C114.502 200.647 115.438 200.233 116.374 200.233C118.39 200.233 118.894 201.673 118.894 202.933V203.275C117.94 202.969 116.878 202.753 115.87 202.753C113.872 202.753 112.216 203.995 112.216 205.849C112.216 207.685 113.656 208.819 115.618 208.819C116.842 208.819 118.228 208.243 118.894 207.145V208.603H120.244V202.933C120.244 200.683 119.002 199.081 116.464 199.081ZM115.852 207.631C114.538 207.631 113.53 206.947 113.53 205.795C113.53 204.679 114.7 203.887 116.086 203.887C117.094 203.887 118.048 204.031 118.894 204.265V205.687C118.534 207.001 117.076 207.631 115.852 207.631ZM124.479 201.115V199.297H123.129V208.603H124.479V203.401C124.479 201.583 125.973 200.287 128.079 200.287V199.081C126.369 199.081 125.037 199.873 124.479 201.115ZM134.032 207.235C133.834 207.451 133.474 207.613 133.06 207.613C132.52 207.613 132.052 207.127 132.052 206.443V200.503H134.338V199.297H132.052V196.741H130.702V199.297H129.244V200.503H130.702V206.443C130.702 207.829 131.638 208.819 132.97 208.819C133.6 208.819 134.212 208.603 134.698 208.225L134.032 207.235ZM146.149 208.819C147.445 208.819 148.633 208.279 149.515 207.397L148.579 206.479C147.949 207.181 147.085 207.613 146.149 207.613C144.295 207.613 142.747 205.939 142.747 203.941C142.747 201.961 144.295 200.287 146.149 200.287C147.067 200.287 147.913 200.701 148.525 201.367L149.461 200.449C148.579 199.603 147.409 199.081 146.149 199.081C143.539 199.081 141.325 201.295 141.325 203.941C141.325 206.587 143.539 208.819 146.149 208.819ZM155.711 208.819C158.321 208.819 160.517 206.587 160.517 203.941C160.517 201.295 158.321 199.081 155.711 199.081C153.101 199.081 150.887 201.295 150.887 203.941C150.887 206.587 153.101 208.819 155.711 208.819ZM155.711 207.613C153.857 207.613 152.309 205.939 152.309 203.941C152.309 201.961 153.857 200.287 155.711 200.287C157.547 200.287 159.095 201.961 159.095 203.941C159.095 205.939 157.547 207.613 155.711 207.613ZM167.175 199.081C165.861 199.081 164.655 199.801 164.115 200.791V199.297H162.765V208.603H164.115V202.681C164.115 201.385 165.429 200.287 166.995 200.287C168.363 200.287 169.317 201.349 169.317 202.861V208.603H170.667V202.681C170.667 200.575 169.227 199.081 167.175 199.081ZM177.485 207.235C177.287 207.451 176.927 207.613 176.513 207.613C175.973 207.613 175.505 207.127 175.505 206.443V200.503H177.791V199.297H175.505V196.741H174.155V199.297H172.697V200.503H174.155V206.443C174.155 207.829 175.091 208.819 176.423 208.819C177.053 208.819 177.665 208.603 178.151 208.225L177.485 207.235ZM181.537 201.115V199.297H180.187V208.603H181.537V203.401C181.537 201.583 183.031 200.287 185.137 200.287V199.081C183.427 199.081 182.095 199.873 181.537 201.115ZM190.785 199.081C189.885 199.081 188.769 199.315 187.437 199.981L187.977 201.079C188.823 200.647 189.759 200.233 190.695 200.233C192.711 200.233 193.215 201.673 193.215 202.933V203.275C192.261 202.969 191.199 202.753 190.191 202.753C188.193 202.753 186.537 203.995 186.537 205.849C186.537 207.685 187.977 208.819 189.939 208.819C191.163 208.819 192.549 208.243 193.215 207.145V208.603H194.565V202.933C194.565 200.683 193.323 199.081 190.785 199.081ZM190.173 207.631C188.859 207.631 187.851 206.947 187.851 205.795C187.851 204.679 189.021 203.887 190.407 203.887C191.415 203.887 192.369 204.031 193.215 204.265V205.687C192.855 207.001 191.397 207.631 190.173 207.631ZM201.643 208.819C202.939 208.819 204.127 208.279 205.009 207.397L204.073 206.479C203.443 207.181 202.579 207.613 201.643 207.613C199.789 207.613 198.241 205.939 198.241 203.941C198.241 201.961 199.789 200.287 201.643 200.287C202.561 200.287 203.407 200.701 204.019 201.367L204.955 200.449C204.073 199.603 202.903 199.081 201.643 199.081C199.033 199.081 196.819 201.295 196.819 203.941C196.819 206.587 199.033 208.819 201.643 208.819ZM211.165 207.235C210.967 207.451 210.607 207.613 210.193 207.613C209.653 207.613 209.185 207.127 209.185 206.443V200.503H211.471V199.297H209.185V196.741H207.835V199.297H206.377V200.503H207.835V206.443C207.835 207.829 208.771 208.819 210.103 208.819C210.733 208.819 211.345 208.603 211.831 208.225L211.165 207.235ZM217.035 208.819C218.961 208.819 220.437 207.721 220.437 206.011C220.437 204.247 218.889 203.743 217.395 203.275C215.667 202.717 214.983 202.465 214.983 201.655C214.983 200.755 215.847 200.287 216.891 200.287C217.719 200.287 218.637 200.575 219.573 201.169L220.221 200.125C219.231 199.477 218.043 199.081 216.891 199.081C215.037 199.081 213.633 200.125 213.633 201.817C213.633 203.149 214.497 203.815 216.747 204.463C218.007 204.823 219.087 205.147 219.087 206.155C219.087 207.037 218.259 207.613 217.035 207.613C216.009 207.613 214.947 207.217 213.885 206.443L213.183 207.433C214.299 208.333 215.739 208.819 217.035 208.819ZM229.997 198.019C229.997 197.335 230.465 196.849 231.005 196.849C231.419 196.849 231.779 197.011 231.977 197.227L232.643 196.237C232.157 195.859 231.545 195.643 230.915 195.643C229.583 195.643 228.647 196.633 228.647 198.019V199.297H227.189V200.503H228.647V208.603H229.997V200.503H232.283V199.297H229.997V198.019ZM238.522 208.819C241.132 208.819 243.328 206.587 243.328 203.941C243.328 201.295 241.132 199.081 238.522 199.081C235.912 199.081 233.698 201.295 233.698 203.941C233.698 206.587 235.912 208.819 238.522 208.819ZM238.522 207.613C236.668 207.613 235.12 205.939 235.12 203.941C235.12 201.961 236.668 200.287 238.522 200.287C240.358 200.287 241.906 201.961 241.906 203.941C241.906 205.939 240.358 207.613 238.522 207.613ZM247.033 201.115V199.297H245.683V208.603H247.033V203.401C247.033 201.583 248.527 200.287 250.633 200.287V199.081C248.923 199.081 247.591 199.873 247.033 201.115ZM261.502 199.081C260.602 199.081 259.486 199.315 258.154 199.981L258.694 201.079C259.54 200.647 260.476 200.233 261.412 200.233C263.428 200.233 263.932 201.673 263.932 202.933V203.275C262.978 202.969 261.916 202.753 260.908 202.753C258.91 202.753 257.254 203.995 257.254 205.849C257.254 207.685 258.694 208.819 260.656 208.819C261.88 208.819 263.266 208.243 263.932 207.145V208.603H265.282V202.933C265.282 200.683 264.04 199.081 261.502 199.081ZM260.89 207.631C259.576 207.631 258.568 206.947 258.568 205.795C258.568 204.679 259.738 203.887 261.124 203.887C262.132 203.887 263.086 204.031 263.932 204.265V205.687C263.572 207.001 262.114 207.631 260.89 207.631ZM274.592 199.297V205.219C274.592 206.515 273.278 207.613 271.712 207.613C270.344 207.613 269.39 206.551 269.39 205.039V199.297H268.04V205.219C268.04 207.325 269.48 208.819 271.532 208.819C272.846 208.819 274.052 208.099 274.592 207.109V208.603H275.942V199.297H274.592ZM282.778 207.235C282.58 207.451 282.22 207.613 281.806 207.613C281.266 207.613 280.798 207.127 280.798 206.443V200.503H283.084V199.297H280.798V196.741H279.448V199.297H277.99V200.503H279.448V206.443C279.448 207.829 280.384 208.819 281.716 208.819C282.346 208.819 282.958 208.603 283.444 208.225L282.778 207.235ZM289.674 208.819C292.284 208.819 294.48 206.587 294.48 203.941C294.48 201.295 292.284 199.081 289.674 199.081C287.064 199.081 284.85 201.295 284.85 203.941C284.85 206.587 287.064 208.819 289.674 208.819ZM289.674 207.613C287.82 207.613 286.272 205.939 286.272 203.941C286.272 201.961 287.82 200.287 289.674 200.287C291.51 200.287 293.058 201.961 293.058 203.941C293.058 205.939 291.51 207.613 289.674 207.613ZM306.772 199.081C305.368 199.081 304.144 199.855 303.766 201.061C303.262 199.855 302.164 199.081 300.76 199.081C299.536 199.081 298.528 199.693 298.06 200.665V199.297H296.71V208.603H298.06V202.681C298.06 201.277 299.104 200.287 300.58 200.287C301.84 200.287 302.722 201.349 302.722 202.861V208.603H304.072V202.681C304.072 201.277 305.116 200.287 306.592 200.287C307.852 200.287 308.734 201.349 308.734 202.861V208.603H310.084V202.681C310.084 200.575 308.716 199.081 306.772 199.081ZM316.591 199.081C315.691 199.081 314.575 199.315 313.243 199.981L313.783 201.079C314.629 200.647 315.565 200.233 316.501 200.233C318.517 200.233 319.021 201.673 319.021 202.933V203.275C318.067 202.969 317.005 202.753 315.997 202.753C313.999 202.753 312.343 203.995 312.343 205.849C312.343 207.685 313.783 208.819 315.745 208.819C316.969 208.819 318.355 208.243 319.021 207.145V208.603H320.371V202.933C320.371 200.683 319.129 199.081 316.591 199.081ZM315.979 207.631C314.665 207.631 313.657 206.947 313.657 205.795C313.657 204.679 314.827 203.887 316.213 203.887C317.221 203.887 318.175 204.031 319.021 204.265V205.687C318.661 207.001 317.203 207.631 315.979 207.631ZM327.216 207.235C327.018 207.451 326.658 207.613 326.244 207.613C325.704 207.613 325.236 207.127 325.236 206.443V200.503H327.522V199.297H325.236V196.741H323.886V199.297H322.428V200.503H323.886V206.443C323.886 207.829 324.822 208.819 326.154 208.819C326.784 208.819 327.396 208.603 327.882 208.225L327.216 207.235ZM330.458 197.605C330.944 197.605 331.34 197.191 331.34 196.705C331.34 196.237 330.944 195.823 330.458 195.823C329.954 195.823 329.558 196.237 329.558 196.705C329.558 197.191 329.954 197.605 330.458 197.605ZM329.774 208.603H331.124V199.297H329.774V208.603ZM338.155 208.819C339.451 208.819 340.639 208.279 341.521 207.397L340.585 206.479C339.955 207.181 339.091 207.613 338.155 207.613C336.301 207.613 334.753 205.939 334.753 203.941C334.753 201.961 336.301 200.287 338.155 200.287C339.073 200.287 339.919 200.701 340.531 201.367L341.467 200.449C340.585 199.603 339.415 199.081 338.155 199.081C335.545 199.081 333.331 201.295 333.331 203.941C333.331 206.587 335.545 208.819 338.155 208.819ZM352.591 199.081C351.691 199.081 350.575 199.315 349.243 199.981L349.783 201.079C350.629 200.647 351.565 200.233 352.501 200.233C354.517 200.233 355.021 201.673 355.021 202.933V203.275C354.067 202.969 353.005 202.753 351.997 202.753C349.999 202.753 348.343 203.995 348.343 205.849C348.343 207.685 349.783 208.819 351.745 208.819C352.969 208.819 354.355 208.243 355.021 207.145V208.603H356.371V202.933C356.371 200.683 355.129 199.081 352.591 199.081ZM351.979 207.631C350.665 207.631 349.657 206.947 349.657 205.795C349.657 204.679 350.827 203.887 352.213 203.887C353.221 203.887 354.175 204.031 355.021 204.265V205.687C354.661 207.001 353.203 207.631 351.979 207.631ZM362.424 208.819C364.35 208.819 365.826 207.721 365.826 206.011C365.826 204.247 364.278 203.743 362.784 203.275C361.056 202.717 360.372 202.465 360.372 201.655C360.372 200.755 361.236 200.287 362.28 200.287C363.108 200.287 364.026 200.575 364.962 201.169L365.61 200.125C364.62 199.477 363.432 199.081 362.28 199.081C360.426 199.081 359.022 200.125 359.022 201.817C359.022 203.149 359.886 203.815 362.136 204.463C363.396 204.823 364.476 205.147 364.476 206.155C364.476 207.037 363.648 207.613 362.424 207.613C361.398 207.613 360.336 207.217 359.274 206.443L358.572 207.433C359.688 208.333 361.128 208.819 362.424 208.819ZM371.353 208.819C373.279 208.819 374.755 207.721 374.755 206.011C374.755 204.247 373.207 203.743 371.713 203.275C369.985 202.717 369.301 202.465 369.301 201.655C369.301 200.755 370.165 200.287 371.209 200.287C372.037 200.287 372.955 200.575 373.891 201.169L374.539 200.125C373.549 199.477 372.361 199.081 371.209 199.081C369.355 199.081 367.951 200.125 367.951 201.817C367.951 203.149 368.815 203.815 371.065 204.463C372.325 204.823 373.405 205.147 373.405 206.155C373.405 207.037 372.577 207.613 371.353 207.613C370.327 207.613 369.265 207.217 368.203 206.443L367.501 207.433C368.617 208.333 370.057 208.819 371.353 208.819ZM381.183 207.613C379.347 207.613 378.069 206.281 377.871 204.463H385.485C385.485 201.205 383.883 199.081 381.075 199.081C378.573 199.081 376.485 201.151 376.485 203.923C376.485 206.785 378.717 208.819 381.201 208.819C382.497 208.819 384.135 208.261 384.945 207.379L384.117 206.497C383.541 207.127 382.281 207.613 381.183 207.613ZM381.129 200.287C382.983 200.287 383.973 201.583 384.153 203.257H377.889C378.141 201.457 379.473 200.287 381.129 200.287ZM391.78 207.235C391.582 207.451 391.222 207.613 390.808 207.613C390.268 207.613 389.8 207.127 389.8 206.443V200.503H392.086V199.297H389.8V196.741H388.45V199.297H386.992V200.503H388.45V206.443C388.45 207.829 389.386 208.819 390.718 208.819C391.348 208.819 391.96 208.603 392.446 208.225L391.78 207.235ZM403.357 199.081C402.457 199.081 401.341 199.315 400.009 199.981L400.549 201.079C401.395 200.647 402.331 200.233 403.267 200.233C405.283 200.233 405.787 201.673 405.787 202.933V203.275C404.833 202.969 403.771 202.753 402.763 202.753C400.765 202.753 399.109 203.995 399.109 205.849C399.109 207.685 400.549 208.819 402.511 208.819C403.735 208.819 405.121 208.243 405.787 207.145V208.603H407.137V202.933C407.137 200.683 405.895 199.081 403.357 199.081ZM402.745 207.631C401.431 207.631 400.423 206.947 400.423 205.795C400.423 204.679 401.593 203.887 402.979 203.887C403.987 203.887 404.941 204.031 405.787 204.265V205.687C405.427 207.001 403.969 207.631 402.745 207.631ZM409.895 208.603H411.245V196.021H409.895V208.603ZM413.973 208.603H415.323V196.021H413.973V208.603ZM422.372 208.819C424.982 208.819 427.178 206.587 427.178 203.941C427.178 201.295 424.982 199.081 422.372 199.081C419.762 199.081 417.548 201.295 417.548 203.941C417.548 206.587 419.762 208.819 422.372 208.819ZM422.372 207.613C420.518 207.613 418.97 205.939 418.97 203.941C418.97 201.961 420.518 200.287 422.372 200.287C424.208 200.287 425.756 201.961 425.756 203.941C425.756 205.939 424.208 207.613 422.372 207.613ZM433.727 208.819C435.023 208.819 436.211 208.279 437.093 207.397L436.157 206.479C435.527 207.181 434.663 207.613 433.727 207.613C431.873 207.613 430.325 205.939 430.325 203.941C430.325 201.961 431.873 200.287 433.727 200.287C434.645 200.287 435.491 200.701 436.103 201.367L437.039 200.449C436.157 199.603 434.987 199.081 433.727 199.081C431.117 199.081 428.903 201.295 428.903 203.941C428.903 206.587 431.117 208.819 433.727 208.819ZM442.943 199.081C442.043 199.081 440.927 199.315 439.595 199.981L440.135 201.079C440.981 200.647 441.917 200.233 442.853 200.233C444.869 200.233 445.373 201.673 445.373 202.933V203.275C444.419 202.969 443.357 202.753 442.349 202.753C440.351 202.753 438.695 203.995 438.695 205.849C438.695 207.685 440.135 208.819 442.097 208.819C443.321 208.819 444.707 208.243 445.373 207.145V208.603H446.723V202.933C446.723 200.683 445.481 199.081 442.943 199.081ZM442.331 207.631C441.017 207.631 440.009 206.947 440.009 205.795C440.009 204.679 441.179 203.887 442.565 203.887C443.573 203.887 444.527 204.031 445.373 204.265V205.687C445.013 207.001 443.555 207.631 442.331 207.631ZM453.567 207.235C453.369 207.451 453.009 207.613 452.595 207.613C452.055 207.613 451.587 207.127 451.587 206.443V200.503H453.873V199.297H451.587V196.741H450.237V199.297H448.779V200.503H450.237V206.443C450.237 207.829 451.173 208.819 452.505 208.819C453.135 208.819 453.747 208.603 454.233 208.225L453.567 207.235ZM456.809 197.605C457.295 197.605 457.691 197.191 457.691 196.705C457.691 196.237 457.295 195.823 456.809 195.823C456.305 195.823 455.909 196.237 455.909 196.705C455.909 197.191 456.305 197.605 456.809 197.605ZM456.125 208.603H457.475V199.297H456.125V208.603ZM464.506 208.819C467.116 208.819 469.312 206.587 469.312 203.941C469.312 201.295 467.116 199.081 464.506 199.081C461.896 199.081 459.682 201.295 459.682 203.941C459.682 206.587 461.896 208.819 464.506 208.819ZM464.506 207.613C462.652 207.613 461.104 205.939 461.104 203.941C461.104 201.961 462.652 200.287 464.506 200.287C466.342 200.287 467.89 201.961 467.89 203.941C467.89 205.939 466.342 207.613 464.506 207.613ZM475.97 199.081C474.656 199.081 473.45 199.801 472.91 200.791V199.297H471.56V208.603H472.91V202.681C472.91 201.385 474.224 200.287 475.79 200.287C477.158 200.287 478.112 201.349 478.112 202.861V208.603H479.462V202.681C479.462 200.575 478.022 199.081 475.97 199.081ZM482.914 210.997C483.994 209.647 484.3 209.035 484.3 208.315C484.3 207.487 483.886 206.875 483.202 206.875C482.626 206.875 482.212 207.325 482.212 207.829C482.212 208.369 482.644 208.819 483.184 208.819C483.04 209.377 482.734 209.935 482.248 210.493L482.914 210.997ZM50.034 224.605C50.52 224.605 50.916 224.191 50.916 223.705C50.916 223.237 50.52 222.823 50.034 222.823C49.53 222.823 49.134 223.237 49.134 223.705C49.134 224.191 49.53 224.605 50.034 224.605ZM49.35 235.603H50.7V226.297H49.35V235.603ZM57.839 226.081C56.525 226.081 55.319 226.801 54.779 227.791V226.297H53.429V235.603H54.779V229.681C54.779 228.385 56.093 227.287 57.659 227.287C59.027 227.287 59.981 228.349 59.981 229.861V235.603H61.331V229.681C61.331 227.575 59.891 226.081 57.839 226.081ZM67.1413 235.603H68.4373L72.3433 226.297H70.8313L67.7893 234.019L64.6933 226.297H63.1813L67.1413 235.603ZM77.7671 234.613C75.9311 234.613 74.6531 233.281 74.4551 231.463H82.0691C82.0691 228.205 80.4671 226.081 77.6591 226.081C75.1571 226.081 73.0691 228.151 73.0691 230.923C73.0691 233.785 75.3011 235.819 77.7851 235.819C79.0811 235.819 80.7191 235.261 81.5291 234.379L80.7011 233.497C80.1251 234.127 78.8651 234.613 77.7671 234.613ZM77.7131 227.287C79.5671 227.287 80.5571 228.583 80.7371 230.257H74.4731C74.7251 228.457 76.0571 227.287 77.7131 227.287ZM88.7062 226.081C87.3922 226.081 86.1862 226.801 85.6462 227.791V226.297H84.2962V235.603H85.6462V229.681C85.6462 228.385 86.9602 227.287 88.5262 227.287C89.8942 227.287 90.8482 228.349 90.8482 229.861V235.603H92.1982V229.681C92.1982 227.575 90.7582 226.081 88.7062 226.081ZM99.0165 234.235C98.8185 234.451 98.4585 234.613 98.0445 234.613C97.5045 234.613 97.0365 234.127 97.0365 233.443V227.503H99.3225V226.297H97.0365V223.741H95.6865V226.297H94.2285V227.503H95.6865V233.443C95.6865 234.829 96.6225 235.819 97.9545 235.819C98.5845 235.819 99.1965 235.603 99.6825 235.225L99.0165 234.235ZM105.913 235.819C108.523 235.819 110.719 233.587 110.719 230.941C110.719 228.295 108.523 226.081 105.913 226.081C103.303 226.081 101.089 228.295 101.089 230.941C101.089 233.587 103.303 235.819 105.913 235.819ZM105.913 234.613C104.059 234.613 102.511 232.939 102.511 230.941C102.511 228.961 104.059 227.287 105.913 227.287C107.749 227.287 109.297 228.961 109.297 230.941C109.297 232.939 107.749 234.613 105.913 234.613ZM114.424 228.115V226.297H113.074V235.603H114.424V230.401C114.424 228.583 115.918 227.287 118.024 227.287V226.081C116.314 226.081 114.982 226.873 114.424 228.115ZM121.277 238.843C122.555 238.825 123.455 238.231 124.103 236.647L128.351 226.297H126.893L123.815 234.037L120.557 226.297H119.063L123.113 235.639L122.573 236.791C122.213 237.421 121.817 237.619 121.223 237.619C120.827 237.619 120.449 237.547 120.125 237.385L119.801 238.537C120.233 238.735 120.737 238.843 121.277 238.843ZM145.844 226.081C144.44 226.081 143.216 226.855 142.838 228.061C142.334 226.855 141.236 226.081 139.832 226.081C138.608 226.081 137.6 226.693 137.132 227.665V226.297H135.782V235.603H137.132V229.681C137.132 228.277 138.176 227.287 139.652 227.287C140.912 227.287 141.794 228.349 141.794 229.861V235.603H143.144V229.681C143.144 228.277 144.188 227.287 145.664 227.287C146.924 227.287 147.806 228.349 147.806 229.861V235.603H149.156V229.681C149.156 227.575 147.788 226.081 145.844 226.081ZM155.664 226.081C154.764 226.081 153.648 226.315 152.316 226.981L152.856 228.079C153.702 227.647 154.638 227.233 155.574 227.233C157.59 227.233 158.094 228.673 158.094 229.933V230.275C157.14 229.969 156.078 229.753 155.07 229.753C153.072 229.753 151.416 230.995 151.416 232.849C151.416 234.685 152.856 235.819 154.818 235.819C156.042 235.819 157.428 235.243 158.094 234.145V235.603H159.444V229.933C159.444 227.683 158.202 226.081 155.664 226.081ZM155.052 234.631C153.738 234.631 152.73 233.947 152.73 232.795C152.73 231.679 153.9 230.887 155.286 230.887C156.294 230.887 157.248 231.031 158.094 231.265V232.687C157.734 234.001 156.276 234.631 155.052 234.631ZM166.63 226.081C165.316 226.081 164.11 226.801 163.57 227.791V226.297H162.22V235.603H163.57V229.681C163.57 228.385 164.884 227.287 166.45 227.287C167.818 227.287 168.772 228.349 168.772 229.861V235.603H170.122V229.681C170.122 227.575 168.682 226.081 166.63 226.081ZM176.634 226.081C175.734 226.081 174.618 226.315 173.286 226.981L173.826 228.079C174.672 227.647 175.608 227.233 176.544 227.233C178.56 227.233 179.064 228.673 179.064 229.933V230.275C178.11 229.969 177.048 229.753 176.04 229.753C174.042 229.753 172.386 230.995 172.386 232.849C172.386 234.685 173.826 235.819 175.788 235.819C177.012 235.819 178.398 235.243 179.064 234.145V235.603H180.414V229.933C180.414 227.683 179.172 226.081 176.634 226.081ZM176.022 234.631C174.708 234.631 173.7 233.947 173.7 232.795C173.7 231.679 174.87 230.887 176.256 230.887C177.264 230.887 178.218 231.031 179.064 231.265V232.687C178.704 234.001 177.246 234.631 176.022 234.631ZM190.409 226.297V227.899C189.689 226.765 188.501 226.081 187.025 226.081C184.523 226.081 182.741 227.899 182.741 230.491C182.741 233.083 184.523 234.919 187.025 234.919C188.501 234.919 189.689 234.235 190.409 233.101V234.613C190.409 236.431 189.149 237.493 187.007 237.493C185.855 237.493 184.739 237.079 184.019 236.395L183.425 237.457C184.271 238.177 185.675 238.699 187.187 238.699C189.869 238.699 191.759 237.007 191.759 234.613V226.297H190.409ZM187.277 233.713C185.459 233.713 184.163 232.381 184.163 230.491C184.163 228.619 185.459 227.287 187.277 227.287C189.113 227.287 190.409 228.619 190.409 230.491C190.409 232.381 189.113 233.713 187.277 233.713ZM198.81 234.613C196.974 234.613 195.696 233.281 195.498 231.463H203.112C203.112 228.205 201.51 226.081 198.702 226.081C196.2 226.081 194.112 228.151 194.112 230.923C194.112 233.785 196.344 235.819 198.828 235.819C200.124 235.819 201.762 235.261 202.572 234.379L201.744 233.497C201.168 234.127 199.908 234.613 198.81 234.613ZM198.756 227.287C200.61 227.287 201.6 228.583 201.78 230.257H195.516C195.768 228.457 197.1 227.287 198.756 227.287ZM215.383 226.081C213.979 226.081 212.755 226.855 212.377 228.061C211.873 226.855 210.775 226.081 209.371 226.081C208.147 226.081 207.139 226.693 206.671 227.665V226.297H205.321V235.603H206.671V229.681C206.671 228.277 207.715 227.287 209.191 227.287C210.451 227.287 211.333 228.349 211.333 229.861V235.603H212.683V229.681C212.683 228.277 213.727 227.287 215.203 227.287C216.463 227.287 217.345 228.349 217.345 229.861V235.603H218.695V229.681C218.695 227.575 217.327 226.081 215.383 226.081ZM225.617 234.613C223.781 234.613 222.503 233.281 222.305 231.463H229.919C229.919 228.205 228.317 226.081 225.509 226.081C223.007 226.081 220.919 228.151 220.919 230.923C220.919 233.785 223.151 235.819 225.635 235.819C226.931 235.819 228.569 235.261 229.379 234.379L228.551 233.497C227.975 234.127 226.715 234.613 225.617 234.613ZM225.563 227.287C227.417 227.287 228.407 228.583 228.587 230.257H222.323C222.575 228.457 223.907 227.287 225.563 227.287ZM236.556 226.081C235.242 226.081 234.036 226.801 233.496 227.791V226.297H232.146V235.603H233.496V229.681C233.496 228.385 234.81 227.287 236.376 227.287C237.744 227.287 238.698 228.349 238.698 229.861V235.603H240.048V229.681C240.048 227.575 238.608 226.081 236.556 226.081ZM246.866 234.235C246.668 234.451 246.308 234.613 245.894 234.613C245.354 234.613 244.886 234.127 244.886 233.443V227.503H247.172V226.297H244.886V223.741H243.536V226.297H242.078V227.503H243.536V233.443C243.536 234.829 244.472 235.819 245.804 235.819C246.434 235.819 247.046 235.603 247.532 235.225L246.866 234.235ZM250.162 237.997C251.242 236.647 251.548 236.035 251.548 235.315C251.548 234.487 251.134 233.875 250.45 233.875C249.874 233.875 249.46 234.325 249.46 234.829C249.46 235.369 249.892 235.819 250.432 235.819C250.288 236.377 249.982 236.935 249.496 237.493L250.162 237.997ZM263.189 226.081C262.289 226.081 261.173 226.315 259.841 226.981L260.381 228.079C261.227 227.647 262.163 227.233 263.099 227.233C265.115 227.233 265.619 228.673 265.619 229.933V230.275C264.665 229.969 263.603 229.753 262.595 229.753C260.597 229.753 258.941 230.995 258.941 232.849C258.941 234.685 260.381 235.819 262.343 235.819C263.567 235.819 264.953 235.243 265.619 234.145V235.603H266.969V229.933C266.969 227.683 265.727 226.081 263.189 226.081ZM262.577 234.631C261.263 234.631 260.255 233.947 260.255 232.795C260.255 231.679 261.425 230.887 262.811 230.887C263.819 230.887 264.773 231.031 265.619 231.265V232.687C265.259 234.001 263.801 234.631 262.577 234.631ZM274.155 226.081C272.841 226.081 271.635 226.801 271.095 227.791V226.297H269.745V235.603H271.095V229.681C271.095 228.385 272.409 227.287 273.975 227.287C275.343 227.287 276.297 228.349 276.297 229.861V235.603H277.647V229.681C277.647 227.575 276.207 226.081 274.155 226.081ZM287.652 223.021V228.043C286.95 226.819 285.762 226.081 284.268 226.081C281.82 226.081 279.984 228.097 279.984 230.941C279.984 233.803 281.82 235.819 284.268 235.819C285.762 235.819 286.95 235.081 287.652 233.857V235.603H289.002V223.021H287.652ZM284.52 234.613C282.702 234.613 281.406 233.083 281.406 230.941C281.406 228.799 282.702 227.287 284.52 227.287C286.356 227.287 287.652 228.799 287.652 230.941C287.652 233.083 286.356 234.613 284.52 234.613ZM301.165 234.235C300.967 234.451 300.607 234.613 300.193 234.613C299.653 234.613 299.185 234.127 299.185 233.443V227.503H301.471V226.297H299.185V223.741H297.835V226.297H296.377V227.503H297.835V233.443C297.835 234.829 298.771 235.819 300.103 235.819C300.733 235.819 301.345 235.603 301.831 235.225L301.165 234.235ZM307.521 226.081C306.621 226.081 305.505 226.315 304.173 226.981L304.713 228.079C305.559 227.647 306.495 227.233 307.431 227.233C309.447 227.233 309.951 228.673 309.951 229.933V230.275C308.997 229.969 307.935 229.753 306.927 229.753C304.929 229.753 303.273 230.995 303.273 232.849C303.273 234.685 304.713 235.819 306.675 235.819C307.899 235.819 309.285 235.243 309.951 234.145V235.603H311.301V229.933C311.301 227.683 310.059 226.081 307.521 226.081ZM306.909 234.631C305.595 234.631 304.587 233.947 304.587 232.795C304.587 231.679 305.757 230.887 307.143 230.887C308.151 230.887 309.105 231.031 309.951 231.265V232.687C309.591 234.001 308.133 234.631 306.909 234.631ZM322.033 235.603L318.451 230.851L321.889 226.297H320.305L317.659 229.807L314.995 226.297H313.411L316.867 230.851L313.267 235.603H314.851L317.659 231.895L320.449 235.603H322.033ZM334.054 226.081C332.56 226.081 331.372 226.819 330.67 228.043V226.297H329.32V238.699H330.67V233.857C331.372 235.081 332.56 235.819 334.054 235.819C336.502 235.819 338.338 233.803 338.338 230.941C338.338 228.097 336.502 226.081 334.054 226.081ZM333.802 234.613C331.966 234.613 330.67 233.083 330.67 230.941C330.67 228.799 331.966 227.287 333.802 227.287C335.62 227.287 336.916 228.799 336.916 230.941C336.916 233.083 335.62 234.613 333.802 234.613ZM344.453 226.081C343.553 226.081 342.437 226.315 341.105 226.981L341.645 228.079C342.491 227.647 343.427 227.233 344.363 227.233C346.379 227.233 346.883 228.673 346.883 229.933V230.275C345.929 229.969 344.867 229.753 343.859 229.753C341.861 229.753 340.205 230.995 340.205 232.849C340.205 234.685 341.645 235.819 343.607 235.819C344.831 235.819 346.217 235.243 346.883 234.145V235.603H348.233V229.933C348.233 227.683 346.991 226.081 344.453 226.081ZM343.841 234.631C342.527 234.631 341.519 233.947 341.519 232.795C341.519 231.679 342.689 230.887 344.075 230.887C345.083 230.887 346.037 231.031 346.883 231.265V232.687C346.523 234.001 345.065 234.631 343.841 234.631ZM352.377 238.843C353.655 238.825 354.555 238.231 355.203 236.647L359.451 226.297H357.993L354.915 234.037L351.657 226.297H350.163L354.213 235.639L353.673 236.791C353.313 237.421 352.917 237.619 352.323 237.619C351.927 237.619 351.549 237.547 351.225 237.385L350.901 238.537C351.333 238.735 351.837 238.843 352.377 238.843ZM371.723 226.081C370.319 226.081 369.095 226.855 368.717 228.061C368.213 226.855 367.115 226.081 365.711 226.081C364.487 226.081 363.479 226.693 363.011 227.665V226.297H361.661V235.603H363.011V229.681C363.011 228.277 364.055 227.287 365.531 227.287C366.791 227.287 367.673 228.349 367.673 229.861V235.603H369.023V229.681C369.023 228.277 370.067 227.287 371.543 227.287C372.803 227.287 373.685 228.349 373.685 229.861V235.603H375.035V229.681C375.035 227.575 373.667 226.081 371.723 226.081ZM381.957 234.613C380.121 234.613 378.843 233.281 378.645 231.463H386.259C386.259 228.205 384.657 226.081 381.849 226.081C379.347 226.081 377.259 228.151 377.259 230.923C377.259 233.785 379.491 235.819 381.975 235.819C383.271 235.819 384.909 235.261 385.719 234.379L384.891 233.497C384.315 234.127 383.055 234.613 381.957 234.613ZM381.903 227.287C383.757 227.287 384.747 228.583 384.927 230.257H378.663C378.915 228.457 380.247 227.287 381.903 227.287ZM392.896 226.081C391.582 226.081 390.376 226.801 389.836 227.791V226.297H388.486V235.603H389.836V229.681C389.836 228.385 391.15 227.287 392.716 227.287C394.084 227.287 395.038 228.349 395.038 229.861V235.603H396.388V229.681C396.388 227.575 394.948 226.081 392.896 226.081ZM403.206 234.235C403.008 234.451 402.648 234.613 402.234 234.613C401.694 234.613 401.226 234.127 401.226 233.443V227.503H403.512V226.297H401.226V223.741H399.876V226.297H398.418V227.503H399.876V233.443C399.876 234.829 400.812 235.819 402.144 235.819C402.774 235.819 403.386 235.603 403.872 235.225L403.206 234.235ZM409.076 235.819C411.002 235.819 412.478 234.721 412.478 233.011C412.478 231.247 410.93 230.743 409.436 230.275C407.708 229.717 407.024 229.465 407.024 228.655C407.024 227.755 407.888 227.287 408.932 227.287C409.76 227.287 410.678 227.575 411.614 228.169L412.262 227.125C411.272 226.477 410.084 226.081 408.932 226.081C407.078 226.081 405.674 227.125 405.674 228.817C405.674 230.149 406.538 230.815 408.788 231.463C410.048 231.823 411.128 232.147 411.128 233.155C411.128 234.037 410.3 234.613 409.076 234.613C408.05 234.613 406.988 234.217 405.926 233.443L405.224 234.433C406.34 235.333 407.78 235.819 409.076 235.819Z" fill="#E4E4E4"/>
<line y1="271.5" x2="32" y2="271.5" stroke="#E4E4E4"/>
<path d="M49.422 278.603H50.826V274.157H54.444C57 274.157 58.998 272.519 58.998 270.197C58.998 267.875 57 266.237 54.444 266.237H49.422V278.603ZM50.826 272.825V267.569H54.192C56.208 267.569 57.576 268.541 57.576 270.197C57.576 271.853 56.208 272.825 54.192 272.825H50.826ZM65.272 278.819C67.882 278.819 70.078 276.587 70.078 273.941C70.078 271.295 67.882 269.081 65.272 269.081C62.662 269.081 60.448 271.295 60.448 273.941C60.448 276.587 62.662 278.819 65.272 278.819ZM65.272 277.613C63.418 277.613 61.87 275.939 61.87 273.941C61.87 271.961 63.418 270.287 65.272 270.287C67.108 270.287 68.656 271.961 68.656 273.941C68.656 275.939 67.108 277.613 65.272 277.613ZM73.7835 271.115V269.297H72.4335V278.603H73.7835V273.401C73.7835 271.583 75.2775 270.287 77.3835 270.287V269.081C75.6735 269.081 74.3415 269.873 73.7835 271.115ZM83.3368 277.235C83.1388 277.451 82.7788 277.613 82.3648 277.613C81.8248 277.613 81.3568 277.127 81.3568 276.443V270.503H83.6428V269.297H81.3568V266.741H80.0068V269.297H78.5488V270.503H80.0068V276.443C80.0068 277.829 80.9428 278.819 82.2748 278.819C82.9048 278.819 83.5168 278.603 84.0028 278.225L83.3368 277.235ZM88.0189 268.019C88.0189 267.335 88.4869 266.849 89.0269 266.849C89.4409 266.849 89.8009 267.011 89.9989 267.227L90.6649 266.237C90.1789 265.859 89.5669 265.643 88.9369 265.643C87.6049 265.643 86.6689 266.633 86.6689 268.019V269.297H85.2109V270.503H86.6689V278.603H88.0189V270.503H90.3049V269.297H88.0189V268.019ZM96.5435 278.819C99.1535 278.819 101.349 276.587 101.349 273.941C101.349 271.295 99.1535 269.081 96.5435 269.081C93.9335 269.081 91.7195 271.295 91.7195 273.941C91.7195 276.587 93.9335 278.819 96.5435 278.819ZM96.5435 277.613C94.6895 277.613 93.1415 275.939 93.1415 273.941C93.1415 271.961 94.6895 270.287 96.5435 270.287C98.3795 270.287 99.9275 271.961 99.9275 273.941C99.9275 275.939 98.3795 277.613 96.5435 277.613ZM103.579 278.603H104.929V266.021H103.579V278.603ZM108.323 267.605C108.809 267.605 109.205 267.191 109.205 266.705C109.205 266.237 108.809 265.823 108.323 265.823C107.819 265.823 107.423 266.237 107.423 266.705C107.423 267.191 107.819 267.605 108.323 267.605ZM107.639 278.603H108.989V269.297H107.639V278.603ZM116.02 278.819C118.63 278.819 120.826 276.587 120.826 273.941C120.826 271.295 118.63 269.081 116.02 269.081C113.41 269.081 111.196 271.295 111.196 273.941C111.196 276.587 113.41 278.819 116.02 278.819ZM116.02 277.613C114.166 277.613 112.618 275.939 112.618 273.941C112.618 271.961 114.166 270.287 116.02 270.287C117.856 270.287 119.404 271.961 119.404 273.941C119.404 275.939 117.856 277.613 116.02 277.613ZM128.6 278.603H130.004V269.261L134.594 277.883L139.184 269.261V278.603H140.588V266.237H139.184L134.594 274.859L130.004 266.237H128.6V278.603ZM147.419 269.081C146.519 269.081 145.403 269.315 144.071 269.981L144.611 271.079C145.457 270.647 146.393 270.233 147.329 270.233C149.345 270.233 149.849 271.673 149.849 272.933V273.275C148.895 272.969 147.833 272.753 146.825 272.753C144.827 272.753 143.171 273.995 143.171 275.849C143.171 277.685 144.611 278.819 146.573 278.819C147.797 278.819 149.183 278.243 149.849 277.145V278.603H151.199V272.933C151.199 270.683 149.957 269.081 147.419 269.081ZM146.807 277.631C145.493 277.631 144.485 276.947 144.485 275.795C144.485 274.679 145.655 273.887 147.041 273.887C148.049 273.887 149.003 274.031 149.849 274.265V275.687C149.489 277.001 148.031 277.631 146.807 277.631ZM158.386 269.081C157.072 269.081 155.866 269.801 155.326 270.791V269.297H153.976V278.603H155.326V272.681C155.326 271.385 156.64 270.287 158.206 270.287C159.574 270.287 160.528 271.349 160.528 272.861V278.603H161.878V272.681C161.878 270.575 160.438 269.081 158.386 269.081ZM168.39 269.081C167.49 269.081 166.374 269.315 165.042 269.981L165.582 271.079C166.428 270.647 167.364 270.233 168.3 270.233C170.316 270.233 170.82 271.673 170.82 272.933V273.275C169.866 272.969 168.804 272.753 167.796 272.753C165.798 272.753 164.142 273.995 164.142 275.849C164.142 277.685 165.582 278.819 167.544 278.819C168.768 278.819 170.154 278.243 170.82 277.145V278.603H172.17V272.933C172.17 270.683 170.928 269.081 168.39 269.081ZM167.778 277.631C166.464 277.631 165.456 276.947 165.456 275.795C165.456 274.679 166.626 273.887 168.012 273.887C169.02 273.887 169.974 274.031 170.82 274.265V275.687C170.46 277.001 169.002 277.631 167.778 277.631ZM182.165 269.297V270.899C181.445 269.765 180.257 269.081 178.781 269.081C176.279 269.081 174.497 270.899 174.497 273.491C174.497 276.083 176.279 277.919 178.781 277.919C180.257 277.919 181.445 277.235 182.165 276.101V277.613C182.165 279.431 180.905 280.493 178.763 280.493C177.611 280.493 176.495 280.079 175.775 279.395L175.181 280.457C176.027 281.177 177.431 281.699 178.943 281.699C181.625 281.699 183.515 280.007 183.515 277.613V269.297H182.165ZM179.033 276.713C177.215 276.713 175.919 275.381 175.919 273.491C175.919 271.619 177.215 270.287 179.033 270.287C180.869 270.287 182.165 271.619 182.165 273.491C182.165 275.381 180.869 276.713 179.033 276.713ZM190.566 277.613C188.73 277.613 187.452 276.281 187.254 274.463H194.868C194.868 271.205 193.266 269.081 190.458 269.081C187.956 269.081 185.868 271.151 185.868 273.923C185.868 276.785 188.1 278.819 190.584 278.819C191.88 278.819 193.518 278.261 194.328 277.379L193.5 276.497C192.924 277.127 191.664 277.613 190.566 277.613ZM190.512 270.287C192.366 270.287 193.356 271.583 193.536 273.257H187.272C187.524 271.457 188.856 270.287 190.512 270.287ZM207.139 269.081C205.735 269.081 204.511 269.855 204.133 271.061C203.629 269.855 202.531 269.081 201.127 269.081C199.903 269.081 198.895 269.693 198.427 270.665V269.297H197.077V278.603H198.427V272.681C198.427 271.277 199.471 270.287 200.947 270.287C202.207 270.287 203.089 271.349 203.089 272.861V278.603H204.439V272.681C204.439 271.277 205.483 270.287 206.959 270.287C208.219 270.287 209.101 271.349 209.101 272.861V278.603H210.451V272.681C210.451 270.575 209.083 269.081 207.139 269.081ZM217.373 277.613C215.537 277.613 214.259 276.281 214.061 274.463H221.675C221.675 271.205 220.073 269.081 217.265 269.081C214.763 269.081 212.675 271.151 212.675 273.923C212.675 276.785 214.907 278.819 217.391 278.819C218.687 278.819 220.325 278.261 221.135 277.379L220.307 276.497C219.731 277.127 218.471 277.613 217.373 277.613ZM217.319 270.287C219.173 270.287 220.163 271.583 220.343 273.257H214.079C214.331 271.457 215.663 270.287 217.319 270.287ZM228.312 269.081C226.998 269.081 225.792 269.801 225.252 270.791V269.297H223.902V278.603H225.252V272.681C225.252 271.385 226.566 270.287 228.132 270.287C229.5 270.287 230.454 271.349 230.454 272.861V278.603H231.804V272.681C231.804 270.575 230.364 269.081 228.312 269.081ZM238.622 277.235C238.424 277.451 238.064 277.613 237.65 277.613C237.11 277.613 236.642 277.127 236.642 276.443V270.503H238.928V269.297H236.642V266.741H235.292V269.297H233.834V270.503H235.292V276.443C235.292 277.829 236.228 278.819 237.56 278.819C238.19 278.819 238.802 278.603 239.288 278.225L238.622 277.235ZM246.059 274.373H250.721V273.059H246.059V274.373ZM268.381 269.081C266.977 269.081 265.753 269.855 265.375 271.061C264.871 269.855 263.773 269.081 262.369 269.081C261.145 269.081 260.137 269.693 259.669 270.665V269.297H258.319V278.603H259.669V272.681C259.669 271.277 260.713 270.287 262.189 270.287C263.449 270.287 264.331 271.349 264.331 272.861V278.603H265.681V272.681C265.681 271.277 266.725 270.287 268.201 270.287C269.461 270.287 270.343 271.349 270.343 272.861V278.603H271.693V272.681C271.693 270.575 270.325 269.081 268.381 269.081ZM278.201 269.081C277.301 269.081 276.185 269.315 274.853 269.981L275.393 271.079C276.239 270.647 277.175 270.233 278.111 270.233C280.127 270.233 280.631 271.673 280.631 272.933V273.275C279.677 272.969 278.615 272.753 277.607 272.753C275.609 272.753 273.953 273.995 273.953 275.849C273.953 277.685 275.393 278.819 277.355 278.819C278.579 278.819 279.965 278.243 280.631 277.145V278.603H281.981V272.933C281.981 270.683 280.739 269.081 278.201 269.081ZM277.589 277.631C276.275 277.631 275.267 276.947 275.267 275.795C275.267 274.679 276.437 273.887 277.823 273.887C278.831 273.887 279.785 274.031 280.631 274.265V275.687C280.271 277.001 278.813 277.631 277.589 277.631ZM292.893 269.297H291.165L286.071 274.445V266.021H284.721V278.603H286.071V276.137L287.745 274.481L290.967 278.603H292.659L288.699 273.563L292.893 269.297ZM298.707 277.613C296.871 277.613 295.593 276.281 295.395 274.463H303.009C303.009 271.205 301.407 269.081 298.599 269.081C296.097 269.081 294.009 271.151 294.009 273.923C294.009 276.785 296.241 278.819 298.725 278.819C300.021 278.819 301.659 278.261 302.469 277.379L301.641 276.497C301.065 277.127 299.805 277.613 298.707 277.613ZM298.653 270.287C300.507 270.287 301.497 271.583 301.677 273.257H295.413C295.665 271.457 296.997 270.287 298.653 270.287ZM314.218 269.081C313.318 269.081 312.202 269.315 310.87 269.981L311.41 271.079C312.256 270.647 313.192 270.233 314.128 270.233C316.144 270.233 316.648 271.673 316.648 272.933V273.275C315.694 272.969 314.632 272.753 313.624 272.753C311.626 272.753 309.97 273.995 309.97 275.849C309.97 277.685 311.41 278.819 313.372 278.819C314.596 278.819 315.982 278.243 316.648 277.145V278.603H317.998V272.933C317.998 270.683 316.756 269.081 314.218 269.081ZM313.606 277.631C312.292 277.631 311.284 276.947 311.284 275.795C311.284 274.679 312.454 273.887 313.84 273.887C314.848 273.887 315.802 274.031 316.648 274.265V275.687C316.288 277.001 314.83 277.631 313.606 277.631ZM325.077 278.819C326.373 278.819 327.561 278.279 328.443 277.397L327.507 276.479C326.877 277.181 326.013 277.613 325.077 277.613C323.223 277.613 321.675 275.939 321.675 273.941C321.675 271.961 323.223 270.287 325.077 270.287C325.995 270.287 326.841 270.701 327.453 271.367L328.389 270.449C327.507 269.603 326.337 269.081 325.077 269.081C322.467 269.081 320.253 271.295 320.253 273.941C320.253 276.587 322.467 278.819 325.077 278.819ZM334.599 277.235C334.401 277.451 334.041 277.613 333.627 277.613C333.087 277.613 332.619 277.127 332.619 276.443V270.503H334.905V269.297H332.619V266.741H331.269V269.297H329.811V270.503H331.269V276.443C331.269 277.829 332.205 278.819 333.537 278.819C334.167 278.819 334.779 278.603 335.265 278.225L334.599 277.235ZM337.841 267.605C338.327 267.605 338.723 267.191 338.723 266.705C338.723 266.237 338.327 265.823 337.841 265.823C337.337 265.823 336.941 266.237 336.941 266.705C336.941 267.191 337.337 267.605 337.841 267.605ZM337.157 278.603H338.507V269.297H337.157V278.603ZM344.296 278.603H345.592L349.498 269.297H347.986L344.944 277.019L341.848 269.297H340.336L344.296 278.603ZM354.921 277.613C353.085 277.613 351.807 276.281 351.609 274.463H359.223C359.223 271.205 357.621 269.081 354.813 269.081C352.311 269.081 350.223 271.151 350.223 273.923C350.223 276.785 352.455 278.819 354.939 278.819C356.235 278.819 357.873 278.261 358.683 277.379L357.855 276.497C357.279 277.127 356.019 277.613 354.921 277.613ZM354.867 270.287C356.721 270.287 357.711 271.583 357.891 273.257H351.627C351.879 271.457 353.211 270.287 354.867 270.287ZM370.433 269.081C369.533 269.081 368.417 269.315 367.085 269.981L367.625 271.079C368.471 270.647 369.407 270.233 370.343 270.233C372.359 270.233 372.863 271.673 372.863 272.933V273.275C371.909 272.969 370.847 272.753 369.839 272.753C367.841 272.753 366.185 273.995 366.185 275.849C366.185 277.685 367.625 278.819 369.587 278.819C370.811 278.819 372.197 278.243 372.863 277.145V278.603H374.213V272.933C374.213 270.683 372.971 269.081 370.433 269.081ZM369.821 277.631C368.507 277.631 367.499 276.947 367.499 275.795C367.499 274.679 368.669 273.887 370.055 273.887C371.063 273.887 372.017 274.031 372.863 274.265V275.687C372.503 277.001 371.045 277.631 369.821 277.631ZM381.4 269.081C380.086 269.081 378.88 269.801 378.34 270.791V269.297H376.99V278.603H378.34V272.681C378.34 271.385 379.654 270.287 381.22 270.287C382.588 270.287 383.542 271.349 383.542 272.861V278.603H384.892V272.681C384.892 270.575 383.452 269.081 381.4 269.081ZM394.896 266.021V271.043C394.194 269.819 393.006 269.081 391.512 269.081C389.064 269.081 387.228 271.097 387.228 273.941C387.228 276.803 389.064 278.819 391.512 278.819C393.006 278.819 394.194 278.081 394.896 276.857V278.603H396.246V266.021H394.896ZM391.764 277.613C389.946 277.613 388.65 276.083 388.65 273.941C388.65 271.799 389.946 270.287 391.764 270.287C393.6 270.287 394.896 271.799 394.896 273.941C394.896 276.083 393.6 277.613 391.764 277.613ZM409.183 269.081C407.689 269.081 406.501 269.819 405.799 271.043V269.297H404.449V281.699H405.799V276.857C406.501 278.081 407.689 278.819 409.183 278.819C411.631 278.819 413.467 276.803 413.467 273.941C413.467 271.097 411.631 269.081 409.183 269.081ZM408.931 277.613C407.095 277.613 405.799 276.083 405.799 273.941C405.799 271.799 407.095 270.287 408.931 270.287C410.749 270.287 412.045 271.799 412.045 273.941C412.045 276.083 410.749 277.613 408.931 277.613ZM419.582 269.081C418.682 269.081 417.566 269.315 416.234 269.981L416.774 271.079C417.62 270.647 418.556 270.233 419.492 270.233C421.508 270.233 422.012 271.673 422.012 272.933V273.275C421.058 272.969 419.996 272.753 418.988 272.753C416.99 272.753 415.334 273.995 415.334 275.849C415.334 277.685 416.774 278.819 418.736 278.819C419.96 278.819 421.346 278.243 422.012 277.145V278.603H423.362V272.933C423.362 270.683 422.12 269.081 419.582 269.081ZM418.97 277.631C417.656 277.631 416.648 276.947 416.648 275.795C416.648 274.679 417.818 273.887 419.204 273.887C420.212 273.887 421.166 274.031 422.012 274.265V275.687C421.652 277.001 420.194 277.631 418.97 277.631ZM429.414 278.819C431.34 278.819 432.816 277.721 432.816 276.011C432.816 274.247 431.268 273.743 429.774 273.275C428.046 272.717 427.362 272.465 427.362 271.655C427.362 270.755 428.226 270.287 429.27 270.287C430.098 270.287 431.016 270.575 431.952 271.169L432.6 270.125C431.61 269.477 430.422 269.081 429.27 269.081C427.416 269.081 426.012 270.125 426.012 271.817C426.012 273.149 426.876 273.815 429.126 274.463C430.386 274.823 431.466 275.147 431.466 276.155C431.466 277.037 430.638 277.613 429.414 277.613C428.388 277.613 427.326 277.217 426.264 276.443L425.562 277.433C426.678 278.333 428.118 278.819 429.414 278.819ZM438.344 278.819C440.27 278.819 441.746 277.721 441.746 276.011C441.746 274.247 440.198 273.743 438.704 273.275C436.976 272.717 436.292 272.465 436.292 271.655C436.292 270.755 437.156 270.287 438.2 270.287C439.028 270.287 439.946 270.575 440.882 271.169L441.53 270.125C440.54 269.477 439.352 269.081 438.2 269.081C436.346 269.081 434.942 270.125 434.942 271.817C434.942 273.149 435.806 273.815 438.056 274.463C439.316 274.823 440.396 275.147 440.396 276.155C440.396 277.037 439.568 277.613 438.344 277.613C437.318 277.613 436.256 277.217 435.194 276.443L434.492 277.433C435.608 278.333 437.048 278.819 438.344 278.819ZM444.645 267.605C445.131 267.605 445.527 267.191 445.527 266.705C445.527 266.237 445.131 265.823 444.645 265.823C444.141 265.823 443.745 266.237 443.745 266.705C443.745 267.191 444.141 267.605 444.645 267.605ZM443.961 278.603H445.311V269.297H443.961V278.603ZM451.1 278.603H452.396L456.302 269.297H454.79L451.748 277.019L448.652 269.297H447.14L451.1 278.603ZM461.726 277.613C459.89 277.613 458.612 276.281 458.414 274.463H466.028C466.028 271.205 464.426 269.081 461.618 269.081C459.116 269.081 457.028 271.151 457.028 273.923C457.028 276.785 459.26 278.819 461.744 278.819C463.04 278.819 464.678 278.261 465.488 277.379L464.66 276.497C464.084 277.127 462.824 277.613 461.726 277.613ZM461.672 270.287C463.526 270.287 464.516 271.583 464.696 273.257H458.432C458.684 271.457 460.016 270.287 461.672 270.287ZM50.034 294.605C50.52 294.605 50.916 294.191 50.916 293.705C50.916 293.237 50.52 292.823 50.034 292.823C49.53 292.823 49.134 293.237 49.134 293.705C49.134 294.191 49.53 294.605 50.034 294.605ZM49.35 305.603H50.7V296.297H49.35V305.603ZM57.839 296.081C56.525 296.081 55.319 296.801 54.779 297.791V296.297H53.429V305.603H54.779V299.681C54.779 298.385 56.093 297.287 57.659 297.287C59.027 297.287 59.981 298.349 59.981 299.861V305.603H61.331V299.681C61.331 297.575 59.891 296.081 57.839 296.081ZM67.1413 305.603H68.4373L72.3433 296.297H70.8313L67.7893 304.019L64.6933 296.297H63.1813L67.1413 305.603ZM77.7671 304.613C75.9311 304.613 74.6531 303.281 74.4551 301.463H82.0691C82.0691 298.205 80.4671 296.081 77.6591 296.081C75.1571 296.081 73.0691 298.151 73.0691 300.923C73.0691 303.785 75.3011 305.819 77.7851 305.819C79.0811 305.819 80.7191 305.261 81.5291 304.379L80.7011 303.497C80.1251 304.127 78.8651 304.613 77.7671 304.613ZM77.7131 297.287C79.5671 297.287 80.5571 298.583 80.7371 300.257H74.4731C74.7251 298.457 76.0571 297.287 77.7131 297.287ZM87.5722 305.819C89.4982 305.819 90.9742 304.721 90.9742 303.011C90.9742 301.247 89.4262 300.743 87.9322 300.275C86.2042 299.717 85.5202 299.465 85.5202 298.655C85.5202 297.755 86.3842 297.287 87.4282 297.287C88.2562 297.287 89.1742 297.575 90.1102 298.169L90.7582 297.125C89.7682 296.477 88.5802 296.081 87.4282 296.081C85.5742 296.081 84.1702 297.125 84.1702 298.817C84.1702 300.149 85.0342 300.815 87.2842 301.463C88.5442 301.823 89.6242 302.147 89.6242 303.155C89.6242 304.037 88.7962 304.613 87.5722 304.613C86.5462 304.613 85.4842 304.217 84.4222 303.443L83.7202 304.433C84.8362 305.333 86.2762 305.819 87.5722 305.819ZM97.2938 304.235C97.0958 304.451 96.7358 304.613 96.3218 304.613C95.7818 304.613 95.3138 304.127 95.3138 303.443V297.503H97.5998V296.297H95.3138V293.741H93.9638V296.297H92.5058V297.503H93.9638V303.443C93.9638 304.829 94.8998 305.819 96.2318 305.819C96.8618 305.819 97.4738 305.603 97.9598 305.225L97.2938 304.235ZM109.932 296.081C108.528 296.081 107.304 296.855 106.926 298.061C106.422 296.855 105.324 296.081 103.92 296.081C102.696 296.081 101.688 296.693 101.22 297.665V296.297H99.87V305.603H101.22V299.681C101.22 298.277 102.264 297.287 103.74 297.287C105 297.287 105.882 298.349 105.882 299.861V305.603H107.232V299.681C107.232 298.277 108.276 297.287 109.752 297.287C111.012 297.287 111.894 298.349 111.894 299.861V305.603H113.244V299.681C113.244 297.575 111.876 296.081 109.932 296.081ZM120.166 304.613C118.33 304.613 117.052 303.281 116.854 301.463H124.468C124.468 298.205 122.866 296.081 120.058 296.081C117.556 296.081 115.468 298.151 115.468 300.923C115.468 303.785 117.7 305.819 120.184 305.819C121.48 305.819 123.118 305.261 123.928 304.379L123.1 303.497C122.524 304.127 121.264 304.613 120.166 304.613ZM120.112 297.287C121.966 297.287 122.956 298.583 123.136 300.257H116.872C117.124 298.457 118.456 297.287 120.112 297.287ZM131.105 296.081C129.791 296.081 128.585 296.801 128.045 297.791V296.297H126.695V305.603H128.045V299.681C128.045 298.385 129.359 297.287 130.925 297.287C132.293 297.287 133.247 298.349 133.247 299.861V305.603H134.597V299.681C134.597 297.575 133.157 296.081 131.105 296.081ZM141.415 304.235C141.217 304.451 140.857 304.613 140.443 304.613C139.903 304.613 139.435 304.127 139.435 303.443V297.503H141.721V296.297H139.435V293.741H138.085V296.297H136.627V297.503H138.085V303.443C138.085 304.829 139.021 305.819 140.353 305.819C140.983 305.819 141.595 305.603 142.081 305.225L141.415 304.235ZM147.285 305.819C149.211 305.819 150.687 304.721 150.687 303.011C150.687 301.247 149.139 300.743 147.645 300.275C145.917 299.717 145.233 299.465 145.233 298.655C145.233 297.755 146.097 297.287 147.141 297.287C147.969 297.287 148.887 297.575 149.823 298.169L150.471 297.125C149.481 296.477 148.293 296.081 147.141 296.081C145.287 296.081 143.883 297.125 143.883 298.817C143.883 300.149 144.747 300.815 146.997 301.463C148.257 301.823 149.337 302.147 149.337 303.155C149.337 304.037 148.509 304.613 147.285 304.613C146.259 304.613 145.197 304.217 144.135 303.443L143.433 304.433C144.549 305.333 145.989 305.819 147.285 305.819ZM158.807 294.605C159.293 294.605 159.689 294.191 159.689 293.705C159.689 293.237 159.293 292.823 158.807 292.823C158.303 292.823 157.907 293.237 157.907 293.705C157.907 294.191 158.303 294.605 158.807 294.605ZM158.123 305.603H159.473V296.297H158.123V305.603ZM166.612 296.081C165.298 296.081 164.092 296.801 163.552 297.791V296.297H162.202V305.603H163.552V299.681C163.552 298.385 164.866 297.287 166.432 297.287C167.8 297.287 168.754 298.349 168.754 299.861V305.603H170.104V299.681C170.104 297.575 168.664 296.081 166.612 296.081ZM186.985 294.569V293.237H178.111V305.603H179.533V299.969H186.247V298.637H179.533V294.569H186.985ZM189.08 305.603H190.484V293.237H189.08V305.603ZM203.396 305.603H204.926L199.472 293.237H197.942L192.488 305.603H194.018L195.26 302.795H202.154L203.396 305.603ZM195.836 301.463L198.716 294.965L201.578 301.463H195.836ZM209.361 305.603H210.765V294.569H214.923V293.237H205.203V294.569H209.361V305.603ZM226.099 296.081C225.199 296.081 224.083 296.315 222.751 296.981L223.291 298.079C224.137 297.647 225.073 297.233 226.009 297.233C228.025 297.233 228.529 298.673 228.529 299.933V300.275C227.575 299.969 226.513 299.753 225.505 299.753C223.507 299.753 221.851 300.995 221.851 302.849C221.851 304.685 223.291 305.819 225.253 305.819C226.477 305.819 227.863 305.243 228.529 304.145V305.603H229.879V299.933C229.879 297.683 228.637 296.081 226.099 296.081ZM225.487 304.631C224.173 304.631 223.165 303.947 223.165 302.795C223.165 301.679 224.335 300.887 225.721 300.887C226.729 300.887 227.683 301.031 228.529 301.265V302.687C228.169 304.001 226.711 304.631 225.487 304.631ZM237.066 296.081C235.752 296.081 234.546 296.801 234.006 297.791V296.297H232.656V305.603H234.006V299.681C234.006 298.385 235.32 297.287 236.886 297.287C238.254 297.287 239.208 298.349 239.208 299.861V305.603H240.558V299.681C240.558 297.575 239.118 296.081 237.066 296.081ZM250.562 293.021V298.043C249.86 296.819 248.672 296.081 247.178 296.081C244.73 296.081 242.894 298.097 242.894 300.941C242.894 303.803 244.73 305.819 247.178 305.819C248.672 305.819 249.86 305.081 250.562 303.857V305.603H251.912V293.021H250.562ZM247.43 304.613C245.612 304.613 244.316 303.083 244.316 300.941C244.316 298.799 245.612 297.287 247.43 297.287C249.266 297.287 250.562 298.799 250.562 300.941C250.562 303.083 249.266 304.613 247.43 304.613ZM253.112 306.935H254.642L260.96 292.229H259.43L253.112 306.935ZM266.559 305.819C269.169 305.819 271.365 303.587 271.365 300.941C271.365 298.295 269.169 296.081 266.559 296.081C263.949 296.081 261.735 298.295 261.735 300.941C261.735 303.587 263.949 305.819 266.559 305.819ZM266.559 304.613C264.705 304.613 263.157 302.939 263.157 300.941C263.157 298.961 264.705 297.287 266.559 297.287C268.395 297.287 269.943 298.961 269.943 300.941C269.943 302.939 268.395 304.613 266.559 304.613ZM275.071 298.115V296.297H273.721V305.603H275.071V300.401C275.071 298.583 276.565 297.287 278.671 297.287V296.081C276.961 296.081 275.629 296.873 275.071 298.115ZM291.663 305.819C293.373 305.819 294.957 305.081 296.109 303.929L295.155 302.957C294.255 303.911 293.013 304.523 291.663 304.523C288.999 304.523 286.749 302.183 286.749 299.411C286.749 296.657 288.999 294.317 291.663 294.317C293.013 294.317 294.255 294.929 295.155 295.883L296.109 294.911C294.957 293.741 293.373 293.021 291.663 293.021C288.243 293.021 285.327 295.937 285.327 299.411C285.327 302.885 288.243 305.819 291.663 305.819ZM299.469 298.115V296.297H298.119V305.603H299.469V300.401C299.469 298.583 300.963 297.287 303.069 297.287V296.081C301.359 296.081 300.027 296.873 299.469 298.115ZM306.322 308.843C307.6 308.825 308.5 308.231 309.148 306.647L313.396 296.297H311.938L308.86 304.037L305.602 296.297H304.108L308.158 305.639L307.618 306.791C307.258 307.421 306.862 307.619 306.268 307.619C305.872 307.619 305.494 307.547 305.17 307.385L304.846 308.537C305.278 308.735 305.782 308.843 306.322 308.843ZM320.466 296.081C318.972 296.081 317.784 296.819 317.082 298.043V296.297H315.732V308.699H317.082V303.857C317.784 305.081 318.972 305.819 320.466 305.819C322.914 305.819 324.75 303.803 324.75 300.941C324.75 298.097 322.914 296.081 320.466 296.081ZM320.214 304.613C318.378 304.613 317.082 303.083 317.082 300.941C317.082 298.799 318.378 297.287 320.214 297.287C322.032 297.287 323.328 298.799 323.328 300.941C323.328 303.083 322.032 304.613 320.214 304.613ZM331.171 304.235C330.973 304.451 330.613 304.613 330.199 304.613C329.659 304.613 329.191 304.127 329.191 303.443V297.503H331.477V296.297H329.191V293.741H327.841V296.297H326.383V297.503H327.841V303.443C327.841 304.829 328.777 305.819 330.109 305.819C330.739 305.819 331.351 305.603 331.837 305.225L331.171 304.235ZM338.067 305.819C340.677 305.819 342.873 303.587 342.873 300.941C342.873 298.295 340.677 296.081 338.067 296.081C335.457 296.081 333.243 298.295 333.243 300.941C333.243 303.587 335.457 305.819 338.067 305.819ZM338.067 304.613C336.213 304.613 334.665 302.939 334.665 300.941C334.665 298.961 336.213 297.287 338.067 297.287C339.903 297.287 341.451 298.961 341.451 300.941C341.451 302.939 339.903 304.613 338.067 304.613Z" fill="#E4E4E4"/>
</svg>
