<!-- icon666.com - MILLIONS OF FREE VECTOR ICONS --><svg viewBox="0 0 128 128" xmlns="http://www.w3.org/2000/svg"><g><path d="m65.609 51.417c19.932 19.375 11.749 40.3 11.749 40.3 27.542 1.317 54.635-42.912 41.142-66.717 0 0-15.554 17.565-41.816 8.456z" fill="#899bb0"></path><path d="m108.319 32.224c3.617 21.936-8.029 40.707-29.335 47.228a33.094 33.094 0 0 1 -1.624 12.267c27.54 1.315 54.633-42.914 41.14-66.719a35.037 35.037 0 0 1 -10.181 7.224z" fill="#bfcddb"></path><rect fill="#423e4f" height="22.11" rx="3.941" transform="matrix(.525 -.851 .851 .525 -2.336 69.934)" width="39.195" x="41.877" y="26.005"></rect><path d="m34.4 31.581 12.654 7.8 10.546-17.106-12.654-7.8a4.229 4.229 0 0 0 -5.819 1.38l-6.111 9.911a4.227 4.227 0 0 0 1.384 5.815z" fill="#899bb0"></path><path d="m23.22 62.318h36.683v14.07h-36.683z" fill="#f9ac5f" transform="matrix(.525 -.851 .851 .525 -39.285 68.328)"></path><path d="m81.388 10.376-5.013-3.091a4.585 4.585 0 0 0 -6.32 1.5l-4.726 7.665 12.831 7.911 4.727-7.661a4.586 4.586 0 0 0 -1.499-6.324z" fill="#f9ac5f"></path><path d="m10.346 120.061a9 9 0 0 1 -3.014-12.431l16.9-27.413 15.4 9.5-16.9 27.412a9 9 0 0 1 -12.386 2.932z" fill="#423e4f"></path><path d="m15.116 92.601h13.065v18.09h-13.065z" fill="#6c8199" transform="matrix(.525 -.851 .851 .525 -76.233 66.722)"></path></g><path d="m118.687 23.258a1.763 1.763 0 0 0 -1.493.576 32.686 32.686 0 0 1 -9.27 6.694 1.737 1.737 0 0 0 -.694.337c-6.46 3.049-15.9 5.187-27.882 1.6l1.243-2.015a5.7 5.7 0 0 0 -.232-6.325l4.017-6.515a6.35 6.35 0 0 0 -2.069-8.728l-5.013-3.082a6.35 6.35 0 0 0 -8.729 2.07l-4.017 6.51a5.7 5.7 0 0 0 -5.755 2.632l-1.761 2.855-11.165-6.885a5.976 5.976 0 0 0 -8.225 1.952l-6.113 9.91a5.986 5.986 0 0 0 1.951 8.227l2.432 1.5a1.75 1.75 0 0 0 1.836-2.98l-2.431-1.5a2.481 2.481 0 0 1 -.809-3.41l6.112-9.91a2.477 2.477 0 0 1 3.409-.809l11.171 6.885-12.843 20.819a5.7 5.7 0 0 0 .567 6.74l-17.549 28.458-.221-.136a1.75 1.75 0 0 0 -2.408.571l-6.857 11.12-6.857 11.12-3.188 5.17a1.75 1.75 0 1 0 2.978 1.837l2.27-3.681 12.42 7.658-2.27 3.681a7.258 7.258 0 0 1 -9.976 2.366 1.75 1.75 0 1 0 -1.838 2.979 10.758 10.758 0 0 0 14.793-3.508l10.045-16.291 6.857-11.12a1.749 1.749 0 0 0 -.57-2.408l-12.199-7.522 17.417-28.243 9 5.548-10.656 17.276a1.75 1.75 0 1 0 2.979 1.837l10.787-17.494a5.615 5.615 0 0 0 1.42.189 5.747 5.747 0 0 0 1.324-.155 5.651 5.651 0 0 0 3.53-2.551l1.772-2.872c8.48 8.952 10.985 18.012 11.341 24.915a1.738 1.738 0 0 0 .035.78 30.709 30.709 0 0 1 -1.575 11.154 1.749 1.749 0 0 0 1.546 2.385q.637.031 1.281.031a29.434 29.434 0 0 0 7.99-1.138 1.75 1.75 0 1 0 -.951-3.368 26.344 26.344 0 0 1 -5.908.979 38.413 38.413 0 0 0 1.02-9.244c20.858-6.954 32.565-25.82 29.515-47.569a40.434 40.434 0 0 0 7.779-5.274c7.408 16.606-3.767 41.849-19.586 54.306a1.75 1.75 0 0 0 2.166 2.75c17.628-13.881 29.948-42.268 19.442-60.808a1.751 1.751 0 0 0 -1.335-.876zm-105.758 78.629 5.02-8.141 12.419 7.654-5.02 8.141zm19.277-3.462-12.42-7.658 5.021-8.142.219.136 12.2 7.521zm39.338-88.725a2.845 2.845 0 0 1 3.912-.928l5.013 3.092a2.844 2.844 0 0 1 .928 3.911l-3.792 6.15-9.853-6.076zm-10.368 45.571a2.191 2.191 0 0 1 -3.014.714l-12.043-7.426-.067-.041a2.195 2.195 0 0 1 -.716-3.016l16.436-26.653a2.191 2.191 0 0 1 3.014-.714l12.114 7.465a2.19 2.19 0 0 1 .716 3.015l-2.428 3.938zm19.333 21.834c-.748-7.523-3.845-16.9-12.688-25.942l9.633-15.622c12.246 3.888 22.246 2.159 29.446-.83 2.321 19.521-7.821 35.818-26.391 42.394zm10.575 11.743a1.75 1.75 0 0 1 .745-2.36l.479-.255a1.75 1.75 0 0 1 1.666 3.079l-.53.28a1.731 1.731 0 0 1 -.806.2 1.751 1.751 0 0 1 -1.554-.944zm-50.215-51.221a1.75 1.75 0 0 1 1.838-2.979l.548.338a1.75 1.75 0 1 1 -1.838 2.979zm2.421 45.66-.426.69a1.75 1.75 0 1 1 -2.978-1.837l.426-.69a1.75 1.75 0 1 1 2.978 1.837zm-37.442 29.713a1.748 1.748 0 0 1 2.144 1.235c.037.139.078.276.123.413a1.75 1.75 0 1 1 -3.322 1.1q-.1-.3-.182-.6a1.75 1.75 0 0 1 1.237-2.148z" fill="#161616"></path></svg>
