<!-- icon666.com - MILLIONS OF FREE VECTOR ICONS --><svg id="Layer_1" enable-background="new 0 0 48 48" viewBox="0 0 48 48" xmlns="http://www.w3.org/2000/svg"><path d="m21 26c0 5.523-4.477 10-10 10s-10-4.477-10-10 4.477-10 10-10z" fill="#fc5696"></path><path d="m5.008 33.992s1.257-3.421 5.992-5.992 6-6 6-6l-6-6c-5.523 0-10 4.477-10 10 0 3.272 1.579 6.168 4.008 7.992z" fill="#fc92c3"></path><path d="m27 26c0 5.523 4.477 10 10 10s10-4.477 10-10-4.477-10-10-10z" fill="#fc5696"></path><path d="m44.071 18.929c-1.81-1.81-4.309-2.929-7.071-2.929l-10 10c0 2.761 1.119 5.261 2.929 7.071 0 0 2.449-4.323 7.407-7.407s6.735-6.735 6.735-6.735z" fill="#fc92c3"></path><circle cx="12" cy="27" fill="#5e5e5e" r="3"></circle><path d="m12 24c-1.657 0-3 1.343-3 3 0 .828.336 1.578.879 2.121 0 0-.106-.842 1.822-1.822s2.42-2.42 2.42-2.42c-.542-.543-1.292-.879-2.121-.879z" fill="#919191"></path><circle cx="36" cy="27" fill="#5e5e5e" r="3"></circle><path d="m36 24c-1.657 0-3 1.343-3 3 0 .828.336 1.578.879 2.121 0 0 .146-1.115 1.959-1.959 1.812-.843 2.284-2.284 2.284-2.284-.543-.542-1.293-.878-2.122-.878z" fill="#919191"></path><path d="m14.871 24.911c3.017 3.681-2.175 8.234-5.649 4.946-2.367-2.183-.868-6.424 2.346-6.57.742-.161 3.395.666 2.554 1.625-.194.14-.436.109-.615.031-2.274-1.187-4.721 1.68-2.89 3.481 1.881 1.796 4.653-.609 3.442-2.929-.267-.491.37-1.103.812-.584zm23.183.59c1.208 2.367-1.503 4.722-3.43 2.903-1.851-1.843.56-4.665 2.874-3.458.484.254 1.108-.337.584-.812-3.711-3.023-8.249 2.283-4.859 5.697 3.491 3.327 8.683-1.211 5.642-4.915-.443-.518-1.08.094-.811.585zm-16.605 2.079c-1.803 12.875-19.712 12.421-21.33-.395-.827-6.191 4.634-12.096 10.84-11.887.23.004.439.1.59.251 3.027 3.038 5.998 6.105 8.877 9.146.682.752.819 1.131.668 1.239.24.003.44.65.355 1.646zm-.388-1.63c-.241.093-.93-.251-1.541-.835-3.039-2.701-5.99-5.379-8.891-8.081-7.901.44-11.501 10.247-5.684 15.73 5.142 5.211 14.416 1.783 15.515-5.33.182-.947.4-1.436.601-1.484zm23.425 8.142c-6.219 6.135-17.062 2.084-17.94-6.509-.078-1.062.082-1.583.307-1.591-.145-.131.061-.621.707-1.313 2.871-3.069 5.833-6.164 8.851-9.229.159-.161.367-.245.577-.251 9.974-.21 14.7 12.147 7.498 18.893zm1.453-7.229c.602-5.034-3.554-9.764-8.601-9.93-2.894 2.731-5.838 5.437-8.871 8.167-.779.711-1.425 1.038-1.606.895.219.004.495.483.674 1.436 2.185 10.645 17.105 10.279 18.404-.568zm-8.582-16.441c.812-.871.317-1.575-.707-.707-4.419 3.797-8.641 7.791-12.809 11.839-4.305-3.89-8.056-8.203-12.311-12.052-.353-.329-.751-.503-.966-.4-.262.125-.155.612.239 1.086 3.862 4.517 7.604 9.181 12.044 13.156.487.411 1.261.836 1.786.225 4.349-4.276 8.644-8.603 12.724-13.147z"></path></svg>
