<svg width="618" height="248" viewBox="0 0 618 248" fill="none" xmlns="http://www.w3.org/2000/svg">
<path d="M19.488 38.576C29.04 38.576 37.008 30.752 37.008 21.488C37.008 12.224 29.04 4.448 19.488 4.448C10.032 4.448 1.968 12.224 1.968 21.488C1.968 30.752 10.032 38.576 19.488 38.576ZM19.488 32.144C13.968 32.144 9.264 27.248 9.264 21.488C9.264 15.776 13.968 10.88 19.488 10.88C25.056 10.88 29.76 15.776 29.76 21.488C29.76 27.248 25.056 32.144 19.488 32.144ZM56.3771 12.608C53.1611 12.608 50.3771 14.048 48.8891 16.304V13.184H41.8811V38H48.8891V23.168L48.9371 23.312C48.9371 20.624 51.1931 18.512 54.1211 18.512C56.9051 18.512 58.8251 20.624 58.8251 23.696V38H65.5931V22.208C65.5931 16.592 61.7531 12.608 56.3771 12.608ZM70.5975 27.776H83.7495V21.824H70.5975V27.776ZM100.082 12.608C96.6259 12.608 93.2179 13.568 89.7139 15.344L92.0659 20C94.0339 18.992 96.1939 18.224 98.4979 18.224C102.578 18.224 104.21 20.528 104.21 23.168V23.648C102.098 22.832 99.8899 22.4 97.8739 22.4C92.1139 22.4 87.5539 25.76 87.5539 30.656C87.5539 35.408 91.6339 38.576 96.9139 38.576C99.6019 38.576 102.434 37.52 104.21 35.504V38H110.978V23.168C110.978 16.688 106.562 12.608 100.082 12.608ZM98.4979 33.728C96.0979 33.728 94.3219 32.48 94.3219 30.464C94.3219 28.448 96.3379 26.96 98.8819 26.96C100.802 26.96 102.626 27.296 104.21 27.872V30.176C103.73 32.48 101.186 33.728 98.4979 33.728ZM131.237 12.608C128.021 12.608 125.237 14.048 123.749 16.304V13.184H116.741V38H123.749V23.168L123.797 23.312C123.797 20.624 126.053 18.512 128.981 18.512C131.765 18.512 133.685 20.624 133.685 23.696V38H140.453V22.208C140.453 16.592 136.613 12.608 131.237 12.608ZM164.897 4.448V16.736C162.929 14.144 160.049 12.608 156.545 12.608C149.921 12.608 145.121 17.984 145.121 25.568C145.121 33.2 149.921 38.576 156.545 38.576C160.049 38.576 162.929 37.04 164.897 34.448V38H171.905V4.448H164.897ZM158.561 32.672C154.673 32.672 151.937 29.744 151.937 25.568C151.937 21.44 154.673 18.512 158.561 18.512C162.257 18.512 164.897 21.44 164.897 25.568C164.897 29.744 162.257 32.672 158.561 32.672ZM177.144 27.776H190.296V21.824H177.144V27.776ZM211.957 38.576C221.509 38.576 229.477 30.752 229.477 21.488C229.477 12.224 221.509 4.448 211.957 4.448C202.501 4.448 194.437 12.224 194.437 21.488C194.437 30.752 202.501 38.576 211.957 38.576ZM211.957 32.144C206.437 32.144 201.733 27.248 201.733 21.488C201.733 15.776 206.437 10.88 211.957 10.88C217.525 10.88 222.229 15.776 222.229 21.488C222.229 27.248 217.525 32.144 211.957 32.144ZM242.798 11.84C242.798 10.208 243.854 9.056 245.15 9.056C246.11 9.056 247.07 9.392 247.55 9.872L249.23 5.6C247.79 4.304 245.534 3.44 243.518 3.44C239.15 3.44 236.078 6.56 236.078 11.024V13.184H232.67V18.848H236.078V38H242.798V18.848H248.174V13.184H242.798V11.84ZM260.985 11.84C260.985 10.208 262.041 9.056 263.337 9.056C264.297 9.056 265.257 9.392 265.737 9.872L267.417 5.6C265.977 4.304 263.721 3.44 261.705 3.44C257.337 3.44 254.265 6.56 254.265 11.024V13.184H250.857V18.848H254.265V38H260.985V18.848H266.361V13.184H260.985V11.84ZM19.488 86.576C24.48 86.576 29.088 84.416 32.304 81.056L27.168 76.448C25.248 78.656 22.512 80.144 19.488 80.144C13.968 80.144 9.264 75.248 9.264 69.488C9.264 63.776 13.968 58.88 19.488 58.88C22.512 58.88 25.248 60.368 27.168 62.576L32.304 57.968C29.088 54.56 24.48 52.448 19.488 52.448C10.032 52.448 1.968 60.224 1.968 69.488C1.968 78.752 10.032 86.576 19.488 86.576ZM50.8459 60.608C47.6779 60.608 44.9419 62.048 43.4059 64.208V52.448H36.3979V86H43.4059V71.312C43.4059 68.624 45.6619 66.512 48.5899 66.512C51.3739 66.512 53.2939 68.624 53.2939 71.696V86H60.0619V70.208C60.0619 64.592 56.2219 60.608 50.8459 60.608ZM77.0663 60.608C73.6103 60.608 70.2023 61.568 66.6983 63.344L69.0503 68C71.0183 66.992 73.1783 66.224 75.4823 66.224C79.5623 66.224 81.1943 68.528 81.1943 71.168V71.648C79.0823 70.832 76.8743 70.4 74.8583 70.4C69.0983 70.4 64.5383 73.76 64.5383 78.656C64.5383 83.408 68.6183 86.576 73.8983 86.576C76.5863 86.576 79.4183 85.52 81.1943 83.504V86H87.9623V71.168C87.9623 64.688 83.5463 60.608 77.0663 60.608ZM75.4823 81.728C73.0823 81.728 71.3063 80.48 71.3063 78.464C71.3063 76.448 73.3223 74.96 75.8663 74.96C77.7863 74.96 79.6103 75.296 81.1943 75.872V78.176C80.7143 80.48 78.1703 81.728 75.4823 81.728ZM97.3729 57.776C99.4369 57.776 101.117 56.048 101.117 53.936C101.117 51.968 99.4369 50.192 97.3729 50.192C95.2129 50.192 93.5329 51.968 93.5329 53.936C93.5329 56.048 95.2129 57.776 97.3729 57.776ZM93.8209 86H100.829V61.184H93.8209V86ZM121.299 60.608C118.083 60.608 115.299 62.048 113.811 64.304V61.184H106.803V86H113.811V71.168L113.859 71.312C113.859 68.624 116.115 66.512 119.043 66.512C121.827 66.512 123.747 68.624 123.747 71.696V86H130.515V70.208C130.515 64.592 126.675 60.608 121.299 60.608ZM162.51 86.576C170.574 86.576 175.326 82.4 175.326 76.112C175.326 70.016 170.622 67.904 163.518 66.32C158.43 65.168 156.462 64.4 156.462 62C156.462 60.032 158.286 58.448 161.31 58.448C164.478 58.448 167.79 59.744 170.718 62.096L174.414 57.008C171.054 54.128 166.878 52.448 161.502 52.448C154.302 52.448 149.31 56.624 149.31 62.72C149.31 69.104 154.254 71.072 161.214 72.656C166.254 73.808 168.174 74.528 168.174 76.88C168.174 78.944 166.35 80.576 162.798 80.576C158.622 80.576 155.07 78.944 151.95 76.256L147.87 81.104C151.71 84.656 156.798 86.576 162.51 86.576ZM192.405 86.576C199.749 86.576 205.893 80.624 205.893 73.568C205.893 66.512 199.749 60.608 192.405 60.608C185.013 60.608 178.821 66.512 178.821 73.568C178.821 80.624 185.013 86.576 192.405 86.576ZM192.405 80.672C188.661 80.672 185.541 77.408 185.541 73.568C185.541 69.728 188.661 66.512 192.405 66.512C196.101 66.512 199.221 69.728 199.221 73.568C199.221 77.408 196.101 80.672 192.405 80.672ZM210.635 86H217.643V52.448H210.635V86ZM240.224 61.184V76.016L240.176 75.872C240.176 78.56 237.92 80.672 234.992 80.672C232.208 80.672 230.288 78.56 230.288 75.488V61.184H223.52V76.976C223.52 82.592 227.36 86.576 232.736 86.576C235.952 86.576 238.736 85.136 240.224 82.88V86H247.232V61.184H240.224ZM266.3 79.856C265.82 80.336 264.86 80.672 263.9 80.672C262.604 80.672 261.548 79.52 261.548 77.888V66.848H266.924V61.184H261.548V54.368H254.828V61.184H251.42V66.848H254.828V78.992C254.828 83.456 257.9 86.576 262.268 86.576C264.284 86.576 266.54 85.712 267.98 84.416L266.3 79.856ZM275.873 57.776C277.937 57.776 279.617 56.048 279.617 53.936C279.617 51.968 277.937 50.192 275.873 50.192C273.713 50.192 272.033 51.968 272.033 53.936C272.033 56.048 273.713 57.776 275.873 57.776ZM272.321 86H279.329V61.184H272.321V86ZM297.639 86.576C304.983 86.576 311.127 80.624 311.127 73.568C311.127 66.512 304.983 60.608 297.639 60.608C290.247 60.608 284.055 66.512 284.055 73.568C284.055 80.624 290.247 86.576 297.639 86.576ZM297.639 80.672C293.895 80.672 290.775 77.408 290.775 73.568C290.775 69.728 293.895 66.512 297.639 66.512C301.335 66.512 304.455 69.728 304.455 73.568C304.455 77.408 301.335 80.672 297.639 80.672ZM330.221 60.608C327.005 60.608 324.221 62.048 322.733 64.304V61.184H315.725V86H322.733V71.168L322.781 71.312C322.781 68.624 325.037 66.512 327.965 66.512C330.749 66.512 332.669 68.624 332.669 71.696V86H339.437V70.208C339.437 64.592 335.597 60.608 330.221 60.608ZM354.665 86.576C360.761 86.576 364.745 83.456 364.745 78.56C364.745 73.136 359.993 71.696 355.721 70.592C352.361 69.68 351.353 69.296 351.353 67.952C351.353 67.088 352.553 66.464 354.281 66.464C356.393 66.464 358.985 67.28 361.241 68.672L364.073 63.68C361.337 61.856 357.833 60.608 354.281 60.608C348.425 60.608 344.537 63.968 344.585 68.672C344.633 73.568 348.569 74.96 353.657 76.208C356.201 76.88 358.025 77.36 358.025 78.896C358.025 80 356.681 80.768 354.809 80.768C351.497 80.768 348.713 79.568 346.505 77.984L343.481 82.832C346.457 85.232 350.681 86.576 354.665 86.576Z" fill="white"/>
<line y1="136.5" x2="32" y2="136.5" stroke="#E4E4E4"/>
<path d="M49.422 142H50.826V129.634H49.422V142ZM58.0499 132.478C56.7359 132.478 55.5299 133.198 54.9899 134.188V132.694H53.6399V142H54.9899V136.078C54.9899 134.782 56.3039 133.684 57.8699 133.684C59.2379 133.684 60.1919 134.746 60.1919 136.258V142H61.5419V136.078C61.5419 133.972 60.1019 132.478 58.0499 132.478ZM68.3603 140.632C68.1623 140.848 67.8023 141.01 67.3883 141.01C66.8483 141.01 66.3803 140.524 66.3803 139.84V133.9H68.6663V132.694H66.3803V130.138H65.0303V132.694H63.5723V133.9H65.0303V139.84C65.0303 141.226 65.9663 142.216 67.2983 142.216C67.9283 142.216 68.5403 142 69.0263 141.622L68.3603 140.632ZM75.1304 141.01C73.2944 141.01 72.0164 139.678 71.8184 137.86H79.4324C79.4324 134.602 77.8304 132.478 75.0224 132.478C72.5204 132.478 70.4324 134.548 70.4324 137.32C70.4324 140.182 72.6644 142.216 75.1484 142.216C76.4444 142.216 78.0824 141.658 78.8924 140.776L78.0644 139.894C77.4884 140.524 76.2284 141.01 75.1304 141.01ZM75.0764 133.684C76.9304 133.684 77.9204 134.98 78.1004 136.654H71.8364C72.0884 134.854 73.4204 133.684 75.0764 133.684ZM88.8774 132.694V134.296C88.1574 133.162 86.9694 132.478 85.4934 132.478C82.9914 132.478 81.2094 134.296 81.2094 136.888C81.2094 139.48 82.9914 141.316 85.4934 141.316C86.9694 141.316 88.1574 140.632 88.8774 139.498V141.01C88.8774 142.828 87.6174 143.89 85.4754 143.89C84.3234 143.89 83.2074 143.476 82.4874 142.792L81.8934 143.854C82.7394 144.574 84.1434 145.096 85.6554 145.096C88.3374 145.096 90.2274 143.404 90.2274 141.01V132.694H88.8774ZM85.7454 140.11C83.9274 140.11 82.6314 138.778 82.6314 136.888C82.6314 135.016 83.9274 133.684 85.7454 133.684C87.5814 133.684 88.8774 135.016 88.8774 136.888C88.8774 138.778 87.5814 140.11 85.7454 140.11ZM94.5608 134.512V132.694H93.2108V142H94.5608V136.798C94.5608 134.98 96.0548 133.684 98.1608 133.684V132.478C96.4508 132.478 95.1188 133.27 94.5608 134.512ZM103.808 132.478C102.908 132.478 101.792 132.712 100.46 133.378L101 134.476C101.846 134.044 102.782 133.63 103.718 133.63C105.734 133.63 106.238 135.07 106.238 136.33V136.672C105.284 136.366 104.222 136.15 103.214 136.15C101.216 136.15 99.5602 137.392 99.5602 139.246C99.5602 141.082 101 142.216 102.962 142.216C104.186 142.216 105.572 141.64 106.238 140.542V142H107.588V136.33C107.588 134.08 106.346 132.478 103.808 132.478ZM103.196 141.028C101.882 141.028 100.874 140.344 100.874 139.192C100.874 138.076 102.044 137.284 103.43 137.284C104.438 137.284 105.392 137.428 106.238 137.662V139.084C105.878 140.398 104.42 141.028 103.196 141.028ZM114.433 140.632C114.235 140.848 113.875 141.01 113.461 141.01C112.921 141.01 112.453 140.524 112.453 139.84V133.9H114.739V132.694H112.453V130.138H111.103V132.694H109.645V133.9H111.103V139.84C111.103 141.226 112.039 142.216 113.371 142.216C114.001 142.216 114.613 142 115.099 141.622L114.433 140.632ZM117.675 131.002C118.161 131.002 118.557 130.588 118.557 130.102C118.557 129.634 118.161 129.22 117.675 129.22C117.171 129.22 116.775 129.634 116.775 130.102C116.775 130.588 117.171 131.002 117.675 131.002ZM116.991 142H118.341V132.694H116.991V142ZM125.372 142.216C127.982 142.216 130.178 139.984 130.178 137.338C130.178 134.692 127.982 132.478 125.372 132.478C122.762 132.478 120.548 134.692 120.548 137.338C120.548 139.984 122.762 142.216 125.372 142.216ZM125.372 141.01C123.518 141.01 121.97 139.336 121.97 137.338C121.97 135.358 123.518 133.684 125.372 133.684C127.208 133.684 128.756 135.358 128.756 137.338C128.756 139.336 127.208 141.01 125.372 141.01ZM136.835 132.478C135.521 132.478 134.315 133.198 133.775 134.188V132.694H132.425V142H133.775V136.078C133.775 134.782 135.089 133.684 136.655 133.684C138.023 133.684 138.977 134.746 138.977 136.258V142H140.327V136.078C140.327 133.972 138.887 132.478 136.835 132.478ZM150.656 142H151.934L154.436 134.566L156.902 142H158.18L161.312 132.694H159.872L157.55 140.2L155.012 132.694H153.842L151.304 140.2L148.982 132.694H147.542L150.656 142ZM163.94 131.002C164.426 131.002 164.822 130.588 164.822 130.102C164.822 129.634 164.426 129.22 163.94 129.22C163.436 129.22 163.04 129.634 163.04 130.102C163.04 130.588 163.436 131.002 163.94 131.002ZM163.256 142H164.606V132.694H163.256V142ZM171.403 140.632C171.205 140.848 170.845 141.01 170.431 141.01C169.891 141.01 169.423 140.524 169.423 139.84V133.9H171.709V132.694H169.423V130.138H168.073V132.694H166.615V133.9H168.073V139.84C168.073 141.226 169.009 142.216 170.341 142.216C170.971 142.216 171.583 142 172.069 141.622L171.403 140.632ZM178.407 132.478C177.093 132.478 175.887 133.198 175.347 134.188V129.418H173.997V142H175.347V136.078C175.347 134.782 176.661 133.684 178.227 133.684C179.595 133.684 180.549 134.746 180.549 136.258V142H181.899V136.078C181.899 133.972 180.459 132.478 178.407 132.478ZM190.176 142H191.58V132.658L196.17 141.28L200.76 132.658V142H202.164V129.634H200.76L196.17 138.256L191.58 129.634H190.176V142ZM209.41 141.01C207.574 141.01 206.296 139.678 206.098 137.86H213.712C213.712 134.602 212.11 132.478 209.302 132.478C206.8 132.478 204.712 134.548 204.712 137.32C204.712 140.182 206.944 142.216 209.428 142.216C210.724 142.216 212.362 141.658 213.172 140.776L212.344 139.894C211.768 140.524 210.508 141.01 209.41 141.01ZM209.356 133.684C211.21 133.684 212.2 134.98 212.38 136.654H206.116C206.368 134.854 207.7 133.684 209.356 133.684ZM220.007 140.632C219.809 140.848 219.449 141.01 219.035 141.01C218.495 141.01 218.027 140.524 218.027 139.84V133.9H220.313V132.694H218.027V130.138H216.677V132.694H215.219V133.9H216.677V139.84C216.677 141.226 217.613 142.216 218.945 142.216C219.575 142.216 220.187 142 220.673 141.622L220.007 140.632ZM224.059 134.512V132.694H222.709V142H224.059V136.798C224.059 134.98 225.553 133.684 227.659 133.684V132.478C225.949 132.478 224.617 133.27 224.059 134.512ZM233.846 142.216C235.142 142.216 236.33 141.676 237.212 140.794L236.276 139.876C235.646 140.578 234.782 141.01 233.846 141.01C231.992 141.01 230.444 139.336 230.444 137.338C230.444 135.358 231.992 133.684 233.846 133.684C234.764 133.684 235.61 134.098 236.222 134.764L237.158 133.846C236.276 133 235.106 132.478 233.846 132.478C231.236 132.478 229.022 134.692 229.022 137.338C229.022 139.984 231.236 142.216 233.846 142.216ZM246.609 131.416C246.609 130.732 247.077 130.246 247.617 130.246C248.031 130.246 248.391 130.408 248.589 130.624L249.255 129.634C248.769 129.256 248.157 129.04 247.527 129.04C246.195 129.04 245.259 130.03 245.259 131.416V132.694H243.801V133.9H245.259V142H246.609V133.9H248.895V132.694H246.609V131.416ZM255.133 142.216C257.743 142.216 259.939 139.984 259.939 137.338C259.939 134.692 257.743 132.478 255.133 132.478C252.523 132.478 250.309 134.692 250.309 137.338C250.309 139.984 252.523 142.216 255.133 142.216ZM255.133 141.01C253.279 141.01 251.731 139.336 251.731 137.338C251.731 135.358 253.279 133.684 255.133 133.684C256.969 133.684 258.517 135.358 258.517 137.338C258.517 139.336 256.969 141.01 255.133 141.01ZM263.645 134.512V132.694H262.295V142H263.645V136.798C263.645 134.98 265.139 133.684 267.245 133.684V132.478C265.535 132.478 264.203 133.27 263.645 134.512ZM278.671 142.198C281.551 142.198 283.027 140.596 283.027 138.634C283.027 136.456 281.335 135.61 278.977 135.052C276.871 134.548 275.647 134.098 275.647 132.82C275.647 131.686 276.763 130.678 278.293 130.678C279.589 130.678 280.813 131.272 281.839 132.262L282.703 131.164C281.569 130.12 280.201 129.4 278.365 129.4C275.989 129.4 274.225 130.948 274.225 132.928C274.225 135.07 275.791 135.844 278.275 136.42C280.435 136.924 281.605 137.446 281.605 138.76C281.605 139.876 280.633 140.92 278.725 140.92C276.997 140.92 275.719 140.182 274.675 139.138L273.793 140.236C275.035 141.46 276.637 142.198 278.671 142.198ZM289.566 141.01C287.73 141.01 286.452 139.678 286.254 137.86H293.868C293.868 134.602 292.266 132.478 289.458 132.478C286.956 132.478 284.868 134.548 284.868 137.32C284.868 140.182 287.1 142.216 289.584 142.216C290.88 142.216 292.518 141.658 293.328 140.776L292.5 139.894C291.924 140.524 290.664 141.01 289.566 141.01ZM289.512 133.684C291.366 133.684 292.356 134.98 292.536 136.654H286.272C286.524 134.854 287.856 133.684 289.512 133.684ZM300.271 141.01C298.435 141.01 297.157 139.678 296.959 137.86H304.573C304.573 134.602 302.971 132.478 300.163 132.478C297.661 132.478 295.573 134.548 295.573 137.32C295.573 140.182 297.805 142.216 300.289 142.216C301.585 142.216 303.223 141.658 304.033 140.776L303.205 139.894C302.629 140.524 301.369 141.01 300.271 141.01ZM300.217 133.684C302.071 133.684 303.061 134.98 303.241 136.654H296.977C297.229 134.854 298.561 133.684 300.217 133.684ZM314.054 129.418V134.44C313.352 133.216 312.164 132.478 310.67 132.478C308.222 132.478 306.386 134.494 306.386 137.338C306.386 140.2 308.222 142.216 310.67 142.216C312.164 142.216 313.352 141.478 314.054 140.254V142H315.404V129.418H314.054ZM310.922 141.01C309.104 141.01 307.808 139.48 307.808 137.338C307.808 135.196 309.104 133.684 310.922 133.684C312.758 133.684 314.054 135.196 314.054 137.338C314.054 139.48 312.758 141.01 310.922 141.01ZM317.901 137.77H322.563V136.456H317.901V137.77ZM329.026 140.632C328.828 140.848 328.468 141.01 328.054 141.01C327.514 141.01 327.046 140.524 327.046 139.84V133.9H329.332V132.694H327.046V130.138H325.696V132.694H324.238V133.9H325.696V139.84C325.696 141.226 326.632 142.216 327.964 142.216C328.594 142.216 329.206 142 329.692 141.622L329.026 140.632ZM335.922 142.216C338.532 142.216 340.728 139.984 340.728 137.338C340.728 134.692 338.532 132.478 335.922 132.478C333.312 132.478 331.098 134.692 331.098 137.338C331.098 139.984 333.312 142.216 335.922 142.216ZM335.922 141.01C334.068 141.01 332.52 139.336 332.52 137.338C332.52 135.358 334.068 133.684 335.922 133.684C337.758 133.684 339.306 135.358 339.306 137.338C339.306 139.336 337.758 141.01 335.922 141.01ZM342.598 137.77H347.26V136.456H342.598V137.77ZM353.976 142.198C356.856 142.198 358.332 140.596 358.332 138.634C358.332 136.456 356.64 135.61 354.282 135.052C352.176 134.548 350.952 134.098 350.952 132.82C350.952 131.686 352.068 130.678 353.598 130.678C354.894 130.678 356.118 131.272 357.144 132.262L358.008 131.164C356.874 130.12 355.506 129.4 353.67 129.4C351.294 129.4 349.53 130.948 349.53 132.928C349.53 135.07 351.096 135.844 353.58 136.42C355.74 136.924 356.91 137.446 356.91 138.76C356.91 139.876 355.938 140.92 354.03 140.92C352.302 140.92 351.024 140.182 349.98 139.138L349.098 140.236C350.34 141.46 351.942 142.198 353.976 142.198ZM364.457 132.478C363.557 132.478 362.441 132.712 361.109 133.378L361.649 134.476C362.495 134.044 363.431 133.63 364.367 133.63C366.383 133.63 366.887 135.07 366.887 136.33V136.672C365.933 136.366 364.871 136.15 363.863 136.15C361.865 136.15 360.209 137.392 360.209 139.246C360.209 141.082 361.649 142.216 363.611 142.216C364.835 142.216 366.221 141.64 366.887 140.542V142H368.237V136.33C368.237 134.08 366.995 132.478 364.457 132.478ZM363.845 141.028C362.531 141.028 361.523 140.344 361.523 139.192C361.523 138.076 362.693 137.284 364.079 137.284C365.087 137.284 366.041 137.428 366.887 137.662V139.084C366.527 140.398 365.069 141.028 363.845 141.028ZM370.995 142H372.345V129.418H370.995V142ZM379.267 141.01C377.431 141.01 376.153 139.678 375.955 137.86H383.569C383.569 134.602 381.967 132.478 379.159 132.478C376.657 132.478 374.569 134.548 374.569 137.32C374.569 140.182 376.801 142.216 379.285 142.216C380.581 142.216 382.219 141.658 383.029 140.776L382.201 139.894C381.625 140.524 380.365 141.01 379.267 141.01ZM379.213 133.684C381.067 133.684 382.057 134.98 382.237 136.654H375.973C376.225 134.854 377.557 133.684 379.213 133.684ZM394.599 142H396.003V130.966H400.161V129.634H390.441V130.966H394.599V142ZM403.813 134.512V132.694H402.463V142H403.813V136.798C403.813 134.98 405.307 133.684 407.413 133.684V132.478C405.703 132.478 404.371 133.27 403.813 134.512ZM413.06 132.478C412.16 132.478 411.044 132.712 409.712 133.378L410.252 134.476C411.098 134.044 412.034 133.63 412.97 133.63C414.986 133.63 415.49 135.07 415.49 136.33V136.672C414.536 136.366 413.474 136.15 412.466 136.15C410.468 136.15 408.812 137.392 408.812 139.246C408.812 141.082 410.252 142.216 412.214 142.216C413.438 142.216 414.824 141.64 415.49 140.542V142H416.84V136.33C416.84 134.08 415.598 132.478 413.06 132.478ZM412.448 141.028C411.134 141.028 410.126 140.344 410.126 139.192C410.126 138.076 411.296 137.284 412.682 137.284C413.69 137.284 414.644 137.428 415.49 137.662V139.084C415.13 140.398 413.672 141.028 412.448 141.028ZM423.918 142.216C425.214 142.216 426.402 141.676 427.284 140.794L426.348 139.876C425.718 140.578 424.854 141.01 423.918 141.01C422.064 141.01 420.516 139.336 420.516 137.338C420.516 135.358 422.064 133.684 423.918 133.684C424.836 133.684 425.682 134.098 426.294 134.764L427.23 133.846C426.348 133 425.178 132.478 423.918 132.478C421.308 132.478 419.094 134.692 419.094 137.338C419.094 139.984 421.308 142.216 423.918 142.216ZM437.508 132.694H435.78L430.686 137.842V129.418H429.336V142H430.686V139.534L432.36 137.878L435.582 142H437.274L433.314 136.96L437.508 132.694ZM439.794 131.002C440.28 131.002 440.676 130.588 440.676 130.102C440.676 129.634 440.28 129.22 439.794 129.22C439.29 129.22 438.894 129.634 438.894 130.102C438.894 130.588 439.29 131.002 439.794 131.002ZM439.11 142H440.46V132.694H439.11V142ZM447.599 132.478C446.285 132.478 445.079 133.198 444.539 134.188V132.694H443.189V142H444.539V136.078C444.539 134.782 445.853 133.684 447.419 133.684C448.787 133.684 449.741 134.746 449.741 136.258V142H451.091V136.078C451.091 133.972 449.651 132.478 447.599 132.478ZM461.059 132.694V134.296C460.339 133.162 459.151 132.478 457.675 132.478C455.173 132.478 453.391 134.296 453.391 136.888C453.391 139.48 455.173 141.316 457.675 141.316C459.151 141.316 460.339 140.632 461.059 139.498V141.01C461.059 142.828 459.799 143.89 457.657 143.89C456.505 143.89 455.389 143.476 454.669 142.792L454.075 143.854C454.921 144.574 456.325 145.096 457.837 145.096C460.519 145.096 462.409 143.404 462.409 141.01V132.694H461.059ZM457.927 140.11C456.109 140.11 454.813 138.778 454.813 136.888C454.813 135.016 456.109 133.684 457.927 133.684C459.763 133.684 461.059 135.016 461.059 136.888C461.059 138.778 459.763 140.11 457.927 140.11ZM474.267 132.478C473.367 132.478 472.251 132.712 470.919 133.378L471.459 134.476C472.305 134.044 473.241 133.63 474.177 133.63C476.193 133.63 476.697 135.07 476.697 136.33V136.672C475.743 136.366 474.681 136.15 473.673 136.15C471.675 136.15 470.019 137.392 470.019 139.246C470.019 141.082 471.459 142.216 473.421 142.216C474.645 142.216 476.031 141.64 476.697 140.542V142H478.047V136.33C478.047 134.08 476.805 132.478 474.267 132.478ZM473.655 141.028C472.341 141.028 471.333 140.344 471.333 139.192C471.333 138.076 472.503 137.284 473.889 137.284C474.897 137.284 475.851 137.428 476.697 137.662V139.084C476.337 140.398 474.879 141.028 473.655 141.028ZM485.234 132.478C483.92 132.478 482.714 133.198 482.174 134.188V132.694H480.824V142H482.174V136.078C482.174 134.782 483.488 133.684 485.054 133.684C486.422 133.684 487.376 134.746 487.376 136.258V142H488.726V136.078C488.726 133.972 487.286 132.478 485.234 132.478ZM498.73 129.418V134.44C498.028 133.216 496.84 132.478 495.346 132.478C492.898 132.478 491.062 134.494 491.062 137.338C491.062 140.2 492.898 142.216 495.346 142.216C496.84 142.216 498.028 141.478 498.73 140.254V142H500.08V129.418H498.73ZM495.598 141.01C493.78 141.01 492.484 139.48 492.484 137.338C492.484 135.196 493.78 133.684 495.598 133.684C497.434 133.684 498.73 135.196 498.73 137.338C498.73 139.48 497.434 141.01 495.598 141.01ZM514.061 142.216C515.771 142.216 517.355 141.478 518.507 140.326L517.553 139.354C516.653 140.308 515.411 140.92 514.061 140.92C511.397 140.92 509.147 138.58 509.147 135.808C509.147 133.054 511.397 130.714 514.061 130.714C515.411 130.714 516.653 131.326 517.553 132.28L518.507 131.308C517.355 130.138 515.771 129.418 514.061 129.418C510.641 129.418 507.725 132.334 507.725 135.808C507.725 139.282 510.641 142.216 514.061 142.216ZM524.711 142.216C527.321 142.216 529.517 139.984 529.517 137.338C529.517 134.692 527.321 132.478 524.711 132.478C522.101 132.478 519.887 134.692 519.887 137.338C519.887 139.984 522.101 142.216 524.711 142.216ZM524.711 141.01C522.857 141.01 521.309 139.336 521.309 137.338C521.309 135.358 522.857 133.684 524.711 133.684C526.547 133.684 528.095 135.358 528.095 137.338C528.095 139.336 526.547 141.01 524.711 141.01ZM541.809 132.478C540.405 132.478 539.181 133.252 538.803 134.458C538.299 133.252 537.201 132.478 535.797 132.478C534.573 132.478 533.565 133.09 533.097 134.062V132.694H531.747V142H533.097V136.078C533.097 134.674 534.141 133.684 535.617 133.684C536.877 133.684 537.759 134.746 537.759 136.258V142H539.109V136.078C539.109 134.674 540.153 133.684 541.629 133.684C542.889 133.684 543.771 134.746 543.771 136.258V142H545.121V136.078C545.121 133.972 543.753 132.478 541.809 132.478ZM552.708 132.478C551.214 132.478 550.026 133.216 549.324 134.44V132.694H547.974V145.096H549.324V140.254C550.026 141.478 551.214 142.216 552.708 142.216C555.156 142.216 556.992 140.2 556.992 137.338C556.992 134.494 555.156 132.478 552.708 132.478ZM552.456 141.01C550.62 141.01 549.324 139.48 549.324 137.338C549.324 135.196 550.62 133.684 552.456 133.684C554.274 133.684 555.57 135.196 555.57 137.338C555.57 139.48 554.274 141.01 552.456 141.01ZM559.327 142H560.677V129.418H559.327V142ZM564.071 131.002C564.557 131.002 564.953 130.588 564.953 130.102C564.953 129.634 564.557 129.22 564.071 129.22C563.567 129.22 563.171 129.634 563.171 130.102C563.171 130.588 563.567 131.002 564.071 131.002ZM563.387 142H564.737V132.694H563.387V142ZM571.228 132.478C570.328 132.478 569.212 132.712 567.88 133.378L568.42 134.476C569.266 134.044 570.202 133.63 571.138 133.63C573.154 133.63 573.658 135.07 573.658 136.33V136.672C572.704 136.366 571.642 136.15 570.634 136.15C568.636 136.15 566.98 137.392 566.98 139.246C566.98 141.082 568.42 142.216 570.382 142.216C571.606 142.216 572.992 141.64 573.658 140.542V142H575.008V136.33C575.008 134.08 573.766 132.478 571.228 132.478ZM570.616 141.028C569.302 141.028 568.294 140.344 568.294 139.192C568.294 138.076 569.464 137.284 570.85 137.284C571.858 137.284 572.812 137.428 573.658 137.662V139.084C573.298 140.398 571.84 141.028 570.616 141.028ZM582.194 132.478C580.88 132.478 579.674 133.198 579.134 134.188V132.694H577.784V142H579.134V136.078C579.134 134.782 580.448 133.684 582.014 133.684C583.382 133.684 584.336 134.746 584.336 136.258V142H585.686V136.078C585.686 133.972 584.246 132.478 582.194 132.478ZM592.739 142.216C594.035 142.216 595.223 141.676 596.105 140.794L595.169 139.876C594.539 140.578 593.675 141.01 592.739 141.01C590.885 141.01 589.337 139.336 589.337 137.338C589.337 135.358 590.885 133.684 592.739 133.684C593.657 133.684 594.503 134.098 595.115 134.764L596.051 133.846C595.169 133 593.999 132.478 592.739 132.478C590.129 132.478 587.915 134.692 587.915 137.338C587.915 139.984 590.129 142.216 592.739 142.216ZM602.369 141.01C600.533 141.01 599.255 139.678 599.057 137.86H606.671C606.671 134.602 605.069 132.478 602.261 132.478C599.759 132.478 597.671 134.548 597.671 137.32C597.671 140.182 599.903 142.216 602.387 142.216C603.683 142.216 605.321 141.658 606.131 140.776L605.303 139.894C604.727 140.524 603.467 141.01 602.369 141.01ZM602.315 133.684C604.169 133.684 605.159 134.98 605.339 136.654H599.075C599.327 134.854 600.659 133.684 602.315 133.684Z" fill="#E4E4E4"/>
<line y1="170.5" x2="32" y2="170.5" stroke="#E4E4E4"/>
<path d="M55.272 176.216C56.982 176.216 58.566 175.478 59.718 174.326L58.764 173.354C57.864 174.308 56.622 174.92 55.272 174.92C52.608 174.92 50.358 172.58 50.358 169.808C50.358 167.054 52.608 164.714 55.272 164.714C56.622 164.714 57.864 165.326 58.764 166.28L59.718 165.308C58.566 164.138 56.982 163.418 55.272 163.418C51.852 163.418 48.936 166.334 48.936 169.808C48.936 173.282 51.852 176.216 55.272 176.216ZM65.3824 166.478C64.4824 166.478 63.3664 166.712 62.0344 167.378L62.5744 168.476C63.4204 168.044 64.3564 167.63 65.2924 167.63C67.3084 167.63 67.8124 169.07 67.8124 170.33V170.672C66.8584 170.366 65.7964 170.15 64.7884 170.15C62.7904 170.15 61.1344 171.392 61.1344 173.246C61.1344 175.082 62.5744 176.216 64.5364 176.216C65.7604 176.216 67.1464 175.64 67.8124 174.542V176H69.1624V170.33C69.1624 168.08 67.9204 166.478 65.3824 166.478ZM64.7704 175.028C63.4564 175.028 62.4484 174.344 62.4484 173.192C62.4484 172.076 63.6184 171.284 65.0044 171.284C66.0124 171.284 66.9664 171.428 67.8124 171.662V173.084C67.4524 174.398 65.9944 175.028 64.7704 175.028ZM75.2147 176.216C77.1407 176.216 78.6167 175.118 78.6167 173.408C78.6167 171.644 77.0687 171.14 75.5747 170.672C73.8467 170.114 73.1627 169.862 73.1627 169.052C73.1627 168.152 74.0267 167.684 75.0707 167.684C75.8987 167.684 76.8167 167.972 77.7527 168.566L78.4007 167.522C77.4107 166.874 76.2227 166.478 75.0707 166.478C73.2167 166.478 71.8127 167.522 71.8127 169.214C71.8127 170.546 72.6767 171.212 74.9267 171.86C76.1867 172.22 77.2667 172.544 77.2667 173.552C77.2667 174.434 76.4387 175.01 75.2147 175.01C74.1887 175.01 73.1267 174.614 72.0647 173.84L71.3627 174.83C72.4787 175.73 73.9187 176.216 75.2147 176.216ZM85.2784 166.478C83.9644 166.478 82.7584 167.198 82.2184 168.188V163.418H80.8684V176H82.2184V170.078C82.2184 168.782 83.5324 167.684 85.0984 167.684C86.4664 167.684 87.4204 168.746 87.4204 170.258V176H88.7704V170.078C88.7704 167.972 87.3304 166.478 85.2784 166.478ZM104.535 174.416V173.138L97.6775 169.808L104.535 166.478V165.218L96.3455 169.286V170.348L104.535 174.416ZM106.91 171.77H111.572V170.456H106.91V171.77ZM113.95 174.416L122.14 170.348V169.286L113.95 165.218V166.478L120.808 169.808L113.95 173.138V174.416ZM138.646 164.966V163.634H129.772V176H131.194V170.366H137.908V169.034H131.194V164.966H138.646ZM140.74 176H142.144V163.634H140.74V176ZM155.056 176H156.586L151.132 163.634H149.602L144.148 176H145.678L146.92 173.192H153.814L155.056 176ZM147.496 171.86L150.376 165.362L153.238 171.86H147.496ZM161.021 176H162.425V164.966H166.583V163.634H156.863V164.966H161.021V176ZM181.791 174.416V173.138L174.933 169.808L181.791 166.478V165.218L173.601 169.286V170.348L181.791 174.416ZM184.166 171.77H188.828V170.456H184.166V171.77ZM191.206 174.416L199.396 170.348V169.286L191.206 165.218V166.478L198.064 169.808L191.206 173.138V174.416ZM212.877 176.216C214.587 176.216 216.171 175.478 217.323 174.326L216.369 173.354C215.469 174.308 214.227 174.92 212.877 174.92C210.213 174.92 207.963 172.58 207.963 169.808C207.963 167.054 210.213 164.714 212.877 164.714C214.227 164.714 215.469 165.326 216.369 166.28L217.323 165.308C216.171 164.138 214.587 163.418 212.877 163.418C209.457 163.418 206.541 166.334 206.541 169.808C206.541 173.282 209.457 176.216 212.877 176.216ZM220.684 168.512V166.694H219.334V176H220.684V170.798C220.684 168.98 222.178 167.684 224.284 167.684V166.478C222.574 166.478 221.242 167.27 220.684 168.512ZM227.537 179.24C228.815 179.222 229.715 178.628 230.363 177.044L234.611 166.694H233.153L230.075 174.434L226.817 166.694H225.323L229.373 176.036L228.833 177.188C228.473 177.818 228.077 178.016 227.483 178.016C227.087 178.016 226.709 177.944 226.385 177.782L226.061 178.934C226.493 179.132 226.997 179.24 227.537 179.24ZM241.681 166.478C240.187 166.478 238.999 167.216 238.297 168.44V166.694H236.947V179.096H238.297V174.254C238.999 175.478 240.187 176.216 241.681 176.216C244.129 176.216 245.965 174.2 245.965 171.338C245.965 168.494 244.129 166.478 241.681 166.478ZM241.429 175.01C239.593 175.01 238.297 173.48 238.297 171.338C238.297 169.196 239.593 167.684 241.429 167.684C243.247 167.684 244.543 169.196 244.543 171.338C244.543 173.48 243.247 175.01 241.429 175.01ZM252.386 174.632C252.188 174.848 251.828 175.01 251.414 175.01C250.874 175.01 250.406 174.524 250.406 173.84V167.9H252.692V166.694H250.406V164.138H249.056V166.694H247.598V167.9H249.056V173.84C249.056 175.226 249.992 176.216 251.324 176.216C251.954 176.216 252.566 176 253.052 175.622L252.386 174.632ZM259.282 176.216C261.892 176.216 264.088 173.984 264.088 171.338C264.088 168.692 261.892 166.478 259.282 166.478C256.672 166.478 254.458 168.692 254.458 171.338C254.458 173.984 256.672 176.216 259.282 176.216ZM259.282 175.01C257.428 175.01 255.88 173.336 255.88 171.338C255.88 169.358 257.428 167.684 259.282 167.684C261.118 167.684 262.666 169.358 262.666 171.338C262.666 173.336 261.118 175.01 259.282 175.01ZM277.442 176.216C279.152 176.216 280.736 175.478 281.888 174.326L280.934 173.354C280.034 174.308 278.792 174.92 277.442 174.92C274.778 174.92 272.528 172.58 272.528 169.808C272.528 167.054 274.778 164.714 277.442 164.714C278.792 164.714 280.034 165.326 280.934 166.28L281.888 165.308C280.736 164.138 279.152 163.418 277.442 163.418C274.022 163.418 271.106 166.334 271.106 169.808C271.106 173.282 274.022 176.216 277.442 176.216ZM288.092 176.216C290.702 176.216 292.898 173.984 292.898 171.338C292.898 168.692 290.702 166.478 288.092 166.478C285.482 166.478 283.268 168.692 283.268 171.338C283.268 173.984 285.482 176.216 288.092 176.216ZM288.092 175.01C286.238 175.01 284.69 173.336 284.69 171.338C284.69 169.358 286.238 167.684 288.092 167.684C289.928 167.684 291.476 169.358 291.476 171.338C291.476 173.336 289.928 175.01 288.092 175.01ZM299.556 166.478C298.242 166.478 297.036 167.198 296.496 168.188V166.694H295.146V176H296.496V170.078C296.496 168.782 297.81 167.684 299.376 167.684C300.744 167.684 301.698 168.746 301.698 170.258V176H303.048V170.078C303.048 167.972 301.608 166.478 299.556 166.478ZM308.858 176H310.154L314.06 166.694H312.548L309.506 174.416L306.41 166.694H304.898L308.858 176ZM319.484 175.01C317.648 175.01 316.37 173.678 316.172 171.86H323.786C323.786 168.602 322.184 166.478 319.376 166.478C316.874 166.478 314.786 168.548 314.786 171.32C314.786 174.182 317.018 176.216 319.502 176.216C320.798 176.216 322.436 175.658 323.246 174.776L322.418 173.894C321.842 174.524 320.582 175.01 319.484 175.01ZM319.43 167.684C321.284 167.684 322.274 168.98 322.454 170.654H316.19C316.442 168.854 317.774 167.684 319.43 167.684ZM327.471 168.512V166.694H326.121V176H327.471V170.798C327.471 168.98 328.965 167.684 331.071 167.684V166.478C329.361 166.478 328.029 167.27 327.471 168.512ZM336.232 176.216C338.158 176.216 339.634 175.118 339.634 173.408C339.634 171.644 338.086 171.14 336.592 170.672C334.864 170.114 334.18 169.862 334.18 169.052C334.18 168.152 335.044 167.684 336.088 167.684C336.916 167.684 337.834 167.972 338.77 168.566L339.418 167.522C338.428 166.874 337.24 166.478 336.088 166.478C334.234 166.478 332.83 167.522 332.83 169.214C332.83 170.546 333.694 171.212 335.944 171.86C337.204 172.22 338.284 172.544 338.284 173.552C338.284 174.434 337.456 175.01 336.232 175.01C335.206 175.01 334.144 174.614 333.082 173.84L332.38 174.83C333.496 175.73 334.936 176.216 336.232 176.216ZM342.534 165.002C343.02 165.002 343.416 164.588 343.416 164.102C343.416 163.634 343.02 163.22 342.534 163.22C342.03 163.22 341.634 163.634 341.634 164.102C341.634 164.588 342.03 165.002 342.534 165.002ZM341.85 176H343.2V166.694H341.85V176ZM350.231 176.216C352.841 176.216 355.037 173.984 355.037 171.338C355.037 168.692 352.841 166.478 350.231 166.478C347.621 166.478 345.407 168.692 345.407 171.338C345.407 173.984 347.621 176.216 350.231 176.216ZM350.231 175.01C348.377 175.01 346.829 173.336 346.829 171.338C346.829 169.358 348.377 167.684 350.231 167.684C352.067 167.684 353.615 169.358 353.615 171.338C353.615 173.336 352.067 175.01 350.231 175.01ZM361.694 166.478C360.38 166.478 359.174 167.198 358.634 168.188V166.694H357.284V176H358.634V170.078C358.634 168.782 359.948 167.684 361.514 167.684C362.882 167.684 363.836 168.746 363.836 170.258V176H365.186V170.078C365.186 167.972 363.746 166.478 361.694 166.478Z" fill="#E4E4E4"/>
<line y1="204.5" x2="32" y2="204.5" stroke="#E4E4E4"/>
<path d="M49.692 210H51.096V200.658L55.686 209.28L60.276 200.658V210H61.68V197.634H60.276L55.686 206.256L51.096 197.634H49.692V210ZM71.2833 200.694V206.616C71.2833 207.912 69.9693 209.01 68.4033 209.01C67.0353 209.01 66.0813 207.948 66.0813 206.436V200.694H64.7313V206.616C64.7313 208.722 66.1713 210.216 68.2233 210.216C69.5373 210.216 70.7433 209.496 71.2833 208.506V210H72.6333V200.694H71.2833ZM75.3836 210H76.7336V197.418H75.3836V210ZM83.5478 208.632C83.3498 208.848 82.9898 209.01 82.5758 209.01C82.0358 209.01 81.5678 208.524 81.5678 207.84V201.9H83.8538V200.694H81.5678V198.138H80.2178V200.694H78.7598V201.9H80.2178V207.84C80.2178 209.226 81.1538 210.216 82.4858 210.216C83.1158 210.216 83.7278 210 84.2138 209.622L83.5478 208.632ZM86.7899 199.002C87.2759 199.002 87.6719 198.588 87.6719 198.102C87.6719 197.634 87.2759 197.22 86.7899 197.22C86.2859 197.22 85.8899 197.634 85.8899 198.102C85.8899 198.588 86.2859 199.002 86.7899 199.002ZM86.1059 210H87.4559V200.694H86.1059V210ZM89.8068 205.77H94.4688V204.456H89.8068V205.77ZM101.167 210.216C102.463 210.216 103.651 209.676 104.533 208.794L103.597 207.876C102.967 208.578 102.103 209.01 101.167 209.01C99.3125 209.01 97.7645 207.336 97.7645 205.338C97.7645 203.358 99.3125 201.684 101.167 201.684C102.085 201.684 102.931 202.098 103.543 202.764L104.479 201.846C103.597 201 102.427 200.478 101.167 200.478C98.5565 200.478 96.3425 202.692 96.3425 205.338C96.3425 207.984 98.5565 210.216 101.167 210.216ZM113.154 200.694V206.616C113.154 207.912 111.84 209.01 110.274 209.01C108.906 209.01 107.952 207.948 107.952 206.436V200.694H106.602V206.616C106.602 208.722 108.042 210.216 110.094 210.216C111.408 210.216 112.614 209.496 113.154 208.506V210H114.504V200.694H113.154ZM118.731 202.512V200.694H117.381V210H118.731V204.798C118.731 202.98 120.225 201.684 122.331 201.684V200.478C120.621 200.478 119.289 201.27 118.731 202.512ZM125.674 202.512V200.694H124.324V210H125.674V204.798C125.674 202.98 127.168 201.684 129.274 201.684V200.478C127.564 200.478 126.232 201.27 125.674 202.512ZM135.335 209.01C133.499 209.01 132.221 207.678 132.023 205.86H139.637C139.637 202.602 138.035 200.478 135.227 200.478C132.725 200.478 130.637 202.548 130.637 205.32C130.637 208.182 132.869 210.216 135.353 210.216C136.649 210.216 138.287 209.658 139.097 208.776L138.269 207.894C137.693 208.524 136.433 209.01 135.335 209.01ZM135.281 201.684C137.135 201.684 138.125 202.98 138.305 204.654H132.041C132.293 202.854 133.625 201.684 135.281 201.684ZM146.275 200.478C144.961 200.478 143.755 201.198 143.215 202.188V200.694H141.865V210H143.215V204.078C143.215 202.782 144.529 201.684 146.095 201.684C147.463 201.684 148.417 202.746 148.417 204.258V210H149.767V204.078C149.767 201.972 148.327 200.478 146.275 200.478ZM156.819 210.216C158.115 210.216 159.303 209.676 160.185 208.794L159.249 207.876C158.619 208.578 157.755 209.01 156.819 209.01C154.965 209.01 153.417 207.336 153.417 205.338C153.417 203.358 154.965 201.684 156.819 201.684C157.737 201.684 158.583 202.098 159.195 202.764L160.131 201.846C159.249 201 158.079 200.478 156.819 200.478C154.209 200.478 151.995 202.692 151.995 205.338C151.995 207.984 154.209 210.216 156.819 210.216ZM163.641 213.24C164.919 213.222 165.819 212.628 166.467 211.044L170.715 200.694H169.257L166.179 208.434L162.921 200.694H161.427L165.477 210.036L164.937 211.188C164.577 211.818 164.181 212.016 163.587 212.016C163.191 212.016 162.813 211.944 162.489 211.782L162.165 212.934C162.597 213.132 163.101 213.24 163.641 213.24ZM184.049 210.216C185.759 210.216 187.343 209.478 188.495 208.326L187.541 207.354C186.641 208.308 185.399 208.92 184.049 208.92C181.385 208.92 179.135 206.58 179.135 203.808C179.135 201.054 181.385 198.714 184.049 198.714C185.399 198.714 186.641 199.326 187.541 200.28L188.495 199.308C187.343 198.138 185.759 197.418 184.049 197.418C180.629 197.418 177.713 200.334 177.713 203.808C177.713 207.282 180.629 210.216 184.049 210.216ZM191.856 202.512V200.694H190.506V210H191.856V204.798C191.856 202.98 193.35 201.684 195.456 201.684V200.478C193.746 200.478 192.414 201.27 191.856 202.512ZM198.709 213.24C199.987 213.222 200.887 212.628 201.535 211.044L205.783 200.694H204.325L201.247 208.434L197.989 200.694H196.495L200.545 210.036L200.005 211.188C199.645 211.818 199.249 212.016 198.655 212.016C198.259 212.016 197.881 211.944 197.557 211.782L197.233 212.934C197.665 213.132 198.169 213.24 198.709 213.24ZM212.853 200.478C211.359 200.478 210.171 201.216 209.469 202.44V200.694H208.119V213.096H209.469V208.254C210.171 209.478 211.359 210.216 212.853 210.216C215.301 210.216 217.137 208.2 217.137 205.338C217.137 202.494 215.301 200.478 212.853 200.478ZM212.601 209.01C210.765 209.01 209.469 207.48 209.469 205.338C209.469 203.196 210.765 201.684 212.601 201.684C214.419 201.684 215.715 203.196 215.715 205.338C215.715 207.48 214.419 209.01 212.601 209.01ZM223.558 208.632C223.36 208.848 223 209.01 222.586 209.01C222.046 209.01 221.578 208.524 221.578 207.84V201.9H223.864V200.694H221.578V198.138H220.228V200.694H218.77V201.9H220.228V207.84C220.228 209.226 221.164 210.216 222.496 210.216C223.126 210.216 223.738 210 224.224 209.622L223.558 208.632ZM230.454 210.216C233.064 210.216 235.26 207.984 235.26 205.338C235.26 202.692 233.064 200.478 230.454 200.478C227.844 200.478 225.63 202.692 225.63 205.338C225.63 207.984 227.844 210.216 230.454 210.216ZM230.454 209.01C228.6 209.01 227.052 207.336 227.052 205.338C227.052 203.358 228.6 201.684 230.454 201.684C232.29 201.684 233.838 203.358 233.838 205.338C233.838 207.336 232.29 209.01 230.454 209.01ZM246.238 210H247.624L251.08 199.47L254.518 210H255.904L260.134 197.634H258.55L255.13 207.642L251.854 197.634H250.288L247.012 207.642L243.592 197.634H242.008L246.238 210ZM265.949 200.478C265.049 200.478 263.933 200.712 262.601 201.378L263.141 202.476C263.987 202.044 264.923 201.63 265.859 201.63C267.875 201.63 268.379 203.07 268.379 204.33V204.672C267.425 204.366 266.363 204.15 265.355 204.15C263.357 204.15 261.701 205.392 261.701 207.246C261.701 209.082 263.141 210.216 265.103 210.216C266.327 210.216 267.713 209.64 268.379 208.542V210H269.729V204.33C269.729 202.08 268.487 200.478 265.949 200.478ZM265.337 209.028C264.023 209.028 263.015 208.344 263.015 207.192C263.015 206.076 264.185 205.284 265.571 205.284C266.579 205.284 267.533 205.428 268.379 205.662V207.084C268.019 208.398 266.561 209.028 265.337 209.028ZM272.487 210H273.837V197.418H272.487V210ZM276.565 210H277.915V197.418H276.565V210ZM284.837 209.01C283.001 209.01 281.723 207.678 281.525 205.86H289.139C289.139 202.602 287.537 200.478 284.729 200.478C282.227 200.478 280.139 202.548 280.139 205.32C280.139 208.182 282.371 210.216 284.855 210.216C286.151 210.216 287.789 209.658 288.599 208.776L287.771 207.894C287.195 208.524 285.935 209.01 284.837 209.01ZM284.783 201.684C286.637 201.684 287.627 202.98 287.807 204.654H281.543C281.795 202.854 283.127 201.684 284.783 201.684ZM295.434 208.632C295.236 208.848 294.876 209.01 294.462 209.01C293.922 209.01 293.454 208.524 293.454 207.84V201.9H295.74V200.694H293.454V198.138H292.104V200.694H290.646V201.9H292.104V207.84C292.104 209.226 293.04 210.216 294.372 210.216C295.002 210.216 295.614 210 296.1 209.622L295.434 208.632Z" fill="#E4E4E4"/>
<line y1="238.5" x2="32" y2="238.5" stroke="#E4E4E4"/>
<path d="M52.968 244H54.372V232.966H58.53V231.634H48.81V232.966H52.968V244ZM62.1819 236.512V234.694H60.8319V244H62.1819V238.798C62.1819 236.98 63.6759 235.684 65.7819 235.684V234.478C64.0719 234.478 62.7399 235.27 62.1819 236.512ZM71.4293 234.478C70.5293 234.478 69.4133 234.712 68.0813 235.378L68.6213 236.476C69.4673 236.044 70.4033 235.63 71.3393 235.63C73.3553 235.63 73.8593 237.07 73.8593 238.33V238.672C72.9053 238.366 71.8433 238.15 70.8353 238.15C68.8373 238.15 67.1813 239.392 67.1813 241.246C67.1813 243.082 68.6213 244.216 70.5833 244.216C71.8073 244.216 73.1933 243.64 73.8593 242.542V244H75.2093V238.33C75.2093 236.08 73.9673 234.478 71.4293 234.478ZM70.8173 243.028C69.5033 243.028 68.4953 242.344 68.4953 241.192C68.4953 240.076 69.6653 239.284 71.0513 239.284C72.0593 239.284 73.0133 239.428 73.8593 239.662V241.084C73.4993 242.398 72.0413 243.028 70.8173 243.028ZM82.3956 234.478C81.0816 234.478 79.8756 235.198 79.3356 236.188V234.694H77.9856V244H79.3356V238.078C79.3356 236.782 80.6496 235.684 82.2156 235.684C83.5836 235.684 84.5376 236.746 84.5376 238.258V244H85.8876V238.078C85.8876 235.972 84.4476 234.478 82.3956 234.478ZM91.914 244.216C93.84 244.216 95.316 243.118 95.316 241.408C95.316 239.644 93.768 239.14 92.274 238.672C90.546 238.114 89.862 237.862 89.862 237.052C89.862 236.152 90.726 235.684 91.77 235.684C92.598 235.684 93.516 235.972 94.452 236.566L95.1 235.522C94.11 234.874 92.922 234.478 91.77 234.478C89.916 234.478 88.512 235.522 88.512 237.214C88.512 238.546 89.376 239.212 91.626 239.86C92.886 240.22 93.966 240.544 93.966 241.552C93.966 242.434 93.138 243.01 91.914 243.01C90.888 243.01 89.826 242.614 88.764 241.84L88.062 242.83C89.178 243.73 90.618 244.216 91.914 244.216ZM101.33 234.478C100.43 234.478 99.3136 234.712 97.9816 235.378L98.5216 236.476C99.3676 236.044 100.304 235.63 101.24 235.63C103.256 235.63 103.76 237.07 103.76 238.33V238.672C102.806 238.366 101.744 238.15 100.736 238.15C98.7376 238.15 97.0816 239.392 97.0816 241.246C97.0816 243.082 98.5216 244.216 100.484 244.216C101.708 244.216 103.094 243.64 103.76 242.542V244H105.11V238.33C105.11 236.08 103.868 234.478 101.33 234.478ZM100.718 243.028C99.4036 243.028 98.3956 242.344 98.3956 241.192C98.3956 240.076 99.5656 239.284 100.952 239.284C101.96 239.284 102.914 239.428 103.76 239.662V241.084C103.4 242.398 101.942 243.028 100.718 243.028ZM112.188 244.216C113.484 244.216 114.672 243.676 115.554 242.794L114.618 241.876C113.988 242.578 113.124 243.01 112.188 243.01C110.334 243.01 108.786 241.336 108.786 239.338C108.786 237.358 110.334 235.684 112.188 235.684C113.106 235.684 113.952 236.098 114.564 236.764L115.5 235.846C114.618 235 113.448 234.478 112.188 234.478C109.578 234.478 107.364 236.692 107.364 239.338C107.364 241.984 109.578 244.216 112.188 244.216ZM121.71 242.632C121.512 242.848 121.152 243.01 120.738 243.01C120.198 243.01 119.73 242.524 119.73 241.84V235.9H122.016V234.694H119.73V232.138H118.38V234.694H116.922V235.9H118.38V241.84C118.38 243.226 119.316 244.216 120.648 244.216C121.278 244.216 121.89 244 122.376 243.622L121.71 242.632ZM124.952 233.002C125.438 233.002 125.834 232.588 125.834 232.102C125.834 231.634 125.438 231.22 124.952 231.22C124.448 231.22 124.052 231.634 124.052 232.102C124.052 232.588 124.448 233.002 124.952 233.002ZM124.268 244H125.618V234.694H124.268V244ZM132.649 244.216C135.259 244.216 137.455 241.984 137.455 239.338C137.455 236.692 135.259 234.478 132.649 234.478C130.039 234.478 127.825 236.692 127.825 239.338C127.825 241.984 130.039 244.216 132.649 244.216ZM132.649 243.01C130.795 243.01 129.247 241.336 129.247 239.338C129.247 237.358 130.795 235.684 132.649 235.684C134.485 235.684 136.033 237.358 136.033 239.338C136.033 241.336 134.485 243.01 132.649 243.01ZM144.112 234.478C142.798 234.478 141.592 235.198 141.052 236.188V234.694H139.702V244H141.052V238.078C141.052 236.782 142.366 235.684 143.932 235.684C145.3 235.684 146.254 236.746 146.254 238.258V244H147.604V238.078C147.604 235.972 146.164 234.478 144.112 234.478ZM154.117 234.478C153.217 234.478 152.101 234.712 150.769 235.378L151.309 236.476C152.155 236.044 153.091 235.63 154.027 235.63C156.043 235.63 156.547 237.07 156.547 238.33V238.672C155.593 238.366 154.531 238.15 153.523 238.15C151.525 238.15 149.869 239.392 149.869 241.246C149.869 243.082 151.309 244.216 153.271 244.216C154.495 244.216 155.881 243.64 156.547 242.542V244H157.897V238.33C157.897 236.08 156.655 234.478 154.117 234.478ZM153.505 243.028C152.191 243.028 151.183 242.344 151.183 241.192C151.183 240.076 152.353 239.284 153.739 239.284C154.747 239.284 155.701 239.428 156.547 239.662V241.084C156.187 242.398 154.729 243.028 153.505 243.028ZM160.655 244H162.005V231.418H160.655V244ZM165.399 233.002C165.885 233.002 166.281 232.588 166.281 232.102C166.281 231.634 165.885 231.22 165.399 231.22C164.895 231.22 164.499 231.634 164.499 232.102C164.499 232.588 164.895 233.002 165.399 233.002ZM164.715 244H166.065V234.694H164.715V244ZM172.862 242.632C172.664 242.848 172.304 243.01 171.89 243.01C171.35 243.01 170.882 242.524 170.882 241.84V235.9H173.168V234.694H170.882V232.138H169.532V234.694H168.074V235.9H169.532V241.84C169.532 243.226 170.468 244.216 171.8 244.216C172.43 244.216 173.042 244 173.528 243.622L172.862 242.632ZM176.824 247.24C178.102 247.222 179.002 246.628 179.65 245.044L183.898 234.694H182.44L179.362 242.434L176.104 234.694H174.61L178.66 244.036L178.12 245.188C177.76 245.818 177.364 246.016 176.77 246.016C176.374 246.016 175.996 245.944 175.672 245.782L175.348 246.934C175.78 247.132 176.284 247.24 176.824 247.24ZM191.995 233.002C192.481 233.002 192.877 232.588 192.877 232.102C192.877 231.634 192.481 231.22 191.995 231.22C191.491 231.22 191.095 231.634 191.095 232.102C191.095 232.588 191.491 233.002 191.995 233.002ZM191.311 244H192.661V234.694H191.311V244ZM199.8 234.478C198.486 234.478 197.28 235.198 196.74 236.188V234.694H195.39V244H196.74V238.078C196.74 236.782 198.054 235.684 199.62 235.684C200.988 235.684 201.942 236.746 201.942 238.258V244H203.292V238.078C203.292 235.972 201.852 234.478 199.8 234.478ZM216.591 244.216C219.615 244.216 221.757 242.002 221.757 238.87V231.634H220.353V238.87C220.353 241.246 218.787 242.938 216.591 242.938C214.395 242.938 212.829 241.246 212.829 238.87V231.634H211.425V238.87C211.425 242.002 213.567 244.216 216.591 244.216ZM229.013 244.198C231.893 244.198 233.369 242.596 233.369 240.634C233.369 238.456 231.677 237.61 229.319 237.052C227.213 236.548 225.989 236.098 225.989 234.82C225.989 233.686 227.105 232.678 228.635 232.678C229.931 232.678 231.155 233.272 232.181 234.262L233.045 233.164C231.911 232.12 230.543 231.4 228.707 231.4C226.331 231.4 224.567 232.948 224.567 234.928C224.567 237.07 226.133 237.844 228.617 238.42C230.777 238.924 231.947 239.446 231.947 240.76C231.947 241.876 230.975 242.92 229.067 242.92C227.339 242.92 226.061 242.182 225.017 241.138L224.135 242.236C225.377 243.46 226.979 244.198 229.013 244.198ZM236.038 244H240.214C244.138 244 246.91 241.426 246.91 237.808C246.91 234.19 244.138 231.634 240.214 231.634H236.038V244ZM237.442 242.722V232.912H240.214C243.31 232.912 245.488 234.946 245.488 237.808C245.488 240.688 243.31 242.722 240.214 242.722H237.442ZM258.425 234.478C257.525 234.478 256.409 234.712 255.077 235.378L255.617 236.476C256.463 236.044 257.399 235.63 258.335 235.63C260.351 235.63 260.855 237.07 260.855 238.33V238.672C259.901 238.366 258.839 238.15 257.831 238.15C255.833 238.15 254.177 239.392 254.177 241.246C254.177 243.082 255.617 244.216 257.579 244.216C258.803 244.216 260.189 243.64 260.855 242.542V244H262.205V238.33C262.205 236.08 260.963 234.478 258.425 234.478ZM257.813 243.028C256.499 243.028 255.491 242.344 255.491 241.192C255.491 240.076 256.661 239.284 258.047 239.284C259.055 239.284 260.009 239.428 260.855 239.662V241.084C260.495 242.398 259.037 243.028 257.813 243.028ZM269.392 234.478C268.078 234.478 266.872 235.198 266.332 236.188V234.694H264.982V244H266.332V238.078C266.332 236.782 267.646 235.684 269.212 235.684C270.58 235.684 271.534 236.746 271.534 238.258V244H272.884V238.078C272.884 235.972 271.444 234.478 269.392 234.478ZM282.888 231.418V236.44C282.186 235.216 280.998 234.478 279.504 234.478C277.056 234.478 275.22 236.494 275.22 239.338C275.22 242.2 277.056 244.216 279.504 244.216C280.998 244.216 282.186 243.478 282.888 242.254V244H284.238V231.418H282.888ZM279.756 243.01C277.938 243.01 276.642 241.48 276.642 239.338C276.642 237.196 277.938 235.684 279.756 235.684C281.592 235.684 282.888 237.196 282.888 239.338C282.888 241.48 281.592 243.01 279.756 243.01ZM302.377 234.478C300.973 234.478 299.749 235.252 299.371 236.458C298.867 235.252 297.769 234.478 296.365 234.478C295.141 234.478 294.133 235.09 293.665 236.062V234.694H292.315V244H293.665V238.078C293.665 236.674 294.709 235.684 296.185 235.684C297.445 235.684 298.327 236.746 298.327 238.258V244H299.677V238.078C299.677 236.674 300.721 235.684 302.197 235.684C303.457 235.684 304.339 236.746 304.339 238.258V244H305.689V238.078C305.689 235.972 304.321 234.478 302.377 234.478ZM314.969 234.694V240.616C314.969 241.912 313.655 243.01 312.089 243.01C310.721 243.01 309.767 241.948 309.767 240.436V234.694H308.417V240.616C308.417 242.722 309.857 244.216 311.909 244.216C313.223 244.216 314.429 243.496 314.969 242.506V244H316.319V234.694H314.969ZM319.069 244H320.419V231.418H319.069V244ZM327.233 242.632C327.035 242.848 326.675 243.01 326.261 243.01C325.721 243.01 325.253 242.524 325.253 241.84V235.9H327.539V234.694H325.253V232.138H323.903V234.694H322.445V235.9H323.903V241.84C323.903 243.226 324.839 244.216 326.171 244.216C326.801 244.216 327.413 244 327.899 243.622L327.233 242.632ZM330.475 233.002C330.961 233.002 331.357 232.588 331.357 232.102C331.357 231.634 330.961 231.22 330.475 231.22C329.971 231.22 329.575 231.634 329.575 232.102C329.575 232.588 329.971 233.002 330.475 233.002ZM329.791 244H331.141V234.694H329.791V244ZM338.712 234.478C337.218 234.478 336.03 235.216 335.328 236.44V234.694H333.978V247.096H335.328V242.254C336.03 243.478 337.218 244.216 338.712 244.216C341.16 244.216 342.996 242.2 342.996 239.338C342.996 236.494 341.16 234.478 338.712 234.478ZM338.46 243.01C336.624 243.01 335.328 241.48 335.328 239.338C335.328 237.196 336.624 235.684 338.46 235.684C340.278 235.684 341.574 237.196 341.574 239.338C341.574 241.48 340.278 243.01 338.46 243.01ZM345.331 244H346.681V231.418H345.331V244ZM353.603 243.01C351.767 243.01 350.489 241.678 350.291 239.86H357.905C357.905 236.602 356.303 234.478 353.495 234.478C350.993 234.478 348.905 236.548 348.905 239.32C348.905 242.182 351.137 244.216 353.621 244.216C354.917 244.216 356.555 243.658 357.365 242.776L356.537 241.894C355.961 242.524 354.701 243.01 353.603 243.01ZM353.549 235.684C355.403 235.684 356.393 236.98 356.573 238.654H350.309C350.561 236.854 351.893 235.684 353.549 235.684ZM369.673 244.198C372.553 244.198 374.029 242.596 374.029 240.634C374.029 238.456 372.337 237.61 369.979 237.052C367.873 236.548 366.649 236.098 366.649 234.82C366.649 233.686 367.765 232.678 369.295 232.678C370.591 232.678 371.815 233.272 372.841 234.262L373.705 233.164C372.571 232.12 371.203 231.4 369.367 231.4C366.991 231.4 365.227 232.948 365.227 234.928C365.227 237.07 366.793 237.844 369.277 238.42C371.437 238.924 372.607 239.446 372.607 240.76C372.607 241.876 371.635 242.92 369.727 242.92C367.999 242.92 366.721 242.182 365.677 241.138L364.795 242.236C366.037 243.46 367.639 244.198 369.673 244.198ZM380.46 242.632C380.262 242.848 379.902 243.01 379.488 243.01C378.948 243.01 378.48 242.524 378.48 241.84V235.9H380.766V234.694H378.48V232.138H377.13V234.694H375.672V235.9H377.13V241.84C377.13 243.226 378.066 244.216 379.398 244.216C380.028 244.216 380.64 244 381.126 243.622L380.46 242.632ZM386.816 234.478C385.916 234.478 384.8 234.712 383.468 235.378L384.008 236.476C384.854 236.044 385.79 235.63 386.726 235.63C388.742 235.63 389.246 237.07 389.246 238.33V238.672C388.292 238.366 387.23 238.15 386.222 238.15C384.224 238.15 382.568 239.392 382.568 241.246C382.568 243.082 384.008 244.216 385.97 244.216C387.194 244.216 388.58 243.64 389.246 242.542V244H390.596V238.33C390.596 236.08 389.354 234.478 386.816 234.478ZM386.204 243.028C384.89 243.028 383.882 242.344 383.882 241.192C383.882 240.076 385.052 239.284 386.438 239.284C387.446 239.284 388.4 239.428 389.246 239.662V241.084C388.886 242.398 387.428 243.028 386.204 243.028ZM398.214 234.478C396.72 234.478 395.532 235.216 394.83 236.44V231.418H393.48V244H394.83V242.254C395.532 243.478 396.72 244.216 398.214 244.216C400.662 244.216 402.498 242.2 402.498 239.338C402.498 236.494 400.662 234.478 398.214 234.478ZM397.962 243.01C396.126 243.01 394.83 241.48 394.83 239.338C394.83 237.196 396.126 235.684 397.962 235.684C399.78 235.684 401.076 237.196 401.076 239.338C401.076 241.48 399.78 243.01 397.962 243.01ZM404.833 244H406.183V231.418H404.833V244ZM413.105 243.01C411.269 243.01 409.991 241.678 409.793 239.86H417.407C417.407 236.602 415.805 234.478 412.997 234.478C410.495 234.478 408.407 236.548 408.407 239.32C408.407 242.182 410.639 244.216 413.123 244.216C414.419 244.216 416.057 243.658 416.867 242.776L416.039 241.894C415.463 242.524 414.203 243.01 413.105 243.01ZM413.051 235.684C414.905 235.684 415.895 236.98 416.075 238.654H409.811C410.063 236.854 411.395 235.684 413.051 235.684ZM428.617 234.478C427.717 234.478 426.601 234.712 425.269 235.378L425.809 236.476C426.655 236.044 427.591 235.63 428.527 235.63C430.543 235.63 431.047 237.07 431.047 238.33V238.672C430.093 238.366 429.031 238.15 428.023 238.15C426.025 238.15 424.369 239.392 424.369 241.246C424.369 243.082 425.809 244.216 427.771 244.216C428.995 244.216 430.381 243.64 431.047 242.542V244H432.397V238.33C432.397 236.08 431.155 234.478 428.617 234.478ZM428.005 243.028C426.691 243.028 425.683 242.344 425.683 241.192C425.683 240.076 426.853 239.284 428.239 239.284C429.247 239.284 430.201 239.428 431.047 239.662V241.084C430.687 242.398 429.229 243.028 428.005 243.028ZM439.583 234.478C438.269 234.478 437.063 235.198 436.523 236.188V234.694H435.173V244H436.523V238.078C436.523 236.782 437.837 235.684 439.403 235.684C440.771 235.684 441.725 236.746 441.725 238.258V244H443.075V238.078C443.075 235.972 441.635 234.478 439.583 234.478ZM453.079 231.418V236.44C452.377 235.216 451.189 234.478 449.695 234.478C447.247 234.478 445.411 236.494 445.411 239.338C445.411 242.2 447.247 244.216 449.695 244.216C451.189 244.216 452.377 243.478 453.079 242.254V244H454.429V231.418H453.079ZM449.947 243.01C448.129 243.01 446.833 241.48 446.833 239.338C446.833 237.196 448.129 235.684 449.947 235.684C451.783 235.684 453.079 237.196 453.079 239.338C453.079 241.48 451.783 243.01 449.947 243.01ZM468.411 244.216C470.121 244.216 471.705 243.478 472.857 242.326L471.903 241.354C471.003 242.308 469.761 242.92 468.411 242.92C465.747 242.92 463.497 240.58 463.497 237.808C463.497 235.054 465.747 232.714 468.411 232.714C469.761 232.714 471.003 233.326 471.903 234.28L472.857 233.308C471.705 232.138 470.121 231.418 468.411 231.418C464.991 231.418 462.075 234.334 462.075 237.808C462.075 241.282 464.991 244.216 468.411 244.216ZM476.217 236.512V234.694H474.867V244H476.217V238.798C476.217 236.98 477.711 235.684 479.817 235.684V234.478C478.107 234.478 476.775 235.27 476.217 236.512ZM483.07 247.24C484.348 247.222 485.248 246.628 485.896 245.044L490.144 234.694H488.686L485.608 242.434L482.35 234.694H480.856L484.906 244.036L484.366 245.188C484.006 245.818 483.61 246.016 483.016 246.016C482.62 246.016 482.242 245.944 481.918 245.782L481.594 246.934C482.026 247.132 482.53 247.24 483.07 247.24ZM497.214 234.478C495.72 234.478 494.532 235.216 493.83 236.44V234.694H492.48V247.096H493.83V242.254C494.532 243.478 495.72 244.216 497.214 244.216C499.662 244.216 501.498 242.2 501.498 239.338C501.498 236.494 499.662 234.478 497.214 234.478ZM496.962 243.01C495.126 243.01 493.83 241.48 493.83 239.338C493.83 237.196 495.126 235.684 496.962 235.684C498.78 235.684 500.076 237.196 500.076 239.338C500.076 241.48 498.78 243.01 496.962 243.01ZM507.919 242.632C507.721 242.848 507.361 243.01 506.947 243.01C506.407 243.01 505.939 242.524 505.939 241.84V235.9H508.225V234.694H505.939V232.138H504.589V234.694H503.131V235.9H504.589V241.84C504.589 243.226 505.525 244.216 506.857 244.216C507.487 244.216 508.099 244 508.585 243.622L507.919 242.632ZM514.815 244.216C517.425 244.216 519.621 241.984 519.621 239.338C519.621 236.692 517.425 234.478 514.815 234.478C512.205 234.478 509.991 236.692 509.991 239.338C509.991 241.984 512.205 244.216 514.815 244.216ZM514.815 243.01C512.961 243.01 511.413 241.336 511.413 239.338C511.413 237.358 512.961 235.684 514.815 235.684C516.651 235.684 518.199 237.358 518.199 239.338C518.199 241.336 516.651 243.01 514.815 243.01ZM532.975 244.216C534.685 244.216 536.269 243.478 537.421 242.326L536.467 241.354C535.567 242.308 534.325 242.92 532.975 242.92C530.311 242.92 528.061 240.58 528.061 237.808C528.061 235.054 530.311 232.714 532.975 232.714C534.325 232.714 535.567 233.326 536.467 234.28L537.421 233.308C536.269 232.138 534.685 231.418 532.975 231.418C529.555 231.418 526.639 234.334 526.639 237.808C526.639 241.282 529.555 244.216 532.975 244.216ZM545.858 234.694V240.616C545.858 241.912 544.544 243.01 542.978 243.01C541.61 243.01 540.656 241.948 540.656 240.436V234.694H539.306V240.616C539.306 242.722 540.746 244.216 542.798 244.216C544.112 244.216 545.318 243.496 545.858 242.506V244H547.208V234.694H545.858ZM551.434 236.512V234.694H550.084V244H551.434V238.798C551.434 236.98 552.928 235.684 555.034 235.684V234.478C553.324 234.478 551.992 235.27 551.434 236.512ZM558.377 236.512V234.694H557.027V244H558.377V238.798C558.377 236.98 559.871 235.684 561.977 235.684V234.478C560.267 234.478 558.935 235.27 558.377 236.512ZM568.039 243.01C566.203 243.01 564.925 241.678 564.727 239.86H572.341C572.341 236.602 570.739 234.478 567.931 234.478C565.429 234.478 563.341 236.548 563.341 239.32C563.341 242.182 565.573 244.216 568.057 244.216C569.353 244.216 570.991 243.658 571.801 242.776L570.973 241.894C570.397 242.524 569.137 243.01 568.039 243.01ZM567.985 235.684C569.839 235.684 570.829 236.98 571.009 238.654H564.745C564.997 236.854 566.329 235.684 567.985 235.684ZM578.978 234.478C577.664 234.478 576.458 235.198 575.918 236.188V234.694H574.568V244H575.918V238.078C575.918 236.782 577.232 235.684 578.798 235.684C580.166 235.684 581.12 236.746 581.12 238.258V244H582.47V238.078C582.47 235.972 581.03 234.478 578.978 234.478ZM589.522 244.216C590.818 244.216 592.006 243.676 592.888 242.794L591.952 241.876C591.322 242.578 590.458 243.01 589.522 243.01C587.668 243.01 586.12 241.336 586.12 239.338C586.12 237.358 587.668 235.684 589.522 235.684C590.44 235.684 591.286 236.098 591.898 236.764L592.834 235.846C591.952 235 590.782 234.478 589.522 234.478C586.912 234.478 584.698 236.692 584.698 239.338C584.698 241.984 586.912 244.216 589.522 244.216ZM595.624 233.002C596.11 233.002 596.506 232.588 596.506 232.102C596.506 231.634 596.11 231.22 595.624 231.22C595.12 231.22 594.724 231.634 594.724 232.102C594.724 232.588 595.12 233.002 595.624 233.002ZM594.94 244H596.29V234.694H594.94V244ZM603.195 243.01C601.359 243.01 600.081 241.678 599.883 239.86H607.497C607.497 236.602 605.895 234.478 603.087 234.478C600.585 234.478 598.497 236.548 598.497 239.32C598.497 242.182 600.729 244.216 603.213 244.216C604.509 244.216 606.147 243.658 606.957 242.776L606.129 241.894C605.553 242.524 604.293 243.01 603.195 243.01ZM603.141 235.684C604.995 235.684 605.985 236.98 606.165 238.654H599.901C600.153 236.854 601.485 235.684 603.141 235.684ZM613 244.216C614.926 244.216 616.402 243.118 616.402 241.408C616.402 239.644 614.854 239.14 613.36 238.672C611.632 238.114 610.948 237.862 610.948 237.052C610.948 236.152 611.812 235.684 612.856 235.684C613.684 235.684 614.602 235.972 615.538 236.566L616.186 235.522C615.196 234.874 614.008 234.478 612.856 234.478C611.002 234.478 609.598 235.522 609.598 237.214C609.598 238.546 610.462 239.212 612.712 239.86C613.972 240.22 615.052 240.544 615.052 241.552C615.052 242.434 614.224 243.01 613 243.01C611.974 243.01 610.912 242.614 609.85 241.84L609.148 242.83C610.264 243.73 611.704 244.216 613 244.216Z" fill="#E4E4E4"/>
</svg>
