<svg width="615" height="214" viewBox="0 0 615 214" fill="none" xmlns="http://www.w3.org/2000/svg">
<path d="M3.55298 86H10.609V65.456L20.833 84.08L31.009 65.456V86H38.113V53.024H31.009L20.833 71.648L10.609 53.024H3.55298V86ZM55.786 60.608C52.33 60.608 48.922 61.568 45.418 63.344L47.77 68C49.738 66.992 51.898 66.224 54.202 66.224C58.282 66.224 59.914 68.528 59.914 71.168V71.648C57.802 70.832 55.594 70.4 53.578 70.4C47.818 70.4 43.258 73.76 43.258 78.656C43.258 83.408 47.338 86.576 52.618 86.576C55.306 86.576 58.138 85.52 59.914 83.504V86H66.682V71.168C66.682 64.688 62.266 60.608 55.786 60.608ZM54.202 81.728C51.802 81.728 50.026 80.48 50.026 78.464C50.026 76.448 52.042 74.96 54.586 74.96C56.506 74.96 58.33 75.296 59.914 75.872V78.176C59.434 80.48 56.89 81.728 54.202 81.728ZM96.7326 61.184H88.6686L79.4526 71.888V52.448H72.4446V86H79.4526V79.904L82.4286 76.688L88.5726 86H96.6366L87.0846 72.176L96.7326 61.184ZM111.722 80.384C108.794 80.384 106.634 78.56 105.818 75.872H123.722C123.722 66.512 119.162 60.608 111.386 60.608C104.138 60.608 98.6185 66.032 98.6185 73.52C98.6185 81.152 104.378 86.576 111.77 86.576C115.418 86.576 119.69 85.04 121.898 82.736L117.434 78.176C116.09 79.472 113.69 80.384 111.722 80.384ZM111.674 66.8C114.506 66.8 116.33 68.384 117.002 70.832H105.914C106.826 68.336 109.034 66.8 111.674 66.8ZM157.182 60.608C153.726 60.608 150.846 62.096 148.878 64.64V61.184H141.87V94.256H148.878V82.496C150.846 85.088 153.726 86.576 157.182 86.576C163.806 86.576 168.606 81.2 168.606 73.568C168.606 65.984 163.806 60.608 157.182 60.608ZM155.166 80.672C151.758 80.672 149.262 78.176 148.878 74.528V72.608C149.262 69.008 151.758 66.512 155.166 66.512C159.054 66.512 161.79 69.44 161.79 73.568C161.79 77.744 159.054 80.672 155.166 80.672ZM184.645 60.608C181.189 60.608 177.781 61.568 174.277 63.344L176.629 68C178.597 66.992 180.757 66.224 183.061 66.224C187.141 66.224 188.773 68.528 188.773 71.168V71.648C186.661 70.832 184.453 70.4 182.437 70.4C176.677 70.4 172.117 73.76 172.117 78.656C172.117 83.408 176.197 86.576 181.477 86.576C184.165 86.576 186.997 85.52 188.773 83.504V86H195.541V71.168C195.541 64.688 191.125 60.608 184.645 60.608ZM183.061 81.728C180.661 81.728 178.885 80.48 178.885 78.464C178.885 76.448 180.901 74.96 183.445 74.96C185.365 74.96 187.189 75.296 188.773 75.872V78.176C188.293 80.48 185.749 81.728 183.061 81.728ZM207.112 94.64C211 94.64 214.168 92.096 216.04 87.248L226.216 61.184H219.064L212.872 78.608L206.344 61.184H199.096L209.416 86.24L208.552 88.064C208.024 88.976 206.968 89.408 205.624 89.408C204.808 89.408 203.56 88.976 202.36 88.304L200.872 93.104C202.552 94.016 205.048 94.64 207.112 94.64ZM259.796 60.608C256.1 60.608 253.028 62.384 251.732 65.12C250.196 62.336 247.268 60.608 243.86 60.608C240.788 60.608 238.34 62.096 237.14 64.448V61.184H230.132V86H237.14V71.024C237.14 68.384 239.108 66.512 241.94 66.512C244.484 66.512 246.308 68.528 246.308 71.408V86.048H253.028V71.024C253.028 68.384 255.044 66.512 257.828 66.512C260.42 66.512 262.244 68.528 262.244 71.408V86.048H268.964V70.208C268.964 64.592 264.98 60.608 259.796 60.608ZM286.566 80.384C283.638 80.384 281.478 78.56 280.662 75.872H298.566C298.566 66.512 294.006 60.608 286.23 60.608C278.982 60.608 273.462 66.032 273.462 73.52C273.462 81.152 279.222 86.576 286.614 86.576C290.262 86.576 294.534 85.04 296.742 82.736L292.278 78.176C290.934 79.472 288.534 80.384 286.566 80.384ZM286.518 66.8C289.35 66.8 291.174 68.384 291.846 70.832H280.758C281.67 68.336 283.878 66.8 286.518 66.8ZM317.659 60.608C314.443 60.608 311.659 62.048 310.171 64.304V61.184H303.163V86H310.171V71.168L310.219 71.312C310.219 68.624 312.475 66.512 315.403 66.512C318.187 66.512 320.107 68.624 320.107 71.696V86H326.875V70.208C326.875 64.592 323.035 60.608 317.659 60.608ZM345.848 79.856C345.368 80.336 344.408 80.672 343.448 80.672C342.152 80.672 341.096 79.52 341.096 77.888V66.848H346.472V61.184H341.096V54.368H334.376V61.184H330.968V66.848H334.376V78.992C334.376 83.456 337.448 86.576 341.816 86.576C343.832 86.576 346.088 85.712 347.528 84.416L345.848 79.856ZM361.229 86.576C367.325 86.576 371.309 83.456 371.309 78.56C371.309 73.136 366.557 71.696 362.285 70.592C358.925 69.68 357.917 69.296 357.917 67.952C357.917 67.088 359.117 66.464 360.845 66.464C362.957 66.464 365.549 67.28 367.805 68.672L370.637 63.68C367.901 61.856 364.397 60.608 360.845 60.608C354.989 60.608 351.101 63.968 351.149 68.672C351.197 73.568 355.133 74.96 360.221 76.208C362.765 76.88 364.589 77.36 364.589 78.896C364.589 80 363.245 80.768 361.373 80.768C358.061 80.768 355.277 79.568 353.069 77.984L350.045 82.832C353.021 85.232 357.245 86.576 361.229 86.576ZM395.017 91.44L396.297 90.064C392.809 86.512 390.889 82.736 390.889 77.52C390.889 72.272 392.809 68.528 396.297 64.944L395.017 63.6C390.729 67.184 388.329 71.984 388.329 77.52C388.329 83.024 390.729 87.856 395.017 91.44ZM408.854 69.072C406.198 69.072 404.086 70.384 402.838 72.56V69.456H400.438V91.504H402.838V82.896C404.086 85.072 406.198 86.384 408.854 86.384C413.206 86.384 416.47 82.8 416.47 77.712C416.47 72.656 413.206 69.072 408.854 69.072ZM408.406 84.24C405.142 84.24 402.838 81.52 402.838 77.712C402.838 73.904 405.142 71.216 408.406 71.216C411.638 71.216 413.942 73.904 413.942 77.712C413.942 81.52 411.638 84.24 408.406 84.24ZM428.076 84.24C424.812 84.24 422.54 81.872 422.188 78.64H435.724C435.724 72.848 432.876 69.072 427.884 69.072C423.436 69.072 419.724 72.752 419.724 77.68C419.724 82.768 423.692 86.384 428.108 86.384C430.412 86.384 433.324 85.392 434.764 83.824L433.292 82.256C432.268 83.376 430.028 84.24 428.076 84.24ZM427.98 71.216C431.276 71.216 433.036 73.52 433.356 76.496H422.22C422.668 73.296 425.036 71.216 427.98 71.216ZM447.108 84.24C443.844 84.24 441.572 81.872 441.22 78.64H454.756C454.756 72.848 451.908 69.072 446.916 69.072C442.468 69.072 438.756 72.752 438.756 77.68C438.756 82.768 442.724 86.384 447.14 86.384C449.444 86.384 452.356 85.392 453.796 83.824L452.324 82.256C451.3 83.376 449.06 84.24 447.108 84.24ZM447.012 71.216C450.308 71.216 452.068 73.52 452.388 76.496H441.252C441.7 73.296 444.068 71.216 447.012 71.216ZM461.307 72.688V69.456H458.907V86H461.307V76.752C461.307 73.52 463.963 71.216 467.707 71.216V69.072C464.667 69.072 462.299 70.48 461.307 72.688ZM470.387 78.48H478.675V76.144H470.387V78.48ZM490.166 83.568C489.814 83.952 489.174 84.24 488.438 84.24C487.478 84.24 486.646 83.376 486.646 82.16V71.6H490.71V69.456H486.646V64.912H484.246V69.456H481.654V71.6H484.246V82.16C484.246 84.624 485.91 86.384 488.278 86.384C489.398 86.384 490.486 86 491.35 85.328L490.166 83.568ZM502.425 86.384C507.065 86.384 510.969 82.416 510.969 77.712C510.969 73.008 507.065 69.072 502.425 69.072C497.785 69.072 493.849 73.008 493.849 77.712C493.849 82.416 497.785 86.384 502.425 86.384ZM502.425 84.24C499.129 84.24 496.377 81.264 496.377 77.712C496.377 74.192 499.129 71.216 502.425 71.216C505.689 71.216 508.441 74.192 508.441 77.712C508.441 81.264 505.689 84.24 502.425 84.24ZM514.293 78.48H522.581V76.144H514.293V78.48ZM535.448 69.072C532.792 69.072 530.68 70.384 529.432 72.56V69.456H527.032V91.504H529.432V82.896C530.68 85.072 532.792 86.384 535.448 86.384C539.8 86.384 543.064 82.8 543.064 77.712C543.064 72.656 539.8 69.072 535.448 69.072ZM535 84.24C531.736 84.24 529.432 81.52 529.432 77.712C529.432 73.904 531.736 71.216 535 71.216C538.232 71.216 540.536 73.904 540.536 77.712C540.536 81.52 538.232 84.24 535 84.24ZM554.67 84.24C551.406 84.24 549.134 81.872 548.782 78.64H562.318C562.318 72.848 559.47 69.072 554.478 69.072C550.03 69.072 546.318 72.752 546.318 77.68C546.318 82.768 550.286 86.384 554.702 86.384C557.006 86.384 559.918 85.392 561.358 83.824L559.886 82.256C558.862 83.376 556.622 84.24 554.67 84.24ZM554.574 71.216C557.87 71.216 559.63 73.52 559.95 76.496H548.814C549.262 73.296 551.63 71.216 554.574 71.216ZM573.701 84.24C570.437 84.24 568.165 81.872 567.813 78.64H581.349C581.349 72.848 578.501 69.072 573.509 69.072C569.061 69.072 565.349 72.752 565.349 77.68C565.349 82.768 569.317 86.384 573.733 86.384C576.037 86.384 578.949 85.392 580.389 83.824L578.917 82.256C577.893 83.376 575.653 84.24 573.701 84.24ZM573.605 71.216C576.901 71.216 578.661 73.52 578.981 76.496H567.845C568.293 73.296 570.661 71.216 573.605 71.216ZM587.901 72.688V69.456H585.501V86H587.901V76.752C587.901 73.52 590.557 71.216 594.301 71.216V69.072C591.261 69.072 588.893 70.48 587.901 72.688ZM597.94 91.44C602.228 87.856 604.628 83.024 604.628 77.52C604.628 71.984 602.228 67.184 597.94 63.6L596.66 64.944C600.148 68.528 602.068 72.272 602.068 77.52C602.068 82.736 600.148 86.512 596.66 90.064L597.94 91.44Z" fill="white"/>
<path d="M12.681 32.44C19.081 32.44 22.361 28.88 22.361 24.52C22.361 19.68 18.601 17.8 13.361 16.56C8.68098 15.44 5.96098 14.44 5.96098 11.6C5.96098 9.08 8.44098 6.84 11.841 6.84C14.721 6.84 17.441 8.16 19.721 10.36L21.641 7.92C19.121 5.6 16.081 4 12.001 4C6.72098 4 2.80098 7.44 2.80098 11.84C2.80098 16.6 6.28098 18.32 11.801 19.6C16.601 20.72 19.201 21.88 19.201 24.8C19.201 27.28 17.041 29.6 12.801 29.6C8.96098 29.6 6.12098 27.96 3.80098 25.64L1.84098 28.08C4.60098 30.8 8.16098 32.44 12.681 32.44ZM36.8922 29.8C32.8122 29.8 29.9722 26.84 29.5322 22.8H46.4522C46.4522 15.56 42.8922 10.84 36.6522 10.84C31.0922 10.84 26.4522 15.44 26.4522 21.6C26.4522 27.96 31.4122 32.48 36.9322 32.48C39.8122 32.48 43.4522 31.24 45.2522 29.28L43.4122 27.32C42.1322 28.72 39.3322 29.8 36.8922 29.8ZM36.7722 13.52C40.8922 13.52 43.0922 16.4 43.4922 20.12H29.5722C30.1322 16.12 33.0922 13.52 36.7722 13.52ZM61.2013 10.84C58.2813 10.84 55.6013 12.44 54.4013 14.64V11.32H51.4013V32H54.4013V18.84C54.4013 15.96 57.3213 13.52 60.8013 13.52C63.8413 13.52 65.9613 15.88 65.9613 19.24V32H68.9613V18.84C68.9613 14.16 65.7613 10.84 61.2013 10.84ZM91.1932 4.04V15.2C89.6332 12.48 86.9932 10.84 83.6732 10.84C78.2332 10.84 74.1532 15.32 74.1532 21.64C74.1532 28 78.2332 32.48 83.6732 32.48C86.9932 32.48 89.6332 30.84 91.1932 28.12V32H94.1932V4.04H91.1932ZM84.2332 29.8C80.1932 29.8 77.3132 26.4 77.3132 21.64C77.3132 16.88 80.1932 13.52 84.2332 13.52C88.3132 13.52 91.1932 16.88 91.1932 21.64C91.1932 26.4 88.3132 29.8 84.2332 29.8ZM112.863 32H115.983V11.24L126.183 30.4L136.383 11.24V32H139.503V4.52H136.383L126.183 23.68L115.983 4.52H112.863V32ZM155.883 32.48C161.683 32.48 166.563 27.52 166.563 21.64C166.563 15.76 161.683 10.84 155.883 10.84C150.083 10.84 145.163 15.76 145.163 21.64C145.163 27.52 150.083 32.48 155.883 32.48ZM155.883 29.8C151.763 29.8 148.323 26.08 148.323 21.64C148.323 17.24 151.763 13.52 155.883 13.52C159.963 13.52 163.403 17.24 163.403 21.64C163.403 26.08 159.963 29.8 155.883 29.8ZM181.358 10.84C178.438 10.84 175.758 12.44 174.558 14.64V11.32H171.558V32H174.558V18.84C174.558 15.96 177.478 13.52 180.958 13.52C183.998 13.52 186.118 15.88 186.118 19.24V32H189.118V18.84C189.118 14.16 185.918 10.84 181.358 10.84ZM204.509 29.8C200.429 29.8 197.589 26.84 197.149 22.8H214.069C214.069 15.56 210.509 10.84 204.269 10.84C198.709 10.84 194.069 15.44 194.069 21.6C194.069 27.96 199.029 32.48 204.549 32.48C207.429 32.48 211.069 31.24 212.869 29.28L211.029 27.32C209.749 28.72 206.949 29.8 204.509 29.8ZM204.389 13.52C208.509 13.52 210.709 16.4 211.109 20.12H197.189C197.749 16.12 200.709 13.52 204.389 13.52ZM222.058 39.2C224.898 39.16 226.898 37.84 228.338 34.32L237.778 11.32H234.538L227.698 28.52L220.458 11.32H217.138L226.138 32.08L224.938 34.64C224.138 36.04 223.258 36.48 221.938 36.48C221.058 36.48 220.218 36.32 219.498 35.96L218.778 38.52C219.738 38.96 220.858 39.2 222.058 39.2ZM262.691 10.84C260.691 10.84 258.211 11.36 255.251 12.84L256.451 15.28C258.331 14.32 260.411 13.4 262.491 13.4C266.971 13.4 268.091 16.6 268.091 19.4V20.16C265.971 19.48 263.611 19 261.371 19C256.931 19 253.251 21.76 253.251 25.88C253.251 29.96 256.451 32.48 260.811 32.48C263.531 32.48 266.611 31.2 268.091 28.76V32H271.091V19.4C271.091 14.4 268.331 10.84 262.691 10.84ZM261.331 29.84C258.411 29.84 256.171 28.32 256.171 25.76C256.171 23.28 258.771 21.52 261.851 21.52C264.091 21.52 266.211 21.84 268.091 22.36V25.52C267.291 28.44 264.051 29.84 261.331 29.84ZM287.061 10.84C284.141 10.84 281.461 12.44 280.261 14.64V11.32H277.261V32H280.261V18.84C280.261 15.96 283.181 13.52 286.661 13.52C289.701 13.52 291.821 15.88 291.821 19.24V32H294.821V18.84C294.821 14.16 291.621 10.84 287.061 10.84ZM317.053 4.04V15.2C315.493 12.48 312.853 10.84 309.533 10.84C304.093 10.84 300.013 15.32 300.013 21.64C300.013 28 304.093 32.48 309.533 32.48C312.853 32.48 315.493 30.84 317.053 28.12V32H320.053V4.04H317.053ZM310.093 29.8C306.053 29.8 303.173 26.4 303.173 21.64C303.173 16.88 306.053 13.52 310.093 13.52C314.173 13.52 317.053 16.88 317.053 21.64C317.053 26.4 314.173 29.8 310.093 29.8Z" fill="white"/>
<line x1="0.000976562" y1="136.5" x2="32.001" y2="136.5" stroke="#E4E4E4"/>
<path d="M53.707 142.198C56.587 142.198 58.063 140.596 58.063 138.634C58.063 136.456 56.371 135.61 54.013 135.052C51.907 134.548 50.683 134.098 50.683 132.82C50.683 131.686 51.799 130.678 53.329 130.678C54.625 130.678 55.849 131.272 56.875 132.262L57.739 131.164C56.605 130.12 55.237 129.4 53.401 129.4C51.025 129.4 49.261 130.948 49.261 132.928C49.261 135.07 50.827 135.844 53.311 136.42C55.471 136.924 56.641 137.446 56.641 138.76C56.641 139.876 55.669 140.92 53.761 140.92C52.033 140.92 50.755 140.182 49.711 139.138L48.829 140.236C50.071 141.46 51.673 142.198 53.707 142.198ZM64.602 141.01C62.766 141.01 61.488 139.678 61.29 137.86H68.904C68.904 134.602 67.302 132.478 64.494 132.478C61.992 132.478 59.904 134.548 59.904 137.32C59.904 140.182 62.136 142.216 64.62 142.216C65.916 142.216 67.554 141.658 68.364 140.776L67.536 139.894C66.96 140.524 65.7 141.01 64.602 141.01ZM64.548 133.684C66.402 133.684 67.392 134.98 67.572 136.654H61.308C61.56 134.854 62.892 133.684 64.548 133.684ZM75.5411 132.478C74.2271 132.478 73.0211 133.198 72.4811 134.188V132.694H71.1311V142H72.4811V136.078C72.4811 134.782 73.7951 133.684 75.3611 133.684C76.7291 133.684 77.6831 134.746 77.6831 136.258V142H79.0331V136.078C79.0331 133.972 77.5931 132.478 75.5411 132.478ZM89.0375 129.418V134.44C88.3355 133.216 87.1475 132.478 85.6535 132.478C83.2055 132.478 81.3695 134.494 81.3695 137.338C81.3695 140.2 83.2055 142.216 85.6535 142.216C87.1475 142.216 88.3355 141.478 89.0375 140.254V142H90.3875V129.418H89.0375ZM85.9055 141.01C84.0875 141.01 82.7915 139.48 82.7915 137.338C82.7915 135.196 84.0875 133.684 85.9055 133.684C87.7415 133.684 89.0375 135.196 89.0375 137.338C89.0375 139.48 87.7415 141.01 85.9055 141.01ZM108.527 132.478C107.123 132.478 105.899 133.252 105.521 134.458C105.017 133.252 103.919 132.478 102.515 132.478C101.291 132.478 100.283 133.09 99.8147 134.062V132.694H98.4647V142H99.8147V136.078C99.8147 134.674 100.859 133.684 102.335 133.684C103.595 133.684 104.477 134.746 104.477 136.258V142H105.827V136.078C105.827 134.674 106.871 133.684 108.347 133.684C109.607 133.684 110.489 134.746 110.489 136.258V142H111.839V136.078C111.839 133.972 110.471 132.478 108.527 132.478ZM118.886 142.216C121.496 142.216 123.692 139.984 123.692 137.338C123.692 134.692 121.496 132.478 118.886 132.478C116.276 132.478 114.062 134.692 114.062 137.338C114.062 139.984 116.276 142.216 118.886 142.216ZM118.886 141.01C117.032 141.01 115.484 139.336 115.484 137.338C115.484 135.358 117.032 133.684 118.886 133.684C120.722 133.684 122.27 135.358 122.27 137.338C122.27 139.336 120.722 141.01 118.886 141.01ZM130.35 132.478C129.036 132.478 127.83 133.198 127.29 134.188V132.694H125.94V142H127.29V136.078C127.29 134.782 128.604 133.684 130.17 133.684C131.538 133.684 132.492 134.746 132.492 136.258V142H133.842V136.078C133.842 133.972 132.402 132.478 130.35 132.478ZM140.768 141.01C138.932 141.01 137.654 139.678 137.456 137.86H145.07C145.07 134.602 143.468 132.478 140.66 132.478C138.158 132.478 136.07 134.548 136.07 137.32C136.07 140.182 138.302 142.216 140.786 142.216C142.082 142.216 143.72 141.658 144.53 140.776L143.702 139.894C143.126 140.524 141.866 141.01 140.768 141.01ZM140.714 133.684C142.568 133.684 143.558 134.98 143.738 136.654H137.474C137.726 134.854 139.058 133.684 140.714 133.684ZM148.665 145.24C149.943 145.222 150.843 144.628 151.491 143.044L155.739 132.694H154.281L151.203 140.434L147.945 132.694H146.451L150.501 142.036L149.961 143.188C149.601 143.818 149.205 144.016 148.611 144.016C148.215 144.016 147.837 143.944 147.513 143.782L147.189 144.934C147.621 145.132 148.125 145.24 148.665 145.24ZM170.442 129.418V134.44C169.74 133.216 168.552 132.478 167.058 132.478C164.61 132.478 162.774 134.494 162.774 137.338C162.774 140.2 164.61 142.216 167.058 142.216C168.552 142.216 169.74 141.478 170.442 140.254V142H171.792V129.418H170.442ZM167.31 141.01C165.492 141.01 164.196 139.48 164.196 137.338C164.196 135.196 165.492 133.684 167.31 133.684C169.146 133.684 170.442 135.196 170.442 137.338C170.442 139.48 169.146 141.01 167.31 141.01ZM175.314 131.002C175.8 131.002 176.196 130.588 176.196 130.102C176.196 129.634 175.8 129.22 175.314 129.22C174.81 129.22 174.414 129.634 174.414 130.102C174.414 130.588 174.81 131.002 175.314 131.002ZM174.63 142H175.98V132.694H174.63V142ZM180.167 134.512V132.694H178.817V142H180.167V136.798C180.167 134.98 181.661 133.684 183.767 133.684V132.478C182.057 132.478 180.725 133.27 180.167 134.512ZM189.829 141.01C187.993 141.01 186.715 139.678 186.517 137.86H194.131C194.131 134.602 192.529 132.478 189.721 132.478C187.219 132.478 185.131 134.548 185.131 137.32C185.131 140.182 187.363 142.216 189.847 142.216C191.143 142.216 192.781 141.658 193.591 140.776L192.763 139.894C192.187 140.524 190.927 141.01 189.829 141.01ZM189.775 133.684C191.629 133.684 192.619 134.98 192.799 136.654H186.535C186.787 134.854 188.119 133.684 189.775 133.684ZM200.66 142.216C201.956 142.216 203.144 141.676 204.026 140.794L203.09 139.876C202.46 140.578 201.596 141.01 200.66 141.01C198.806 141.01 197.258 139.336 197.258 137.338C197.258 135.358 198.806 133.684 200.66 133.684C201.578 133.684 202.424 134.098 203.036 134.764L203.972 133.846C203.09 133 201.92 132.478 200.66 132.478C198.05 132.478 195.836 134.692 195.836 137.338C195.836 139.984 198.05 142.216 200.66 142.216ZM210.182 140.632C209.984 140.848 209.624 141.01 209.21 141.01C208.67 141.01 208.202 140.524 208.202 139.84V133.9H210.488V132.694H208.202V130.138H206.852V132.694H205.394V133.9H206.852V139.84C206.852 141.226 207.788 142.216 209.12 142.216C209.75 142.216 210.362 142 210.848 141.622L210.182 140.632ZM212.758 142H214.108V129.418H212.758V142ZM218.222 145.24C219.5 145.222 220.4 144.628 221.048 143.044L225.296 132.694H223.838L220.76 140.434L217.502 132.694H216.008L220.058 142.036L219.518 143.188C219.158 143.818 218.762 144.016 218.168 144.016C217.772 144.016 217.394 143.944 217.07 143.782L216.746 144.934C217.178 145.132 217.682 145.24 218.222 145.24ZM236.812 140.632C236.614 140.848 236.254 141.01 235.84 141.01C235.3 141.01 234.832 140.524 234.832 139.84V133.9H237.118V132.694H234.832V130.138H233.482V132.694H232.024V133.9H233.482V139.84C233.482 141.226 234.418 142.216 235.75 142.216C236.38 142.216 236.992 142 237.478 141.622L236.812 140.632ZM243.709 142.216C246.319 142.216 248.515 139.984 248.515 137.338C248.515 134.692 246.319 132.478 243.709 132.478C241.099 132.478 238.885 134.692 238.885 137.338C238.885 139.984 241.099 142.216 243.709 142.216ZM243.709 141.01C241.855 141.01 240.307 139.336 240.307 137.338C240.307 135.358 241.855 133.684 243.709 133.684C245.545 133.684 247.093 135.358 247.093 137.338C247.093 139.336 245.545 141.01 243.709 141.01ZM260.285 142.216C262.895 142.216 265.091 139.984 265.091 137.338C265.091 134.692 262.895 132.478 260.285 132.478C257.675 132.478 255.461 134.692 255.461 137.338C255.461 139.984 257.675 142.216 260.285 142.216ZM260.285 141.01C258.431 141.01 256.883 139.336 256.883 137.338C256.883 135.358 258.431 133.684 260.285 133.684C262.121 133.684 263.669 135.358 263.669 137.338C263.669 139.336 262.121 141.01 260.285 141.01ZM271.406 140.632C271.208 140.848 270.848 141.01 270.434 141.01C269.894 141.01 269.426 140.524 269.426 139.84V133.9H271.712V132.694H269.426V130.138H268.076V132.694H266.618V133.9H268.076V139.84C268.076 141.226 269.012 142.216 270.344 142.216C270.974 142.216 271.586 142 272.072 141.622L271.406 140.632ZM278.41 132.478C277.096 132.478 275.89 133.198 275.35 134.188V129.418H274V142H275.35V136.078C275.35 134.782 276.664 133.684 278.23 133.684C279.598 133.684 280.552 134.746 280.552 136.258V142H281.902V136.078C281.902 133.972 280.462 132.478 278.41 132.478ZM288.829 141.01C286.993 141.01 285.715 139.678 285.517 137.86H293.131C293.131 134.602 291.529 132.478 288.721 132.478C286.219 132.478 284.131 134.548 284.131 137.32C284.131 140.182 286.363 142.216 288.847 142.216C290.143 142.216 291.781 141.658 292.591 140.776L291.763 139.894C291.187 140.524 289.927 141.01 288.829 141.01ZM288.775 133.684C290.629 133.684 291.619 134.98 291.799 136.654H285.535C285.787 134.854 287.119 133.684 288.775 133.684ZM296.816 134.512V132.694H295.466V142H296.816V136.798C296.816 134.98 298.31 133.684 300.416 133.684V132.478C298.706 132.478 297.374 133.27 296.816 134.512ZM311.842 142.198C314.722 142.198 316.198 140.596 316.198 138.634C316.198 136.456 314.506 135.61 312.148 135.052C310.042 134.548 308.818 134.098 308.818 132.82C308.818 131.686 309.934 130.678 311.464 130.678C312.76 130.678 313.984 131.272 315.01 132.262L315.874 131.164C314.74 130.12 313.372 129.4 311.536 129.4C309.16 129.4 307.396 130.948 307.396 132.928C307.396 135.07 308.962 135.844 311.446 136.42C313.606 136.924 314.776 137.446 314.776 138.76C314.776 139.876 313.804 140.92 311.896 140.92C310.168 140.92 308.89 140.182 307.846 139.138L306.964 140.236C308.206 141.46 309.808 142.198 311.842 142.198ZM322.629 140.632C322.431 140.848 322.071 141.01 321.657 141.01C321.117 141.01 320.649 140.524 320.649 139.84V133.9H322.935V132.694H320.649V130.138H319.299V132.694H317.841V133.9H319.299V139.84C319.299 141.226 320.235 142.216 321.567 142.216C322.197 142.216 322.809 142 323.295 141.622L322.629 140.632ZM328.985 132.478C328.085 132.478 326.969 132.712 325.637 133.378L326.177 134.476C327.023 134.044 327.959 133.63 328.895 133.63C330.911 133.63 331.415 135.07 331.415 136.33V136.672C330.461 136.366 329.399 136.15 328.391 136.15C326.393 136.15 324.737 137.392 324.737 139.246C324.737 141.082 326.177 142.216 328.139 142.216C329.363 142.216 330.749 141.64 331.415 140.542V142H332.765V136.33C332.765 134.08 331.523 132.478 328.985 132.478ZM328.373 141.028C327.059 141.028 326.051 140.344 326.051 139.192C326.051 138.076 327.221 137.284 328.607 137.284C329.615 137.284 330.569 137.428 331.415 137.662V139.084C331.055 140.398 329.597 141.028 328.373 141.028ZM339.303 132.478C338.403 132.478 337.287 132.712 335.955 133.378L336.495 134.476C337.341 134.044 338.277 133.63 339.213 133.63C341.229 133.63 341.733 135.07 341.733 136.33V136.672C340.779 136.366 339.717 136.15 338.709 136.15C336.711 136.15 335.055 137.392 335.055 139.246C335.055 141.082 336.495 142.216 338.457 142.216C339.681 142.216 341.067 141.64 341.733 140.542V142H343.083V136.33C343.083 134.08 341.841 132.478 339.303 132.478ZM338.691 141.028C337.377 141.028 336.369 140.344 336.369 139.192C336.369 138.076 337.539 137.284 338.925 137.284C339.933 137.284 340.887 137.428 341.733 137.662V139.084C341.373 140.398 339.915 141.028 338.691 141.028ZM350.162 142.216C351.458 142.216 352.646 141.676 353.528 140.794L352.592 139.876C351.962 140.578 351.098 141.01 350.162 141.01C348.308 141.01 346.76 139.336 346.76 137.338C346.76 135.358 348.308 133.684 350.162 133.684C351.08 133.684 351.926 134.098 352.538 134.764L353.474 133.846C352.592 133 351.422 132.478 350.162 132.478C347.552 132.478 345.338 134.692 345.338 137.338C345.338 139.984 347.552 142.216 350.162 142.216ZM363.751 132.694H362.023L356.929 137.842V129.418H355.579V142H356.929V139.534L358.603 137.878L361.825 142H363.517L359.557 136.96L363.751 132.694ZM380.708 142H382.238L376.784 129.634H375.254L369.8 142H371.33L372.572 139.192H379.466L380.708 142ZM373.148 137.86L376.028 131.362L378.89 137.86H373.148ZM388.5 142.216C389.796 142.216 390.984 141.676 391.866 140.794L390.93 139.876C390.3 140.578 389.436 141.01 388.5 141.01C386.646 141.01 385.098 139.336 385.098 137.338C385.098 135.358 386.646 133.684 388.5 133.684C389.418 133.684 390.264 134.098 390.876 134.764L391.812 133.846C390.93 133 389.76 132.478 388.5 132.478C385.89 132.478 383.676 134.692 383.676 137.338C383.676 139.984 385.89 142.216 388.5 142.216ZM398.255 142.216C399.551 142.216 400.739 141.676 401.621 140.794L400.685 139.876C400.055 140.578 399.191 141.01 398.255 141.01C396.401 141.01 394.853 139.336 394.853 137.338C394.853 135.358 396.401 133.684 398.255 133.684C399.173 133.684 400.019 134.098 400.631 134.764L401.567 133.846C400.685 133 399.515 132.478 398.255 132.478C395.645 132.478 393.431 134.692 393.431 137.338C393.431 139.984 395.645 142.216 398.255 142.216ZM407.818 142.216C410.428 142.216 412.624 139.984 412.624 137.338C412.624 134.692 410.428 132.478 407.818 132.478C405.208 132.478 402.994 134.692 402.994 137.338C402.994 139.984 405.208 142.216 407.818 142.216ZM407.818 141.01C405.964 141.01 404.416 139.336 404.416 137.338C404.416 135.358 405.964 133.684 407.818 133.684C409.654 133.684 411.202 135.358 411.202 137.338C411.202 139.336 409.654 141.01 407.818 141.01ZM421.405 132.694V138.616C421.405 139.912 420.091 141.01 418.525 141.01C417.157 141.01 416.203 139.948 416.203 138.436V132.694H414.853V138.616C414.853 140.722 416.293 142.216 418.345 142.216C419.659 142.216 420.865 141.496 421.405 140.506V142H422.755V132.694H421.405ZM429.934 132.478C428.62 132.478 427.414 133.198 426.874 134.188V132.694H425.524V142H426.874V136.078C426.874 134.782 428.188 133.684 429.754 133.684C431.122 133.684 432.076 134.746 432.076 136.258V142H433.426V136.078C433.426 133.972 431.986 132.478 429.934 132.478ZM440.244 140.632C440.046 140.848 439.686 141.01 439.272 141.01C438.732 141.01 438.264 140.524 438.264 139.84V133.9H440.55V132.694H438.264V130.138H436.914V132.694H435.456V133.9H436.914V139.84C436.914 141.226 437.85 142.216 439.182 142.216C439.812 142.216 440.424 142 440.91 141.622L440.244 140.632ZM446.114 142.216C448.04 142.216 449.516 141.118 449.516 139.408C449.516 137.644 447.968 137.14 446.474 136.672C444.746 136.114 444.062 135.862 444.062 135.052C444.062 134.152 444.926 133.684 445.97 133.684C446.798 133.684 447.716 133.972 448.652 134.566L449.3 133.522C448.31 132.874 447.122 132.478 445.97 132.478C444.116 132.478 442.712 133.522 442.712 135.214C442.712 136.546 443.576 137.212 445.826 137.86C447.086 138.22 448.166 138.544 448.166 139.552C448.166 140.434 447.338 141.01 446.114 141.01C445.088 141.01 444.026 140.614 442.964 139.84L442.262 140.83C443.378 141.73 444.818 142.216 446.114 142.216ZM459.347 142H460.625L463.127 134.566L465.593 142H466.871L470.003 132.694H468.563L466.241 140.2L463.703 132.694H462.533L459.995 140.2L457.673 132.694H456.233L459.347 142ZM472.631 131.002C473.117 131.002 473.513 130.588 473.513 130.102C473.513 129.634 473.117 129.22 472.631 129.22C472.127 129.22 471.731 129.634 471.731 130.102C471.731 130.588 472.127 131.002 472.631 131.002ZM471.947 142H473.297V132.694H471.947V142ZM480.094 140.632C479.896 140.848 479.536 141.01 479.122 141.01C478.582 141.01 478.114 140.524 478.114 139.84V133.9H480.4V132.694H478.114V130.138H476.764V132.694H475.306V133.9H476.764V139.84C476.764 141.226 477.7 142.216 479.032 142.216C479.662 142.216 480.274 142 480.76 141.622L480.094 140.632ZM487.098 132.478C485.784 132.478 484.578 133.198 484.038 134.188V129.418H482.688V142H484.038V136.078C484.038 134.782 485.352 133.684 486.918 133.684C488.286 133.684 489.24 134.746 489.24 136.258V142H490.59V136.078C490.59 133.972 489.15 132.478 487.098 132.478ZM498.867 142H500.271V131.938L507.939 142H509.343V129.634H507.939V139.696L500.271 129.634H498.867V142ZM516.714 142.216C519.324 142.216 521.52 139.984 521.52 137.338C521.52 134.692 519.324 132.478 516.714 132.478C514.104 132.478 511.89 134.692 511.89 137.338C511.89 139.984 514.104 142.216 516.714 142.216ZM516.714 141.01C514.86 141.01 513.312 139.336 513.312 137.338C513.312 135.358 514.86 133.684 516.714 133.684C518.55 133.684 520.098 135.358 520.098 137.338C520.098 139.336 518.55 141.01 516.714 141.01ZM533.812 132.478C532.408 132.478 531.184 133.252 530.806 134.458C530.302 133.252 529.204 132.478 527.8 132.478C526.576 132.478 525.568 133.09 525.1 134.062V132.694H523.75V142H525.1V136.078C525.1 134.674 526.144 133.684 527.62 133.684C528.88 133.684 529.762 134.746 529.762 136.258V142H531.112V136.078C531.112 134.674 532.156 133.684 533.632 133.684C534.892 133.684 535.774 134.746 535.774 136.258V142H537.124V136.078C537.124 133.972 535.756 132.478 533.812 132.478ZM540.517 131.002C541.003 131.002 541.399 130.588 541.399 130.102C541.399 129.634 541.003 129.22 540.517 129.22C540.013 129.22 539.617 129.634 539.617 130.102C539.617 130.588 540.013 131.002 540.517 131.002ZM539.833 142H541.183V132.694H539.833V142ZM548.322 132.478C547.008 132.478 545.802 133.198 545.262 134.188V132.694H543.912V142H545.262V136.078C545.262 134.782 546.576 133.684 548.142 133.684C549.51 133.684 550.464 134.746 550.464 136.258V142H551.814V136.078C551.814 133.972 550.374 132.478 548.322 132.478ZM558.327 132.478C557.427 132.478 556.311 132.712 554.979 133.378L555.519 134.476C556.365 134.044 557.301 133.63 558.237 133.63C560.253 133.63 560.757 135.07 560.757 136.33V136.672C559.803 136.366 558.741 136.15 557.733 136.15C555.735 136.15 554.079 137.392 554.079 139.246C554.079 141.082 555.519 142.216 557.481 142.216C558.705 142.216 560.091 141.64 560.757 140.542V142H562.107V136.33C562.107 134.08 560.865 132.478 558.327 132.478ZM557.715 141.028C556.401 141.028 555.393 140.344 555.393 139.192C555.393 138.076 556.563 137.284 557.949 137.284C558.957 137.284 559.911 137.428 560.757 137.662V139.084C560.397 140.398 558.939 141.028 557.715 141.028ZM564.865 142H566.215V129.418H564.865V142ZM583.092 130.966V129.634H574.218V142H575.64V136.366H582.354V135.034H575.64V130.966H583.092ZM589.327 141.01C587.491 141.01 586.213 139.678 586.015 137.86H593.629C593.629 134.602 592.027 132.478 589.219 132.478C586.717 132.478 584.629 134.548 584.629 137.32C584.629 140.182 586.861 142.216 589.345 142.216C590.641 142.216 592.279 141.658 593.089 140.776L592.261 139.894C591.685 140.524 590.425 141.01 589.327 141.01ZM589.273 133.684C591.127 133.684 592.117 134.98 592.297 136.654H586.033C586.285 134.854 587.617 133.684 589.273 133.684ZM600.032 141.01C598.196 141.01 596.918 139.678 596.72 137.86H604.334C604.334 134.602 602.732 132.478 599.924 132.478C597.422 132.478 595.334 134.548 595.334 137.32C595.334 140.182 597.566 142.216 600.05 142.216C601.346 142.216 602.984 141.658 603.794 140.776L602.966 139.894C602.39 140.524 601.13 141.01 600.032 141.01ZM599.978 133.684C601.832 133.684 602.822 134.98 603.002 136.654H596.738C596.99 134.854 598.322 133.684 599.978 133.684ZM609.837 142.216C611.763 142.216 613.239 141.118 613.239 139.408C613.239 137.644 611.691 137.14 610.197 136.672C608.469 136.114 607.785 135.862 607.785 135.052C607.785 134.152 608.649 133.684 609.693 133.684C610.521 133.684 611.439 133.972 612.375 134.566L613.023 133.522C612.033 132.874 610.845 132.478 609.693 132.478C607.839 132.478 606.435 133.522 606.435 135.214C606.435 136.546 607.299 137.212 609.549 137.86C610.809 138.22 611.889 138.544 611.889 139.552C611.889 140.434 611.061 141.01 609.837 141.01C608.811 141.01 607.749 140.614 606.687 139.84L605.985 140.83C607.101 141.73 608.541 142.216 609.837 142.216Z" fill="#E4E4E4"/>
<line x1="0.000976562" y1="170.5" x2="32.001" y2="170.5" stroke="#E4E4E4"/>
<path d="M53.707 176.198C56.587 176.198 58.063 174.596 58.063 172.634C58.063 170.456 56.371 169.61 54.013 169.052C51.907 168.548 50.683 168.098 50.683 166.82C50.683 165.686 51.799 164.678 53.329 164.678C54.625 164.678 55.849 165.272 56.875 166.262L57.739 165.164C56.605 164.12 55.237 163.4 53.401 163.4C51.025 163.4 49.261 164.948 49.261 166.928C49.261 169.07 50.827 169.844 53.311 170.42C55.471 170.924 56.641 171.446 56.641 172.76C56.641 173.876 55.669 174.92 53.761 174.92C52.033 174.92 50.755 174.182 49.711 173.138L48.829 174.236C50.071 175.46 51.673 176.198 53.707 176.198ZM64.602 175.01C62.766 175.01 61.488 173.678 61.29 171.86H68.904C68.904 168.602 67.302 166.478 64.494 166.478C61.992 166.478 59.904 168.548 59.904 171.32C59.904 174.182 62.136 176.216 64.62 176.216C65.916 176.216 67.554 175.658 68.364 174.776L67.536 173.894C66.96 174.524 65.7 175.01 64.602 175.01ZM64.548 167.684C66.402 167.684 67.392 168.98 67.572 170.654H61.308C61.56 168.854 62.892 167.684 64.548 167.684ZM75.5411 166.478C74.2271 166.478 73.0211 167.198 72.4811 168.188V166.694H71.1311V176H72.4811V170.078C72.4811 168.782 73.7951 167.684 75.3611 167.684C76.7291 167.684 77.6831 168.746 77.6831 170.258V176H79.0331V170.078C79.0331 167.972 77.5931 166.478 75.5411 166.478ZM89.0375 163.418V168.44C88.3355 167.216 87.1475 166.478 85.6535 166.478C83.2055 166.478 81.3695 168.494 81.3695 171.338C81.3695 174.2 83.2055 176.216 85.6535 176.216C87.1475 176.216 88.3355 175.478 89.0375 174.254V176H90.3875V163.418H89.0375ZM85.9055 175.01C84.0875 175.01 82.7915 173.48 82.7915 171.338C82.7915 169.196 84.0875 167.684 85.9055 167.684C87.7415 167.684 89.0375 169.196 89.0375 171.338C89.0375 173.48 87.7415 175.01 85.9055 175.01ZM102.785 176.216C105.395 176.216 107.591 173.984 107.591 171.338C107.591 168.692 105.395 166.478 102.785 166.478C100.175 166.478 97.9607 168.692 97.9607 171.338C97.9607 173.984 100.175 176.216 102.785 176.216ZM102.785 175.01C100.931 175.01 99.3827 173.336 99.3827 171.338C99.3827 169.358 100.931 167.684 102.785 167.684C104.621 167.684 106.169 169.358 106.169 171.338C106.169 173.336 104.621 175.01 102.785 175.01ZM111.296 168.512V166.694H109.946V176H111.296V170.798C111.296 168.98 112.79 167.684 114.896 167.684V166.478C113.186 166.478 111.854 167.27 111.296 168.512ZM123.46 168.512V166.694H122.11V176H123.46V170.798C123.46 168.98 124.954 167.684 127.06 167.684V166.478C125.35 166.478 124.018 167.27 123.46 168.512ZM133.122 175.01C131.286 175.01 130.008 173.678 129.81 171.86H137.424C137.424 168.602 135.822 166.478 133.014 166.478C130.512 166.478 128.424 168.548 128.424 171.32C128.424 174.182 130.656 176.216 133.14 176.216C134.436 176.216 136.074 175.658 136.884 174.776L136.056 173.894C135.48 174.524 134.22 175.01 133.122 175.01ZM133.068 167.684C134.922 167.684 135.912 168.98 136.092 170.654H129.828C130.08 168.854 131.412 167.684 133.068 167.684ZM143.953 176.216C145.249 176.216 146.437 175.676 147.319 174.794L146.383 173.876C145.753 174.578 144.889 175.01 143.953 175.01C142.099 175.01 140.551 173.336 140.551 171.338C140.551 169.358 142.099 167.684 143.953 167.684C144.871 167.684 145.717 168.098 146.329 168.764L147.265 167.846C146.383 167 145.213 166.478 143.953 166.478C141.343 166.478 139.129 168.692 139.129 171.338C139.129 173.984 141.343 176.216 143.953 176.216ZM153.583 175.01C151.747 175.01 150.469 173.678 150.271 171.86H157.885C157.885 168.602 156.283 166.478 153.475 166.478C150.973 166.478 148.885 168.548 148.885 171.32C148.885 174.182 151.117 176.216 153.601 176.216C154.897 176.216 156.535 175.658 157.345 174.776L156.517 173.894C155.941 174.524 154.681 175.01 153.583 175.01ZM153.529 167.684C155.383 167.684 156.373 168.98 156.553 170.654H150.289C150.541 168.854 151.873 167.684 153.529 167.684ZM160.76 165.002C161.246 165.002 161.642 164.588 161.642 164.102C161.642 163.634 161.246 163.22 160.76 163.22C160.256 163.22 159.86 163.634 159.86 164.102C159.86 164.588 160.256 165.002 160.76 165.002ZM160.076 176H161.426V166.694H160.076V176ZM167.215 176H168.511L172.417 166.694H170.905L167.863 174.416L164.767 166.694H163.255L167.215 176ZM177.84 175.01C176.004 175.01 174.726 173.678 174.528 171.86H182.142C182.142 168.602 180.54 166.478 177.732 166.478C175.23 166.478 173.142 168.548 173.142 171.32C173.142 174.182 175.374 176.216 177.858 176.216C179.154 176.216 180.792 175.658 181.602 174.776L180.774 173.894C180.198 174.524 178.938 175.01 177.84 175.01ZM177.786 167.684C179.64 167.684 180.63 168.98 180.81 170.654H174.546C174.798 168.854 176.13 167.684 177.786 167.684ZM194.432 166.478C192.938 166.478 191.75 167.216 191.048 168.44V166.694H189.698V179.096H191.048V174.254C191.75 175.478 192.938 176.216 194.432 176.216C196.88 176.216 198.716 174.2 198.716 171.338C198.716 168.494 196.88 166.478 194.432 166.478ZM194.18 175.01C192.344 175.01 191.048 173.48 191.048 171.338C191.048 169.196 192.344 167.684 194.18 167.684C195.998 167.684 197.294 169.196 197.294 171.338C197.294 173.48 195.998 175.01 194.18 175.01ZM204.831 166.478C203.931 166.478 202.815 166.712 201.483 167.378L202.023 168.476C202.869 168.044 203.805 167.63 204.741 167.63C206.757 167.63 207.261 169.07 207.261 170.33V170.672C206.307 170.366 205.245 170.15 204.237 170.15C202.239 170.15 200.583 171.392 200.583 173.246C200.583 175.082 202.023 176.216 203.985 176.216C205.209 176.216 206.595 175.64 207.261 174.542V176H208.611V170.33C208.611 168.08 207.369 166.478 204.831 166.478ZM204.219 175.028C202.905 175.028 201.897 174.344 201.897 173.192C201.897 172.076 203.067 171.284 204.453 171.284C205.461 171.284 206.415 171.428 207.261 171.662V173.084C206.901 174.398 205.443 175.028 204.219 175.028ZM212.755 179.24C214.033 179.222 214.933 178.628 215.581 177.044L219.829 166.694H218.371L215.293 174.434L212.035 166.694H210.541L214.591 176.036L214.051 177.188C213.691 177.818 213.295 178.016 212.701 178.016C212.305 178.016 211.927 177.944 211.603 177.782L211.279 178.934C211.711 179.132 212.215 179.24 212.755 179.24ZM232.101 166.478C230.697 166.478 229.473 167.252 229.095 168.458C228.591 167.252 227.493 166.478 226.089 166.478C224.865 166.478 223.857 167.09 223.389 168.062V166.694H222.039V176H223.389V170.078C223.389 168.674 224.433 167.684 225.909 167.684C227.169 167.684 228.051 168.746 228.051 170.258V176H229.401V170.078C229.401 168.674 230.445 167.684 231.921 167.684C233.181 167.684 234.063 168.746 234.063 170.258V176H235.413V170.078C235.413 167.972 234.045 166.478 232.101 166.478ZM242.334 175.01C240.498 175.01 239.22 173.678 239.022 171.86H246.636C246.636 168.602 245.034 166.478 242.226 166.478C239.724 166.478 237.636 168.548 237.636 171.32C237.636 174.182 239.868 176.216 242.352 176.216C243.648 176.216 245.286 175.658 246.096 174.776L245.268 173.894C244.692 174.524 243.432 175.01 242.334 175.01ZM242.28 167.684C244.134 167.684 245.124 168.98 245.304 170.654H239.04C239.292 168.854 240.624 167.684 242.28 167.684ZM253.274 166.478C251.96 166.478 250.754 167.198 250.214 168.188V166.694H248.864V176H250.214V170.078C250.214 168.782 251.528 167.684 253.094 167.684C254.462 167.684 255.416 168.746 255.416 170.258V176H256.766V170.078C256.766 167.972 255.326 166.478 253.274 166.478ZM263.584 174.632C263.386 174.848 263.026 175.01 262.612 175.01C262.072 175.01 261.604 174.524 261.604 173.84V167.9H263.89V166.694H261.604V164.138H260.254V166.694H258.796V167.9H260.254V173.84C260.254 175.226 261.19 176.216 262.522 176.216C263.152 176.216 263.764 176 264.25 175.622L263.584 174.632ZM269.454 176.216C271.38 176.216 272.856 175.118 272.856 173.408C272.856 171.644 271.308 171.14 269.814 170.672C268.086 170.114 267.402 169.862 267.402 169.052C267.402 168.152 268.266 167.684 269.31 167.684C270.138 167.684 271.056 167.972 271.992 168.566L272.64 167.522C271.65 166.874 270.462 166.478 269.31 166.478C267.456 166.478 266.052 167.522 266.052 169.214C266.052 170.546 266.916 171.212 269.166 171.86C270.426 172.22 271.506 172.544 271.506 173.552C271.506 174.434 270.678 175.01 269.454 175.01C268.428 175.01 267.366 174.614 266.304 173.84L265.602 174.83C266.718 175.73 268.158 176.216 269.454 176.216ZM280.976 165.002C281.462 165.002 281.858 164.588 281.858 164.102C281.858 163.634 281.462 163.22 280.976 163.22C280.472 163.22 280.076 163.634 280.076 164.102C280.076 164.588 280.472 165.002 280.976 165.002ZM280.292 176H281.642V166.694H280.292V176ZM288.781 166.478C287.467 166.478 286.261 167.198 285.721 168.188V166.694H284.371V176H285.721V170.078C285.721 168.782 287.035 167.684 288.601 167.684C289.969 167.684 290.923 168.746 290.923 170.258V176H292.273V170.078C292.273 167.972 290.833 166.478 288.781 166.478ZM298.3 176.216C300.226 176.216 301.702 175.118 301.702 173.408C301.702 171.644 300.154 171.14 298.66 170.672C296.932 170.114 296.248 169.862 296.248 169.052C296.248 168.152 297.112 167.684 298.156 167.684C298.984 167.684 299.902 167.972 300.838 168.566L301.486 167.522C300.496 166.874 299.308 166.478 298.156 166.478C296.302 166.478 294.898 167.522 294.898 169.214C294.898 170.546 295.762 171.212 298.012 171.86C299.272 172.22 300.352 172.544 300.352 173.552C300.352 174.434 299.524 175.01 298.3 175.01C297.274 175.01 296.212 174.614 295.15 173.84L294.448 174.83C295.564 175.73 297.004 176.216 298.3 176.216ZM308.021 174.632C307.823 174.848 307.463 175.01 307.049 175.01C306.509 175.01 306.041 174.524 306.041 173.84V167.9H308.327V166.694H306.041V164.138H304.691V166.694H303.233V167.9H304.691V173.84C304.691 175.226 305.627 176.216 306.959 176.216C307.589 176.216 308.201 176 308.687 175.622L308.021 174.632ZM314.377 166.478C313.477 166.478 312.361 166.712 311.029 167.378L311.569 168.476C312.415 168.044 313.351 167.63 314.287 167.63C316.303 167.63 316.807 169.07 316.807 170.33V170.672C315.853 170.366 314.791 170.15 313.783 170.15C311.785 170.15 310.129 171.392 310.129 173.246C310.129 175.082 311.569 176.216 313.531 176.216C314.755 176.216 316.141 175.64 316.807 174.542V176H318.157V170.33C318.157 168.08 316.915 166.478 314.377 166.478ZM313.765 175.028C312.451 175.028 311.443 174.344 311.443 173.192C311.443 172.076 312.613 171.284 313.999 171.284C315.007 171.284 315.961 171.428 316.807 171.662V173.084C316.447 174.398 314.989 175.028 313.765 175.028ZM325.344 166.478C324.03 166.478 322.824 167.198 322.284 168.188V166.694H320.934V176H322.284V170.078C322.284 168.782 323.598 167.684 325.164 167.684C326.532 167.684 327.486 168.746 327.486 170.258V176H328.836V170.078C328.836 167.972 327.396 166.478 325.344 166.478ZM335.654 174.632C335.456 174.848 335.096 175.01 334.682 175.01C334.142 175.01 333.674 174.524 333.674 173.84V167.9H335.96V166.694H333.674V164.138H332.324V166.694H330.866V167.9H332.324V173.84C332.324 175.226 333.26 176.216 334.592 176.216C335.222 176.216 335.834 176 336.32 175.622L335.654 174.632ZM338.23 176H339.58V163.418H338.23V176ZM343.694 179.24C344.972 179.222 345.872 178.628 346.52 177.044L350.768 166.694H349.31L346.232 174.434L342.974 166.694H341.48L345.53 176.036L344.99 177.188C344.63 177.818 344.234 178.016 343.64 178.016C343.244 178.016 342.866 177.944 342.542 177.782L342.218 178.934C342.65 179.132 343.154 179.24 343.694 179.24ZM358.865 165.002C359.351 165.002 359.747 164.588 359.747 164.102C359.747 163.634 359.351 163.22 358.865 163.22C358.361 163.22 357.965 163.634 357.965 164.102C357.965 164.588 358.361 165.002 358.865 165.002ZM358.181 176H359.531V166.694H358.181V176ZM366.67 166.478C365.356 166.478 364.15 167.198 363.61 168.188V166.694H362.26V176H363.61V170.078C363.61 168.782 364.924 167.684 366.49 167.684C367.858 167.684 368.812 168.746 368.812 170.258V176H370.162V170.078C370.162 167.972 368.722 166.478 366.67 166.478ZM387.043 164.966V163.634H378.169V176H379.591V170.366H386.305V169.034H379.591V164.966H387.043ZM389.138 176H390.542V163.634H389.138V176ZM403.454 176H404.984L399.53 163.634H398L392.546 176H394.076L395.318 173.192H402.212L403.454 176ZM395.894 171.86L398.774 165.362L401.636 171.86H395.894ZM409.418 176H410.822V164.966H414.98V163.634H405.26V164.966H409.418V176ZM426.697 176.216C429.307 176.216 431.503 173.984 431.503 171.338C431.503 168.692 429.307 166.478 426.697 166.478C424.087 166.478 421.873 168.692 421.873 171.338C421.873 173.984 424.087 176.216 426.697 176.216ZM426.697 175.01C424.843 175.01 423.295 173.336 423.295 171.338C423.295 169.358 424.843 167.684 426.697 167.684C428.533 167.684 430.081 169.358 430.081 171.338C430.081 173.336 428.533 175.01 426.697 175.01ZM435.208 168.512V166.694H433.858V176H435.208V170.798C435.208 168.98 436.702 167.684 438.808 167.684V166.478C437.098 166.478 435.766 167.27 435.208 168.512ZM451.8 176.216C453.51 176.216 455.094 175.478 456.246 174.326L455.292 173.354C454.392 174.308 453.15 174.92 451.8 174.92C449.136 174.92 446.886 172.58 446.886 169.808C446.886 167.054 449.136 164.714 451.8 164.714C453.15 164.714 454.392 165.326 455.292 166.28L456.246 165.308C455.094 164.138 453.51 163.418 451.8 163.418C448.38 163.418 445.464 166.334 445.464 169.808C445.464 173.282 448.38 176.216 451.8 176.216ZM459.607 168.512V166.694H458.257V176H459.607V170.798C459.607 168.98 461.101 167.684 463.207 167.684V166.478C461.497 166.478 460.165 167.27 459.607 168.512ZM466.46 179.24C467.738 179.222 468.638 178.628 469.286 177.044L473.534 166.694H472.076L468.998 174.434L465.74 166.694H464.246L468.296 176.036L467.756 177.188C467.396 177.818 467 178.016 466.406 178.016C466.01 178.016 465.632 177.944 465.308 177.782L464.984 178.934C465.416 179.132 465.92 179.24 466.46 179.24ZM480.604 166.478C479.11 166.478 477.922 167.216 477.22 168.44V166.694H475.87V179.096H477.22V174.254C477.922 175.478 479.11 176.216 480.604 176.216C483.052 176.216 484.888 174.2 484.888 171.338C484.888 168.494 483.052 166.478 480.604 166.478ZM480.352 175.01C478.516 175.01 477.22 173.48 477.22 171.338C477.22 169.196 478.516 167.684 480.352 167.684C482.17 167.684 483.466 169.196 483.466 171.338C483.466 173.48 482.17 175.01 480.352 175.01ZM491.308 174.632C491.11 174.848 490.75 175.01 490.336 175.01C489.796 175.01 489.328 174.524 489.328 173.84V167.9H491.614V166.694H489.328V164.138H487.978V166.694H486.52V167.9H487.978V173.84C487.978 175.226 488.914 176.216 490.246 176.216C490.876 176.216 491.488 176 491.974 175.622L491.308 174.632ZM498.205 176.216C500.815 176.216 503.011 173.984 503.011 171.338C503.011 168.692 500.815 166.478 498.205 166.478C495.595 166.478 493.381 168.692 493.381 171.338C493.381 173.984 495.595 176.216 498.205 176.216ZM498.205 175.01C496.351 175.01 494.803 173.336 494.803 171.338C494.803 169.358 496.351 167.684 498.205 167.684C500.041 167.684 501.589 169.358 501.589 171.338C501.589 173.336 500.041 175.01 498.205 175.01Z" fill="#E4E4E4"/>
<line x1="0.000976562" y1="204.5" x2="32.001" y2="204.5" stroke="#E4E4E4"/>
<path d="M49.423 210H50.827V205.554H54.445C57.001 205.554 58.999 203.916 58.999 201.594C58.999 199.272 57.001 197.634 54.445 197.634H49.423V210ZM50.827 204.222V198.966H54.193C56.209 198.966 57.577 199.938 57.577 201.594C57.577 203.25 56.209 204.222 54.193 204.222H50.827ZM65.273 210.216C67.883 210.216 70.079 207.984 70.079 205.338C70.079 202.692 67.883 200.478 65.273 200.478C62.663 200.478 60.449 202.692 60.449 205.338C60.449 207.984 62.663 210.216 65.273 210.216ZM65.273 209.01C63.419 209.01 61.871 207.336 61.871 205.338C61.871 203.358 63.419 201.684 65.273 201.684C67.109 201.684 68.657 203.358 68.657 205.338C68.657 207.336 67.109 209.01 65.273 209.01ZM72.9744 199.002C73.4604 199.002 73.8564 198.588 73.8564 198.102C73.8564 197.634 73.4604 197.22 72.9744 197.22C72.4704 197.22 72.0744 197.634 72.0744 198.102C72.0744 198.588 72.4704 199.002 72.9744 199.002ZM72.2904 210H73.6404V200.694H72.2904V210ZM80.7794 200.478C79.4654 200.478 78.2594 201.198 77.7194 202.188V200.694H76.3694V210H77.7194V204.078C77.7194 202.782 79.0334 201.684 80.5994 201.684C81.9674 201.684 82.9214 202.746 82.9214 204.258V210H84.2714V204.078C84.2714 201.972 82.8314 200.478 80.7794 200.478ZM91.0897 208.632C90.8917 208.848 90.5317 209.01 90.1177 209.01C89.5777 209.01 89.1097 208.524 89.1097 207.84V201.9H91.3957V200.694H89.1097V198.138H87.7597V200.694H86.3017V201.9H87.7597V207.84C87.7597 209.226 88.6957 210.216 90.0277 210.216C90.6577 210.216 91.2697 210 91.7557 209.622L91.0897 208.632ZM93.3059 205.77H97.9679V204.456H93.3059V205.77ZM104.666 210.216C107.276 210.216 109.472 207.984 109.472 205.338C109.472 202.692 107.276 200.478 104.666 200.478C102.056 200.478 99.8415 202.692 99.8415 205.338C99.8415 207.984 102.056 210.216 104.666 210.216ZM104.666 209.01C102.812 209.01 101.264 207.336 101.264 205.338C101.264 203.358 102.812 201.684 104.666 201.684C106.502 201.684 108.05 203.358 108.05 205.338C108.05 207.336 106.502 209.01 104.666 209.01ZM113.807 199.416C113.807 198.732 114.275 198.246 114.815 198.246C115.229 198.246 115.589 198.408 115.787 198.624L116.453 197.634C115.967 197.256 115.355 197.04 114.725 197.04C113.393 197.04 112.457 198.03 112.457 199.416V200.694H110.999V201.9H112.457V210H113.807V201.9H116.093V200.694H113.807V199.416ZM117.652 205.77H122.314V204.456H117.652V205.77ZM125.015 210H130.901C133.043 210 134.573 208.596 134.573 206.616C134.573 205.266 133.745 204.15 132.323 203.43C133.439 202.782 134.087 202.026 134.087 200.712C134.087 198.912 132.683 197.634 130.685 197.634H125.015V210ZM126.419 202.872V198.912H130.325C131.693 198.912 132.665 199.74 132.665 200.892C132.665 202.044 131.693 202.872 130.325 202.872H126.419ZM126.419 208.722V204.15H130.541C132.071 204.15 133.151 205.104 133.151 206.436C133.151 207.768 132.071 208.722 130.541 208.722H126.419ZM140.741 200.478C139.841 200.478 138.725 200.712 137.393 201.378L137.933 202.476C138.779 202.044 139.715 201.63 140.651 201.63C142.667 201.63 143.171 203.07 143.171 204.33V204.672C142.217 204.366 141.155 204.15 140.147 204.15C138.149 204.15 136.493 205.392 136.493 207.246C136.493 209.082 137.933 210.216 139.895 210.216C141.119 210.216 142.505 209.64 143.171 208.542V210H144.521V204.33C144.521 202.08 143.279 200.478 140.741 200.478ZM140.129 209.028C138.815 209.028 137.807 208.344 137.807 207.192C137.807 206.076 138.977 205.284 140.363 205.284C141.371 205.284 142.325 205.428 143.171 205.662V207.084C142.811 208.398 141.353 209.028 140.129 209.028ZM151.707 200.478C150.393 200.478 149.187 201.198 148.647 202.188V200.694H147.297V210H148.647V204.078C148.647 202.782 149.961 201.684 151.527 201.684C152.895 201.684 153.849 202.746 153.849 204.258V210H155.199V204.078C155.199 201.972 153.759 200.478 151.707 200.478ZM166.085 200.694H164.357L159.263 205.842V197.418H157.913V210H159.263V207.534L160.937 205.878L164.159 210H165.851L161.891 204.96L166.085 200.694ZM168.371 199.002C168.857 199.002 169.253 198.588 169.253 198.102C169.253 197.634 168.857 197.22 168.371 197.22C167.867 197.22 167.471 197.634 167.471 198.102C167.471 198.588 167.867 199.002 168.371 199.002ZM167.687 210H169.037V200.694H167.687V210ZM176.176 200.478C174.862 200.478 173.656 201.198 173.116 202.188V200.694H171.766V210H173.116V204.078C173.116 202.782 174.43 201.684 175.996 201.684C177.364 201.684 178.318 202.746 178.318 204.258V210H179.668V204.078C179.668 201.972 178.228 200.478 176.176 200.478ZM189.636 200.694V202.296C188.916 201.162 187.728 200.478 186.252 200.478C183.75 200.478 181.968 202.296 181.968 204.888C181.968 207.48 183.75 209.316 186.252 209.316C187.728 209.316 188.916 208.632 189.636 207.498V209.01C189.636 210.828 188.376 211.89 186.234 211.89C185.082 211.89 183.966 211.476 183.246 210.792L182.652 211.854C183.498 212.574 184.902 213.096 186.414 213.096C189.096 213.096 190.986 211.404 190.986 209.01V200.694H189.636ZM186.504 208.11C184.686 208.11 183.39 206.778 183.39 204.888C183.39 203.016 184.686 201.684 186.504 201.684C188.34 201.684 189.636 203.016 189.636 204.888C189.636 206.778 188.34 208.11 186.504 208.11ZM209 209.532L206.948 207.444C207.578 206.544 208.136 205.464 208.658 204.312L207.488 203.79C207.11 204.816 206.624 205.752 206.084 206.562C204.968 205.392 204.104 204.456 203.258 203.466C205.022 202.764 206.282 201.99 206.282 200.352C206.282 198.804 205.022 197.49 203.366 197.49C201.512 197.49 200.216 198.768 200.216 200.388C200.216 201.306 200.558 202.134 201.26 203.106C199.352 203.952 198.434 205.122 198.434 206.724C198.434 208.884 200.126 210.216 202.322 210.216C203.852 210.216 205.076 209.55 206.102 208.488L207.722 210.126L209 209.532ZM203.366 198.696C204.284 198.696 204.932 199.434 204.932 200.388C204.932 201.414 204.194 201.954 202.538 202.602C201.872 201.756 201.566 201.036 201.566 200.388C201.566 199.326 202.34 198.696 203.366 198.696ZM202.376 209.01C200.972 209.01 199.784 208.146 199.784 206.688C199.784 205.536 200.612 204.636 201.962 204.006C202.826 205.05 203.762 206.076 205.238 207.606C204.41 208.488 203.456 209.01 202.376 209.01ZM216.398 210H217.802V205.554H221.42C223.976 205.554 225.974 203.916 225.974 201.594C225.974 199.272 223.976 197.634 221.42 197.634H216.398V210ZM217.802 204.222V198.966H221.168C223.184 198.966 224.552 199.938 224.552 201.594C224.552 203.25 223.184 204.222 221.168 204.222H217.802ZM231.708 200.478C230.808 200.478 229.692 200.712 228.36 201.378L228.9 202.476C229.746 202.044 230.682 201.63 231.618 201.63C233.634 201.63 234.138 203.07 234.138 204.33V204.672C233.184 204.366 232.122 204.15 231.114 204.15C229.116 204.15 227.46 205.392 227.46 207.246C227.46 209.082 228.9 210.216 230.862 210.216C232.086 210.216 233.472 209.64 234.138 208.542V210H235.488V204.33C235.488 202.08 234.246 200.478 231.708 200.478ZM231.096 209.028C229.782 209.028 228.774 208.344 228.774 207.192C228.774 206.076 229.944 205.284 231.33 205.284C232.338 205.284 233.292 205.428 234.138 205.662V207.084C233.778 208.398 232.32 209.028 231.096 209.028ZM239.632 213.24C240.91 213.222 241.81 212.628 242.458 211.044L246.706 200.694H245.248L242.17 208.434L238.912 200.694H237.418L241.468 210.036L240.928 211.188C240.568 211.818 240.172 212.016 239.578 212.016C239.182 212.016 238.804 211.944 238.48 211.782L238.156 212.934C238.588 213.132 239.092 213.24 239.632 213.24ZM258.978 200.478C257.574 200.478 256.35 201.252 255.972 202.458C255.468 201.252 254.37 200.478 252.966 200.478C251.742 200.478 250.734 201.09 250.266 202.062V200.694H248.916V210H250.266V204.078C250.266 202.674 251.31 201.684 252.786 201.684C254.046 201.684 254.928 202.746 254.928 204.258V210H256.278V204.078C256.278 202.674 257.322 201.684 258.798 201.684C260.058 201.684 260.94 202.746 260.94 204.258V210H262.29V204.078C262.29 201.972 260.922 200.478 258.978 200.478ZM269.211 209.01C267.375 209.01 266.097 207.678 265.899 205.86H273.513C273.513 202.602 271.911 200.478 269.103 200.478C266.601 200.478 264.513 202.548 264.513 205.32C264.513 208.182 266.745 210.216 269.229 210.216C270.525 210.216 272.163 209.658 272.973 208.776L272.145 207.894C271.569 208.524 270.309 209.01 269.211 209.01ZM269.157 201.684C271.011 201.684 272.001 202.98 272.181 204.654H265.917C266.169 202.854 267.501 201.684 269.157 201.684ZM280.15 200.478C278.836 200.478 277.63 201.198 277.09 202.188V200.694H275.74V210H277.09V204.078C277.09 202.782 278.404 201.684 279.97 201.684C281.338 201.684 282.292 202.746 282.292 204.258V210H283.642V204.078C283.642 201.972 282.202 200.478 280.15 200.478ZM290.461 208.632C290.263 208.848 289.903 209.01 289.489 209.01C288.949 209.01 288.481 208.524 288.481 207.84V201.9H290.767V200.694H288.481V198.138H287.131V200.694H285.673V201.9H287.131V207.84C287.131 209.226 288.067 210.216 289.399 210.216C290.029 210.216 290.641 210 291.127 209.622L290.461 208.632ZM298.312 210H299.716V205.554H303.334C305.89 205.554 307.888 203.916 307.888 201.594C307.888 199.272 305.89 197.634 303.334 197.634H298.312V210ZM299.716 204.222V198.966H303.082C305.098 198.966 306.466 199.938 306.466 201.594C306.466 203.25 305.098 204.222 303.082 204.222H299.716ZM311.318 202.512V200.694H309.968V210H311.318V204.798C311.318 202.98 312.812 201.684 314.918 201.684V200.478C313.208 200.478 311.876 201.27 311.318 202.512ZM320.806 210.216C323.416 210.216 325.612 207.984 325.612 205.338C325.612 202.692 323.416 200.478 320.806 200.478C318.196 200.478 315.982 202.692 315.982 205.338C315.982 207.984 318.196 210.216 320.806 210.216ZM320.806 209.01C318.952 209.01 317.404 207.336 317.404 205.338C317.404 203.358 318.952 201.684 320.806 201.684C322.642 201.684 324.19 203.358 324.19 205.338C324.19 207.336 322.642 209.01 320.806 209.01ZM332.162 210.216C333.458 210.216 334.646 209.676 335.528 208.794L334.592 207.876C333.962 208.578 333.098 209.01 332.162 209.01C330.308 209.01 328.76 207.336 328.76 205.338C328.76 203.358 330.308 201.684 332.162 201.684C333.08 201.684 333.926 202.098 334.538 202.764L335.474 201.846C334.592 201 333.422 200.478 332.162 200.478C329.552 200.478 327.338 202.692 327.338 205.338C327.338 207.984 329.552 210.216 332.162 210.216ZM341.791 209.01C339.955 209.01 338.677 207.678 338.479 205.86H346.093C346.093 202.602 344.491 200.478 341.683 200.478C339.181 200.478 337.093 202.548 337.093 205.32C337.093 208.182 339.325 210.216 341.809 210.216C343.105 210.216 344.743 209.658 345.553 208.776L344.725 207.894C344.149 208.524 342.889 209.01 341.791 209.01ZM341.737 201.684C343.591 201.684 344.581 202.98 344.761 204.654H338.497C338.749 202.854 340.081 201.684 341.737 201.684ZM351.597 210.216C353.523 210.216 354.999 209.118 354.999 207.408C354.999 205.644 353.451 205.14 351.957 204.672C350.229 204.114 349.545 203.862 349.545 203.052C349.545 202.152 350.409 201.684 351.453 201.684C352.281 201.684 353.199 201.972 354.135 202.566L354.783 201.522C353.793 200.874 352.605 200.478 351.453 200.478C349.599 200.478 348.195 201.522 348.195 203.214C348.195 204.546 349.059 205.212 351.309 205.86C352.569 206.22 353.649 206.544 353.649 207.552C353.649 208.434 352.821 209.01 351.597 209.01C350.571 209.01 349.509 208.614 348.447 207.84L347.745 208.83C348.861 209.73 350.301 210.216 351.597 210.216ZM360.526 210.216C362.452 210.216 363.928 209.118 363.928 207.408C363.928 205.644 362.38 205.14 360.886 204.672C359.158 204.114 358.474 203.862 358.474 203.052C358.474 202.152 359.338 201.684 360.382 201.684C361.21 201.684 362.128 201.972 363.064 202.566L363.712 201.522C362.722 200.874 361.534 200.478 360.382 200.478C358.528 200.478 357.124 201.522 357.124 203.214C357.124 204.546 357.988 205.212 360.238 205.86C361.498 206.22 362.578 206.544 362.578 207.552C362.578 208.434 361.75 209.01 360.526 209.01C359.5 209.01 358.438 208.614 357.376 207.84L356.674 208.83C357.79 209.73 359.23 210.216 360.526 210.216ZM366.828 199.002C367.314 199.002 367.71 198.588 367.71 198.102C367.71 197.634 367.314 197.22 366.828 197.22C366.324 197.22 365.928 197.634 365.928 198.102C365.928 198.588 366.324 199.002 366.828 199.002ZM366.144 210H367.494V200.694H366.144V210ZM374.633 200.478C373.319 200.478 372.113 201.198 371.573 202.188V200.694H370.223V210H371.573V204.078C371.573 202.782 372.887 201.684 374.453 201.684C375.821 201.684 376.775 202.746 376.775 204.258V210H378.125V204.078C378.125 201.972 376.685 200.478 374.633 200.478ZM388.093 200.694V202.296C387.373 201.162 386.185 200.478 384.709 200.478C382.207 200.478 380.425 202.296 380.425 204.888C380.425 207.48 382.207 209.316 384.709 209.316C386.185 209.316 387.373 208.632 388.093 207.498V209.01C388.093 210.828 386.833 211.89 384.691 211.89C383.539 211.89 382.423 211.476 381.703 210.792L381.109 211.854C381.955 212.574 383.359 213.096 384.871 213.096C387.553 213.096 389.443 211.404 389.443 209.01V200.694H388.093ZM384.961 208.11C383.143 208.11 381.847 206.778 381.847 204.888C381.847 203.016 383.143 201.684 384.961 201.684C386.797 201.684 388.093 203.016 388.093 204.888C388.093 206.778 386.797 208.11 384.961 208.11Z" fill="#E4E4E4"/>
</svg>
