<svg width="734" height="287" viewBox="0 0 734 287" fill="none" xmlns="http://www.w3.org/2000/svg">
<path d="M5.706 198.198C8.586 198.198 10.062 196.596 10.062 194.634C10.062 192.456 8.37 191.61 6.012 191.052C3.906 190.548 2.682 190.098 2.682 188.82C2.682 187.686 3.798 186.678 5.328 186.678C6.624 186.678 7.848 187.272 8.874 188.262L9.738 187.164C8.604 186.12 7.236 185.4 5.4 185.4C3.024 185.4 1.26 186.948 1.26 188.928C1.26 191.07 2.826 191.844 5.31 192.42C7.47 192.924 8.64 193.446 8.64 194.76C8.64 195.876 7.668 196.92 5.76 196.92C4.032 196.92 2.754 196.182 1.71 195.138L0.828 196.236C2.07 197.46 3.672 198.198 5.706 198.198ZM16.4931 196.632C16.2951 196.848 15.9351 197.01 15.5211 197.01C14.9811 197.01 14.5131 196.524 14.5131 195.84V189.9H16.7991V188.694H14.5131V186.138H13.1631V188.694H11.7051V189.9H13.1631V195.84C13.1631 197.226 14.0991 198.216 15.4311 198.216C16.0611 198.216 16.6731 198 17.1591 197.622L16.4931 196.632ZM22.8492 188.478C21.9492 188.478 20.8332 188.712 19.5012 189.378L20.0412 190.476C20.8872 190.044 21.8232 189.63 22.7592 189.63C24.7752 189.63 25.2792 191.07 25.2792 192.33V192.672C24.3252 192.366 23.2632 192.15 22.2552 192.15C20.2572 192.15 18.6012 193.392 18.6012 195.246C18.6012 197.082 20.0412 198.216 22.0032 198.216C23.2272 198.216 24.6132 197.64 25.2792 196.542V198H26.6292V192.33C26.6292 190.08 25.3872 188.478 22.8492 188.478ZM22.2372 197.028C20.9232 197.028 19.9152 196.344 19.9152 195.192C19.9152 194.076 21.0852 193.284 22.4712 193.284C23.4792 193.284 24.4332 193.428 25.2792 193.662V195.084C24.9192 196.398 23.4612 197.028 22.2372 197.028ZM33.1675 188.478C32.2675 188.478 31.1515 188.712 29.8195 189.378L30.3595 190.476C31.2055 190.044 32.1415 189.63 33.0775 189.63C35.0935 189.63 35.5975 191.07 35.5975 192.33V192.672C34.6435 192.366 33.5815 192.15 32.5735 192.15C30.5755 192.15 28.9195 193.392 28.9195 195.246C28.9195 197.082 30.3595 198.216 32.3215 198.216C33.5455 198.216 34.9315 197.64 35.5975 196.542V198H36.9475V192.33C36.9475 190.08 35.7055 188.478 33.1675 188.478ZM32.5555 197.028C31.2415 197.028 30.2335 196.344 30.2335 195.192C30.2335 194.076 31.4035 193.284 32.7895 193.284C33.7975 193.284 34.7515 193.428 35.5975 193.662V195.084C35.2375 196.398 33.7795 197.028 32.5555 197.028ZM44.0259 198.216C45.3219 198.216 46.5099 197.676 47.3919 196.794L46.4559 195.876C45.8259 196.578 44.9619 197.01 44.0259 197.01C42.1719 197.01 40.6239 195.336 40.6239 193.338C40.6239 191.358 42.1719 189.684 44.0259 189.684C44.9439 189.684 45.7899 190.098 46.4019 190.764L47.3379 189.846C46.4559 189 45.2859 188.478 44.0259 188.478C41.4159 188.478 39.2019 190.692 39.2019 193.338C39.2019 195.984 41.4159 198.216 44.0259 198.216ZM57.6158 188.694H55.8878L50.7938 193.842V185.418H49.4438V198H50.7938V195.534L52.4678 193.878L55.6898 198H57.3818L53.4218 192.96L57.6158 188.694ZM68.8839 188.478C67.5699 188.478 66.3639 189.198 65.8239 190.188V185.418H64.4739V198H65.8239V192.078C65.8239 190.782 67.1379 189.684 68.7039 189.684C70.0719 189.684 71.0259 190.746 71.0259 192.258V198H72.3759V192.078C72.3759 189.972 70.9359 188.478 68.8839 188.478ZM79.3022 197.01C77.4662 197.01 76.1882 195.678 75.9902 193.86H83.6042C83.6042 190.602 82.0022 188.478 79.1942 188.478C76.6922 188.478 74.6042 190.548 74.6042 193.32C74.6042 196.182 76.8362 198.216 79.3202 198.216C80.6162 198.216 82.2542 197.658 83.0642 196.776L82.2362 195.894C81.6602 196.524 80.4002 197.01 79.3022 197.01ZM79.2482 189.684C81.1022 189.684 82.0922 190.98 82.2722 192.654H76.0082C76.2602 190.854 77.5922 189.684 79.2482 189.684ZM85.8133 198H87.1633V185.418H85.8133V198ZM94.7514 188.478C93.2574 188.478 92.0694 189.216 91.3674 190.44V188.694H90.0174V201.096H91.3674V196.254C92.0694 197.478 93.2574 198.216 94.7514 198.216C97.1994 198.216 99.0354 196.2 99.0354 193.338C99.0354 190.494 97.1994 188.478 94.7514 188.478ZM94.4994 197.01C92.6634 197.01 91.3674 195.48 91.3674 193.338C91.3674 191.196 92.6634 189.684 94.4994 189.684C96.3174 189.684 97.6134 191.196 97.6134 193.338C97.6134 195.48 96.3174 197.01 94.4994 197.01ZM104.664 198.216C106.59 198.216 108.066 197.118 108.066 195.408C108.066 193.644 106.518 193.14 105.024 192.672C103.296 192.114 102.612 191.862 102.612 191.052C102.612 190.152 103.476 189.684 104.52 189.684C105.348 189.684 106.266 189.972 107.202 190.566L107.85 189.522C106.86 188.874 105.672 188.478 104.52 188.478C102.666 188.478 101.262 189.522 101.262 191.214C101.262 192.546 102.126 193.212 104.376 193.86C105.636 194.22 106.716 194.544 106.716 195.552C106.716 196.434 105.888 197.01 104.664 197.01C103.638 197.01 102.576 196.614 101.514 195.84L100.812 196.83C101.928 197.73 103.368 198.216 104.664 198.216ZM119.3 188.478C118.4 188.478 117.284 188.712 115.952 189.378L116.492 190.476C117.338 190.044 118.274 189.63 119.21 189.63C121.226 189.63 121.73 191.07 121.73 192.33V192.672C120.776 192.366 119.714 192.15 118.706 192.15C116.708 192.15 115.052 193.392 115.052 195.246C115.052 197.082 116.492 198.216 118.454 198.216C119.678 198.216 121.064 197.64 121.73 196.542V198H123.08V192.33C123.08 190.08 121.838 188.478 119.3 188.478ZM118.688 197.028C117.374 197.028 116.366 196.344 116.366 195.192C116.366 194.076 117.536 193.284 118.922 193.284C119.93 193.284 120.884 193.428 121.73 193.662V195.084C121.37 196.398 119.912 197.028 118.688 197.028ZM133.075 188.694V190.296C132.355 189.162 131.167 188.478 129.691 188.478C127.189 188.478 125.407 190.296 125.407 192.888C125.407 195.48 127.189 197.316 129.691 197.316C131.167 197.316 132.355 196.632 133.075 195.498V197.01C133.075 198.828 131.815 199.89 129.673 199.89C128.521 199.89 127.405 199.476 126.685 198.792L126.091 199.854C126.937 200.574 128.341 201.096 129.853 201.096C132.535 201.096 134.425 199.404 134.425 197.01V188.694H133.075ZM129.943 196.11C128.125 196.11 126.829 194.778 126.829 192.888C126.829 191.016 128.125 189.684 129.943 189.684C131.779 189.684 133.075 191.016 133.075 192.888C133.075 194.778 131.779 196.11 129.943 196.11ZM137.948 187.002C138.434 187.002 138.83 186.588 138.83 186.102C138.83 185.634 138.434 185.22 137.948 185.22C137.444 185.22 137.048 185.634 137.048 186.102C137.048 186.588 137.444 187.002 137.948 187.002ZM137.264 198H138.614V188.694H137.264V198ZM141.325 198H142.675V185.418H141.325V198ZM149.597 197.01C147.761 197.01 146.483 195.678 146.285 193.86H153.899C153.899 190.602 152.297 188.478 149.489 188.478C146.987 188.478 144.899 190.548 144.899 193.32C144.899 196.182 147.131 198.216 149.615 198.216C150.911 198.216 152.549 197.658 153.359 196.776L152.531 195.894C151.955 196.524 150.695 197.01 149.597 197.01ZM149.543 189.684C151.397 189.684 152.387 190.98 152.567 192.654H146.303C146.555 190.854 147.887 189.684 149.543 189.684ZM165.649 198.216C166.945 198.216 168.133 197.676 169.015 196.794L168.079 195.876C167.449 196.578 166.585 197.01 165.649 197.01C163.795 197.01 162.247 195.336 162.247 193.338C162.247 191.358 163.795 189.684 165.649 189.684C166.567 189.684 167.413 190.098 168.025 190.764L168.961 189.846C168.079 189 166.909 188.478 165.649 188.478C163.039 188.478 160.825 190.692 160.825 193.338C160.825 195.984 163.039 198.216 165.649 198.216ZM174.865 188.478C173.965 188.478 172.849 188.712 171.517 189.378L172.057 190.476C172.903 190.044 173.839 189.63 174.775 189.63C176.791 189.63 177.295 191.07 177.295 192.33V192.672C176.341 192.366 175.279 192.15 174.271 192.15C172.273 192.15 170.617 193.392 170.617 195.246C170.617 197.082 172.057 198.216 174.019 198.216C175.243 198.216 176.629 197.64 177.295 196.542V198H178.645V192.33C178.645 190.08 177.403 188.478 174.865 188.478ZM174.253 197.028C172.939 197.028 171.931 196.344 171.931 195.192C171.931 194.076 173.101 193.284 174.487 193.284C175.495 193.284 176.449 193.428 177.295 193.662V195.084C176.935 196.398 175.477 197.028 174.253 197.028ZM185.831 188.478C184.517 188.478 183.311 189.198 182.771 190.188V188.694H181.421V198H182.771V192.078C182.771 190.782 184.085 189.684 185.651 189.684C187.019 189.684 187.973 190.746 187.973 192.258V198H189.323V192.078C189.323 189.972 187.883 188.478 185.831 188.478ZM196.484 188.478C195.17 188.478 193.964 189.198 193.424 190.188V188.694H192.074V198H193.424V192.078C193.424 190.782 194.738 189.684 196.304 189.684C197.672 189.684 198.626 190.746 198.626 192.258V198H199.976V192.078C199.976 189.972 198.536 188.478 196.484 188.478ZM206.488 188.478C205.588 188.478 204.472 188.712 203.14 189.378L203.68 190.476C204.526 190.044 205.462 189.63 206.398 189.63C208.414 189.63 208.918 191.07 208.918 192.33V192.672C207.964 192.366 206.902 192.15 205.894 192.15C203.896 192.15 202.24 193.392 202.24 195.246C202.24 197.082 203.68 198.216 205.642 198.216C206.866 198.216 208.252 197.64 208.918 196.542V198H210.268V192.33C210.268 190.08 209.026 188.478 206.488 188.478ZM205.876 197.028C204.562 197.028 203.554 196.344 203.554 195.192C203.554 194.076 204.724 193.284 206.11 193.284C207.118 193.284 208.072 193.428 208.918 193.662V195.084C208.558 196.398 207.1 197.028 205.876 197.028ZM217.886 188.478C216.392 188.478 215.204 189.216 214.502 190.44V185.418H213.152V198H214.502V196.254C215.204 197.478 216.392 198.216 217.886 198.216C220.334 198.216 222.17 196.2 222.17 193.338C222.17 190.494 220.334 188.478 217.886 188.478ZM217.634 197.01C215.798 197.01 214.502 195.48 214.502 193.338C214.502 191.196 215.798 189.684 217.634 189.684C219.452 189.684 220.748 191.196 220.748 193.338C220.748 195.48 219.452 197.01 217.634 197.01ZM225.171 187.002C225.657 187.002 226.053 186.588 226.053 186.102C226.053 185.634 225.657 185.22 225.171 185.22C224.667 185.22 224.271 185.634 224.271 186.102C224.271 186.588 224.667 187.002 225.171 187.002ZM224.487 198H225.837V188.694H224.487V198ZM231.842 198.216C233.768 198.216 235.244 197.118 235.244 195.408C235.244 193.644 233.696 193.14 232.202 192.672C230.474 192.114 229.79 191.862 229.79 191.052C229.79 190.152 230.654 189.684 231.698 189.684C232.526 189.684 233.444 189.972 234.38 190.566L235.028 189.522C234.038 188.874 232.85 188.478 231.698 188.478C229.844 188.478 228.44 189.522 228.44 191.214C228.44 192.546 229.304 193.212 231.554 193.86C232.814 194.22 233.894 194.544 233.894 195.552C233.894 196.434 233.066 197.01 231.842 197.01C230.816 197.01 229.754 196.614 228.692 195.84L227.99 196.83C229.106 197.73 230.546 198.216 231.842 198.216ZM247.018 198.216C248.314 198.216 249.502 197.676 250.384 196.794L249.448 195.876C248.818 196.578 247.954 197.01 247.018 197.01C245.164 197.01 243.616 195.336 243.616 193.338C243.616 191.358 245.164 189.684 247.018 189.684C247.936 189.684 248.782 190.098 249.394 190.764L250.33 189.846C249.448 189 248.278 188.478 247.018 188.478C244.408 188.478 242.194 190.692 242.194 193.338C242.194 195.984 244.408 198.216 247.018 198.216ZM256.581 198.216C259.191 198.216 261.387 195.984 261.387 193.338C261.387 190.692 259.191 188.478 256.581 188.478C253.971 188.478 251.757 190.692 251.757 193.338C251.757 195.984 253.971 198.216 256.581 198.216ZM256.581 197.01C254.727 197.01 253.179 195.336 253.179 193.338C253.179 191.358 254.727 189.684 256.581 189.684C258.417 189.684 259.965 191.358 259.965 193.338C259.965 195.336 258.417 197.01 256.581 197.01ZM273.678 188.478C272.274 188.478 271.05 189.252 270.672 190.458C270.168 189.252 269.07 188.478 267.666 188.478C266.442 188.478 265.434 189.09 264.966 190.062V188.694H263.616V198H264.966V192.078C264.966 190.674 266.01 189.684 267.486 189.684C268.746 189.684 269.628 190.746 269.628 192.258V198H270.978V192.078C270.978 190.674 272.022 189.684 273.498 189.684C274.758 189.684 275.64 190.746 275.64 192.258V198H276.99V192.078C276.99 189.972 275.622 188.478 273.678 188.478ZM284.578 188.478C283.084 188.478 281.896 189.216 281.194 190.44V188.694H279.844V201.096H281.194V196.254C281.896 197.478 283.084 198.216 284.578 198.216C287.026 198.216 288.862 196.2 288.862 193.338C288.862 190.494 287.026 188.478 284.578 188.478ZM284.326 197.01C282.49 197.01 281.194 195.48 281.194 193.338C281.194 191.196 282.49 189.684 284.326 189.684C286.144 189.684 287.44 191.196 287.44 193.338C287.44 195.48 286.144 197.01 284.326 197.01ZM294.976 188.478C294.076 188.478 292.96 188.712 291.628 189.378L292.168 190.476C293.014 190.044 293.95 189.63 294.886 189.63C296.902 189.63 297.406 191.07 297.406 192.33V192.672C296.452 192.366 295.39 192.15 294.382 192.15C292.384 192.15 290.728 193.392 290.728 195.246C290.728 197.082 292.168 198.216 294.13 198.216C295.354 198.216 296.74 197.64 297.406 196.542V198H298.756V192.33C298.756 190.08 297.514 188.478 294.976 188.478ZM294.364 197.028C293.05 197.028 292.042 196.344 292.042 195.192C292.042 194.076 293.212 193.284 294.598 193.284C295.606 193.284 296.56 193.428 297.406 193.662V195.084C297.046 196.398 295.588 197.028 294.364 197.028ZM305.942 188.478C304.628 188.478 303.422 189.198 302.882 190.188V188.694H301.532V198H302.882V192.078C302.882 190.782 304.196 189.684 305.762 189.684C307.13 189.684 308.084 190.746 308.084 192.258V198H309.434V192.078C309.434 189.972 307.994 188.478 305.942 188.478ZM312.833 187.002C313.319 187.002 313.715 186.588 313.715 186.102C313.715 185.634 313.319 185.22 312.833 185.22C312.329 185.22 311.933 185.634 311.933 186.102C311.933 186.588 312.329 187.002 312.833 187.002ZM312.149 198H313.499V188.694H312.149V198ZM320.404 197.01C318.568 197.01 317.29 195.678 317.092 193.86H324.706C324.706 190.602 323.104 188.478 320.296 188.478C317.794 188.478 315.706 190.548 315.706 193.32C315.706 196.182 317.938 198.216 320.422 198.216C321.718 198.216 323.356 197.658 324.166 196.776L323.338 195.894C322.762 196.524 321.502 197.01 320.404 197.01ZM320.35 189.684C322.204 189.684 323.194 190.98 323.374 192.654H317.11C317.362 190.854 318.694 189.684 320.35 189.684ZM330.209 198.216C332.135 198.216 333.611 197.118 333.611 195.408C333.611 193.644 332.063 193.14 330.569 192.672C328.841 192.114 328.157 191.862 328.157 191.052C328.157 190.152 329.021 189.684 330.065 189.684C330.893 189.684 331.811 189.972 332.747 190.566L333.395 189.522C332.405 188.874 331.217 188.478 330.065 188.478C328.211 188.478 326.807 189.522 326.807 191.214C326.807 192.546 327.671 193.212 329.921 193.86C331.181 194.22 332.261 194.544 332.261 195.552C332.261 196.434 331.433 197.01 330.209 197.01C329.183 197.01 328.121 196.614 327.059 195.84L326.357 196.83C327.473 197.73 328.913 198.216 330.209 198.216ZM342.541 190.512V188.694H341.191V198H342.541V192.798C342.541 190.98 344.035 189.684 346.141 189.684V188.478C344.431 188.478 343.099 189.27 342.541 190.512ZM352.203 197.01C350.367 197.01 349.089 195.678 348.891 193.86H356.505C356.505 190.602 354.903 188.478 352.095 188.478C349.593 188.478 347.505 190.548 347.505 193.32C347.505 196.182 349.737 198.216 352.221 198.216C353.517 198.216 355.155 197.658 355.965 196.776L355.137 195.894C354.561 196.524 353.301 197.01 352.203 197.01ZM352.149 189.684C354.003 189.684 354.993 190.98 355.173 192.654H348.909C349.161 190.854 350.493 189.684 352.149 189.684ZM368.776 188.478C367.372 188.478 366.148 189.252 365.77 190.458C365.266 189.252 364.168 188.478 362.764 188.478C361.54 188.478 360.532 189.09 360.064 190.062V188.694H358.714V198H360.064V192.078C360.064 190.674 361.108 189.684 362.584 189.684C363.844 189.684 364.726 190.746 364.726 192.258V198H366.076V192.078C366.076 190.674 367.12 189.684 368.596 189.684C369.856 189.684 370.738 190.746 370.738 192.258V198H372.088V192.078C372.088 189.972 370.72 188.478 368.776 188.478ZM378.595 188.478C377.695 188.478 376.579 188.712 375.247 189.378L375.787 190.476C376.633 190.044 377.569 189.63 378.505 189.63C380.521 189.63 381.025 191.07 381.025 192.33V192.672C380.071 192.366 379.009 192.15 378.001 192.15C376.003 192.15 374.347 193.392 374.347 195.246C374.347 197.082 375.787 198.216 377.749 198.216C378.973 198.216 380.359 197.64 381.025 196.542V198H382.375V192.33C382.375 190.08 381.133 188.478 378.595 188.478ZM377.983 197.028C376.669 197.028 375.661 196.344 375.661 195.192C375.661 194.076 376.831 193.284 378.217 193.284C379.225 193.284 380.179 193.428 381.025 193.662V195.084C380.665 196.398 379.207 197.028 377.983 197.028ZM385.8 187.002C386.286 187.002 386.682 186.588 386.682 186.102C386.682 185.634 386.286 185.22 385.8 185.22C385.296 185.22 384.9 185.634 384.9 186.102C384.9 186.588 385.296 187.002 385.8 187.002ZM385.116 198H386.466V188.694H385.116V198ZM393.605 188.478C392.291 188.478 391.085 189.198 390.545 190.188V188.694H389.195V198H390.545V192.078C390.545 190.782 391.859 189.684 393.425 189.684C394.793 189.684 395.747 190.746 395.747 192.258V198H397.097V192.078C397.097 189.972 395.657 188.478 393.605 188.478ZM409.37 198.216C410.666 198.216 411.854 197.676 412.736 196.794L411.8 195.876C411.17 196.578 410.306 197.01 409.37 197.01C407.516 197.01 405.968 195.336 405.968 193.338C405.968 191.358 407.516 189.684 409.37 189.684C410.288 189.684 411.134 190.098 411.746 190.764L412.682 189.846C411.8 189 410.63 188.478 409.37 188.478C406.76 188.478 404.546 190.692 404.546 193.338C404.546 195.984 406.76 198.216 409.37 198.216ZM418.932 198.216C421.542 198.216 423.738 195.984 423.738 193.338C423.738 190.692 421.542 188.478 418.932 188.478C416.322 188.478 414.108 190.692 414.108 193.338C414.108 195.984 416.322 198.216 418.932 198.216ZM418.932 197.01C417.078 197.01 415.53 195.336 415.53 193.338C415.53 191.358 417.078 189.684 418.932 189.684C420.768 189.684 422.316 191.358 422.316 193.338C422.316 195.336 420.768 197.01 418.932 197.01ZM436.03 188.478C434.626 188.478 433.402 189.252 433.024 190.458C432.52 189.252 431.422 188.478 430.018 188.478C428.794 188.478 427.786 189.09 427.318 190.062V188.694H425.968V198H427.318V192.078C427.318 190.674 428.362 189.684 429.838 189.684C431.098 189.684 431.98 190.746 431.98 192.258V198H433.33V192.078C433.33 190.674 434.374 189.684 435.85 189.684C437.11 189.684 437.992 190.746 437.992 192.258V198H439.342V192.078C439.342 189.972 437.974 188.478 436.03 188.478ZM446.929 188.478C445.435 188.478 444.247 189.216 443.545 190.44V188.694H442.195V201.096H443.545V196.254C444.247 197.478 445.435 198.216 446.929 198.216C449.377 198.216 451.213 196.2 451.213 193.338C451.213 190.494 449.377 188.478 446.929 188.478ZM446.677 197.01C444.841 197.01 443.545 195.48 443.545 193.338C443.545 191.196 444.841 189.684 446.677 189.684C448.495 189.684 449.791 191.196 449.791 193.338C449.791 195.48 448.495 197.01 446.677 197.01ZM457.742 197.01C455.906 197.01 454.628 195.678 454.43 193.86H462.044C462.044 190.602 460.442 188.478 457.634 188.478C455.132 188.478 453.044 190.548 453.044 193.32C453.044 196.182 455.276 198.216 457.76 198.216C459.056 198.216 460.694 197.658 461.504 196.776L460.676 195.894C460.1 196.524 458.84 197.01 457.742 197.01ZM457.688 189.684C459.542 189.684 460.532 190.98 460.712 192.654H454.448C454.7 190.854 456.032 189.684 457.688 189.684ZM468.339 196.632C468.141 196.848 467.781 197.01 467.367 197.01C466.827 197.01 466.359 196.524 466.359 195.84V189.9H468.645V188.694H466.359V186.138H465.009V188.694H463.551V189.9H465.009V195.84C465.009 197.226 465.945 198.216 467.277 198.216C467.907 198.216 468.519 198 469.005 197.622L468.339 196.632ZM471.581 187.002C472.067 187.002 472.463 186.588 472.463 186.102C472.463 185.634 472.067 185.22 471.581 185.22C471.077 185.22 470.681 185.634 470.681 186.102C470.681 186.588 471.077 187.002 471.581 187.002ZM470.897 198H472.247V188.694H470.897V198ZM479.044 196.632C478.846 196.848 478.486 197.01 478.072 197.01C477.532 197.01 477.064 196.524 477.064 195.84V189.9H479.35V188.694H477.064V186.138H475.714V188.694H474.256V189.9H475.714V195.84C475.714 197.226 476.65 198.216 477.982 198.216C478.612 198.216 479.224 198 479.71 197.622L479.044 196.632ZM482.286 187.002C482.772 187.002 483.168 186.588 483.168 186.102C483.168 185.634 482.772 185.22 482.286 185.22C481.782 185.22 481.386 185.634 481.386 186.102C481.386 186.588 481.782 187.002 482.286 187.002ZM481.602 198H482.952V188.694H481.602V198ZM488.741 198H490.037L493.943 188.694H492.431L489.389 196.416L486.293 188.694H484.781L488.741 198ZM499.367 197.01C497.531 197.01 496.253 195.678 496.055 193.86H503.669C503.669 190.602 502.067 188.478 499.259 188.478C496.757 188.478 494.669 190.548 494.669 193.32C494.669 196.182 496.901 198.216 499.385 198.216C500.681 198.216 502.319 197.658 503.129 196.776L502.301 195.894C501.725 196.524 500.465 197.01 499.367 197.01ZM499.313 189.684C501.167 189.684 502.157 190.98 502.337 192.654H496.073C496.325 190.854 497.657 189.684 499.313 189.684ZM515.184 196.632C514.986 196.848 514.626 197.01 514.212 197.01C513.672 197.01 513.204 196.524 513.204 195.84V189.9H515.49V188.694H513.204V186.138H511.854V188.694H510.396V189.9H511.854V195.84C511.854 197.226 512.79 198.216 514.122 198.216C514.752 198.216 515.364 198 515.85 197.622L515.184 196.632ZM522.189 188.478C520.875 188.478 519.669 189.198 519.129 190.188V185.418H517.779V198H519.129V192.078C519.129 190.782 520.443 189.684 522.009 189.684C523.377 189.684 524.331 190.746 524.331 192.258V198H525.681V192.078C525.681 189.972 524.241 188.478 522.189 188.478ZM529.889 190.512V188.694H528.539V198H529.889V192.798C529.889 190.98 531.383 189.684 533.489 189.684V188.478C531.779 188.478 530.447 189.27 529.889 190.512ZM539.377 198.216C541.987 198.216 544.183 195.984 544.183 193.338C544.183 190.692 541.987 188.478 539.377 188.478C536.767 188.478 534.553 190.692 534.553 193.338C534.553 195.984 536.767 198.216 539.377 198.216ZM539.377 197.01C537.523 197.01 535.975 195.336 535.975 193.338C535.975 191.358 537.523 189.684 539.377 189.684C541.213 189.684 542.761 191.358 542.761 193.338C542.761 195.336 541.213 197.01 539.377 197.01ZM552.965 188.694V194.616C552.965 195.912 551.651 197.01 550.085 197.01C548.717 197.01 547.763 195.948 547.763 194.436V188.694H546.413V194.616C546.413 196.722 547.853 198.216 549.905 198.216C551.219 198.216 552.425 197.496 552.965 196.506V198H554.315V188.694H552.965ZM564.301 188.694V190.296C563.581 189.162 562.393 188.478 560.917 188.478C558.415 188.478 556.633 190.296 556.633 192.888C556.633 195.48 558.415 197.316 560.917 197.316C562.393 197.316 563.581 196.632 564.301 195.498V197.01C564.301 198.828 563.041 199.89 560.899 199.89C559.747 199.89 558.631 199.476 557.911 198.792L557.317 199.854C558.163 200.574 559.567 201.096 561.079 201.096C563.761 201.096 565.651 199.404 565.651 197.01V188.694H564.301ZM561.169 196.11C559.351 196.11 558.055 194.778 558.055 192.888C558.055 191.016 559.351 189.684 561.169 189.684C563.005 189.684 564.301 191.016 564.301 192.888C564.301 194.778 563.005 196.11 561.169 196.11ZM572.937 188.478C571.623 188.478 570.417 189.198 569.877 190.188V185.418H568.527V198H569.877V192.078C569.877 190.782 571.191 189.684 572.757 189.684C574.125 189.684 575.079 190.746 575.079 192.258V198H576.429V192.078C576.429 189.972 574.989 188.478 572.937 188.478ZM2.034 214.002C2.52 214.002 2.916 213.588 2.916 213.102C2.916 212.634 2.52 212.22 2.034 212.22C1.53 212.22 1.134 212.634 1.134 213.102C1.134 213.588 1.53 214.002 2.034 214.002ZM1.35 225H2.7V215.694H1.35V225ZM9.83897 215.478C8.52497 215.478 7.31897 216.198 6.77897 217.188V215.694H5.42897V225H6.77897V219.078C6.77897 217.782 8.09297 216.684 9.65897 216.684C11.027 216.684 11.981 217.746 11.981 219.258V225H13.331V219.078C13.331 216.972 11.891 215.478 9.83897 215.478ZM20.4913 215.478C19.1773 215.478 17.9713 216.198 17.4313 217.188V215.694H16.0813V225H17.4313V219.078C17.4313 217.782 18.7453 216.684 20.3113 216.684C21.6793 216.684 22.6333 217.746 22.6333 219.258V225H23.9833V219.078C23.9833 216.972 22.5433 215.478 20.4913 215.478ZM31.0357 225.216C33.6457 225.216 35.8417 222.984 35.8417 220.338C35.8417 217.692 33.6457 215.478 31.0357 215.478C28.4257 215.478 26.2117 217.692 26.2117 220.338C26.2117 222.984 28.4257 225.216 31.0357 225.216ZM31.0357 224.01C29.1817 224.01 27.6337 222.336 27.6337 220.338C27.6337 218.358 29.1817 216.684 31.0357 216.684C32.8717 216.684 34.4197 218.358 34.4197 220.338C34.4197 222.336 32.8717 224.01 31.0357 224.01ZM40.7976 225H42.0936L45.9996 215.694H44.4876L41.4456 223.416L38.3496 215.694H36.8376L40.7976 225ZM50.9214 215.478C50.0214 215.478 48.9054 215.712 47.5734 216.378L48.1134 217.476C48.9594 217.044 49.8954 216.63 50.8314 216.63C52.8474 216.63 53.3514 218.07 53.3514 219.33V219.672C52.3974 219.366 51.3354 219.15 50.3274 219.15C48.3294 219.15 46.6734 220.392 46.6734 222.246C46.6734 224.082 48.1134 225.216 50.0754 225.216C51.2994 225.216 52.6854 224.64 53.3514 223.542V225H54.7014V219.33C54.7014 217.08 53.4594 215.478 50.9214 215.478ZM50.3094 224.028C48.9954 224.028 47.9874 223.344 47.9874 222.192C47.9874 221.076 49.1574 220.284 50.5434 220.284C51.5514 220.284 52.5054 220.428 53.3514 220.662V222.084C52.9914 223.398 51.5334 224.028 50.3094 224.028ZM61.5458 223.632C61.3478 223.848 60.9878 224.01 60.5738 224.01C60.0338 224.01 59.5658 223.524 59.5658 222.84V216.9H61.8518V215.694H59.5658V213.138H58.2158V215.694H56.7578V216.9H58.2158V222.84C58.2158 224.226 59.1518 225.216 60.4838 225.216C61.1138 225.216 61.7258 225 62.2118 224.622L61.5458 223.632ZM64.7879 214.002C65.2739 214.002 65.6699 213.588 65.6699 213.102C65.6699 212.634 65.2739 212.22 64.7879 212.22C64.2839 212.22 63.8879 212.634 63.8879 213.102C63.8879 213.588 64.2839 214.002 64.7879 214.002ZM64.1039 225H65.4539V215.694H64.1039V225ZM71.2429 225H72.5389L76.4449 215.694H74.9329L71.8909 223.416L68.7949 215.694H67.2829L71.2429 225ZM81.8686 224.01C80.0326 224.01 78.7546 222.678 78.5566 220.86H86.1706C86.1706 217.602 84.5686 215.478 81.7606 215.478C79.2586 215.478 77.1706 217.548 77.1706 220.32C77.1706 223.182 79.4026 225.216 81.8866 225.216C83.1826 225.216 84.8206 224.658 85.6306 223.776L84.8026 222.894C84.2266 223.524 82.9666 224.01 81.8686 224.01ZM81.8146 216.684C83.6686 216.684 84.6586 217.98 84.8386 219.654H78.5746C78.8266 217.854 80.1586 216.684 81.8146 216.684ZM97.3804 215.478C96.4804 215.478 95.3644 215.712 94.0324 216.378L94.5724 217.476C95.4184 217.044 96.3544 216.63 97.2904 216.63C99.3064 216.63 99.8104 218.07 99.8104 219.33V219.672C98.8564 219.366 97.7944 219.15 96.7864 219.15C94.7884 219.15 93.1324 220.392 93.1324 222.246C93.1324 224.082 94.5724 225.216 96.5344 225.216C97.7584 225.216 99.1444 224.64 99.8104 223.542V225H101.16V219.33C101.16 217.08 99.9184 215.478 97.3804 215.478ZM96.7684 224.028C95.4544 224.028 94.4464 223.344 94.4464 222.192C94.4464 221.076 95.6164 220.284 97.0024 220.284C98.0104 220.284 98.9644 220.428 99.8104 220.662V222.084C99.4504 223.398 97.9924 224.028 96.7684 224.028ZM108.347 215.478C107.033 215.478 105.827 216.198 105.287 217.188V215.694H103.937V225H105.287V219.078C105.287 217.782 106.601 216.684 108.167 216.684C109.535 216.684 110.489 217.746 110.489 219.258V225H111.839V219.078C111.839 216.972 110.399 215.478 108.347 215.478ZM121.843 212.418V217.44C121.141 216.216 119.953 215.478 118.459 215.478C116.011 215.478 114.175 217.494 114.175 220.338C114.175 223.2 116.011 225.216 118.459 225.216C119.953 225.216 121.141 224.478 121.843 223.254V225H123.193V212.418H121.843ZM118.711 224.01C116.893 224.01 115.597 222.48 115.597 220.338C115.597 218.196 116.893 216.684 118.711 216.684C120.547 216.684 121.843 218.196 121.843 220.338C121.843 222.48 120.547 224.01 118.711 224.01ZM135.59 225.216C136.886 225.216 138.074 224.676 138.956 223.794L138.02 222.876C137.39 223.578 136.526 224.01 135.59 224.01C133.736 224.01 132.188 222.336 132.188 220.338C132.188 218.358 133.736 216.684 135.59 216.684C136.508 216.684 137.354 217.098 137.966 217.764L138.902 216.846C138.02 216 136.85 215.478 135.59 215.478C132.98 215.478 130.766 217.692 130.766 220.338C130.766 222.984 132.98 225.216 135.59 225.216ZM147.578 215.694V221.616C147.578 222.912 146.264 224.01 144.698 224.01C143.33 224.01 142.376 222.948 142.376 221.436V215.694H141.026V221.616C141.026 223.722 142.466 225.216 144.518 225.216C145.832 225.216 147.038 224.496 147.578 223.506V225H148.928V215.694H147.578ZM154.973 225.216C156.899 225.216 158.375 224.118 158.375 222.408C158.375 220.644 156.827 220.14 155.333 219.672C153.605 219.114 152.921 218.862 152.921 218.052C152.921 217.152 153.785 216.684 154.829 216.684C155.657 216.684 156.575 216.972 157.511 217.566L158.159 216.522C157.169 215.874 155.981 215.478 154.829 215.478C152.975 215.478 151.571 216.522 151.571 218.214C151.571 219.546 152.435 220.212 154.685 220.86C155.945 221.22 157.025 221.544 157.025 222.552C157.025 223.434 156.197 224.01 154.973 224.01C153.947 224.01 152.885 223.614 151.823 222.84L151.121 223.83C152.237 224.73 153.677 225.216 154.973 225.216ZM164.694 223.632C164.496 223.848 164.136 224.01 163.722 224.01C163.182 224.01 162.714 223.524 162.714 222.84V216.9H165V215.694H162.714V213.138H161.364V215.694H159.906V216.9H161.364V222.84C161.364 224.226 162.3 225.216 163.632 225.216C164.262 225.216 164.874 225 165.36 224.622L164.694 223.632ZM171.59 225.216C174.2 225.216 176.396 222.984 176.396 220.338C176.396 217.692 174.2 215.478 171.59 215.478C168.98 215.478 166.766 217.692 166.766 220.338C166.766 222.984 168.98 225.216 171.59 225.216ZM171.59 224.01C169.736 224.01 168.188 222.336 168.188 220.338C168.188 218.358 169.736 216.684 171.59 216.684C173.426 216.684 174.974 218.358 174.974 220.338C174.974 222.336 173.426 224.01 171.59 224.01ZM188.688 215.478C187.284 215.478 186.06 216.252 185.682 217.458C185.178 216.252 184.08 215.478 182.676 215.478C181.452 215.478 180.444 216.09 179.976 217.062V215.694H178.626V225H179.976V219.078C179.976 217.674 181.02 216.684 182.496 216.684C183.756 216.684 184.638 217.746 184.638 219.258V225H185.988V219.078C185.988 217.674 187.032 216.684 188.508 216.684C189.768 216.684 190.65 217.746 190.65 219.258V225H192V219.078C192 216.972 190.632 215.478 188.688 215.478ZM198.921 224.01C197.085 224.01 195.807 222.678 195.609 220.86H203.223C203.223 217.602 201.621 215.478 198.813 215.478C196.311 215.478 194.223 217.548 194.223 220.32C194.223 223.182 196.455 225.216 198.939 225.216C200.235 225.216 201.873 224.658 202.683 223.776L201.855 222.894C201.279 223.524 200.019 224.01 198.921 224.01ZM198.867 216.684C200.721 216.684 201.711 217.98 201.891 219.654H195.627C195.879 217.854 197.211 216.684 198.867 216.684ZM206.908 217.512V215.694H205.558V225H206.908V219.798C206.908 217.98 208.402 216.684 210.508 216.684V215.478C208.798 215.478 207.466 216.27 206.908 217.512ZM212.016 220.77H216.678V219.456H212.016V220.77ZM221.162 214.416C221.162 213.732 221.63 213.246 222.17 213.246C222.584 213.246 222.944 213.408 223.142 213.624L223.808 212.634C223.322 212.256 222.71 212.04 222.08 212.04C220.748 212.04 219.812 213.03 219.812 214.416V215.694H218.354V216.9H219.812V225H221.162V216.9H223.448V215.694H221.162V214.416ZM229.686 225.216C232.296 225.216 234.492 222.984 234.492 220.338C234.492 217.692 232.296 215.478 229.686 215.478C227.076 215.478 224.862 217.692 224.862 220.338C224.862 222.984 227.076 225.216 229.686 225.216ZM229.686 224.01C227.832 224.01 226.284 222.336 226.284 220.338C226.284 218.358 227.832 216.684 229.686 216.684C231.522 216.684 233.07 218.358 233.07 220.338C233.07 222.336 231.522 224.01 229.686 224.01ZM241.042 225.216C242.338 225.216 243.526 224.676 244.408 223.794L243.472 222.876C242.842 223.578 241.978 224.01 241.042 224.01C239.188 224.01 237.64 222.336 237.64 220.338C237.64 218.358 239.188 216.684 241.042 216.684C241.96 216.684 242.806 217.098 243.418 217.764L244.354 216.846C243.472 216 242.302 215.478 241.042 215.478C238.432 215.478 236.218 217.692 236.218 220.338C236.218 222.984 238.432 225.216 241.042 225.216ZM253.029 215.694V221.616C253.029 222.912 251.715 224.01 250.149 224.01C248.781 224.01 247.827 222.948 247.827 221.436V215.694H246.477V221.616C246.477 223.722 247.917 225.216 249.969 225.216C251.283 225.216 252.489 224.496 253.029 223.506V225H254.379V215.694H253.029ZM260.424 225.216C262.35 225.216 263.826 224.118 263.826 222.408C263.826 220.644 262.278 220.14 260.784 219.672C259.056 219.114 258.372 218.862 258.372 218.052C258.372 217.152 259.236 216.684 260.28 216.684C261.108 216.684 262.026 216.972 262.962 217.566L263.61 216.522C262.62 215.874 261.432 215.478 260.28 215.478C258.426 215.478 257.022 216.522 257.022 218.214C257.022 219.546 257.886 220.212 260.136 220.86C261.396 221.22 262.476 221.544 262.476 222.552C262.476 223.434 261.648 224.01 260.424 224.01C259.398 224.01 258.336 223.614 257.274 222.84L256.572 223.83C257.688 224.73 259.128 225.216 260.424 225.216ZM270.253 224.01C268.417 224.01 267.139 222.678 266.941 220.86H274.555C274.555 217.602 272.953 215.478 270.145 215.478C267.643 215.478 265.555 217.548 265.555 220.32C265.555 223.182 267.787 225.216 270.271 225.216C271.567 225.216 273.205 224.658 274.015 223.776L273.187 222.894C272.611 223.524 271.351 224.01 270.253 224.01ZM270.199 216.684C272.053 216.684 273.043 217.98 273.223 219.654H266.959C267.211 217.854 268.543 216.684 270.199 216.684ZM284.036 212.418V217.44C283.334 216.216 282.146 215.478 280.652 215.478C278.204 215.478 276.368 217.494 276.368 220.338C276.368 223.2 278.204 225.216 280.652 225.216C282.146 225.216 283.334 224.478 284.036 223.254V225H285.386V212.418H284.036ZM280.904 224.01C279.086 224.01 277.79 222.48 277.79 220.338C277.79 218.196 279.086 216.684 280.904 216.684C282.74 216.684 284.036 218.196 284.036 220.338C284.036 222.48 282.74 224.01 280.904 224.01ZM295.57 214.416C295.57 213.732 296.038 213.246 296.578 213.246C296.992 213.246 297.352 213.408 297.55 213.624L298.216 212.634C297.73 212.256 297.118 212.04 296.488 212.04C295.156 212.04 294.22 213.03 294.22 214.416V215.694H292.762V216.9H294.22V225H295.57V216.9H297.856V215.694H295.57V214.416ZM300.44 214.002C300.926 214.002 301.322 213.588 301.322 213.102C301.322 212.634 300.926 212.22 300.44 212.22C299.936 212.22 299.54 212.634 299.54 213.102C299.54 213.588 299.936 214.002 300.44 214.002ZM299.756 225H301.106V215.694H299.756V225ZM308.245 215.478C306.931 215.478 305.725 216.198 305.185 217.188V215.694H303.835V225H305.185V219.078C305.185 217.782 306.499 216.684 308.065 216.684C309.433 216.684 310.387 217.746 310.387 219.258V225H311.737V219.078C311.737 216.972 310.297 215.478 308.245 215.478ZM318.25 215.478C317.35 215.478 316.234 215.712 314.902 216.378L315.442 217.476C316.288 217.044 317.224 216.63 318.16 216.63C320.176 216.63 320.68 218.07 320.68 219.33V219.672C319.726 219.366 318.664 219.15 317.656 219.15C315.658 219.15 314.002 220.392 314.002 222.246C314.002 224.082 315.442 225.216 317.404 225.216C318.628 225.216 320.014 224.64 320.68 223.542V225H322.03V219.33C322.03 217.08 320.788 215.478 318.25 215.478ZM317.638 224.028C316.324 224.028 315.316 223.344 315.316 222.192C315.316 221.076 316.486 220.284 317.872 220.284C318.88 220.284 319.834 220.428 320.68 220.662V222.084C320.32 223.398 318.862 224.028 317.638 224.028ZM329.216 215.478C327.902 215.478 326.696 216.198 326.156 217.188V215.694H324.806V225H326.156V219.078C326.156 217.782 327.47 216.684 329.036 216.684C330.404 216.684 331.358 217.746 331.358 219.258V225H332.708V219.078C332.708 216.972 331.268 215.478 329.216 215.478ZM339.76 225.216C341.056 225.216 342.244 224.676 343.126 223.794L342.19 222.876C341.56 223.578 340.696 224.01 339.76 224.01C337.906 224.01 336.358 222.336 336.358 220.338C336.358 218.358 337.906 216.684 339.76 216.684C340.678 216.684 341.524 217.098 342.136 217.764L343.072 216.846C342.19 216 341.02 215.478 339.76 215.478C337.15 215.478 334.936 217.692 334.936 220.338C334.936 222.984 337.15 225.216 339.76 225.216ZM345.862 214.002C346.348 214.002 346.744 213.588 346.744 213.102C346.744 212.634 346.348 212.22 345.862 212.22C345.358 212.22 344.962 212.634 344.962 213.102C344.962 213.588 345.358 214.002 345.862 214.002ZM345.178 225H346.528V215.694H345.178V225ZM353.019 215.478C352.119 215.478 351.003 215.712 349.671 216.378L350.211 217.476C351.057 217.044 351.993 216.63 352.929 216.63C354.945 216.63 355.449 218.07 355.449 219.33V219.672C354.495 219.366 353.433 219.15 352.425 219.15C350.427 219.15 348.771 220.392 348.771 222.246C348.771 224.082 350.211 225.216 352.173 225.216C353.397 225.216 354.783 224.64 355.449 223.542V225H356.799V219.33C356.799 217.08 355.557 215.478 353.019 215.478ZM352.407 224.028C351.093 224.028 350.085 223.344 350.085 222.192C350.085 221.076 351.255 220.284 352.641 220.284C353.649 220.284 354.603 220.428 355.449 220.662V222.084C355.089 223.398 353.631 224.028 352.407 224.028ZM359.557 225H360.907V212.418H359.557V225ZM373.716 215.478C372.222 215.478 371.034 216.216 370.332 217.44V215.694H368.982V228.096H370.332V223.254C371.034 224.478 372.222 225.216 373.716 225.216C376.164 225.216 378 223.2 378 220.338C378 217.494 376.164 215.478 373.716 215.478ZM373.464 224.01C371.628 224.01 370.332 222.48 370.332 220.338C370.332 218.196 371.628 216.684 373.464 216.684C375.282 216.684 376.578 218.196 376.578 220.338C376.578 222.48 375.282 224.01 373.464 224.01ZM381.811 217.512V215.694H380.461V225H381.811V219.798C381.811 217.98 383.305 216.684 385.411 216.684V215.478C383.701 215.478 382.369 216.27 381.811 217.512ZM391.299 225.216C393.909 225.216 396.105 222.984 396.105 220.338C396.105 217.692 393.909 215.478 391.299 215.478C388.689 215.478 386.475 217.692 386.475 220.338C386.475 222.984 388.689 225.216 391.299 225.216ZM391.299 224.01C389.445 224.01 387.897 222.336 387.897 220.338C387.897 218.358 389.445 216.684 391.299 216.684C393.135 216.684 394.683 218.358 394.683 220.338C394.683 222.336 393.135 224.01 391.299 224.01ZM405.607 212.418V217.44C404.905 216.216 403.717 215.478 402.223 215.478C399.775 215.478 397.939 217.494 397.939 220.338C397.939 223.2 399.775 225.216 402.223 225.216C403.717 225.216 404.905 224.478 405.607 223.254V225H406.957V212.418H405.607ZM402.475 224.01C400.657 224.01 399.361 222.48 399.361 220.338C399.361 218.196 400.657 216.684 402.475 216.684C404.311 216.684 405.607 218.196 405.607 220.338C405.607 222.48 404.311 224.01 402.475 224.01ZM416.365 215.694V221.616C416.365 222.912 415.051 224.01 413.485 224.01C412.117 224.01 411.163 222.948 411.163 221.436V215.694H409.813V221.616C409.813 223.722 411.253 225.216 413.305 225.216C414.619 225.216 415.825 224.496 416.365 223.506V225H417.715V215.694H416.365ZM424.786 225.216C426.082 225.216 427.27 224.676 428.152 223.794L427.216 222.876C426.586 223.578 425.722 224.01 424.786 224.01C422.932 224.01 421.384 222.336 421.384 220.338C421.384 218.358 422.932 216.684 424.786 216.684C425.704 216.684 426.55 217.098 427.162 217.764L428.098 216.846C427.216 216 426.046 215.478 424.786 215.478C422.176 215.478 419.962 217.692 419.962 220.338C419.962 222.984 422.176 225.216 424.786 225.216ZM434.308 223.632C434.11 223.848 433.75 224.01 433.336 224.01C432.796 224.01 432.328 223.524 432.328 222.84V216.9H434.614V215.694H432.328V213.138H430.978V215.694H429.52V216.9H430.978V222.84C430.978 224.226 431.914 225.216 433.246 225.216C433.876 225.216 434.488 225 434.974 224.622L434.308 223.632ZM440.178 225.216C442.104 225.216 443.58 224.118 443.58 222.408C443.58 220.644 442.032 220.14 440.538 219.672C438.81 219.114 438.126 218.862 438.126 218.052C438.126 217.152 438.99 216.684 440.034 216.684C440.862 216.684 441.78 216.972 442.716 217.566L443.364 216.522C442.374 215.874 441.186 215.478 440.034 215.478C438.18 215.478 436.776 216.522 436.776 218.214C436.776 219.546 437.64 220.212 439.89 220.86C441.15 221.22 442.23 221.544 442.23 222.552C442.23 223.434 441.402 224.01 440.178 224.01C439.152 224.01 438.09 223.614 437.028 222.84L436.326 223.83C437.442 224.73 438.882 225.216 440.178 225.216ZM446.749 225.216C447.271 225.216 447.703 224.766 447.703 224.226C447.703 223.722 447.271 223.272 446.749 223.272C446.191 223.272 445.759 223.722 445.759 224.226C445.759 224.766 446.191 225.216 446.749 225.216ZM455.911 225H461.797C463.939 225 465.469 223.596 465.469 221.616C465.469 220.266 464.641 219.15 463.219 218.43C464.335 217.782 464.983 217.026 464.983 215.712C464.983 213.912 463.579 212.634 461.581 212.634H455.911V225ZM457.315 217.872V213.912H461.221C462.589 213.912 463.561 214.74 463.561 215.892C463.561 217.044 462.589 217.872 461.221 217.872H457.315ZM457.315 223.722V219.15H461.437C462.967 219.15 464.047 220.104 464.047 221.436C464.047 222.768 462.967 223.722 461.437 223.722H457.315ZM469.242 228.24C470.52 228.222 471.42 227.628 472.068 226.044L476.316 215.694H474.858L471.78 223.434L468.522 215.694H467.028L471.078 225.036L470.538 226.188C470.178 226.818 469.782 227.016 469.188 227.016C468.792 227.016 468.414 226.944 468.09 226.782L467.766 227.934C468.198 228.132 468.702 228.24 469.242 228.24ZM488.067 225.216C489.363 225.216 490.551 224.676 491.433 223.794L490.497 222.876C489.867 223.578 489.003 224.01 488.067 224.01C486.213 224.01 484.665 222.336 484.665 220.338C484.665 218.358 486.213 216.684 488.067 216.684C488.985 216.684 489.831 217.098 490.443 217.764L491.379 216.846C490.497 216 489.327 215.478 488.067 215.478C485.457 215.478 483.243 217.692 483.243 220.338C483.243 222.984 485.457 225.216 488.067 225.216ZM497.629 225.216C500.239 225.216 502.435 222.984 502.435 220.338C502.435 217.692 500.239 215.478 497.629 215.478C495.019 215.478 492.805 217.692 492.805 220.338C492.805 222.984 495.019 225.216 497.629 225.216ZM497.629 224.01C495.775 224.01 494.227 222.336 494.227 220.338C494.227 218.358 495.775 216.684 497.629 216.684C499.465 216.684 501.013 218.358 501.013 220.338C501.013 222.336 499.465 224.01 497.629 224.01ZM514.727 215.478C513.323 215.478 512.099 216.252 511.721 217.458C511.217 216.252 510.119 215.478 508.715 215.478C507.491 215.478 506.483 216.09 506.015 217.062V215.694H504.665V225H506.015V219.078C506.015 217.674 507.059 216.684 508.535 216.684C509.795 216.684 510.677 217.746 510.677 219.258V225H512.027V219.078C512.027 217.674 513.071 216.684 514.547 216.684C515.807 216.684 516.689 217.746 516.689 219.258V225H518.039V219.078C518.039 216.972 516.671 215.478 514.727 215.478ZM525.626 215.478C524.132 215.478 522.944 216.216 522.242 217.44V212.418H520.892V225H522.242V223.254C522.944 224.478 524.132 225.216 525.626 225.216C528.074 225.216 529.91 223.2 529.91 220.338C529.91 217.494 528.074 215.478 525.626 215.478ZM525.374 224.01C523.538 224.01 522.242 222.48 522.242 220.338C522.242 218.196 523.538 216.684 525.374 216.684C527.192 216.684 528.488 218.196 528.488 220.338C528.488 222.48 527.192 224.01 525.374 224.01ZM532.911 214.002C533.397 214.002 533.793 213.588 533.793 213.102C533.793 212.634 533.397 212.22 532.911 212.22C532.407 212.22 532.011 212.634 532.011 213.102C532.011 213.588 532.407 214.002 532.911 214.002ZM532.227 225H533.577V215.694H532.227V225ZM540.716 215.478C539.402 215.478 538.196 216.198 537.656 217.188V215.694H536.306V225H537.656V219.078C537.656 217.782 538.97 216.684 540.536 216.684C541.904 216.684 542.858 217.746 542.858 219.258V225H544.208V219.078C544.208 216.972 542.768 215.478 540.716 215.478ZM547.606 214.002C548.092 214.002 548.488 213.588 548.488 213.102C548.488 212.634 548.092 212.22 547.606 212.22C547.102 212.22 546.706 212.634 546.706 213.102C546.706 213.588 547.102 214.002 547.606 214.002ZM546.922 225H548.272V215.694H546.922V225ZM555.411 215.478C554.097 215.478 552.891 216.198 552.351 217.188V215.694H551.001V225H552.351V219.078C552.351 217.782 553.665 216.684 555.231 216.684C556.599 216.684 557.553 217.746 557.553 219.258V225H558.903V219.078C558.903 216.972 557.463 215.478 555.411 215.478ZM568.872 215.694V217.296C568.152 216.162 566.964 215.478 565.488 215.478C562.986 215.478 561.204 217.296 561.204 219.888C561.204 222.48 562.986 224.316 565.488 224.316C566.964 224.316 568.152 223.632 568.872 222.498V224.01C568.872 225.828 567.612 226.89 565.47 226.89C564.318 226.89 563.202 226.476 562.482 225.792L561.888 226.854C562.734 227.574 564.138 228.096 565.65 228.096C568.332 228.096 570.222 226.404 570.222 224.01V215.694H568.872ZM565.74 223.11C563.922 223.11 562.626 221.778 562.626 219.888C562.626 218.016 563.922 216.684 565.74 216.684C567.576 216.684 568.872 218.016 568.872 219.888C568.872 221.778 567.576 223.11 565.74 223.11ZM6.228 242.478C4.734 242.478 3.546 243.216 2.844 244.44V242.694H1.494V255.096H2.844V250.254C3.546 251.478 4.734 252.216 6.228 252.216C8.676 252.216 10.512 250.2 10.512 247.338C10.512 244.494 8.676 242.478 6.228 242.478ZM5.976 251.01C4.14 251.01 2.844 249.48 2.844 247.338C2.844 245.196 4.14 243.684 5.976 243.684C7.794 243.684 9.09 245.196 9.09 247.338C9.09 249.48 7.794 251.01 5.976 251.01ZM14.3225 244.512V242.694H12.9725V252H14.3225V246.798C14.3225 244.98 15.8165 243.684 17.9225 243.684V242.478C16.2125 242.478 14.8805 243.27 14.3225 244.512ZM23.811 252.216C26.421 252.216 28.617 249.984 28.617 247.338C28.617 244.692 26.421 242.478 23.811 242.478C21.201 242.478 18.987 244.692 18.987 247.338C18.987 249.984 21.201 252.216 23.811 252.216ZM23.811 251.01C21.957 251.01 20.409 249.336 20.409 247.338C20.409 245.358 21.957 243.684 23.811 243.684C25.647 243.684 27.195 245.358 27.195 247.338C27.195 249.336 25.647 251.01 23.811 251.01ZM32.9525 241.416C32.9525 240.732 33.4205 240.246 33.9605 240.246C34.3745 240.246 34.7345 240.408 34.9325 240.624L35.5985 239.634C35.1125 239.256 34.5005 239.04 33.8705 239.04C32.5385 239.04 31.6025 240.03 31.6025 241.416V242.694H30.1445V243.9H31.6025V252H32.9525V243.9H35.2385V242.694H32.9525V241.416ZM41.3511 251.01C39.5151 251.01 38.2371 249.678 38.0391 247.86H45.6531C45.6531 244.602 44.0511 242.478 41.2431 242.478C38.7411 242.478 36.6531 244.548 36.6531 247.32C36.6531 250.182 38.8851 252.216 41.3691 252.216C42.6651 252.216 44.3031 251.658 45.1131 250.776L44.2851 249.894C43.7091 250.524 42.4491 251.01 41.3511 251.01ZM41.2971 243.684C43.1511 243.684 44.1411 244.98 44.3211 246.654H38.0571C38.3091 244.854 39.6411 243.684 41.2971 243.684ZM51.1561 252.216C53.0821 252.216 54.5581 251.118 54.5581 249.408C54.5581 247.644 53.0101 247.14 51.5161 246.672C49.7881 246.114 49.1041 245.862 49.1041 245.052C49.1041 244.152 49.9681 243.684 51.0121 243.684C51.8401 243.684 52.7581 243.972 53.6941 244.566L54.3421 243.522C53.3521 242.874 52.1641 242.478 51.0121 242.478C49.1581 242.478 47.7541 243.522 47.7541 245.214C47.7541 246.546 48.6181 247.212 50.8681 247.86C52.1281 248.22 53.2081 248.544 53.2081 249.552C53.2081 250.434 52.3801 251.01 51.1561 251.01C50.1301 251.01 49.0681 250.614 48.0061 249.84L47.3041 250.83C48.4201 251.73 49.8601 252.216 51.1561 252.216ZM60.0858 252.216C62.0118 252.216 63.4878 251.118 63.4878 249.408C63.4878 247.644 61.9398 247.14 60.4458 246.672C58.7178 246.114 58.0338 245.862 58.0338 245.052C58.0338 244.152 58.8978 243.684 59.9418 243.684C60.7698 243.684 61.6878 243.972 62.6238 244.566L63.2718 243.522C62.2818 242.874 61.0938 242.478 59.9418 242.478C58.0878 242.478 56.6838 243.522 56.6838 245.214C56.6838 246.546 57.5478 247.212 59.7978 247.86C61.0578 248.22 62.1378 248.544 62.1378 249.552C62.1378 250.434 61.3098 251.01 60.0858 251.01C59.0598 251.01 57.9978 250.614 56.9358 249.84L56.2338 250.83C57.3498 251.73 58.7898 252.216 60.0858 252.216ZM66.3875 241.002C66.8735 241.002 67.2695 240.588 67.2695 240.102C67.2695 239.634 66.8735 239.22 66.3875 239.22C65.8835 239.22 65.4875 239.634 65.4875 240.102C65.4875 240.588 65.8835 241.002 66.3875 241.002ZM65.7035 252H67.0535V242.694H65.7035V252ZM74.0845 252.216C76.6945 252.216 78.8905 249.984 78.8905 247.338C78.8905 244.692 76.6945 242.478 74.0845 242.478C71.4745 242.478 69.2605 244.692 69.2605 247.338C69.2605 249.984 71.4745 252.216 74.0845 252.216ZM74.0845 251.01C72.2305 251.01 70.6825 249.336 70.6825 247.338C70.6825 245.358 72.2305 243.684 74.0845 243.684C75.9205 243.684 77.4685 245.358 77.4685 247.338C77.4685 249.336 75.9205 251.01 74.0845 251.01ZM85.548 242.478C84.234 242.478 83.028 243.198 82.488 244.188V242.694H81.138V252H82.488V246.078C82.488 244.782 83.802 243.684 85.368 243.684C86.736 243.684 87.69 244.746 87.69 246.258V252H89.04V246.078C89.04 243.972 87.6 242.478 85.548 242.478ZM95.5523 242.478C94.6523 242.478 93.5363 242.712 92.2043 243.378L92.7443 244.476C93.5903 244.044 94.5263 243.63 95.4623 243.63C97.4783 243.63 97.9823 245.07 97.9823 246.33V246.672C97.0283 246.366 95.9663 246.15 94.9583 246.15C92.9603 246.15 91.3043 247.392 91.3043 249.246C91.3043 251.082 92.7443 252.216 94.7063 252.216C95.9303 252.216 97.3163 251.64 97.9823 250.542V252H99.3323V246.33C99.3323 244.08 98.0903 242.478 95.5523 242.478ZM94.9403 251.028C93.6263 251.028 92.6183 250.344 92.6183 249.192C92.6183 248.076 93.7883 247.284 95.1743 247.284C96.1823 247.284 97.1363 247.428 97.9823 247.662V249.084C97.6223 250.398 96.1643 251.028 94.9403 251.028ZM102.091 252H103.441V239.418H102.091V252ZM115.709 252.216C117.005 252.216 118.193 251.676 119.075 250.794L118.139 249.876C117.509 250.578 116.645 251.01 115.709 251.01C113.855 251.01 112.307 249.336 112.307 247.338C112.307 245.358 113.855 243.684 115.709 243.684C116.627 243.684 117.473 244.098 118.085 244.764L119.021 243.846C118.139 243 116.969 242.478 115.709 242.478C113.099 242.478 110.885 244.692 110.885 247.338C110.885 249.984 113.099 252.216 115.709 252.216ZM124.925 242.478C124.025 242.478 122.909 242.712 121.577 243.378L122.117 244.476C122.963 244.044 123.899 243.63 124.835 243.63C126.851 243.63 127.355 245.07 127.355 246.33V246.672C126.401 246.366 125.339 246.15 124.331 246.15C122.333 246.15 120.677 247.392 120.677 249.246C120.677 251.082 122.117 252.216 124.079 252.216C125.303 252.216 126.689 251.64 127.355 250.542V252H128.705V246.33C128.705 244.08 127.463 242.478 124.925 242.478ZM124.313 251.028C122.999 251.028 121.991 250.344 121.991 249.192C121.991 248.076 123.161 247.284 124.547 247.284C125.555 247.284 126.509 247.428 127.355 247.662V249.084C126.995 250.398 125.537 251.028 124.313 251.028ZM135.892 242.478C134.578 242.478 133.372 243.198 132.832 244.188V242.694H131.482V252H132.832V246.078C132.832 244.782 134.146 243.684 135.712 243.684C137.08 243.684 138.034 244.746 138.034 246.258V252H139.384V246.078C139.384 243.972 137.944 242.478 135.892 242.478ZM146.544 242.478C145.23 242.478 144.024 243.198 143.484 244.188V242.694H142.134V252H143.484V246.078C143.484 244.782 144.798 243.684 146.364 243.684C147.732 243.684 148.686 244.746 148.686 246.258V252H150.036V246.078C150.036 243.972 148.596 242.478 146.544 242.478ZM156.548 242.478C155.648 242.478 154.532 242.712 153.2 243.378L153.74 244.476C154.586 244.044 155.522 243.63 156.458 243.63C158.474 243.63 158.978 245.07 158.978 246.33V246.672C158.024 246.366 156.962 246.15 155.954 246.15C153.956 246.15 152.3 247.392 152.3 249.246C152.3 251.082 153.74 252.216 155.702 252.216C156.926 252.216 158.312 251.64 158.978 250.542V252H160.328V246.33C160.328 244.08 159.086 242.478 156.548 242.478ZM155.936 251.028C154.622 251.028 153.614 250.344 153.614 249.192C153.614 248.076 154.784 247.284 156.17 247.284C157.178 247.284 158.132 247.428 158.978 247.662V249.084C158.618 250.398 157.16 251.028 155.936 251.028ZM167.947 242.478C166.453 242.478 165.265 243.216 164.563 244.44V239.418H163.213V252H164.563V250.254C165.265 251.478 166.453 252.216 167.947 252.216C170.395 252.216 172.231 250.2 172.231 247.338C172.231 244.494 170.395 242.478 167.947 242.478ZM167.695 251.01C165.859 251.01 164.563 249.48 164.563 247.338C164.563 245.196 165.859 243.684 167.695 243.684C169.513 243.684 170.809 245.196 170.809 247.338C170.809 249.48 169.513 251.01 167.695 251.01ZM175.231 241.002C175.717 241.002 176.113 240.588 176.113 240.102C176.113 239.634 175.717 239.22 175.231 239.22C174.727 239.22 174.331 239.634 174.331 240.102C174.331 240.588 174.727 241.002 175.231 241.002ZM174.547 252H175.897V242.694H174.547V252ZM181.902 252.216C183.828 252.216 185.304 251.118 185.304 249.408C185.304 247.644 183.756 247.14 182.262 246.672C180.534 246.114 179.85 245.862 179.85 245.052C179.85 244.152 180.714 243.684 181.758 243.684C182.586 243.684 183.504 243.972 184.44 244.566L185.088 243.522C184.098 242.874 182.91 242.478 181.758 242.478C179.904 242.478 178.5 243.522 178.5 245.214C178.5 246.546 179.364 247.212 181.614 247.86C182.874 248.22 183.954 248.544 183.954 249.552C183.954 250.434 183.126 251.01 181.902 251.01C180.876 251.01 179.814 250.614 178.752 249.84L178.05 250.83C179.166 251.73 180.606 252.216 181.902 252.216ZM193.425 241.002C193.911 241.002 194.307 240.588 194.307 240.102C194.307 239.634 193.911 239.22 193.425 239.22C192.921 239.22 192.525 239.634 192.525 240.102C192.525 240.588 192.921 241.002 193.425 241.002ZM192.741 252H194.091V242.694H192.741V252ZM201.23 242.478C199.916 242.478 198.71 243.198 198.17 244.188V242.694H196.82V252H198.17V246.078C198.17 244.782 199.484 243.684 201.05 243.684C202.418 243.684 203.372 244.746 203.372 246.258V252H204.722V246.078C204.722 243.972 203.282 242.478 201.23 242.478ZM210.748 252.216C212.674 252.216 214.15 251.118 214.15 249.408C214.15 247.644 212.602 247.14 211.108 246.672C209.38 246.114 208.696 245.862 208.696 245.052C208.696 244.152 209.56 243.684 210.604 243.684C211.432 243.684 212.35 243.972 213.286 244.566L213.934 243.522C212.944 242.874 211.756 242.478 210.604 242.478C208.75 242.478 207.346 243.522 207.346 245.214C207.346 246.546 208.21 247.212 210.46 247.86C211.72 248.22 212.8 248.544 212.8 249.552C212.8 250.434 211.972 251.01 210.748 251.01C209.722 251.01 208.66 250.614 207.598 249.84L206.896 250.83C208.012 251.73 209.452 252.216 210.748 252.216ZM217.05 241.002C217.536 241.002 217.932 240.588 217.932 240.102C217.932 239.634 217.536 239.22 217.05 239.22C216.546 239.22 216.15 239.634 216.15 240.102C216.15 240.588 216.546 241.002 217.05 241.002ZM216.366 252H217.716V242.694H216.366V252ZM227.663 242.694V244.296C226.943 243.162 225.755 242.478 224.279 242.478C221.777 242.478 219.995 244.296 219.995 246.888C219.995 249.48 221.777 251.316 224.279 251.316C225.755 251.316 226.943 250.632 227.663 249.498V251.01C227.663 252.828 226.403 253.89 224.261 253.89C223.109 253.89 221.993 253.476 221.273 252.792L220.679 253.854C221.525 254.574 222.929 255.096 224.441 255.096C227.123 255.096 229.013 253.404 229.013 251.01V242.694H227.663ZM224.531 250.11C222.713 250.11 221.417 248.778 221.417 246.888C221.417 245.016 222.713 243.684 224.531 243.684C226.367 243.684 227.663 245.016 227.663 246.888C227.663 248.778 226.367 250.11 224.531 250.11ZM236.298 242.478C234.984 242.478 233.778 243.198 233.238 244.188V239.418H231.888V252H233.238V246.078C233.238 244.782 234.552 243.684 236.118 243.684C237.486 243.684 238.44 244.746 238.44 246.258V252H239.79V246.078C239.79 243.972 238.35 242.478 236.298 242.478ZM246.608 250.632C246.41 250.848 246.05 251.01 245.636 251.01C245.096 251.01 244.628 250.524 244.628 249.84V243.9H246.914V242.694H244.628V240.138H243.278V242.694H241.82V243.9H243.278V249.84C243.278 251.226 244.214 252.216 245.546 252.216C246.176 252.216 246.788 252 247.274 251.622L246.608 250.632ZM258.185 242.478C257.285 242.478 256.169 242.712 254.837 243.378L255.377 244.476C256.223 244.044 257.159 243.63 258.095 243.63C260.111 243.63 260.615 245.07 260.615 246.33V246.672C259.661 246.366 258.599 246.15 257.591 246.15C255.593 246.15 253.937 247.392 253.937 249.246C253.937 251.082 255.377 252.216 257.339 252.216C258.563 252.216 259.949 251.64 260.615 250.542V252H261.965V246.33C261.965 244.08 260.723 242.478 258.185 242.478ZM257.573 251.028C256.259 251.028 255.251 250.344 255.251 249.192C255.251 248.076 256.421 247.284 257.807 247.284C258.815 247.284 259.769 247.428 260.615 247.662V249.084C260.255 250.398 258.797 251.028 257.573 251.028ZM269.151 242.478C267.837 242.478 266.631 243.198 266.091 244.188V242.694H264.741V252H266.091V246.078C266.091 244.782 267.405 243.684 268.971 243.684C270.339 243.684 271.293 244.746 271.293 246.258V252H272.643V246.078C272.643 243.972 271.203 242.478 269.151 242.478ZM282.648 239.418V244.44C281.946 243.216 280.758 242.478 279.264 242.478C276.816 242.478 274.98 244.494 274.98 247.338C274.98 250.2 276.816 252.216 279.264 252.216C280.758 252.216 281.946 251.478 282.648 250.254V252H283.998V239.418H282.648ZM279.516 251.01C277.698 251.01 276.402 249.48 276.402 247.338C276.402 245.196 277.698 243.684 279.516 243.684C281.352 243.684 282.648 245.196 282.648 247.338C282.648 249.48 281.352 251.01 279.516 251.01ZM299.347 239.418V244.44C298.645 243.216 297.457 242.478 295.963 242.478C293.515 242.478 291.679 244.494 291.679 247.338C291.679 250.2 293.515 252.216 295.963 252.216C297.457 252.216 298.645 251.478 299.347 250.254V252H300.697V239.418H299.347ZM296.215 251.01C294.397 251.01 293.101 249.48 293.101 247.338C293.101 245.196 294.397 243.684 296.215 243.684C298.051 243.684 299.347 245.196 299.347 247.338C299.347 249.48 298.051 251.01 296.215 251.01ZM304.22 241.002C304.706 241.002 305.102 240.588 305.102 240.102C305.102 239.634 304.706 239.22 304.22 239.22C303.716 239.22 303.32 239.634 303.32 240.102C303.32 240.588 303.716 241.002 304.22 241.002ZM303.536 252H304.886V242.694H303.536V252ZM314.833 242.694V244.296C314.113 243.162 312.925 242.478 311.449 242.478C308.947 242.478 307.165 244.296 307.165 246.888C307.165 249.48 308.947 251.316 311.449 251.316C312.925 251.316 314.113 250.632 314.833 249.498V251.01C314.833 252.828 313.573 253.89 311.431 253.89C310.279 253.89 309.163 253.476 308.443 252.792L307.849 253.854C308.695 254.574 310.099 255.096 311.611 255.096C314.293 255.096 316.183 253.404 316.183 251.01V242.694H314.833ZM311.701 250.11C309.883 250.11 308.587 248.778 308.587 246.888C308.587 245.016 309.883 243.684 311.701 243.684C313.537 243.684 314.833 245.016 314.833 246.888C314.833 248.778 313.537 250.11 311.701 250.11ZM319.706 241.002C320.192 241.002 320.588 240.588 320.588 240.102C320.588 239.634 320.192 239.22 319.706 239.22C319.202 239.22 318.806 239.634 318.806 240.102C318.806 240.588 319.202 241.002 319.706 241.002ZM319.022 252H320.372V242.694H319.022V252ZM327.169 250.632C326.971 250.848 326.611 251.01 326.197 251.01C325.657 251.01 325.189 250.524 325.189 249.84V243.9H327.475V242.694H325.189V240.138H323.839V242.694H322.381V243.9H323.839V249.84C323.839 251.226 324.775 252.216 326.107 252.216C326.737 252.216 327.349 252 327.835 251.622L327.169 250.632ZM333.525 242.478C332.625 242.478 331.509 242.712 330.177 243.378L330.717 244.476C331.563 244.044 332.499 243.63 333.435 243.63C335.451 243.63 335.955 245.07 335.955 246.33V246.672C335.001 246.366 333.939 246.15 332.931 246.15C330.933 246.15 329.277 247.392 329.277 249.246C329.277 251.082 330.717 252.216 332.679 252.216C333.903 252.216 335.289 251.64 335.955 250.542V252H337.305V246.33C337.305 244.08 336.063 242.478 333.525 242.478ZM332.913 251.028C331.599 251.028 330.591 250.344 330.591 249.192C330.591 248.076 331.761 247.284 333.147 247.284C334.155 247.284 335.109 247.428 335.955 247.662V249.084C335.595 250.398 334.137 251.028 332.913 251.028ZM340.063 252H341.413V239.418H340.063V252ZM353.556 251.01C351.72 251.01 350.442 249.678 350.244 247.86H357.858C357.858 244.602 356.256 242.478 353.448 242.478C350.946 242.478 348.858 244.548 348.858 247.32C348.858 250.182 351.09 252.216 353.574 252.216C354.87 252.216 356.508 251.658 357.318 250.776L356.49 249.894C355.914 250.524 354.654 251.01 353.556 251.01ZM353.502 243.684C355.356 243.684 356.346 244.98 356.526 246.654H350.262C350.514 244.854 351.846 243.684 353.502 243.684ZM368.041 252L364.459 247.248L367.897 242.694H366.313L363.667 246.204L361.003 242.694H359.419L362.875 247.248L359.275 252H360.859L363.667 248.292L366.457 252H368.041ZM374.841 242.478C373.347 242.478 372.159 243.216 371.457 244.44V242.694H370.107V255.096H371.457V250.254C372.159 251.478 373.347 252.216 374.841 252.216C377.289 252.216 379.125 250.2 379.125 247.338C379.125 244.494 377.289 242.478 374.841 242.478ZM374.589 251.01C372.753 251.01 371.457 249.48 371.457 247.338C371.457 245.196 372.753 243.684 374.589 243.684C376.407 243.684 377.703 245.196 377.703 247.338C377.703 249.48 376.407 251.01 374.589 251.01ZM385.654 251.01C383.818 251.01 382.54 249.678 382.342 247.86H389.956C389.956 244.602 388.354 242.478 385.546 242.478C383.044 242.478 380.956 244.548 380.956 247.32C380.956 250.182 383.188 252.216 385.672 252.216C386.968 252.216 388.606 251.658 389.416 250.776L388.588 249.894C388.012 250.524 386.752 251.01 385.654 251.01ZM385.6 243.684C387.454 243.684 388.444 244.98 388.624 246.654H382.36C382.612 244.854 383.944 243.684 385.6 243.684ZM393.641 244.512V242.694H392.291V252H393.641V246.798C393.641 244.98 395.135 243.684 397.241 243.684V242.478C395.531 242.478 394.199 243.27 393.641 244.512ZM403.194 250.632C402.996 250.848 402.636 251.01 402.222 251.01C401.682 251.01 401.214 250.524 401.214 249.84V243.9H403.5V242.694H401.214V240.138H399.864V242.694H398.406V243.9H399.864V249.84C399.864 251.226 400.8 252.216 402.132 252.216C402.762 252.216 403.374 252 403.86 251.622L403.194 250.632ZM406.436 241.002C406.922 241.002 407.318 240.588 407.318 240.102C407.318 239.634 406.922 239.22 406.436 239.22C405.932 239.22 405.536 239.634 405.536 240.102C405.536 240.588 405.932 241.002 406.436 241.002ZM405.752 252H407.102V242.694H405.752V252ZM413.107 252.216C415.033 252.216 416.509 251.118 416.509 249.408C416.509 247.644 414.961 247.14 413.467 246.672C411.739 246.114 411.055 245.862 411.055 245.052C411.055 244.152 411.919 243.684 412.963 243.684C413.791 243.684 414.709 243.972 415.645 244.566L416.293 243.522C415.303 242.874 414.115 242.478 412.963 242.478C411.109 242.478 409.705 243.522 409.705 245.214C409.705 246.546 410.569 247.212 412.819 247.86C414.079 248.22 415.159 248.544 415.159 249.552C415.159 250.434 414.331 251.01 413.107 251.01C412.081 251.01 411.019 250.614 409.957 249.84L409.255 250.83C410.371 251.73 411.811 252.216 413.107 252.216ZM422.937 251.01C421.101 251.01 419.823 249.678 419.625 247.86H427.239C427.239 244.602 425.637 242.478 422.829 242.478C420.327 242.478 418.239 244.548 418.239 247.32C418.239 250.182 420.471 252.216 422.955 252.216C424.251 252.216 425.889 251.658 426.699 250.776L425.871 249.894C425.295 250.524 424.035 251.01 422.937 251.01ZM422.883 243.684C424.737 243.684 425.727 244.98 425.907 246.654H419.643C419.895 244.854 421.227 243.684 422.883 243.684ZM430.168 254.394C431.248 253.044 431.554 252.432 431.554 251.712C431.554 250.884 431.14 250.272 430.456 250.272C429.88 250.272 429.466 250.722 429.466 251.226C429.466 251.766 429.898 252.216 430.438 252.216C430.294 252.774 429.988 253.332 429.502 253.89L430.168 254.394ZM441.791 252H443.069L445.571 244.566L448.037 252H449.315L452.447 242.694H451.007L448.685 250.2L446.147 242.694H444.977L442.439 250.2L440.117 242.694H438.677L441.791 252ZM458.146 251.01C456.31 251.01 455.032 249.678 454.834 247.86H462.448C462.448 244.602 460.846 242.478 458.038 242.478C455.536 242.478 453.448 244.548 453.448 247.32C453.448 250.182 455.68 252.216 458.164 252.216C459.46 252.216 461.098 251.658 461.908 250.776L461.08 249.894C460.504 250.524 459.244 251.01 458.146 251.01ZM458.092 243.684C459.946 243.684 460.936 244.98 461.116 246.654H454.852C455.104 244.854 456.436 243.684 458.092 243.684ZM465.377 243.972C466.457 242.622 466.763 242.01 466.763 241.29C466.763 240.462 466.349 239.85 465.665 239.85C465.089 239.85 464.675 240.3 464.675 240.804C464.675 241.344 465.107 241.794 465.647 241.794C465.503 242.352 465.197 242.91 464.711 243.468L465.377 243.972ZM470.879 244.512V242.694H469.529V252H470.879V246.798C470.879 244.98 472.373 243.684 474.479 243.684V242.478C472.769 242.478 471.437 243.27 470.879 244.512ZM480.541 251.01C478.705 251.01 477.427 249.678 477.229 247.86H484.843C484.843 244.602 483.241 242.478 480.433 242.478C477.931 242.478 475.843 244.548 475.843 247.32C475.843 250.182 478.075 252.216 480.559 252.216C481.855 252.216 483.493 251.658 484.303 250.776L483.475 249.894C482.899 250.524 481.639 251.01 480.541 251.01ZM480.487 243.684C482.341 243.684 483.331 244.98 483.511 246.654H477.247C477.499 244.854 478.831 243.684 480.487 243.684ZM5.454 277.632C5.256 277.848 4.896 278.01 4.482 278.01C3.942 278.01 3.474 277.524 3.474 276.84V270.9H5.76V269.694H3.474V267.138H2.124V269.694H0.666V270.9H2.124V276.84C2.124 278.226 3.06 279.216 4.392 279.216C5.022 279.216 5.634 279 6.12 278.622L5.454 277.632ZM9.50611 271.512V269.694H8.15611V279H9.50611V273.798C9.50611 271.98 11.0001 270.684 13.1061 270.684V269.478C11.3961 269.478 10.0641 270.27 9.50611 271.512ZM18.7535 269.478C17.8535 269.478 16.7375 269.712 15.4055 270.378L15.9455 271.476C16.7915 271.044 17.7275 270.63 18.6635 270.63C20.6795 270.63 21.1835 272.07 21.1835 273.33V273.672C20.2295 273.366 19.1675 273.15 18.1595 273.15C16.1615 273.15 14.5055 274.392 14.5055 276.246C14.5055 278.082 15.9455 279.216 17.9075 279.216C19.1315 279.216 20.5175 278.64 21.1835 277.542V279H22.5335V273.33C22.5335 271.08 21.2915 269.478 18.7535 269.478ZM18.1415 278.028C16.8275 278.028 15.8195 277.344 15.8195 276.192C15.8195 275.076 16.9895 274.284 18.3755 274.284C19.3835 274.284 20.3375 274.428 21.1835 274.662V276.084C20.8235 277.398 19.3655 278.028 18.1415 278.028ZM29.7198 269.478C28.4058 269.478 27.1998 270.198 26.6598 271.188V269.694H25.3098V279H26.6598V273.078C26.6598 271.782 27.9738 270.684 29.5398 270.684C30.9078 270.684 31.8618 271.746 31.8618 273.258V279H33.2118V273.078C33.2118 270.972 31.7718 269.478 29.7198 269.478ZM39.2382 279.216C41.1642 279.216 42.6402 278.118 42.6402 276.408C42.6402 274.644 41.0922 274.14 39.5982 273.672C37.8702 273.114 37.1862 272.862 37.1862 272.052C37.1862 271.152 38.0502 270.684 39.0942 270.684C39.9222 270.684 40.8402 270.972 41.7762 271.566L42.4242 270.522C41.4342 269.874 40.2462 269.478 39.0942 269.478C37.2402 269.478 35.8362 270.522 35.8362 272.214C35.8362 273.546 36.7002 274.212 38.9502 274.86C40.2102 275.22 41.2902 275.544 41.2902 276.552C41.2902 277.434 40.4622 278.01 39.2382 278.01C38.2122 278.01 37.1502 277.614 36.0882 276.84L35.3862 277.83C36.5022 278.73 37.9422 279.216 39.2382 279.216ZM46.9799 268.416C46.9799 267.732 47.4479 267.246 47.9879 267.246C48.4019 267.246 48.7619 267.408 48.9599 267.624L49.6259 266.634C49.1399 266.256 48.5279 266.04 47.8979 266.04C46.5659 266.04 45.6299 267.03 45.6299 268.416V269.694H44.1719V270.9H45.6299V279H46.9799V270.9H49.2659V269.694H46.9799V268.416ZM55.5044 279.216C58.1144 279.216 60.3104 276.984 60.3104 274.338C60.3104 271.692 58.1144 269.478 55.5044 269.478C52.8944 269.478 50.6804 271.692 50.6804 274.338C50.6804 276.984 52.8944 279.216 55.5044 279.216ZM55.5044 278.01C53.6504 278.01 52.1024 276.336 52.1024 274.338C52.1024 272.358 53.6504 270.684 55.5044 270.684C57.3404 270.684 58.8884 272.358 58.8884 274.338C58.8884 276.336 57.3404 278.01 55.5044 278.01ZM64.0159 271.512V269.694H62.6659V279H64.0159V273.798C64.0159 271.98 65.5099 270.684 67.6159 270.684V269.478C65.9059 269.478 64.5739 270.27 64.0159 271.512ZM79.5452 269.478C78.1412 269.478 76.9172 270.252 76.5392 271.458C76.0352 270.252 74.9372 269.478 73.5332 269.478C72.3092 269.478 71.3012 270.09 70.8332 271.062V269.694H69.4832V279H70.8332V273.078C70.8332 271.674 71.8772 270.684 73.3532 270.684C74.6132 270.684 75.4952 271.746 75.4952 273.258V279H76.8452V273.078C76.8452 271.674 77.8892 270.684 79.3652 270.684C80.6252 270.684 81.5072 271.746 81.5072 273.258V279H82.8572V273.078C82.8572 270.972 81.4892 269.478 79.5452 269.478ZM86.2508 268.002C86.7368 268.002 87.1328 267.588 87.1328 267.102C87.1328 266.634 86.7368 266.22 86.2508 266.22C85.7468 266.22 85.3508 266.634 85.3508 267.102C85.3508 267.588 85.7468 268.002 86.2508 268.002ZM85.5668 279H86.9168V269.694H85.5668V279ZM94.0558 269.478C92.7418 269.478 91.5358 270.198 90.9958 271.188V269.694H89.6458V279H90.9958V273.078C90.9958 271.782 92.3098 270.684 93.8758 270.684C95.2438 270.684 96.1978 271.746 96.1978 273.258V279H97.5478V273.078C97.5478 270.972 96.1078 269.478 94.0558 269.478ZM107.516 269.694V271.296C106.796 270.162 105.608 269.478 104.132 269.478C101.63 269.478 99.8481 271.296 99.8481 273.888C99.8481 276.48 101.63 278.316 104.132 278.316C105.608 278.316 106.796 277.632 107.516 276.498V278.01C107.516 279.828 106.256 280.89 104.114 280.89C102.962 280.89 101.846 280.476 101.126 279.792L100.532 280.854C101.378 281.574 102.782 282.096 104.294 282.096C106.976 282.096 108.866 280.404 108.866 278.01V269.694H107.516ZM104.384 277.11C102.566 277.11 101.27 275.778 101.27 273.888C101.27 272.016 102.566 270.684 104.384 270.684C106.22 270.684 107.516 272.016 107.516 273.888C107.516 275.778 106.22 277.11 104.384 277.11ZM121.804 269.478C120.31 269.478 119.122 270.216 118.42 271.44V266.418H117.07V279H118.42V277.254C119.122 278.478 120.31 279.216 121.804 279.216C124.252 279.216 126.088 277.2 126.088 274.338C126.088 271.494 124.252 269.478 121.804 269.478ZM121.552 278.01C119.716 278.01 118.42 276.48 118.42 274.338C118.42 272.196 119.716 270.684 121.552 270.684C123.37 270.684 124.666 272.196 124.666 274.338C124.666 276.48 123.37 278.01 121.552 278.01ZM132.203 269.478C131.303 269.478 130.187 269.712 128.855 270.378L129.395 271.476C130.241 271.044 131.177 270.63 132.113 270.63C134.129 270.63 134.633 272.07 134.633 273.33V273.672C133.679 273.366 132.617 273.15 131.609 273.15C129.611 273.15 127.955 274.392 127.955 276.246C127.955 278.082 129.395 279.216 131.357 279.216C132.581 279.216 133.967 278.64 134.633 277.542V279H135.983V273.33C135.983 271.08 134.741 269.478 132.203 269.478ZM131.591 278.028C130.277 278.028 129.269 277.344 129.269 276.192C129.269 275.076 130.439 274.284 131.825 274.284C132.833 274.284 133.787 274.428 134.633 274.662V276.084C134.273 277.398 132.815 278.028 131.591 278.028ZM143.169 269.478C141.855 269.478 140.649 270.198 140.109 271.188V269.694H138.759V279H140.109V273.078C140.109 271.782 141.423 270.684 142.989 270.684C144.357 270.684 145.311 271.746 145.311 273.258V279H146.661V273.078C146.661 270.972 145.221 269.478 143.169 269.478ZM157.547 269.694H155.819L150.725 274.842V266.418H149.375V279H150.725V276.534L152.399 274.878L155.621 279H157.313L153.353 273.96L157.547 269.694ZM159.833 268.002C160.319 268.002 160.715 267.588 160.715 267.102C160.715 266.634 160.319 266.22 159.833 266.22C159.329 266.22 158.933 266.634 158.933 267.102C158.933 267.588 159.329 268.002 159.833 268.002ZM159.149 279H160.499V269.694H159.149V279ZM167.638 269.478C166.324 269.478 165.118 270.198 164.578 271.188V269.694H163.228V279H164.578V273.078C164.578 271.782 165.892 270.684 167.458 270.684C168.826 270.684 169.78 271.746 169.78 273.258V279H171.13V273.078C171.13 270.972 169.69 269.478 167.638 269.478ZM181.098 269.694V271.296C180.378 270.162 179.19 269.478 177.714 269.478C175.212 269.478 173.43 271.296 173.43 273.888C173.43 276.48 175.212 278.316 177.714 278.316C179.19 278.316 180.378 277.632 181.098 276.498V278.01C181.098 279.828 179.838 280.89 177.696 280.89C176.544 280.89 175.428 280.476 174.708 279.792L174.114 280.854C174.96 281.574 176.364 282.096 177.876 282.096C180.558 282.096 182.448 280.404 182.448 278.01V269.694H181.098ZM177.966 277.11C176.148 277.11 174.852 275.778 174.852 273.888C174.852 272.016 176.148 270.684 177.966 270.684C179.802 270.684 181.098 272.016 181.098 273.888C181.098 275.778 179.802 277.11 177.966 277.11ZM192.632 268.416C192.632 267.732 193.1 267.246 193.64 267.246C194.054 267.246 194.414 267.408 194.612 267.624L195.278 266.634C194.792 266.256 194.18 266.04 193.55 266.04C192.218 266.04 191.282 267.03 191.282 268.416V269.694H189.824V270.9H191.282V279H192.632V270.9H194.918V269.694H192.632V268.416ZM201.157 279.216C203.767 279.216 205.963 276.984 205.963 274.338C205.963 271.692 203.767 269.478 201.157 269.478C198.547 269.478 196.333 271.692 196.333 274.338C196.333 276.984 198.547 279.216 201.157 279.216ZM201.157 278.01C199.303 278.01 197.755 276.336 197.755 274.338C197.755 272.358 199.303 270.684 201.157 270.684C202.993 270.684 204.541 272.358 204.541 274.338C204.541 276.336 202.993 278.01 201.157 278.01ZM209.668 271.512V269.694H208.318V279H209.668V273.798C209.668 271.98 211.162 270.684 213.268 270.684V269.478C211.558 269.478 210.226 270.27 209.668 271.512ZM224.442 277.632C224.244 277.848 223.884 278.01 223.47 278.01C222.93 278.01 222.462 277.524 222.462 276.84V270.9H224.748V269.694H222.462V267.138H221.112V269.694H219.654V270.9H221.112V276.84C221.112 278.226 222.048 279.216 223.38 279.216C224.01 279.216 224.622 279 225.108 278.622L224.442 277.632ZM231.446 269.478C230.132 269.478 228.926 270.198 228.386 271.188V266.418H227.036V279H228.386V273.078C228.386 271.782 229.7 270.684 231.266 270.684C232.634 270.684 233.588 271.746 233.588 273.258V279H234.938V273.078C234.938 270.972 233.498 269.478 231.446 269.478ZM241.865 278.01C240.029 278.01 238.751 276.678 238.553 274.86H246.167C246.167 271.602 244.565 269.478 241.757 269.478C239.255 269.478 237.167 271.548 237.167 274.32C237.167 277.182 239.399 279.216 241.883 279.216C243.179 279.216 244.817 278.658 245.627 277.776L244.799 276.894C244.223 277.524 242.963 278.01 241.865 278.01ZM241.811 270.684C243.665 270.684 244.655 271.98 244.835 273.654H238.571C238.823 271.854 240.155 270.684 241.811 270.684ZM257.917 279.216C259.213 279.216 260.401 278.676 261.283 277.794L260.347 276.876C259.717 277.578 258.853 278.01 257.917 278.01C256.063 278.01 254.515 276.336 254.515 274.338C254.515 272.358 256.063 270.684 257.917 270.684C258.835 270.684 259.681 271.098 260.293 271.764L261.229 270.846C260.347 270 259.177 269.478 257.917 269.478C255.307 269.478 253.093 271.692 253.093 274.338C253.093 276.984 255.307 279.216 257.917 279.216ZM267.132 269.478C266.232 269.478 265.116 269.712 263.784 270.378L264.324 271.476C265.17 271.044 266.106 270.63 267.042 270.63C269.058 270.63 269.562 272.07 269.562 273.33V273.672C268.608 273.366 267.546 273.15 266.538 273.15C264.54 273.15 262.884 274.392 262.884 276.246C262.884 278.082 264.324 279.216 266.286 279.216C267.51 279.216 268.896 278.64 269.562 277.542V279H270.912V273.33C270.912 271.08 269.67 269.478 267.132 269.478ZM266.52 278.028C265.206 278.028 264.198 277.344 264.198 276.192C264.198 275.076 265.368 274.284 266.754 274.284C267.762 274.284 268.716 274.428 269.562 274.662V276.084C269.202 277.398 267.744 278.028 266.52 278.028ZM278.099 269.478C276.785 269.478 275.579 270.198 275.039 271.188V269.694H273.689V279H275.039V273.078C275.039 271.782 276.353 270.684 277.919 270.684C279.287 270.684 280.241 271.746 280.241 273.258V279H281.591V273.078C281.591 270.972 280.151 269.478 278.099 269.478ZM288.751 269.478C287.437 269.478 286.231 270.198 285.691 271.188V269.694H284.341V279H285.691V273.078C285.691 271.782 287.005 270.684 288.571 270.684C289.939 270.684 290.893 271.746 290.893 273.258V279H292.243V273.078C292.243 270.972 290.803 269.478 288.751 269.478ZM298.755 269.478C297.855 269.478 296.739 269.712 295.407 270.378L295.947 271.476C296.793 271.044 297.729 270.63 298.665 270.63C300.681 270.63 301.185 272.07 301.185 273.33V273.672C300.231 273.366 299.169 273.15 298.161 273.15C296.163 273.15 294.507 274.392 294.507 276.246C294.507 278.082 295.947 279.216 297.909 279.216C299.133 279.216 300.519 278.64 301.185 277.542V279H302.535V273.33C302.535 271.08 301.293 269.478 298.755 269.478ZM298.143 278.028C296.829 278.028 295.821 277.344 295.821 276.192C295.821 275.076 296.991 274.284 298.377 274.284C299.385 274.284 300.339 274.428 301.185 274.662V276.084C300.825 277.398 299.367 278.028 298.143 278.028ZM310.154 269.478C308.66 269.478 307.472 270.216 306.77 271.44V266.418H305.42V279H306.77V277.254C307.472 278.478 308.66 279.216 310.154 279.216C312.602 279.216 314.438 277.2 314.438 274.338C314.438 271.494 312.602 269.478 310.154 269.478ZM309.902 278.01C308.066 278.01 306.77 276.48 306.77 274.338C306.77 272.196 308.066 270.684 309.902 270.684C311.72 270.684 313.016 272.196 313.016 274.338C313.016 276.48 311.72 278.01 309.902 278.01ZM317.438 268.002C317.924 268.002 318.32 267.588 318.32 267.102C318.32 266.634 317.924 266.22 317.438 266.22C316.934 266.22 316.538 266.634 316.538 267.102C316.538 267.588 316.934 268.002 317.438 268.002ZM316.754 279H318.104V269.694H316.754V279ZM324.109 279.216C326.035 279.216 327.511 278.118 327.511 276.408C327.511 274.644 325.963 274.14 324.469 273.672C322.741 273.114 322.057 272.862 322.057 272.052C322.057 271.152 322.921 270.684 323.965 270.684C324.793 270.684 325.711 270.972 326.647 271.566L327.295 270.522C326.305 269.874 325.117 269.478 323.965 269.478C322.111 269.478 320.707 270.522 320.707 272.214C320.707 273.546 321.571 274.212 323.821 274.86C325.081 275.22 326.161 275.544 326.161 276.552C326.161 277.434 325.333 278.01 324.109 278.01C323.083 278.01 322.021 277.614 320.959 276.84L320.257 277.83C321.373 278.73 322.813 279.216 324.109 279.216ZM338.26 279.216C340.186 279.216 341.662 278.118 341.662 276.408C341.662 274.644 340.114 274.14 338.62 273.672C336.892 273.114 336.208 272.862 336.208 272.052C336.208 271.152 337.072 270.684 338.116 270.684C338.944 270.684 339.862 270.972 340.798 271.566L341.446 270.522C340.456 269.874 339.268 269.478 338.116 269.478C336.262 269.478 334.858 270.522 334.858 272.214C334.858 273.546 335.722 274.212 337.972 274.86C339.232 275.22 340.312 275.544 340.312 276.552C340.312 277.434 339.484 278.01 338.26 278.01C337.234 278.01 336.172 277.614 335.11 276.84L334.408 277.83C335.524 278.73 336.964 279.216 338.26 279.216ZM348.755 269.478C347.261 269.478 346.073 270.216 345.371 271.44V269.694H344.021V282.096H345.371V277.254C346.073 278.478 347.261 279.216 348.755 279.216C351.203 279.216 353.039 277.2 353.039 274.338C353.039 271.494 351.203 269.478 348.755 269.478ZM348.503 278.01C346.667 278.01 345.371 276.48 345.371 274.338C345.371 272.196 346.667 270.684 348.503 270.684C350.321 270.684 351.617 272.196 351.617 274.338C351.617 276.48 350.321 278.01 348.503 278.01ZM359.154 269.478C358.254 269.478 357.138 269.712 355.806 270.378L356.346 271.476C357.192 271.044 358.128 270.63 359.064 270.63C361.08 270.63 361.584 272.07 361.584 273.33V273.672C360.63 273.366 359.568 273.15 358.56 273.15C356.562 273.15 354.906 274.392 354.906 276.246C354.906 278.082 356.346 279.216 358.308 279.216C359.532 279.216 360.918 278.64 361.584 277.542V279H362.934V273.33C362.934 271.08 361.692 269.478 359.154 269.478ZM358.542 278.028C357.228 278.028 356.22 277.344 356.22 276.192C356.22 275.076 357.39 274.284 358.776 274.284C359.784 274.284 360.738 274.428 361.584 274.662V276.084C361.224 277.398 359.766 278.028 358.542 278.028ZM370.012 279.216C371.308 279.216 372.496 278.676 373.378 277.794L372.442 276.876C371.812 277.578 370.948 278.01 370.012 278.01C368.158 278.01 366.61 276.336 366.61 274.338C366.61 272.358 368.158 270.684 370.012 270.684C370.93 270.684 371.776 271.098 372.388 271.764L373.324 270.846C372.442 270 371.272 269.478 370.012 269.478C367.402 269.478 365.188 271.692 365.188 274.338C365.188 276.984 367.402 279.216 370.012 279.216ZM379.642 278.01C377.806 278.01 376.528 276.678 376.33 274.86H383.944C383.944 271.602 382.342 269.478 379.534 269.478C377.032 269.478 374.944 271.548 374.944 274.32C374.944 277.182 377.176 279.216 379.66 279.216C380.956 279.216 382.594 278.658 383.404 277.776L382.576 276.894C382 277.524 380.74 278.01 379.642 278.01ZM379.588 270.684C381.442 270.684 382.432 271.98 382.612 273.654H376.348C376.6 271.854 377.932 270.684 379.588 270.684ZM395.154 269.478C394.254 269.478 393.138 269.712 391.806 270.378L392.346 271.476C393.192 271.044 394.128 270.63 395.064 270.63C397.08 270.63 397.584 272.07 397.584 273.33V273.672C396.63 273.366 395.568 273.15 394.56 273.15C392.562 273.15 390.906 274.392 390.906 276.246C390.906 278.082 392.346 279.216 394.308 279.216C395.532 279.216 396.918 278.64 397.584 277.542V279H398.934V273.33C398.934 271.08 397.692 269.478 395.154 269.478ZM394.542 278.028C393.228 278.028 392.22 277.344 392.22 276.192C392.22 275.076 393.39 274.284 394.776 274.284C395.784 274.284 396.738 274.428 397.584 274.662V276.084C397.224 277.398 395.766 278.028 394.542 278.028ZM404.986 279.216C406.912 279.216 408.388 278.118 408.388 276.408C408.388 274.644 406.84 274.14 405.346 273.672C403.618 273.114 402.934 272.862 402.934 272.052C402.934 271.152 403.798 270.684 404.842 270.684C405.67 270.684 406.588 270.972 407.524 271.566L408.172 270.522C407.182 269.874 405.994 269.478 404.842 269.478C402.988 269.478 401.584 270.522 401.584 272.214C401.584 273.546 402.448 274.212 404.698 274.86C405.958 275.22 407.038 275.544 407.038 276.552C407.038 277.434 406.21 278.01 404.986 278.01C403.96 278.01 402.898 277.614 401.836 276.84L401.134 277.83C402.25 278.73 403.69 279.216 404.986 279.216ZM418.219 279H419.497L421.999 271.566L424.465 279H425.743L428.875 269.694H427.435L425.113 277.2L422.575 269.694H421.405L418.867 277.2L416.545 269.694H415.105L418.219 279ZM434.574 278.01C432.738 278.01 431.46 276.678 431.262 274.86H438.876C438.876 271.602 437.274 269.478 434.466 269.478C431.964 269.478 429.876 271.548 429.876 274.32C429.876 277.182 432.108 279.216 434.592 279.216C435.888 279.216 437.526 278.658 438.336 277.776L437.508 276.894C436.932 277.524 435.672 278.01 434.574 278.01ZM434.52 270.684C436.374 270.684 437.364 271.98 437.544 273.654H431.28C431.532 271.854 432.864 270.684 434.52 270.684ZM454.46 269.694H452.732L447.638 274.842V266.418H446.288V279H447.638V276.534L449.312 274.878L452.534 279H454.226L450.266 273.96L454.46 269.694ZM460.507 269.478C459.193 269.478 457.987 270.198 457.447 271.188V269.694H456.097V279H457.447V273.078C457.447 271.782 458.761 270.684 460.327 270.684C461.695 270.684 462.649 271.746 462.649 273.258V279H463.999V273.078C463.999 270.972 462.559 269.478 460.507 269.478ZM471.051 279.216C473.661 279.216 475.857 276.984 475.857 274.338C475.857 271.692 473.661 269.478 471.051 269.478C468.441 269.478 466.227 271.692 466.227 274.338C466.227 276.984 468.441 279.216 471.051 279.216ZM471.051 278.01C469.197 278.01 467.649 276.336 467.649 274.338C467.649 272.358 469.197 270.684 471.051 270.684C472.887 270.684 474.435 272.358 474.435 274.338C474.435 276.336 472.887 278.01 471.051 278.01ZM480.111 279H481.389L483.891 271.566L486.357 279H487.635L490.767 269.694H489.327L487.005 277.2L484.467 269.694H483.297L480.759 277.2L478.437 269.694H476.997L480.111 279ZM498.616 268.002C499.102 268.002 499.498 267.588 499.498 267.102C499.498 266.634 499.102 266.22 498.616 266.22C498.112 266.22 497.716 266.634 497.716 267.102C497.716 267.588 498.112 268.002 498.616 268.002ZM497.932 279H499.282V269.694H497.932V279ZM506.079 277.632C505.881 277.848 505.521 278.01 505.107 278.01C504.567 278.01 504.099 277.524 504.099 276.84V270.9H506.385V269.694H504.099V267.138H502.749V269.694H501.291V270.9H502.749V276.84C502.749 278.226 503.685 279.216 505.017 279.216C505.647 279.216 506.259 279 506.745 278.622L506.079 277.632ZM509.591 279.216C510.113 279.216 510.545 278.766 510.545 278.226C510.545 277.722 510.113 277.272 509.591 277.272C509.033 277.272 508.601 277.722 508.601 278.226C508.601 278.766 509.033 279.216 509.591 279.216Z" fill="#BBBBBB"/>
<path d="M15.744 38.576C23.808 38.576 28.56 34.4 28.56 28.112C28.56 22.016 23.856 19.904 16.752 18.32C11.664 17.168 9.696 16.4 9.696 14C9.696 12.032 11.52 10.448 14.544 10.448C17.712 10.448 21.024 11.744 23.952 14.096L27.648 9.008C24.288 6.128 20.112 4.448 14.736 4.448C7.536 4.448 2.544 8.624 2.544 14.72C2.544 21.104 7.488 23.072 14.448 24.656C19.488 25.808 21.408 26.528 21.408 28.88C21.408 30.944 19.584 32.576 16.032 32.576C11.856 32.576 8.304 30.944 5.184 28.256L1.104 33.104C4.944 36.656 10.032 38.576 15.744 38.576ZM46.503 31.856C46.023 32.336 45.063 32.672 44.103 32.672C42.807 32.672 41.751 31.52 41.751 29.888V18.848H47.127V13.184H41.751V6.368H35.031V13.184H31.623V18.848H35.031V30.992C35.031 35.456 38.103 38.576 42.471 38.576C44.487 38.576 46.743 37.712 48.183 36.416L46.503 31.856ZM63.66 12.608C60.204 12.608 56.796 13.568 53.292 15.344L55.644 20C57.612 18.992 59.772 18.224 62.076 18.224C66.156 18.224 67.788 20.528 67.788 23.168V23.648C65.676 22.832 63.468 22.4 61.452 22.4C55.692 22.4 51.132 25.76 51.132 30.656C51.132 35.408 55.212 38.576 60.492 38.576C63.18 38.576 66.012 37.52 67.788 35.504V38H74.556V23.168C74.556 16.688 70.14 12.608 63.66 12.608ZM62.076 33.728C59.676 33.728 57.9 32.48 57.9 30.464C57.9 28.448 59.916 26.96 62.46 26.96C64.38 26.96 66.204 27.296 67.788 27.872V30.176C67.308 32.48 64.764 33.728 62.076 33.728ZM91.5506 12.608C88.0946 12.608 84.6866 13.568 81.1826 15.344L83.5346 20C85.5026 18.992 87.6626 18.224 89.9666 18.224C94.0466 18.224 95.6786 20.528 95.6786 23.168V23.648C93.5666 22.832 91.3586 22.4 89.3426 22.4C83.5826 22.4 79.0226 25.76 79.0226 30.656C79.0226 35.408 83.1026 38.576 88.3826 38.576C91.0706 38.576 93.9026 37.52 95.6786 35.504V38H102.447V23.168C102.447 16.688 98.0306 12.608 91.5506 12.608ZM89.9666 33.728C87.5666 33.728 85.7906 32.48 85.7906 30.464C85.7906 28.448 87.8066 26.96 90.3506 26.96C92.2706 26.96 94.0946 27.296 95.6786 27.872V30.176C95.1986 32.48 92.6546 33.728 89.9666 33.728ZM120.497 38.576C124.625 38.576 127.985 36.896 130.433 34.208L125.777 30.272C124.481 31.712 122.465 32.672 120.545 32.672C116.849 32.672 113.777 29.408 113.777 25.52C113.777 21.728 116.849 18.512 120.497 18.512C122.417 18.512 124.385 19.424 125.633 20.816L130.289 16.832C127.889 14.24 124.577 12.608 120.545 12.608C113.201 12.608 106.961 18.512 106.961 25.568C106.961 32.624 113.153 38.576 120.497 38.576ZM158.794 13.184H150.73L141.514 23.888V4.448H134.506V38H141.514V31.904L144.49 28.688L150.634 38H158.698L149.146 24.176L158.794 13.184ZM181.718 38H188.006L192.662 22.4L197.27 38H203.558L212.006 13.184H205.142L200.438 28.64L195.542 13.184H189.734L184.838 28.64L180.134 13.184H173.27L181.718 38ZM226.858 38.576C234.202 38.576 240.346 32.624 240.346 25.568C240.346 18.512 234.202 12.608 226.858 12.608C219.466 12.608 213.274 18.512 213.274 25.568C213.274 32.624 219.466 38.576 226.858 38.576ZM226.858 32.672C223.114 32.672 219.994 29.408 219.994 25.568C219.994 21.728 223.114 18.512 226.858 18.512C230.554 18.512 233.674 21.728 233.674 25.568C233.674 29.408 230.554 32.672 226.858 32.672ZM261.552 13.184V28.016L261.504 27.872C261.504 30.56 259.248 32.672 256.32 32.672C253.536 32.672 251.616 30.56 251.616 27.488V13.184H244.848V28.976C244.848 34.592 248.688 38.576 254.064 38.576C257.28 38.576 260.064 37.136 261.552 34.88V38H268.56V13.184H261.552ZM274.572 38H281.58V4.448H274.572V38ZM306.225 4.448V16.736C304.257 14.144 301.377 12.608 297.873 12.608C291.249 12.608 286.449 17.984 286.449 25.568C286.449 33.2 291.249 38.576 297.873 38.576C301.377 38.576 304.257 37.04 306.225 34.448V38H313.233V4.448H306.225ZM299.889 32.672C296.001 32.672 293.265 29.744 293.265 25.568C293.265 21.44 296.001 18.512 299.889 18.512C303.585 18.512 306.225 21.44 306.225 25.568C306.225 29.744 303.585 32.672 299.889 32.672ZM333.737 12.608C330.521 12.608 327.737 14.048 326.249 16.304V13.184H319.241V38H326.249V23.168L326.297 23.312C326.297 20.624 328.553 18.512 331.481 18.512C334.265 18.512 336.185 20.624 336.185 23.696V38H342.953V22.208C342.953 16.592 339.113 12.608 333.737 12.608ZM352.277 19.904C355.733 16.592 357.365 13.568 357.365 10.736C357.365 7.232 355.493 4.736 352.805 4.736C350.405 4.736 348.485 6.752 348.485 9.152C348.485 11.504 350.405 13.472 352.709 13.472C352.277 15.008 351.269 16.64 349.781 17.984L352.277 19.904ZM375.987 31.856C375.507 32.336 374.547 32.672 373.587 32.672C372.291 32.672 371.235 31.52 371.235 29.888V18.848H376.611V13.184H371.235V6.368H364.515V13.184H361.107V18.848H364.515V30.992C364.515 35.456 367.587 38.576 371.955 38.576C373.971 38.576 376.227 37.712 377.667 36.416L375.987 31.856ZM410.775 12.608C407.319 12.608 404.439 14.096 402.471 16.64V4.448H395.463V38H402.471V34.496C404.439 37.088 407.319 38.576 410.775 38.576C417.399 38.576 422.199 33.2 422.199 25.568C422.199 17.984 417.399 12.608 410.775 12.608ZM408.759 32.672C405.351 32.672 402.855 30.176 402.471 26.528V24.608C402.855 21.008 405.351 18.512 408.759 18.512C412.647 18.512 415.383 21.44 415.383 25.568C415.383 29.744 412.647 32.672 408.759 32.672ZM438.862 32.384C435.934 32.384 433.774 30.56 432.958 27.872H450.862C450.862 18.512 446.302 12.608 438.526 12.608C431.278 12.608 425.758 18.032 425.758 25.52C425.758 33.152 431.518 38.576 438.91 38.576C442.558 38.576 446.83 37.04 449.038 34.736L444.574 30.176C443.23 31.472 440.83 32.384 438.862 32.384ZM438.814 18.8C441.646 18.8 443.47 20.384 444.142 22.832H433.054C433.966 20.336 436.174 18.8 438.814 18.8ZM483.362 12.608C480.194 12.608 477.458 14.048 475.922 16.208V4.448H468.914V38H475.922V23.312C475.922 20.624 478.178 18.512 481.106 18.512C483.89 18.512 485.81 20.624 485.81 23.696V38H492.578V22.208C492.578 16.592 488.738 12.608 483.362 12.608ZM510.206 32.384C507.278 32.384 505.118 30.56 504.302 27.872H522.206C522.206 18.512 517.646 12.608 509.87 12.608C502.622 12.608 497.102 18.032 497.102 25.52C497.102 33.152 502.862 38.576 510.254 38.576C513.902 38.576 518.174 37.04 520.382 34.736L515.918 30.176C514.574 31.472 512.174 32.384 510.206 32.384ZM510.158 18.8C512.99 18.8 514.814 20.384 515.486 22.832H504.398C505.31 20.336 507.518 18.8 510.158 18.8ZM533.955 17.792V13.184H526.947V38H533.955V26.144C533.955 21.488 537.267 18.512 542.451 18.512V12.608C538.659 12.608 535.587 14.576 533.955 17.792ZM558.206 32.384C555.278 32.384 553.118 30.56 552.302 27.872H570.206C570.206 18.512 565.646 12.608 557.87 12.608C550.622 12.608 545.102 18.032 545.102 25.52C545.102 33.152 550.862 38.576 558.254 38.576C561.902 38.576 566.174 37.04 568.382 34.736L563.918 30.176C562.574 31.472 560.174 32.384 558.206 32.384ZM558.158 18.8C560.99 18.8 562.814 20.384 563.486 22.832H552.398C553.31 20.336 555.518 18.8 558.158 18.8ZM9.312 86H15.6L20.256 70.4L24.864 86H31.152L39.6 61.184H32.736L28.032 76.64L23.136 61.184H17.328L12.432 76.64L7.728 61.184H0.864L9.312 86ZM46.9354 57.776C48.9994 57.776 50.6794 56.048 50.6794 53.936C50.6794 51.968 48.9994 50.192 46.9354 50.192C44.7754 50.192 43.0954 51.968 43.0954 53.936C43.0954 56.048 44.7754 57.776 46.9354 57.776ZM43.3834 86H50.3914V61.184H43.3834V86ZM69.5655 79.856C69.0855 80.336 68.1255 80.672 67.1655 80.672C65.8695 80.672 64.8135 79.52 64.8135 77.888V66.848H70.1895V61.184H64.8135V54.368H58.0935V61.184H54.6855V66.848H58.0935V78.992C58.0935 83.456 61.1655 86.576 65.5335 86.576C67.5495 86.576 69.8055 85.712 71.2455 84.416L69.5655 79.856ZM89.9865 60.608C86.8185 60.608 84.0825 62.048 82.5465 64.208V52.448H75.5385V86H82.5465V71.312C82.5465 68.624 84.8025 66.512 87.7305 66.512C90.5145 66.512 92.4345 68.624 92.4345 71.696V86H99.2025V70.208C99.2025 64.592 95.3625 60.608 89.9865 60.608ZM117.311 86.576C124.655 86.576 130.799 80.624 130.799 73.568C130.799 66.512 124.655 60.608 117.311 60.608C109.919 60.608 103.727 66.512 103.727 73.568C103.727 80.624 109.919 86.576 117.311 86.576ZM117.311 80.672C113.567 80.672 110.447 77.408 110.447 73.568C110.447 69.728 113.567 66.512 117.311 66.512C121.007 66.512 124.127 69.728 124.127 73.568C124.127 77.408 121.007 80.672 117.311 80.672ZM152.005 61.184V76.016L151.957 75.872C151.957 78.56 149.701 80.672 146.773 80.672C143.989 80.672 142.069 78.56 142.069 75.488V61.184H135.301V76.976C135.301 82.592 139.141 86.576 144.517 86.576C147.733 86.576 150.517 85.136 152.005 82.88V86H159.013V61.184H152.005ZM178.081 79.856C177.601 80.336 176.641 80.672 175.681 80.672C174.385 80.672 173.329 79.52 173.329 77.888V66.848H178.705V61.184H173.329V54.368H166.609V61.184H163.201V66.848H166.609V78.992C166.609 83.456 169.681 86.576 174.049 86.576C176.065 86.576 178.321 85.712 179.761 84.416L178.081 79.856ZM210.612 79.856C210.132 80.336 209.172 80.672 208.212 80.672C206.916 80.672 205.86 79.52 205.86 77.888V66.848H211.236V61.184H205.86V54.368H199.14V61.184H195.732V66.848H199.14V78.992C199.14 83.456 202.212 86.576 206.58 86.576C208.596 86.576 210.852 85.712 212.292 84.416L210.612 79.856ZM231.033 60.608C227.865 60.608 225.129 62.048 223.593 64.208V52.448H216.585V86H223.593V71.312C223.593 68.624 225.849 66.512 228.777 66.512C231.561 66.512 233.481 68.624 233.481 71.696V86H240.249V70.208C240.249 64.592 236.409 60.608 231.033 60.608ZM257.878 80.384C254.95 80.384 252.79 78.56 251.974 75.872H269.878C269.878 66.512 265.318 60.608 257.542 60.608C250.294 60.608 244.774 66.032 244.774 73.52C244.774 81.152 250.534 86.576 257.926 86.576C261.574 86.576 265.846 85.04 268.054 82.736L263.59 78.176C262.246 79.472 259.846 80.384 257.878 80.384ZM257.83 66.8C260.662 66.8 262.486 68.384 263.158 70.832H252.07C252.982 68.336 255.19 66.8 257.83 66.8ZM302.377 60.608C299.209 60.608 296.473 62.048 294.937 64.208V52.448H287.929V86H294.937V71.312C294.937 68.624 297.193 66.512 300.121 66.512C302.905 66.512 304.825 68.624 304.825 71.696V86H311.593V70.208C311.593 64.592 307.753 60.608 302.377 60.608ZM329.222 80.384C326.294 80.384 324.134 78.56 323.318 75.872H341.222C341.222 66.512 336.662 60.608 328.886 60.608C321.638 60.608 316.118 66.032 316.118 73.52C316.118 81.152 321.878 86.576 329.27 86.576C332.918 86.576 337.19 85.04 339.398 82.736L334.934 78.176C333.59 79.472 331.19 80.384 329.222 80.384ZM329.174 66.8C332.006 66.8 333.83 68.384 334.502 70.832H323.414C324.326 68.336 326.534 66.8 329.174 66.8ZM345.963 86H352.971V52.448H345.963V86ZM374.4 60.608C370.944 60.608 368.064 62.096 366.096 64.64V61.184H359.088V94.256H366.096V82.496C368.064 85.088 370.944 86.576 374.4 86.576C381.024 86.576 385.824 81.2 385.824 73.568C385.824 65.984 381.024 60.608 374.4 60.608ZM372.384 80.672C368.976 80.672 366.48 78.176 366.096 74.528V72.608C366.48 69.008 368.976 66.512 372.384 66.512C376.272 66.512 379.008 69.44 379.008 73.568C379.008 77.744 376.272 80.672 372.384 80.672ZM416.373 86.576C423.717 86.576 429.861 80.624 429.861 73.568C429.861 66.512 423.717 60.608 416.373 60.608C408.981 60.608 402.789 66.512 402.789 73.568C402.789 80.624 408.981 86.576 416.373 86.576ZM416.373 80.672C412.629 80.672 409.509 77.408 409.509 73.568C409.509 69.728 412.629 66.512 416.373 66.512C420.069 66.512 423.189 69.728 423.189 73.568C423.189 77.408 420.069 80.672 416.373 80.672ZM442.907 59.84C442.907 58.208 443.963 57.056 445.259 57.056C446.219 57.056 447.179 57.392 447.659 57.872L449.339 53.6C447.899 52.304 445.643 51.44 443.627 51.44C439.259 51.44 436.187 54.56 436.187 59.024V61.184H432.779V66.848H436.187V86H442.907V66.848H448.283V61.184H442.907V59.84ZM478.389 86.576C485.733 86.576 491.877 80.624 491.877 73.568C491.877 66.512 485.733 60.608 478.389 60.608C470.997 60.608 464.805 66.512 464.805 73.568C464.805 80.624 470.997 86.576 478.389 86.576ZM478.389 80.672C474.645 80.672 471.525 77.408 471.525 73.568C471.525 69.728 474.645 66.512 478.389 66.512C482.085 66.512 485.205 69.728 485.205 73.568C485.205 77.408 482.085 80.672 478.389 80.672ZM513.083 61.184V76.016L513.035 75.872C513.035 78.56 510.779 80.672 507.851 80.672C505.067 80.672 503.147 78.56 503.147 75.488V61.184H496.379V76.976C496.379 82.592 500.219 86.576 505.595 86.576C508.811 86.576 511.595 85.136 513.083 82.88V86H520.091V61.184H513.083ZM533.111 65.792V61.184H526.103V86H533.111V74.144C533.111 69.488 536.423 66.512 541.607 66.512V60.608C537.815 60.608 534.743 62.576 533.111 65.792ZM18.384 108.608C14.928 108.608 12.048 110.096 10.08 112.64V109.184H3.072V142.256H10.08V130.496C12.048 133.088 14.928 134.576 18.384 134.576C25.008 134.576 29.808 129.2 29.808 121.568C29.808 113.984 25.008 108.608 18.384 108.608ZM16.368 128.672C12.96 128.672 10.464 126.176 10.08 122.528V120.608C10.464 117.008 12.96 114.512 16.368 114.512C20.256 114.512 22.992 117.44 22.992 121.568C22.992 125.744 20.256 128.672 16.368 128.672ZM45.8475 108.608C42.3915 108.608 38.9835 109.568 35.4795 111.344L37.8315 116C39.7995 114.992 41.9595 114.224 44.2635 114.224C48.3435 114.224 49.9755 116.528 49.9755 119.168V119.648C47.8635 118.832 45.6555 118.4 43.6395 118.4C37.8795 118.4 33.3195 121.76 33.3195 126.656C33.3195 131.408 37.3995 134.576 42.6795 134.576C45.3675 134.576 48.1995 133.52 49.9755 131.504V134H56.7435V119.168C56.7435 112.688 52.3275 108.608 45.8475 108.608ZM44.2635 129.728C41.8635 129.728 40.0875 128.48 40.0875 126.464C40.0875 124.448 42.1035 122.96 44.6475 122.96C46.5675 122.96 48.3915 123.296 49.9755 123.872V126.176C49.4955 128.48 46.9515 129.728 44.2635 129.728ZM69.6581 113.792V109.184H62.6501V134H69.6581V122.144C69.6581 117.488 72.9701 114.512 78.1541 114.512V108.608C74.3621 108.608 71.2901 110.576 69.6581 113.792ZM95.253 127.856C94.773 128.336 93.813 128.672 92.853 128.672C91.557 128.672 90.501 127.52 90.501 125.888V114.848H95.877V109.184H90.501V102.368H83.781V109.184H80.373V114.848H83.781V126.992C83.781 131.456 86.853 134.576 91.221 134.576C93.237 134.576 95.493 133.712 96.933 132.416L95.253 127.856ZM115.674 108.608C112.458 108.608 109.674 110.048 108.186 112.304V109.184H101.178V134H108.186V119.168L108.234 119.312C108.234 116.624 110.49 114.512 113.418 114.512C116.202 114.512 118.122 116.624 118.122 119.696V134H124.89V118.208C124.89 112.592 121.05 108.608 115.674 108.608ZM142.518 128.384C139.59 128.384 137.43 126.56 136.614 123.872H154.518C154.518 114.512 149.958 108.608 142.182 108.608C134.934 108.608 129.414 114.032 129.414 121.52C129.414 129.152 135.174 134.576 142.566 134.576C146.214 134.576 150.486 133.04 152.694 130.736L148.23 126.176C146.886 127.472 144.486 128.384 142.518 128.384ZM142.47 114.8C145.302 114.8 147.126 116.384 147.798 118.832H136.71C137.622 116.336 139.83 114.8 142.47 114.8ZM166.268 113.792V109.184H159.26V134H166.268V122.144C166.268 117.488 169.58 114.512 174.764 114.512V108.608C170.972 108.608 167.9 110.576 166.268 113.792ZM188.118 134.576C194.214 134.576 198.198 131.456 198.198 126.56C198.198 121.136 193.446 119.696 189.174 118.592C185.814 117.68 184.806 117.296 184.806 115.952C184.806 115.088 186.006 114.464 187.734 114.464C189.846 114.464 192.438 115.28 194.694 116.672L197.526 111.68C194.79 109.856 191.286 108.608 187.734 108.608C181.878 108.608 177.99 111.968 178.038 116.672C178.086 121.568 182.022 122.96 187.11 124.208C189.654 124.88 191.478 125.36 191.478 126.896C191.478 128 190.134 128.768 188.262 128.768C184.95 128.768 182.166 127.568 179.958 125.984L176.934 130.832C179.91 133.232 184.134 134.576 188.118 134.576ZM206.884 134.576C209.236 134.576 211.156 132.56 211.156 130.112C211.156 127.856 209.236 125.84 206.884 125.84C204.388 125.84 202.42 127.856 202.42 130.112C202.42 132.56 204.388 134.576 206.884 134.576Z" fill="white"/>
</svg>
